<svg width="21" height="20" viewBox="0 0 21 20" fill="#ff6932" xmlns="http://www.w3.org/2000/svg">
<path d="M0.859701 10.2456C0.859701 8.18471 0.856906 6.12385 0.8604 4.06299C0.863894 2.00633 2.2993 0.577217 4.36015 0.576518C8.50493 0.575121 12.6504 0.574422 16.7952 0.576518C18.8491 0.577217 20.281 2.01472 20.2824 4.07557C20.2845 8.22035 20.2845 12.3658 20.2824 16.5106C20.2817 18.5645 18.8449 19.9978 16.7826 19.9985C12.6378 20.0013 8.49235 20.0013 4.34757 19.9985C2.28951 19.9971 0.862496 18.5617 0.8604 16.498C0.857605 14.4134 0.859701 12.3295 0.859701 10.2456ZM10.686 3.06786C8.54965 3.1042 6.71242 3.66955 5.19246 5.04625C3.70884 6.39011 2.97227 8.05752 3.30422 10.0785C3.6159 11.9787 4.76478 13.3085 6.37559 14.2743C7.34836 14.8572 8.41548 15.1653 9.53291 15.3247C10.1297 15.4099 10.2213 15.5574 10.0808 16.1493C10.0109 16.4428 9.90609 16.7279 9.83411 17.0214C9.74606 17.3799 9.93474 17.577 10.2904 17.4722C10.5315 17.4009 10.7677 17.2821 10.9788 17.1423C11.512 16.788 12.0431 16.4295 12.5498 16.0389C13.7832 15.0878 15.0844 14.2038 16.2096 13.1359C18.4228 11.0366 18.5066 7.88141 16.4926 5.59903C14.9286 3.82609 12.8824 3.13005 10.686 3.06786Z" fill="#ff6932"/>
<path d="M10.2949 8.81616C10.2949 9.42904 10.2956 10.0419 10.2942 10.6555C10.2942 10.7715 10.3207 10.9113 10.2669 10.9972C10.2026 11.0999 10.0692 11.2076 9.95664 11.2173C9.86929 11.225 9.74979 11.1006 9.682 11.0077C9.63378 10.9413 9.63588 10.8295 9.63518 10.7373C9.63238 9.85183 9.63168 8.96711 9.63518 8.08169C9.63588 7.83919 9.67361 7.60648 9.95804 7.52891C10.2306 7.45484 10.3613 7.64003 10.4864 7.83011C10.9085 8.47234 11.3298 9.11456 11.7526 9.75539C11.8023 9.83087 11.8582 9.90145 11.9937 9.96644C11.9937 9.73163 11.9937 9.49752 11.9937 9.26272C11.9937 8.82035 11.993 8.3773 11.9951 7.93493C11.9965 7.7176 12.0594 7.52332 12.3138 7.51703C12.5738 7.51144 12.6395 7.7155 12.6409 7.92655C12.6471 8.86997 12.6555 9.8134 12.6325 10.7561C12.629 10.9092 12.4899 11.1691 12.3837 11.1852C12.2153 11.2104 11.9518 11.1258 11.8519 10.9944C11.4934 10.5227 11.1873 10.0119 10.8609 9.51639C10.7023 9.2746 10.543 9.0335 10.3843 8.7917C10.355 8.80009 10.3249 8.80778 10.2949 8.81616Z" fill="#ff6932"/>
<path d="M13.8665 8.9799C14.2585 8.9799 14.5975 8.95475 14.9294 8.99178C15.0657 9.00716 15.2767 9.13994 15.2956 9.24756C15.3361 9.47188 15.1279 9.50892 14.9392 9.50822C14.6596 9.50682 14.3787 9.49215 14.102 9.5194C14.0181 9.52779 13.8874 9.64939 13.8784 9.73045C13.8497 9.99251 13.8679 10.2595 13.8679 10.5711C14.2977 10.5711 14.689 10.5732 15.081 10.5704C15.2921 10.5691 15.515 10.5879 15.515 10.8521C15.515 11.1253 15.2816 11.1239 15.0776 11.1232C14.6002 11.1225 14.1222 11.1162 13.6449 11.1253C13.3228 11.1316 13.1711 10.9877 13.1718 10.6669C13.1739 9.78216 13.176 8.89674 13.1704 8.01202C13.1683 7.69615 13.3004 7.53192 13.6254 7.53332C14.1146 7.53612 14.6037 7.52983 15.0929 7.53612C15.2732 7.53821 15.4892 7.56966 15.4395 7.80726C15.4186 7.90999 15.225 8.03089 15.0978 8.04626C14.7994 8.0819 14.4933 8.06933 14.1907 8.05605C13.9587 8.04626 13.8399 8.11335 13.863 8.36912C13.8798 8.55152 13.8665 8.73671 13.8665 8.9799Z" fill="#ff6932"/>
<path d="M5.62502 9.32723C5.62502 8.87368 5.62293 8.41944 5.62572 7.9659C5.62712 7.71991 5.70469 7.50747 5.99261 7.51795C6.26026 7.52773 6.31896 7.73459 6.31826 7.9666C6.31687 8.73462 6.32525 9.50263 6.31407 10.2706C6.31058 10.5069 6.37417 10.6124 6.62645 10.5949C6.88152 10.5774 7.13869 10.5851 7.39447 10.5949C7.58944 10.6026 7.81237 10.6522 7.75926 10.8968C7.7348 11.01 7.53004 11.1512 7.39866 11.161C6.95909 11.1938 6.51533 11.1721 6.07297 11.1742C5.76828 11.1756 5.62432 11.0233 5.62502 10.7235C5.62572 10.2588 5.62502 9.79335 5.62502 9.32723Z" fill="#ff6932"/>
<path d="M8.95185 9.38763C8.95185 9.84187 8.95324 10.2961 8.95115 10.7504C8.94975 10.9901 8.89245 11.2158 8.60732 11.227C8.31311 11.2381 8.25022 11.0096 8.24882 10.7713C8.24463 9.83978 8.24533 8.90753 8.24812 7.97599C8.24882 7.73699 8.30892 7.51057 8.60383 7.51826C8.89175 7.52594 8.94975 7.75027 8.95045 7.98997C8.95324 8.45609 8.95185 8.92151 8.95185 9.38763Z" fill="#ff6932"/>
</svg>
