<svg width="18" height="15" viewBox="0 0 18 15" fill="#ff6932" xmlns="http://www.w3.org/2000/svg">
<path d="M2.82624 3.74349C2.84699 3.53083 2.76793 3.32018 2.61177 3.17706L1.0255 1.2278V0.936523H5.95331L9.76232 9.4552L13.1108 0.936523H17.8083V1.2278L16.4513 2.55418C16.3347 2.64489 16.2764 2.79507 16.3001 2.94222V12.6905C16.2754 12.8387 16.3337 12.9878 16.4513 13.0786L17.7767 14.4049V14.6962H11.1114V14.4049L12.4842 13.0463C12.6186 12.9092 12.6186 12.8679 12.6186 12.6583V4.7796L8.80167 14.666H8.28576L3.84224 4.7796V11.4055C3.80567 11.6836 3.89561 11.9648 4.08833 12.1664L5.87424 14.3747V14.666H0.811035V14.3747L2.59694 12.1664C2.78769 11.9648 2.87368 11.6826 2.82722 11.4055V3.74349H2.82624Z" fill="#ff6932"/>
</svg>
