<svg width="20" height="16" viewBox="0 0 20 16" fill="#ff6932" xmlns="http://www.w3.org/2000/svg">
<path d="M0.624023 14.233C2.34395 15.3209 4.35053 15.9252 6.52091 15.9252C13.6463 15.9252 17.6595 10.0023 17.4547 4.6837C18.1918 4.1599 18.847 3.47494 19.3794 2.70938C18.6832 2.99143 17.9461 3.23318 17.1681 3.31377C17.9461 2.83026 18.5604 2.105 18.847 1.21857C18.1099 1.66178 17.2909 1.98412 16.39 2.14529C15.6938 1.42003 14.711 0.936523 13.6054 0.936523C11.1074 0.936523 9.30555 3.19289 9.87886 5.57013C6.64376 5.44926 3.81817 3.95844 1.93444 1.66178C0.910678 3.35406 1.40209 5.57013 3.12201 6.69832C2.50775 6.69832 1.89349 6.49686 1.40209 6.21481C1.36113 7.94738 2.6306 9.59936 4.47338 9.96199C3.94102 10.1232 3.32676 10.1232 2.75345 10.0426C3.24486 11.5334 4.67813 12.6213 6.35711 12.6616C4.67813 13.9106 2.67155 14.4747 0.624023 14.233Z" fill="#ff6932"/>
</svg>
