<svg width="258" height="356" viewBox="0 0 258 356" fill="none" xmlns="http://www.w3.org/2000/svg">
<g clip-path="url(#clip0)">
<path d="M45.2226 326.838L84.8462 342.427C120.35 350.831 173.572 296.494 208.665 210.13C243.834 123.701 241.784 46.846 210.373 31.4256L174.329 14.651" stroke="#354158" stroke-width="2" stroke-miterlimit="10"/>
<path d="M174.328 14.6501C209.127 28.5195 208.892 109.822 173.728 196.181C138.63 282.614 81.9749 341.466 47.1046 327.592C12.3056 313.723 12.5405 232.421 47.7096 145.991C82.8075 59.5579 139.529 0.780599 174.328 14.6501Z" stroke="#354158" stroke-width="2" stroke-miterlimit="10"/>
<path d="M157.158 39.5581C181.147 49.1372 177.058 114.581 148.072 185.86C119.086 257.14 76.2187 307.189 52.2256 297.681C28.3082 288.106 32.326 222.658 61.3122 151.378C90.2983 80.0992 133.236 30.0539 157.158 39.5581Z" stroke="#354158" stroke-width="2" stroke-miterlimit="10"/>
<path d="M67.3738 153.883C95.2596 85.2894 135.972 36.5156 160.398 41.4597C159.37 40.7585 158.342 40.0573 157.158 39.5581C133.236 30.0539 90.2983 80.0992 61.3166 151.308C32.3305 222.587 28.3082 288.106 52.2301 297.61C53.138 297.951 54.1305 298.084 55.0474 298.284C34.8482 284.212 39.822 221.721 67.3738 153.883Z" stroke="#354158" stroke-width="2" stroke-miterlimit="10"/>
<path d="M140.345 151.163L144.531 137.319C124.193 145.509 129.428 116.159 129.428 116.159C129.428 116.159 112.574 138.427 106.119 114.102L99.1711 126.277C99.1711 126.277 98.5475 134.058 96.9939 137.697C95.4402 141.335 93.6482 144.889 92.0747 148.515C88.9875 155.629 86.1585 162.898 83.7667 170.197C80.9562 178.828 78.8015 187.503 77.8397 195.666C76.7979 204.368 78.1034 210.791 79.3691 217.249C79.5865 218.436 79.8239 219.578 80.1409 220.649C81.2103 224.465 81.684 227.92 81.684 227.92C81.684 227.92 84.1892 226.676 87.4897 225.091C89.9751 223.894 92.1024 222.949 94.4488 221.609C97.3718 219.913 100.315 218.229 103.318 215.232C106.223 212.351 109.048 208.718 111.755 204.779C113.148 202.745 114.521 200.582 115.835 198.383C119.736 191.879 123.321 184.772 126.587 177.532C128.797 172.589 130.869 167.561 132.841 162.474C133.18 161.622 133.499 160.758 133.838 159.965C135.411 156.338 140.345 151.163 140.345 151.163Z" stroke="#354158" stroke-width="2" stroke-miterlimit="10"/>
<path d="M150.909 144.83L156.367 126.785C129.855 137.46 136.679 99.2031 136.679 99.2031C136.679 99.2031 114.71 128.23 106.295 96.5216L97.239 112.392C97.239 112.392 96.4261 122.534 94.401 127.277C92.3758 132.02 90.0399 136.652 87.9888 141.38C83.9646 150.652 80.2769 160.128 77.1591 169.642C73.4957 180.892 70.687 192.2 69.4333 202.841C68.0753 214.184 69.777 222.556 71.4268 230.974C71.7103 232.522 72.0197 234.01 72.4329 235.407C73.8269 240.381 74.4443 244.885 74.4443 244.885C74.4443 244.885 77.7099 243.263 82.0122 241.197C85.2519 239.636 88.0249 238.405 91.0834 236.658C94.8936 234.447 98.7297 232.252 102.645 228.346C106.431 224.59 110.114 219.855 113.642 214.719C115.458 212.068 117.248 209.249 118.961 206.382C124.046 197.904 128.718 188.641 132.976 179.203C135.857 172.759 138.558 166.206 141.129 159.574C141.57 158.464 141.986 157.338 142.427 156.304C144.478 151.577 150.909 144.83 150.909 144.83Z" stroke="#354158" stroke-width="2" stroke-miterlimit="10"/>
</g>
<defs>
<clipPath id="clip0">
<rect width="236.266" height="341.677" fill="white" transform="translate(21.6782) rotate(3.63765)"/>
</clipPath>
</defs>
</svg>
