<svg width="18" height="18" viewBox="0 0 18 18" fill="none" xmlns="http://www.w3.org/2000/svg">
<path d="M6.52686 5.66658C7.11366 5.66658 7.58936 5.19922 7.58936 4.62272C7.58936 4.04621 7.11366 3.57886 6.52686 3.57886C5.94005 3.57886 5.46436 4.04621 5.46436 4.62272C5.46436 5.19922 5.94005 5.66658 6.52686 5.66658Z" fill="#B2A3F6"/>
<path d="M9.5625 4.47371C10.1493 4.47371 10.625 4.00635 10.625 3.42985C10.625 2.85334 10.1493 2.38599 9.5625 2.38599C8.9757 2.38599 8.5 2.85334 8.5 3.42985C8.5 4.00635 8.9757 4.47371 9.5625 4.47371Z" fill="#B2A3F6"/>
<path d="M10.7769 11.6317C11.3637 11.6317 11.8394 11.1643 11.8394 10.5878C11.8394 10.0113 11.3637 9.54395 10.7769 9.54395C10.1901 9.54395 9.71436 10.0113 9.71436 10.5878C9.71436 11.1643 10.1901 11.6317 10.7769 11.6317Z" fill="#B2A3F6"/>
<path d="M0.607143 10.1402C0.942459 10.1402 1.21429 9.87319 1.21429 9.54376C1.21429 9.21432 0.942459 8.94727 0.607143 8.94727C0.271827 8.94727 0 9.21432 0 9.54376C0 9.87319 0.271827 10.1402 0.607143 10.1402Z" fill="#B2A3F6"/>
<path d="M2.27665 14.0175C2.52813 14.0175 2.732 13.8172 2.732 13.5702C2.732 13.3231 2.52813 13.1228 2.27665 13.1228C2.02516 13.1228 1.82129 13.3231 1.82129 13.5702C1.82129 13.8172 2.02516 14.0175 2.27665 14.0175Z" fill="#B2A3F6"/>
<path d="M7.13407 17C7.38555 17 7.58943 16.7997 7.58943 16.5526C7.58943 16.3055 7.38555 16.1052 7.13407 16.1052C6.88258 16.1052 6.67871 16.3055 6.67871 16.5526C6.67871 16.7997 6.88258 17 7.13407 17Z" fill="#B2A3F6"/>
<path d="M15.0266 14.3159C15.2781 14.3159 15.482 14.1156 15.482 13.8685C15.482 13.6214 15.2781 13.4211 15.0266 13.4211C14.7752 13.4211 14.5713 13.6214 14.5713 13.8685C14.5713 14.1156 14.7752 14.3159 15.0266 14.3159Z" fill="#B2A3F6"/>
<path d="M10.1697 13.4211C10.4212 13.4211 10.6251 13.2208 10.6251 12.9737C10.6251 12.7267 10.4212 12.5264 10.1697 12.5264C9.91823 12.5264 9.71436 12.7267 9.71436 12.9737C9.71436 13.2208 9.91823 13.4211 10.1697 13.4211Z" fill="#B2A3F6"/>
<path d="M12.9016 11.3332C13.1531 11.3332 13.357 11.1329 13.357 10.8858C13.357 10.6388 13.1531 10.4385 12.9016 10.4385C12.6502 10.4385 12.4463 10.6388 12.4463 10.8858C12.4463 11.1329 12.6502 11.3332 12.9016 11.3332Z" fill="#B2A3F6"/>
<path d="M9.71408 17.0001C10.0494 17.0001 10.3212 16.7331 10.3212 16.4036C10.3212 16.0742 10.0494 15.8071 9.71408 15.8071C9.37876 15.8071 9.10693 16.0742 9.10693 16.4036C9.10693 16.7331 9.37876 17.0001 9.71408 17.0001Z" fill="#B2A3F6"/>
<path d="M12.4465 9.54381C12.7818 9.54381 13.0536 9.27675 13.0536 8.94732C13.0536 8.61789 12.7818 8.35083 12.4465 8.35083C12.1112 8.35083 11.8394 8.61789 11.8394 8.94732C11.8394 9.27675 12.1112 9.54381 12.4465 9.54381Z" fill="#B2A3F6"/>
<path d="M13.3571 15.5087C13.6925 15.5087 13.9643 15.2416 13.9643 14.9122C13.9643 14.5827 13.6925 14.3157 13.3571 14.3157C13.0218 14.3157 12.75 14.5827 12.75 14.9122C12.75 15.2416 13.0218 15.5087 13.3571 15.5087Z" fill="#B2A3F6"/>
<path d="M1.36586 12.5264C1.78501 12.5264 2.12479 12.1926 2.12479 11.7808C2.12479 11.369 1.78501 11.0352 1.36586 11.0352C0.946718 11.0352 0.606934 11.369 0.606934 11.7808C0.606934 12.1926 0.946718 12.5264 1.36586 12.5264Z" fill="#B2A3F6"/>
<path d="M8.65186 15.5089C9.23866 15.5089 9.71436 15.0415 9.71436 14.465C9.71436 13.8885 9.23866 13.4211 8.65186 13.4211C8.06505 13.4211 7.58936 13.8885 7.58936 14.465C7.58936 15.0415 8.06505 15.5089 8.65186 15.5089Z" fill="#B2A3F6"/>
<path d="M2.88379 10.4385C3.47059 10.4385 3.94629 9.9712 3.94629 9.39469C3.94629 8.81818 3.47059 8.35083 2.88379 8.35083C2.29699 8.35083 1.82129 8.81818 1.82129 9.39469C1.82129 9.9712 2.29699 10.4385 2.88379 10.4385Z" fill="#B2A3F6"/>
<path d="M8.652 12.8245C9.07114 12.8245 9.41092 12.4907 9.41092 12.0789C9.41092 11.6671 9.07114 11.3333 8.652 11.3333C8.23285 11.3333 7.89307 11.6671 7.89307 12.0789C7.89307 12.4907 8.23285 12.8245 8.652 12.8245Z" fill="#B2A3F6"/>
<path d="M5.00907 6.26315C5.26055 6.26315 5.46443 6.06285 5.46443 5.81578C5.46443 5.5687 5.26055 5.36841 5.00907 5.36841C4.75758 5.36841 4.55371 5.5687 4.55371 5.81578C4.55371 6.06285 4.75758 6.26315 5.00907 6.26315Z" fill="#B2A3F6"/>
<path d="M7.89265 8.05266C8.39562 8.05266 8.80336 7.65207 8.80336 7.15792C8.80336 6.66377 8.39562 6.26318 7.89265 6.26318C7.38967 6.26318 6.98193 6.66377 6.98193 7.15792C6.98193 7.65207 7.38967 8.05266 7.89265 8.05266Z" fill="#B2A3F6"/>
<path d="M10.0178 8.94738C10.3531 8.94738 10.6249 8.68032 10.6249 8.35089C10.6249 8.02145 10.3531 7.75439 10.0178 7.75439C9.68247 7.75439 9.41064 8.02145 9.41064 8.35089C9.41064 8.68032 9.68247 8.94738 10.0178 8.94738Z" fill="#B2A3F6"/>
<path d="M11.0804 1.49117C11.3318 1.49117 11.5357 1.29088 11.5357 1.0438C11.5357 0.796729 11.3318 0.596436 11.0804 0.596436C10.8289 0.596436 10.625 0.796729 10.625 1.0438C10.625 1.29088 10.8289 1.49117 11.0804 1.49117Z" fill="#B2A3F6"/>
<path d="M8.95522 1.49123C9.37436 1.49123 9.71415 1.15741 9.71415 0.745614C9.71415 0.333823 9.37436 0 8.95522 0C8.53607 0 8.19629 0.333823 8.19629 0.745614C8.19629 1.15741 8.53607 1.49123 8.95522 1.49123Z" fill="#B2A3F6"/>
<path d="M9.41085 6.26305C9.74617 6.26305 10.018 5.99599 10.018 5.66656C10.018 5.33713 9.74617 5.07007 9.41085 5.07007C9.07554 5.07007 8.80371 5.33713 8.80371 5.66656C8.80371 5.99599 9.07554 6.26305 9.41085 6.26305Z" fill="#B2A3F6"/>
<path d="M3.64265 12.8246C4.14562 12.8246 4.55336 12.424 4.55336 11.9299C4.55336 11.4357 4.14562 11.0352 3.64265 11.0352C3.13967 11.0352 2.73193 11.4357 2.73193 11.9299C2.73193 12.424 3.13967 12.8246 3.64265 12.8246Z" fill="#B2A3F6"/>
<path d="M12.4464 13.7194C12.9493 13.7194 13.3571 13.3188 13.3571 12.8247C13.3571 12.3305 12.9493 11.9299 12.4464 11.9299C11.9434 11.9299 11.5356 12.3305 11.5356 12.8247C11.5356 13.3188 11.9434 13.7194 12.4464 13.7194Z" fill="#B2A3F6"/>
<path d="M11.232 15.8071C11.735 15.8071 12.1427 15.4065 12.1427 14.9123C12.1427 14.4182 11.735 14.0176 11.232 14.0176C10.729 14.0176 10.3213 14.4182 10.3213 14.9123C10.3213 15.4065 10.729 15.8071 11.232 15.8071Z" fill="#B2A3F6"/>
<path d="M4.09814 15.807C4.68495 15.807 5.16064 15.3396 5.16064 14.7631C5.16064 14.1866 4.68495 13.7192 4.09814 13.7192C3.51134 13.7192 3.03564 14.1866 3.03564 14.7631C3.03564 15.3396 3.51134 15.807 4.09814 15.807Z" fill="#B2A3F6"/>
<path d="M0.910714 8.05266C1.41369 8.05266 1.82143 7.65207 1.82143 7.15792C1.82143 6.66377 1.41369 6.26318 0.910714 6.26318C0.407741 6.26318 0 6.66377 0 7.15792C0 7.65207 0.407741 8.05266 0.910714 8.05266Z" fill="#B2A3F6"/>
<path d="M5.46429 9.54392C6.13492 9.54392 6.67857 9.00981 6.67857 8.35094C6.67857 7.69208 6.13492 7.15796 5.46429 7.15796C4.79365 7.15796 4.25 7.69208 4.25 8.35094C4.25 9.00981 4.79365 9.54392 5.46429 9.54392Z" fill="#FC4C04"/>
<path d="M11.8393 7.75437C12.5099 7.75437 13.0536 7.22026 13.0536 6.56139C13.0536 5.90252 12.5099 5.36841 11.8393 5.36841C11.1687 5.36841 10.625 5.90252 10.625 6.56139C10.625 7.22026 11.1687 7.75437 11.8393 7.75437Z" fill="#FC4C04"/>
<path d="M15.1788 12.8246C15.6818 12.8246 16.0895 12.424 16.0895 11.9299C16.0895 11.4357 15.6818 11.0352 15.1788 11.0352C14.6758 11.0352 14.2681 11.4357 14.2681 11.9299C14.2681 12.424 14.6758 12.8246 15.1788 12.8246Z" fill="#FC4C04"/>
<path d="M16.0894 9.24577C16.5924 9.24577 17.0001 8.84519 17.0001 8.35104C17.0001 7.85689 16.5924 7.4563 16.0894 7.4563C15.5865 7.4563 15.1787 7.85689 15.1787 8.35104C15.1787 8.84519 15.5865 9.24577 16.0894 9.24577Z" fill="#FC4C04"/>
<path d="M12.5983 5.07033C13.0174 5.07033 13.3572 4.73651 13.3572 4.32472C13.3572 3.91292 13.0174 3.5791 12.5983 3.5791C12.1791 3.5791 11.8394 3.91292 11.8394 4.32472C11.8394 4.73651 12.1791 5.07033 12.5983 5.07033Z" fill="#FC4C04"/>
<path d="M12.7502 2.68419C13.0855 2.68419 13.3574 2.41714 13.3574 2.0877C13.3574 1.75827 13.0855 1.49121 12.7502 1.49121C12.4149 1.49121 12.1431 1.75827 12.1431 2.0877C12.1431 2.41714 12.4149 2.68419 12.7502 2.68419Z" fill="#FC4C04"/>
<path d="M14.116 3.28072C14.3675 3.28072 14.5714 3.08043 14.5714 2.83335C14.5714 2.58628 14.3675 2.38599 14.116 2.38599C13.8645 2.38599 13.6606 2.58628 13.6606 2.83335C13.6606 3.08043 13.8645 3.28072 14.116 3.28072Z" fill="#FC4C04"/>
<path d="M16.5447 6.85958C16.7962 6.85958 17.0001 6.65929 17.0001 6.41221C17.0001 6.16514 16.7962 5.96484 16.5447 5.96484C16.2932 5.96484 16.0894 6.16514 16.0894 6.41221C16.0894 6.65929 16.2932 6.85958 16.5447 6.85958Z" fill="#FC4C04"/>
<path d="M3.491 2.98238C3.74249 2.98238 3.94636 2.78209 3.94636 2.53501C3.94636 2.28794 3.74249 2.08765 3.491 2.08765C3.23951 2.08765 3.03564 2.28794 3.03564 2.53501C3.03564 2.78209 3.23951 2.98238 3.491 2.98238Z" fill="#FC4C04"/>
<path d="M2.88407 6.85958C3.13555 6.85958 3.33943 6.65929 3.33943 6.41221C3.33943 6.16514 3.13555 5.96484 2.88407 5.96484C2.63258 5.96484 2.42871 6.16514 2.42871 6.41221C2.42871 6.65929 2.63258 6.85958 2.88407 6.85958Z" fill="#FC4C04"/>
<path d="M4.09842 7.45626C4.34991 7.45626 4.55378 7.25597 4.55378 7.00889C4.55378 6.76182 4.34991 6.56152 4.09842 6.56152C3.84694 6.56152 3.64307 6.76182 3.64307 7.00889C3.64307 7.25597 3.84694 7.45626 4.09842 7.45626Z" fill="#FC4C04"/>
<path d="M5.616 1.78951C5.86749 1.78951 6.07136 1.58922 6.07136 1.34214C6.07136 1.09507 5.86749 0.894775 5.616 0.894775C5.36451 0.894775 5.16064 1.09507 5.16064 1.34214C5.16064 1.58922 5.36451 1.78951 5.616 1.78951Z" fill="#FC4C04"/>
<path d="M16.5447 10.7368C16.7962 10.7368 17.0001 10.5365 17.0001 10.2894C17.0001 10.0423 16.7962 9.84204 16.5447 9.84204C16.2932 9.84204 16.0894 10.0423 16.0894 10.2894C16.0894 10.5365 16.2932 10.7368 16.5447 10.7368Z" fill="#FC4C04"/>
<path d="M15.0269 5.96492C15.6137 5.96492 16.0894 5.49756 16.0894 4.92106C16.0894 4.34455 15.6137 3.8772 15.0269 3.8772C14.4401 3.8772 13.9644 4.34455 13.9644 4.92106C13.9644 5.49756 14.4401 5.96492 15.0269 5.96492Z" fill="#FC4C04"/>
<path d="M14.1164 8.35085C14.5355 8.35085 14.8753 8.01702 14.8753 7.60523C14.8753 7.19344 14.5355 6.85962 14.1164 6.85962C13.6972 6.85962 13.3574 7.19344 13.3574 7.60523C13.3574 8.01702 13.6972 8.35085 14.1164 8.35085Z" fill="#FC4C04"/>
<path d="M3.79457 5.07033C4.21372 5.07033 4.5535 4.73651 4.5535 4.32472C4.5535 3.91292 4.21372 3.5791 3.79457 3.5791C3.37543 3.5791 3.03564 3.91292 3.03564 4.32472C3.03564 4.73651 3.37543 5.07033 3.79457 5.07033Z" fill="#FC4C04"/>
<path d="M7.13393 2.98244C7.55307 2.98244 7.89286 2.64862 7.89286 2.23682C7.89286 1.82503 7.55307 1.49121 7.13393 1.49121C6.71478 1.49121 6.375 1.82503 6.375 2.23682C6.375 2.64862 6.71478 2.98244 7.13393 2.98244Z" fill="#FC4C04"/>
<path d="M5.16085 3.28063C5.49617 3.28063 5.768 3.01357 5.768 2.68414C5.768 2.3547 5.49617 2.08765 5.16085 2.08765C4.82554 2.08765 4.55371 2.3547 4.55371 2.68414C4.55371 3.01357 4.82554 3.28063 5.16085 3.28063Z" fill="#FC4C04"/>
<path d="M1.8215 5.66662C2.15681 5.66662 2.42864 5.39956 2.42864 5.07012C2.42864 4.74069 2.15681 4.47363 1.8215 4.47363C1.48618 4.47363 1.21436 4.74069 1.21436 5.07012C1.21436 5.39956 1.48618 5.66662 1.8215 5.66662Z" fill="#FC4C04"/>
<path d="M14.5715 10.4386C14.9068 10.4386 15.1786 10.1715 15.1786 9.8421C15.1786 9.51266 14.9068 9.24561 14.5715 9.24561C14.2362 9.24561 13.9644 9.51266 13.9644 9.8421C13.9644 10.1715 14.2362 10.4386 14.5715 10.4386Z" fill="#FC4C04"/>
<path d="M8.04492 10.7369C8.63172 10.7369 9.10742 10.2695 9.10742 9.69303C9.10742 9.11652 8.63172 8.64917 8.04492 8.64917C7.45812 8.64917 6.98242 9.11652 6.98242 9.69303C6.98242 10.2695 7.45812 10.7369 8.04492 10.7369Z" fill="#FC4C04"/>
<path d="M6.0715 11.3334C6.40681 11.3334 6.67864 11.0663 6.67864 10.7369C6.67864 10.4074 6.40681 10.1404 6.0715 10.1404C5.73618 10.1404 5.46436 10.4074 5.46436 10.7369C5.46436 11.0663 5.73618 11.3334 6.0715 11.3334Z" fill="#FC4C04"/>
<path d="M6.37507 13.7194C6.87804 13.7194 7.28578 13.3188 7.28578 12.8247C7.28578 12.3305 6.87804 11.9299 6.37507 11.9299C5.8721 11.9299 5.46436 12.3305 5.46436 12.8247C5.46436 13.3188 5.8721 13.7194 6.37507 13.7194Z" fill="#FC4C04"/>
<path d="M6.37521 15.5089C6.71053 15.5089 6.98235 15.2418 6.98235 14.9124C6.98235 14.583 6.71053 14.3159 6.37521 14.3159C6.03989 14.3159 5.76807 14.583 5.76807 14.9124C5.76807 15.2418 6.03989 15.5089 6.37521 15.5089Z" fill="#FC4C04"/>
</svg>
