<svg width="18" height="20" viewBox="0 0 18 20" fill="none" xmlns="http://www.w3.org/2000/svg">
<g id="icobox">
<rect width="16.2921" height="18.9685" fill="black" fill-opacity="0" transform="translate(0.860352 0.455811)"/>
<path id="Path-Copy-2" fill-rule="evenodd" clip-rule="evenodd" d="M16.6289 4.81046L9.54559 0.604034C9.21283 0.406403 8.79999 0.406403 8.46729 0.604034L1.38391 4.81046C1.05969 5.00296 0.860596 5.35416 0.860596 5.73367V14.1465C0.860596 14.526 1.05969 14.8771 1.38391 15.0697L8.46729 19.2762C8.79999 19.4738 9.21283 19.4738 9.54559 19.2762L16.6289 15.0697C16.9532 14.8771 17.1523 14.526 17.1523 14.1465V5.73367C17.1523 5.35416 16.9532 5.00296 16.6289 4.81046ZM2.9856 13.534V6.3461L9.00641 2.77066L15.0273 6.3461V13.534L9.00641 17.1095L2.9856 13.534Z" fill="#50E3C2"/>
<path id="Path-24-Copy" d="M2.4279 5.4824C1.91157 5.20123 1.26698 5.39539 0.988157 5.91606C0.709338 6.43673 0.90188 7.08674 1.41821 7.36791L8.50154 11.225C8.81661 11.3966 9.19617 11.3966 9.51124 11.225L16.5946 7.36791C17.1109 7.08674 17.3034 6.43673 17.0246 5.91606C16.7458 5.39539 16.1012 5.20123 15.5849 5.4824L9.00639 9.06463L2.4279 5.4824Z" fill="#50E3C2"/>
</g>
</svg>
