<?xml version="1.0" encoding="UTF-8"?>
<svg width="17px" height="17px" viewBox="0 0 17 17" version="1.1" xmlns="http://www.w3.org/2000/svg" xmlns:xlink="http://www.w3.org/1999/xlink">
    <!-- Generator: Sketch 48.2 (47327) - http://www.bohemiancoding.com/sketch -->
    <title>Group</title>
    <desc>Created with Sketch.</desc>
    <defs></defs>
    <g id="Platinum-Listing-eng11-Copy" stroke="none" stroke-width="1" fill="none" fill-rule="evenodd" transform="translate(-1027.000000, -2212.000000)">
        <g id="Group" transform="translate(1027.000000, 2212.000000)" fill-rule="nonzero">
            <ellipse id="Oval" fill="#B2A3F6" cx="6.52678571" cy="4.62280702" rx="1.0625" ry="1.04385965"></ellipse>
            <ellipse id="Oval" fill="#B2A3F6" cx="9.5625" cy="3.42982456" rx="1.0625" ry="1.04385965"></ellipse>
            <ellipse id="Oval" fill="#B2A3F6" cx="10.7767857" cy="10.5877193" rx="1.0625" ry="1.04385965"></ellipse>
            <ellipse id="Oval" fill="#B2A3F6" cx="0.607142857" cy="9.54385965" rx="1" ry="1"></ellipse>
            <ellipse id="Oval" fill="#B2A3F6" cx="2.27678571" cy="13.5701754" rx="1" ry="1"></ellipse>
            <ellipse id="Oval" fill="#B2A3F6" cx="7.13392857" cy="16.5526316" rx="1" ry="1"></ellipse>
            <ellipse id="Oval" fill="#B2A3F6" cx="15.0267857" cy="13.8684211" rx="1" ry="1"></ellipse>
            <ellipse id="Oval" fill="#B2A3F6" cx="10.1696429" cy="12.9736842" rx="1" ry="1"></ellipse>
            <ellipse id="Oval" fill="#B2A3F6" cx="12.9017857" cy="10.8859649" rx="1" ry="1"></ellipse>
            <ellipse id="Oval" fill="#B2A3F6" cx="9.71428571" cy="16.4035088" rx="1" ry="1"></ellipse>
            <ellipse id="Oval" fill="#B2A3F6" cx="12.4464286" cy="8.94736842" rx="1" ry="1"></ellipse>
            <ellipse id="Oval" fill="#B2A3F6" cx="13.3571429" cy="14.9122807" rx="1" ry="1"></ellipse>
            <ellipse id="Oval" fill="#B2A3F6" cx="1.36607143" cy="11.7807018" rx="1" ry="1"></ellipse>
            <ellipse id="Oval" fill="#B2A3F6" cx="8.65178571" cy="14.4649123" rx="1.0625" ry="1.04385965"></ellipse>
            <ellipse id="Oval" fill="#B2A3F6" cx="2.88392857" cy="9.39473684" rx="1.0625" ry="1.04385965"></ellipse>
            <ellipse id="Oval" fill="#B2A3F6" cx="8.65178571" cy="12.0789474" rx="1" ry="1"></ellipse>
            <ellipse id="Oval" fill="#B2A3F6" cx="5.00892857" cy="5.81578947" rx="1" ry="1"></ellipse>
            <ellipse id="Oval" fill="#B2A3F6" cx="7.89285714" cy="7.15789474" rx="1" ry="1"></ellipse>
            <ellipse id="Oval" fill="#B2A3F6" cx="10.0178571" cy="8.35087719" rx="1" ry="1"></ellipse>
            <ellipse id="Oval" fill="#B2A3F6" cx="11.0803571" cy="1.04385965" rx="1" ry="1"></ellipse>
            <ellipse id="Oval" fill="#B2A3F6" cx="8.95535714" cy="0.745614035" rx="1" ry="1"></ellipse>
            <ellipse id="Oval" fill="#B2A3F6" cx="9.41071429" cy="5.66666667" rx="1" ry="1"></ellipse>
            <ellipse id="Oval" fill="#B2A3F6" cx="3.64285714" cy="11.9298246" rx="1" ry="1"></ellipse>
            <ellipse id="Oval" fill="#B2A3F6" cx="12.4464286" cy="12.8245614" rx="1" ry="1"></ellipse>
            <ellipse id="Oval" fill="#B2A3F6" cx="11.2321429" cy="14.9122807" rx="1" ry="1"></ellipse>
            <ellipse id="Oval" fill="#B2A3F6" cx="4.09821429" cy="14.7631579" rx="1.0625" ry="1.04385965"></ellipse>
            <ellipse id="Oval" fill="#B2A3F6" cx="0.910714286" cy="7.15789474" rx="1" ry="1"></ellipse>
            <g transform="translate(1.214286, 0.894737)" fill="#FC4C04" id="Oval">
                <ellipse cx="4.25" cy="7.45614035" rx="1.21428571" ry="1.19298246"></ellipse>
                <ellipse cx="10.625" cy="5.66666667" rx="1.21428571" ry="1.19298246"></ellipse>
                <ellipse cx="13.9642857" cy="11.0350877" rx="1" ry="1"></ellipse>
                <ellipse cx="14.875" cy="7.45614035" rx="1" ry="1"></ellipse>
                <ellipse cx="11.3839286" cy="3.42982456" rx="1" ry="1"></ellipse>
                <ellipse cx="11.5357143" cy="1.19298246" rx="1" ry="1"></ellipse>
                <ellipse cx="12.9017857" cy="1.93859649" rx="1" ry="1"></ellipse>
                <ellipse cx="15.3303571" cy="5.51754386" rx="1" ry="1"></ellipse>
                <ellipse cx="2.27678571" cy="1.64035088" rx="1" ry="1"></ellipse>
                <ellipse cx="1.66964286" cy="5.51754386" rx="1" ry="1"></ellipse>
                <ellipse cx="2.88392857" cy="6.11403509" rx="1" ry="1"></ellipse>
                <ellipse cx="4.40178571" cy="0.447368421" rx="1" ry="1"></ellipse>
                <ellipse cx="15.3303571" cy="9.39473684" rx="1" ry="1"></ellipse>
                <ellipse cx="13.8125" cy="4.02631579" rx="1.0625" ry="1.04385965"></ellipse>
                <ellipse cx="12.9017857" cy="6.71052632" rx="1" ry="1"></ellipse>
                <ellipse cx="2.58035714" cy="3.42982456" rx="1" ry="1"></ellipse>
                <ellipse cx="5.91964286" cy="1.34210526" rx="1" ry="1"></ellipse>
                <ellipse cx="3.94642857" cy="1.78947368" rx="1" ry="1"></ellipse>
                <ellipse cx="0.607142857" cy="4.1754386" rx="1" ry="1"></ellipse>
                <ellipse cx="13.3571429" cy="8.94736842" rx="1" ry="1"></ellipse>
                <ellipse cx="6.83035714" cy="8.79824561" rx="1.0625" ry="1.04385965"></ellipse>
                <ellipse cx="4.85714286" cy="9.84210526" rx="1" ry="1"></ellipse>
                <ellipse cx="5.16071429" cy="11.9298246" rx="1" ry="1"></ellipse>
                <ellipse cx="5.16071429" cy="14.0175439" rx="1" ry="1"></ellipse>
            </g>
        </g>
    </g>
</svg>