<?xml version="1.0" encoding="UTF-8"?>
<svg width="17px" height="17px" viewBox="0 0 17 17" version="1.1" xmlns="http://www.w3.org/2000/svg" xmlns:xlink="http://www.w3.org/1999/xlink">
    <!-- Generator: Sketch 48.2 (47327) - http://www.bohemiancoding.com/sketch -->
    <title>logo_lamden</title>
    <desc>Created with Sketch.</desc>
    <defs></defs>
    <g id="Platinum-Listing" stroke="none" stroke-width="1" fill="none" fill-rule="evenodd" transform="translate(-1025.000000, -1775.000000)">
        <g id="logo_lamden" transform="translate(1025.000000, 1775.000000)" fill="#843470" fill-rule="nonzero">
            <polygon id="Shape" points="1.8030303 6.51666667 0.0257575758 8.30681818 3.59318182 8.30681818"></polygon>
            <polygon id="Shape" points="3.59318182 8.68030303 0.0257575758 8.68030303 1.8030303 10.4575758"></polygon>
            <polygon id="Shape" points="6.01439394 6.25909091 4.22424242 4.46893939 4.22424242 8.03636364"></polygon>
            <polygon id="Shape" points="3.85075758 8.03636364 3.85075758 4.46893939 2.07348485 6.25909091"></polygon>
            <polygon id="Shape" points="6.2719697 5.98863636 8.06212121 4.21136364 4.49469697 4.21136364"></polygon>
            <polygon id="Shape" points="6.2719697 2.04772727 4.49469697 3.83787879 8.06212121 3.83787879"></polygon>
            <polygon id="Shape" points="10.4833333 1.79015152 8.69318182 0 8.69318182 3.56742424"></polygon>
            <polygon id="Shape" points="8.31969697 3.56742424 8.31969697 0 6.54242424 1.79015152"></polygon>
            <polygon id="Shape" points="6.01439394 10.7280303 4.22424242 8.93787879 4.22424242 12.505303"></polygon>
            <polygon id="Shape" points="2.07348485 10.7280303 3.85075758 12.505303 3.85075758 8.93787879"></polygon>
            <polygon id="Shape" points="10.7409091 5.98863636 12.5310606 4.21136364 8.96363636 4.21136364"></polygon>
            <polygon id="Shape" points="8.96363636 3.83787879 12.5310606 3.83787879 10.7409091 2.04772727"></polygon>
            <polygon id="Shape" points="8.06212121 13.1492424 4.49469697 13.1492424 6.2719697 14.9265152"></polygon>
            <polygon id="Shape" points="6.2719697 10.9856061 4.49469697 12.7757576 8.06212121 12.7757576"></polygon>
            <polygon id="Shape" points="14.9522727 6.25909091 13.1621212 4.46893939 13.1621212 8.03636364"></polygon>
            <polygon id="Shape" points="11.0113636 6.25909091 12.7886364 8.03636364 12.7886364 4.46893939"></polygon>
            <polygon id="Shape" points="6.54242424 15.1969697 8.31969697 16.9742424 8.31969697 13.4068182"></polygon>
            <polygon id="Shape" points="8.69318182 13.4068182 8.69318182 16.9742424 10.4833333 15.1969697"></polygon>
            <polygon id="Shape" points="10.7409091 14.9265152 12.5310606 13.1492424 8.96363636 13.1492424"></polygon>
            <polygon id="Shape" points="10.7409091 10.9856061 8.96363636 12.7757576 12.5310606 12.7757576"></polygon>
            <polygon id="Shape" points="13.1621212 8.93787879 13.1621212 12.505303 14.9522727 10.7280303"></polygon>
            <polygon id="Shape" points="11.0113636 10.7280303 12.7886364 12.505303 12.7886364 8.93787879"></polygon>
            <polygon id="Shape" points="15.2098485 10.4575758 17 8.68030303 13.4325758 8.68030303"></polygon>
            <polygon id="Shape" points="15.2098485 6.51666667 13.4325758 8.30681818 17 8.30681818"></polygon>
        </g>
    </g>
</svg>