<?xml version="1.0" encoding="utf-8"?>
<!-- Generator: Adobe Illustrator 19.2.1, SVG Export Plug-In . SVG Version: 6.00 Build 0)  -->
<svg version="1.1" id="Слой_1" xmlns="http://www.w3.org/2000/svg" xmlns:xlink="http://www.w3.org/1999/xlink" x="0px" y="0px"
	 viewBox="0 0 1448 284.4" style="enable-background:new 0 0 1448 284.4;" xml:space="preserve">
<style type="text/css">
	.st0{stroke:#FFFFFF;stroke-width:5.5795;stroke-linecap:round;stroke-linejoin:round;stroke-miterlimit:10;}
</style>
<g>
	<g>
		<path d="M434.3,95.8c0-5.1,4-9.2,9.2-9.2h1.9c4,0,6.7,2.1,8.5,4.9l31.5,49.4l31.7-49.5c1.9-3.1,4.6-4.8,8.3-4.8h1.9
			c5.2,0,9.2,4.2,9.2,9.2v87.2c0,5.1-4,9.1-9.2,9.1c-4.9,0-9.1-4.2-9.1-9.1v-62.5l-25.4,38.2c-1.9,3-4.3,4.8-7.7,4.8
			c-3.3,0-5.7-1.8-7.6-4.8l-25.3-37.9v62.3c0,5.1-4,8.9-9.1,8.9c-5.1,0-8.9-3.9-8.9-8.9V95.8z"/>
		<path d="M565.6,109.7c0-5.6,4.4-10,10-10c5.6,0,10,4.4,10,10v72.3c0,5.6-4.4,10-10,10c-5.6,0-10-4.4-10-10V109.7z"/>
		<path d="M607.5,146.2v-0.3c0-25.8,19.4-46.9,47.3-46.9c13.6,0,22.8,3.6,30.3,9.2c2.1,1.6,3.9,4.4,3.9,7.9c0,5.4-4.4,9.7-9.9,9.7
			c-2.7,0-4.5-1-6-1.9c-5.6-4.1-11.4-6.5-18.5-6.5c-15.3,0-26.3,12.7-26.3,28.3v0.3c0,15.6,10.8,28.5,26.3,28.5
			c8.4,0,14-2.6,19.7-7.1c1.6-1.3,3.6-2.2,6-2.2c5.1,0,9.3,4.1,9.3,9.2c0,3.1-1.6,5.6-3.4,7.1c-8.2,7.1-17.8,11.4-32.3,11.4
			C627.3,192.8,607.5,172.2,607.5,146.2z"/>
		<path d="M710.4,110.5c0-5.6,4.4-10,10-10h31.5c11.5,0,20.5,3.2,26.4,9.2c5.1,5.1,7.8,12.2,7.8,20.7v0.3c0,14.3-7.1,23.1-18.2,27.6
			l13.9,16.9c1.9,2.5,3.2,4.5,3.2,7.6c0,5.6-4.7,9.2-9.5,9.2c-4.5,0-7.5-2.2-9.9-5.2l-19.4-24.6h-15.9v19.8c0,5.6-4.4,10-10,10
			c-5.6,0-10-4.4-10-10V110.5z M750.6,144.6c9.7,0,15.3-5.2,15.3-12.8v-0.3c0-8.6-6-13-15.7-13h-19.8v26.1H750.6z"/>
		<path d="M803.3,146.2v-0.3c0-25.8,20.4-46.9,48.4-46.9c28,0,48.1,20.9,48.1,46.7v0.3c0,25.8-20.4,46.9-48.4,46.9
			C823.4,192.8,803.3,172,803.3,146.2z M878.9,146.2v-0.3c0-15.6-11.4-28.5-27.5-28.5c-16.1,0-27.2,12.7-27.2,28.3v0.3
			c0,15.6,11.4,28.5,27.5,28.5C867.8,174.4,878.9,161.7,878.9,146.2z"/>
	</g>
	<g>
		<path d="M923.3,95.8c0-5.1,4-9.2,9.2-9.2h1.9c4,0,6.7,2.1,8.5,4.9l31.5,49.4l31.7-49.5c1.9-3.1,4.6-4.8,8.3-4.8h1.9
			c5.2,0,9.2,4.2,9.2,9.2v87.2c0,5.1-4,9.1-9.2,9.1c-4.9,0-9.1-4.2-9.1-9.1v-62.5l-25.4,38.2c-1.9,3-4.3,4.8-7.7,4.8
			c-3.3,0-5.7-1.8-7.6-4.8l-25.3-37.9v62.3c0,5.1-4,8.9-9.1,8.9c-5.1,0-8.9-3.9-8.9-8.9V95.8z"/>
		<path d="M1049.6,146.2v-0.3c0-25.8,20.4-46.9,48.4-46.9c28,0,48.1,20.9,48.1,46.7v0.3c0,25.8-20.4,46.9-48.4,46.9
			C1069.7,192.8,1049.6,172,1049.6,146.2z M1125.2,146.2v-0.3c0-15.6-11.4-28.5-27.5-28.5c-16.1,0-27.2,12.7-27.2,28.3v0.3
			c0,15.6,11.4,28.5,27.5,28.5C1114.1,174.4,1125.2,161.7,1125.2,146.2z"/>
		<path d="M1167.1,110c0-5.6,4.4-10,10-10h2.1c4.8,0,7.7,2.3,10.4,5.8l38.5,50.6v-46.8c0-5.4,4.4-9.9,9.9-9.9c5.4,0,9.9,4.4,9.9,9.9
			v72.2c0,5.6-4.4,10-10,10h-0.6c-4.8,0-7.6-2.3-10.4-5.8l-39.9-52.4v48.6c0,5.4-4.4,9.9-9.9,9.9c-5.4,0-9.9-4.4-9.9-9.9V110z"/>
		<path d="M1396.2,156.3l-29.3-39.8c-1.4-1.9-2.5-4.3-2.5-7.1c0-5.3,4.4-9.6,10-9.6c4.5,0,7.4,2.5,9.9,6.1l22,31.8l22.4-32
			c2.5-3.6,5.4-6,9.6-6c6.1,0,9.7,4.3,9.7,9.7c0,2.7-1.3,5.2-2.6,7l-29.3,39.5v26.2c0,5.6-4.4,10-10,10c-5.6,0-10-4.4-10-10V156.3z"
			/>
		<path d="M1314.1,194.8c-26.3,0-46.6-19.1-46.6-47.2v-0.3c0-26,18.4-47.3,44.4-47.3c28.9,0,43.2,23.8,43.2,44.8
			c0,5.9-4.5,10-9.8,10h-57c2.2,14.8,12.7,23.1,26.2,23.1c8.8,0,15.7-3.1,21.5-7.9c1.6-1.2,2.9-1.9,5.3-1.9c4.6,0,8.3,3.6,8.3,8.4
			c0,2.6-1.2,4.8-2.8,6.4C1338.5,190.1,1328.2,194.8,1314.1,194.8z M1334.7,140.9c-1.4-13.4-9.3-23.9-23.1-23.9
			c-12.7,0-21.7,9.8-23.6,23.9H1334.7z"/>
	</g>
</g>
<path class="st0" d="M277.6,43.5"/>
<polygon class="st0" points="372.9,142.2 233.5,2.8 143.5,92.8 96.6,45.9 2.8,139.7 96.6,233.5 141,189.1 233.5,281.6 "/>
<polyline class="st0" points="127.1,140.9 127.4,140.9 281.4,50.7 "/>
<line class="st0" x1="281.4" y1="233.7" x2="127.4" y2="140.9"/>
<polyline class="st0" points="2.8,139.7 143.5,92.8 372.9,142.2 141,189.1 "/>
<path class="st0" d="M269.6,75.4"/>
<line class="st0" x1="281.4" y1="233.7" x2="281.4" y2="50.7"/>
</svg>
