<?xml version="1.0" encoding="UTF-8"?>
<svg width="17px" height="17px" viewBox="0 0 17 17" version="1.1" xmlns="http://www.w3.org/2000/svg" xmlns:xlink="http://www.w3.org/1999/xlink">
    <!-- Generator: Sketch 48.2 (47327) - http://www.bohemiancoding.com/sketch -->
    <title>robomed</title>
    <desc>Created with Sketch.</desc>
    <defs>
    </defs>
    <g id="Platinum-Listing" stroke="none" stroke-width="1" fill="none" fill-rule="evenodd" transform="translate(-1026.000000, -1840.000000)">
        <g id="robomed" transform="translate(1026.000000, 1840.000000)">
            <g id="Page-1">
                <g id="Group-3" transform="translate(0.000000, 0.058512)">
                    <g id="Fill-1-Clipped">
                        <mask id="mask-2" fill="white">
                            <polygon id="path-1" points="5.07462685e-05 0.0643276485 16.9336492 0.0643276485 16.9336492 16.4816538 5.07462685e-05 16.4816538"></polygon>

                        </mask>
                        <g id="path-1"></g>
                        <path d="M16.9337,8.27296611 C16.9337,3.73940434 13.1429537,0.0642415503 8.46681195,0.0642415503 C3.79079702,0.0642415503 5.07462685e-05,3.73940434 5.07462685e-05,8.27296611 C5.07462685e-05,12.8065278 3.79079702,16.4816906 8.46681195,16.4816906 C13.1429537,16.4816906 16.9337,12.8065278 16.9337,8.27296611" id="Fill-1" fill="#EC454F" fill-rule="nonzero" mask="url(#mask-2)"></path>
                    </g>
                </g>
                <path d="M8.45413805,15.1369107 C6.04292912,15.1369107 3.91260074,13.9483867 2.65383955,12.1440146 L6.29691418,12.1440146 L6.33624255,12.1440146 L6.91931717,12.1440146 C6.96828733,12.1440146 7.0078694,12.1055164 7.0078694,12.0581624 L7.0078694,9.20634431 L7.03248135,9.2064673 C7.05925,9.2064673 8.09079478,9.21200218 8.5475112,9.17989986 L10.3256604,12.1440146 L10.9045485,12.1440146 L11.3238396,12.1440146 L14.2544366,12.1440146 C12.9956754,13.9483867 10.865347,15.1369107 8.45413805,15.1369107 M8.20992163,8.51337687 L7.00799625,8.53194944 L7.00799625,5.90755361 C7.00799625,5.8601996 7.04757837,5.82182439 7.09654853,5.82182439 L8.15029478,5.82182439 C8.77612315,5.82182439 9.23055598,5.92452724 9.51359327,6.1299329 C9.7966306,6.3353386 9.97119777,6.65242593 9.97119777,7.11784817 C9.97119777,7.57687454 9.79916793,7.93959389 9.52107837,8.1691071 C9.24286195,8.39862026 8.80593657,8.51337687 8.20992163,8.51337687 M8.45413805,1.56845075 C12.3126306,1.56845075 15.4516679,4.61189881 15.4516679,8.3527422 C15.4516679,9.47570863 15.1685037,10.5358234 14.6681455,11.4696197 L10.9049291,11.4696197 L9.36985446,8.99909363 C10.3202052,8.66761561 10.8123172,8.01265436 10.8123172,7.09300267 C10.8123172,6.42844764 10.6001978,5.95564558 10.1748172,5.62490552 C9.74930972,5.29441149 9.09062315,5.10438047 8.20002614,5.10438047 L6.29691418,5.10438047 C6.24807088,5.10438047 6.20836195,5.14275567 6.20836195,5.19010965 L6.20836195,11.4696197 L2.2401306,11.4696197 C1.73977239,10.5358234 1.45648134,9.47570863 1.45648134,8.3527422 C1.45648134,4.61189881 4.59564554,1.56845075 8.45413805,1.56845075 M13.9066978,3.06643628 C12.4502798,1.65442594 10.5138022,0.876836279 8.45413805,0.876836279 C6.39447386,0.876836279 4.45799625,1.65442594 3.00157836,3.06643628 C1.54516045,4.47844663 0.743115673,6.35575616 0.743115673,8.3527422 C0.743115673,10.3496053 1.54516045,12.2269148 3.00157836,13.6389252 C4.45799625,15.0509355 6.39447386,15.8286482 8.45413805,15.8286482 C10.5138022,15.8286482 12.4502798,15.0509355 13.9066978,13.6389252 C15.3631157,12.2269148 16.1651604,10.3496053 16.1651604,8.3527422 C16.1651604,6.35575616 15.3631157,4.47844663 13.9066978,3.06643628" id="Fill-4" fill="#FEFEFE" fill-rule="nonzero"></path>
            </g>
        </g>
    </g>
</svg>
