<svg width="15" height="16" viewBox="0 0 15 16" fill="none" xmlns="http://www.w3.org/2000/svg">
<ellipse cx="7.54152" cy="8.33326" rx="7.41909" ry="7.43543" fill="#2C1EC8"/>
<path d="M7.5715 3.89917C8.4715 3.89917 9.27484 4.08584 9.9815 4.45917C10.6882 4.82584 11.2382 5.3425 11.6315 6.00917C12.0315 6.67584 12.2315 7.43584 12.2315 8.28917C12.2315 9.1425 12.0748 9.8125 11.7615 10.2992C11.4482 10.7858 11.0115 11.0292 10.4515 11.0292C10.1315 11.0292 9.86484 10.9492 9.6515 10.7892C9.44484 10.6225 9.3115 10.3858 9.2515 10.0792C9.0515 10.3858 8.78817 10.6225 8.4615 10.7892C8.1415 10.9492 7.7715 11.0292 7.3515 11.0292C6.88484 11.0292 6.46483 10.9192 6.0915 10.6992C5.71817 10.4792 5.42483 10.1758 5.2115 9.78917C5.00484 9.39584 4.9015 8.9525 4.9015 8.45917C4.9015 7.9725 5.00484 7.53584 5.2115 7.14917C5.42483 6.75584 5.71817 6.4525 6.0915 6.23917C6.46483 6.01917 6.88484 5.90917 7.3515 5.90917C7.73817 5.90917 8.08817 5.9825 8.4015 6.12917C8.71484 6.26917 8.97483 6.47917 9.1815 6.75917V5.94917H10.0515V9.54917C10.0515 9.79584 10.1048 9.97917 10.2115 10.0992C10.3182 10.2125 10.4548 10.2692 10.6215 10.2692C10.9148 10.2692 11.1415 10.0992 11.3015 9.75917C11.4682 9.4125 11.5515 8.92584 11.5515 8.29917C11.5515 7.55917 11.3848 6.90917 11.0515 6.34917C10.7182 5.7825 10.2482 5.3425 9.6415 5.02917C9.0415 4.71584 8.3515 4.55917 7.5715 4.55917C6.78483 4.55917 6.08817 4.7225 5.4815 5.04917C4.8815 5.37584 4.41483 5.8325 4.0815 6.41917C3.74817 7.00584 3.5815 7.67584 3.5815 8.42917C3.5815 9.18917 3.74483 9.8625 4.0715 10.4492C4.40483 11.0358 4.86817 11.4925 5.4615 11.8192C6.0615 12.1525 6.7515 12.3192 7.5315 12.3192C7.85817 12.3192 8.1915 12.2825 8.5315 12.2092C8.8715 12.1358 9.1815 12.0258 9.4615 11.8792L9.6815 12.5192C9.38817 12.6725 9.04817 12.7892 8.6615 12.8692C8.27484 12.9492 7.89817 12.9892 7.5315 12.9892C6.61817 12.9892 5.80484 12.7925 5.0915 12.3992C4.38484 12.0125 3.83483 11.4725 3.4415 10.7792C3.04817 10.0858 2.8515 9.3025 2.8515 8.42917C2.8515 7.55584 3.04817 6.77584 3.4415 6.08917C3.8415 5.4025 4.39817 4.86584 5.1115 4.47917C5.8315 4.0925 6.6515 3.89917 7.5715 3.89917ZM7.4915 10.2492C7.81817 10.2492 8.10817 10.1758 8.3615 10.0292C8.6215 9.8825 8.82483 9.67584 8.9715 9.40917C9.12484 9.13584 9.2015 8.81917 9.2015 8.45917C9.2015 8.09917 9.12484 7.78584 8.9715 7.51917C8.82483 7.24584 8.6215 7.03917 8.3615 6.89917C8.10817 6.7525 7.81817 6.67917 7.4915 6.67917C6.98484 6.67917 6.57484 6.8425 6.2615 7.16917C5.94817 7.48917 5.7915 7.91917 5.7915 8.45917C5.7915 8.99917 5.94817 9.4325 6.2615 9.75917C6.5815 10.0858 6.9915 10.2492 7.4915 10.2492Z" fill="white"/>
</svg>
