<svg width="19" height="19" viewBox="0 0 19 19" fill="none" xmlns="http://www.w3.org/2000/svg">
<path fill-rule="evenodd" clip-rule="evenodd" d="M18.4138 16.8938C18.4138 17.6704 17.7842 18.3 17.0076 18.3H1.82007C1.0434 18.3 0.413818 17.6704 0.413818 16.8938V1.70625C0.413818 0.929581 1.0434 0.300003 1.82007 0.300003H17.0076C17.7842 0.300003 18.4138 0.929581 18.4138 1.70625V16.8938Z" fill="#FFE812"/>
<path fill-rule="evenodd" clip-rule="evenodd" d="M9.41382 2.83125C5.37521 2.83125 2.10132 5.41264 2.10132 8.59688C2.10132 10.6556 3.47002 12.462 5.52891 13.482C5.4169 13.8683 4.80912 15.9671 4.78494 16.132C4.78494 16.132 4.77038 16.2559 4.85061 16.3031C4.93083 16.3504 5.02519 16.3137 5.02519 16.3137C5.25526 16.2815 7.69306 14.5692 8.11501 14.2718C8.53653 14.3315 8.97057 14.3625 9.41382 14.3625C13.4524 14.3625 16.7263 11.7812 16.7263 8.59688C16.7263 5.41264 13.4524 2.83125 9.41382 2.83125Z" fill="black"/>
<path fill-rule="evenodd" clip-rule="evenodd" d="M5.37085 10.6096C5.13819 10.6096 4.94897 10.4289 4.94897 10.2067V7.70039H4.29071C4.0624 7.70039 3.87671 7.51505 3.87671 7.28731C3.87671 7.05957 4.06247 6.87422 4.29071 6.87422H6.45099C6.67929 6.87422 6.86499 7.05957 6.86499 7.28731C6.86499 7.51505 6.67922 7.70039 6.45099 7.70039H5.79272V10.2067C5.79272 10.4289 5.60351 10.6096 5.37085 10.6096ZM9.07013 10.6041C8.89421 10.6041 8.75963 10.5327 8.71906 10.4178L8.51016 9.87087L7.22372 9.8708L7.01469 10.418C6.97426 10.5327 6.83975 10.6041 6.66383 10.6041C6.57129 10.6042 6.47982 10.5843 6.39565 10.5459C6.27936 10.4922 6.16756 10.3447 6.29567 9.94681L7.30479 7.29068C7.37588 7.08867 7.59181 6.88055 7.86659 6.87429C8.14215 6.88048 8.35808 7.08867 8.4293 7.2911L9.43801 9.94603C9.5664 10.3448 9.4546 10.4924 9.3383 10.5459C9.25412 10.5843 9.16266 10.6042 9.07013 10.6041ZM7.86694 7.92652L8.28833 9.12359H7.44556L7.86694 7.92652ZM10.1169 10.548C9.89398 10.548 9.71265 10.3745 9.71265 10.1613V7.2961C9.71265 7.06343 9.90587 6.87422 10.1433 6.87422C10.3808 6.87422 10.574 7.06343 10.574 7.2961V9.77461H11.4705C11.6934 9.77461 11.8748 9.94814 11.8748 10.1613C11.8748 10.3745 11.6934 10.548 11.4705 10.548H10.1169ZM12.0389 10.1822C12.0389 10.4149 12.2281 10.6041 12.4607 10.6041C12.6937 10.6038 12.8825 10.415 12.8828 10.182V9.26154L13.0291 9.11515L14.0185 10.4261C14.098 10.5322 14.223 10.5944 14.3555 10.5938C14.4472 10.594 14.5363 10.5641 14.6093 10.5086C14.6988 10.4415 14.7578 10.3413 14.773 10.2304C14.7889 10.1196 14.7597 10.007 14.692 9.91784L13.6535 8.5421L14.6149 7.58086C14.681 7.5147 14.7141 7.4235 14.708 7.32401C14.702 7.22536 14.6579 7.13037 14.584 7.05654C14.5047 6.97737 14.399 6.93195 14.2936 6.93195C14.2034 6.93195 14.1202 6.96528 14.0596 7.02582L12.8826 8.20285V7.2961C12.8826 7.06343 12.6934 6.87422 12.4607 6.87422C12.2281 6.87422 12.0389 7.06343 12.0389 7.2961V10.1822Z" fill="#FFE812"/>
</svg>
