<svg width="18" height="18" viewBox="0 0 18 18" fill="none" xmlns="http://www.w3.org/2000/svg">
<path fill-rule="evenodd" clip-rule="evenodd" d="M3.63363 0.359741H13.7277C15.6514 0.359741 17.2253 1.93366 17.2253 3.85732V13.9514C17.2253 15.8751 15.6514 17.449 13.7277 17.449H3.63363C1.70997 17.4491 0.136047 15.8751 0.136047 13.9514V3.85732C0.136047 1.93366 1.70997 0.359741 3.63363 0.359741Z" fill="#3ACE01"/>
<path fill-rule="evenodd" clip-rule="evenodd" d="M8.66411 3.19055C12.1268 3.19055 14.9338 5.4383 14.9338 8.21103C14.9338 9.17953 14.5911 10.0838 13.9978 10.8507C13.9684 10.8944 13.93 10.9426 13.8817 10.9959L13.878 10.9999C13.6754 11.2423 13.4471 11.47 13.1962 11.6801C11.4624 13.2827 8.6086 15.1906 8.23195 14.8963C7.90452 14.6404 8.77123 13.3889 7.77129 13.1806C7.70153 13.1726 7.63196 13.164 7.56297 13.1542L7.56166 13.1542V13.1541C4.62475 12.7368 2.39447 10.6825 2.39447 8.21103C2.39438 5.4383 5.20145 3.19055 8.66411 3.19055V3.19055Z" fill="white"/>
<path fill-rule="evenodd" clip-rule="evenodd" d="M5.02644 9.81238H6.29094C6.47081 9.81238 6.61792 9.66522 6.61792 9.48535V9.45807C6.61792 9.2782 6.47081 9.13109 6.29094 9.13109H5.3807V7.06014C5.3807 6.88027 5.23359 6.73315 5.05372 6.73315H5.02644C4.84658 6.73315 4.69946 6.88027 4.69946 7.06014V9.4853C4.69946 9.66522 4.84658 9.81238 5.02644 9.81238ZM12.8619 8.29224V8.26496C12.8619 8.08509 12.7147 7.93798 12.5349 7.93798H11.6247V7.42023H12.5349C12.7147 7.42023 12.8619 7.27312 12.8619 7.09325V7.06597C12.8619 6.8861 12.7147 6.73899 12.5349 6.73899H11.2704C11.0905 6.73899 10.9434 6.8861 10.9434 7.06597V9.49114C10.9434 9.67101 11.0905 9.81817 11.2704 9.81817H12.5349C12.7147 9.81817 12.8619 9.67101 12.8619 9.49114V9.46386C12.8619 9.28399 12.7147 9.13688 12.5349 9.13688H11.6247V8.61913H12.5349C12.7147 8.61922 12.8619 8.47206 12.8619 8.29224ZM10.4301 9.71489L10.4302 9.71475C10.4907 9.65375 10.5247 9.57132 10.5248 9.48539V7.06023C10.5248 6.88036 10.3777 6.73324 10.1977 6.73324H10.1705C9.9906 6.73324 9.84349 6.88036 9.84349 7.06023V8.48382L8.6616 6.89859C8.60514 6.80002 8.49883 6.73324 8.37768 6.73324H8.3504C8.17054 6.73324 8.02338 6.88036 8.02338 7.06023V9.48539C8.02338 9.66526 8.17049 9.81242 8.3504 9.81242H8.37768C8.55755 9.81242 8.70466 9.66526 8.70466 9.48539V8.03515L9.89506 9.66105C9.90239 9.67245 9.91039 9.6834 9.91903 9.69381L9.91908 9.6939C9.95179 9.7385 9.99653 9.76908 10.0464 9.78777C10.0847 9.8036 10.1266 9.81238 10.1704 9.81238H10.1977C10.251 9.81241 10.3035 9.79929 10.3505 9.77419C10.3832 9.75863 10.4107 9.73855 10.4301 9.71489ZM7.20882 9.81238H7.2361C7.41597 9.81238 7.56308 9.66522 7.56308 9.48535V7.06018C7.56308 6.88031 7.41597 6.7332 7.2361 6.7332H7.20882C7.02895 6.7332 6.88179 6.88031 6.88179 7.06018V9.48535C6.88179 9.66522 7.02895 9.81238 7.20882 9.81238Z" fill="#3ACE01"/>
</svg>
