<svg width="19" height="19" viewBox="0 0 19 19" fill="none" xmlns="http://www.w3.org/2000/svg">
<path fill-rule="evenodd" clip-rule="evenodd" d="M18.9361 15.7597C18.9361 17.251 17.7273 18.4597 16.2361 18.4597H3.6361C2.14486 18.4597 0.936096 17.251 0.936096 15.7597V3.15972C0.936096 1.66854 2.14492 0.459717 3.6361 0.459717H16.2361C17.7273 0.459717 18.9361 1.66854 18.9361 3.15972V15.7597Z" fill="#2DC100"/>
<path fill-rule="evenodd" clip-rule="evenodd" d="M12.9843 7.17248C11.5315 7.24838 10.2682 7.68878 9.24258 8.68376C8.20632 9.689 7.73328 10.9208 7.86258 12.4478C7.69942 12.4276 7.54044 12.4068 7.38438 12.3864L7.38434 12.3864C6.99726 12.3358 6.62808 12.2875 6.2574 12.2563C6.07776 12.2412 5.86458 12.2626 5.71242 12.3485C5.35159 12.5521 5.00142 12.7745 4.62158 13.0157L4.62149 13.0158C4.46967 13.1122 4.31311 13.2116 4.14924 13.314C4.18185 13.1665 4.21089 13.0247 4.23904 12.8873C4.30179 12.581 4.36006 12.2965 4.44336 12.0195C4.5321 11.7247 4.491 11.5606 4.21938 11.3686C2.47542 10.1373 1.7403 8.29466 2.29044 6.39758C2.79942 4.64258 4.04934 3.57824 5.7477 3.02342C8.0658 2.26622 10.6709 3.0386 12.0805 4.87904C12.5896 5.54384 12.9018 6.29 12.9843 7.17248ZM6.29808 6.58136C6.31146 6.23438 6.0108 5.92178 5.65368 5.91134C5.28804 5.9006 4.98732 6.18002 4.97664 6.54032C4.96584 6.90548 5.24514 7.1981 5.61342 7.20746C5.97852 7.2167 6.28458 6.93692 6.29808 6.58136ZM9.13158 6.57134C9.12522 6.22298 9.4281 5.9177 9.78654 5.9111C10.1513 5.90444 10.4471 6.18992 10.4501 6.55184C10.4536 6.92054 10.1734 7.20602 9.80382 7.21046C9.43524 7.2149 9.13812 6.93242 9.13158 6.57134Z" fill="white"/>
<path fill-rule="evenodd" clip-rule="evenodd" d="M16.2482 16.2294C16.1063 16.1662 15.968 16.0933 15.8315 16.0213C15.5253 15.8598 15.2276 15.7028 14.9169 15.6703C14.6541 15.6429 14.3833 15.7206 14.1098 15.7991C13.9175 15.8543 13.7239 15.9099 13.5307 15.9297C12.1044 16.0756 10.8266 15.6781 9.77303 14.7037C7.76921 12.8503 8.05553 10.0085 10.3739 8.48966C12.4343 7.13978 15.4561 7.58978 16.9088 9.4628C18.1766 11.0972 18.0276 13.2668 16.48 14.6398C16.0321 15.0372 15.871 15.3642 16.1583 15.8881C16.1942 15.9535 16.2086 16.0307 16.2236 16.1116L16.2236 16.1116C16.2308 16.1503 16.2382 16.1899 16.2482 16.2294ZM11.0117 11.1595C11.3046 11.1598 11.5457 10.9306 11.5568 10.6413C11.5685 10.3351 11.3222 10.0782 11.0156 10.077C10.712 10.0756 10.4576 10.336 10.4682 10.6377C10.4782 10.926 10.721 11.1591 11.0117 11.1595ZM13.8502 10.5959C13.8618 10.3088 14.1032 10.0762 14.3874 10.0782C14.6898 10.0803 14.9285 10.3344 14.9171 10.6421C14.9065 10.9345 14.6743 11.1568 14.3804 11.1558C14.0765 11.155 13.8379 10.9029 13.8502 10.5959Z" fill="white"/>
</svg>
