<svg width="81" height="81" viewBox="0 0 81 81" fill="none" xmlns="http://www.w3.org/2000/svg">
<path d="M40.4481 80.2239C62.4328 80.2239 80.4203 62.2364 80.4203 40.2517C80.4203 18.2669 62.4328 0.279419 40.4481 0.279419C18.4633 0.279419 0.47583 18.2669 0.47583 40.2517C0.47583 62.2364 18.4633 80.2239 40.4481 80.2239ZM40.4481 2.77769C61.0588 2.77769 77.9221 19.641 77.9221 40.2517C77.9221 60.8624 61.0588 77.7257 40.4481 77.7257C19.8374 77.7257 2.9741 60.8624 2.9741 40.2517C2.9741 19.641 19.8374 2.77769 40.4481 2.77769Z" fill="black"/>
<path d="M40.448 73.9782C59.0601 73.9782 74.1746 58.8637 74.1746 40.2516C74.1746 21.6395 59.0601 6.52502 40.448 6.52502C21.8359 6.52502 6.72144 21.6395 6.72144 40.2516C6.72144 58.8637 21.8359 73.9782 40.448 73.9782ZM40.448 9.02329C57.6861 9.02329 71.6764 23.0136 71.6764 40.2516C71.6764 57.4897 57.6861 71.4799 40.448 71.4799C23.21 71.4799 9.2197 57.4897 9.2197 40.2516C9.2197 23.0136 23.21 9.02329 40.448 9.02329Z" fill="black"/>
<path d="M40.448 30.0088C38.0746 30.0088 36.2009 31.8825 36.2009 34.2558V58.9887C36.2009 61.362 38.0746 63.2357 40.448 63.2357C42.8213 63.2357 44.695 61.362 44.695 58.9887V34.2558C44.695 31.8825 42.8213 30.0088 40.448 30.0088ZM42.1968 58.9887C42.1968 59.988 41.4473 60.7375 40.448 60.7375C39.4487 60.7375 38.6992 59.988 38.6992 58.9887V34.2558C38.6992 33.2565 39.4487 32.5071 40.448 32.5071C41.4473 32.5071 42.1968 33.2565 42.1968 34.2558V58.9887Z" fill="black"/>
<path d="M40.448 26.8859C43.0712 26.8859 45.3197 24.7624 45.3197 22.0143C45.3197 19.2662 43.1961 17.1427 40.448 17.1427C37.8249 17.1427 35.5764 19.2662 35.5764 22.0143C35.5764 24.7624 37.8249 26.8859 40.448 26.8859ZM40.448 19.7659C41.6972 19.7659 42.8214 20.7652 42.8214 22.1392C42.8214 23.3884 41.8221 24.5126 40.448 24.5126C39.1989 24.5126 38.0747 23.5133 38.0747 22.1392C38.0747 20.7652 39.1989 19.7659 40.448 19.7659Z" fill="black"/>
</svg>
