<svg width="80" height="81" viewBox="0 0 80 81" fill="none" xmlns="http://www.w3.org/2000/svg">
<path d="M76.2931 17.642C78.0186 17.642 79.4173 16.2433 79.4173 14.5179C79.4173 12.7924 78.0186 11.3937 76.2931 11.3937C74.8143 11.3937 73.5807 12.4251 73.2579 13.806L57.8555 16.9301C57.1137 15.47 55.7215 14.4006 54.0591 14.1004L53.8164 7.31253C55.0913 6.76811 55.9868 5.50453 55.9868 4.029C55.986 2.05759 54.3875 0.459106 52.4153 0.459106C50.4439 0.459106 48.8446 2.05759 48.8446 4.02981C48.8446 5.71728 50.0184 7.12162 51.5918 7.49455L51.8304 14.1724C50.5062 14.4992 49.3785 15.3171 48.6521 16.4262L36.026 8.79049C36.085 8.55104 36.1255 8.3035 36.1255 8.04625C36.1255 6.31995 34.7268 4.92209 33.0013 4.92209C31.2766 4.92209 29.8771 6.31995 29.8771 8.04625C29.8771 9.77255 31.2758 11.1704 33.0013 11.1704C33.6525 11.1704 34.2568 10.9698 34.7567 10.6292L47.848 18.548C47.8091 18.8061 47.7832 19.069 47.7832 19.3376C47.7832 20.1166 47.9548 20.8544 48.2549 21.5209L28.366 41.3629C27.4479 40.6122 26.2757 40.1608 24.9967 40.1608C23.9103 40.1608 22.9016 40.4876 22.0594 41.0458L12.6214 31.6077C13.1197 30.8999 13.4182 30.0408 13.4182 29.1097C13.4182 26.7063 11.4703 24.7584 9.06688 24.7584C6.66349 24.7584 4.71554 26.7063 4.71554 29.1097C4.71554 31.5131 6.6643 33.461 9.06688 33.461C9.72456 33.461 10.3426 33.3041 10.9016 33.042L20.4998 42.641C19.9772 43.4653 19.6706 44.4393 19.6706 45.4869C19.6706 45.889 19.7191 46.2789 19.8033 46.655L6.20239 51.2256C5.6426 50.3827 4.68723 49.8269 3.6 49.8269C1.87451 49.8269 0.47583 51.2256 0.47583 52.9511C0.47583 54.6766 1.87451 56.0736 3.6 56.0736C5.16451 56.0736 6.44831 54.9209 6.67643 53.4203L20.7506 48.6912C21.5579 49.759 22.7559 50.5105 24.1344 50.7354L24.132 58.7318C22.5359 59.087 21.3411 60.5075 21.3411 62.2111C21.3411 64.1834 22.9396 65.781 24.9118 65.781C26.884 65.781 28.4825 64.1826 28.4825 62.2111C28.4825 60.7566 27.6105 59.5109 26.3631 58.9551L26.3663 50.6278C27.9017 50.2193 29.1612 49.1458 29.8213 47.7317L47.8221 51.3566C47.7954 51.5459 47.7638 51.7328 47.7638 51.9286C47.7638 54.2179 49.6204 56.0744 51.9097 56.0744C52.2123 56.0744 52.5051 56.038 52.789 55.9766L55.7328 63.249C54.8834 63.9253 54.3277 64.9535 54.3277 66.1248C54.3277 66.7235 54.4838 67.2816 54.7386 67.7808L48.7645 74.0445C48.7378 74.034 48.7144 74.017 48.686 74.0073C47.0633 73.4224 45.2731 74.2661 44.6898 75.8889C44.1066 77.5116 44.9487 79.301 46.5714 79.8851C48.1958 80.4691 49.9844 79.6254 50.5685 78.0027C50.8694 77.1654 50.7853 76.2869 50.4156 75.5475L56.3055 69.3695C56.8176 69.6389 57.3912 69.8048 58.0084 69.8048C58.9751 69.8048 59.8471 69.4246 60.5048 68.8146L71.5818 76.261C71.4701 76.5813 71.3973 76.9203 71.3973 77.2811C71.3973 79.0066 72.796 80.4036 74.5199 80.4036C76.2454 80.4036 77.644 79.005 77.644 77.2811C77.644 75.5548 76.2454 74.1569 74.5199 74.1569C73.9795 74.1569 73.4771 74.3074 73.033 74.5501L61.6114 66.8723C61.6616 66.6304 61.6899 66.3805 61.6899 66.1232C61.6899 64.0887 60.0413 62.4409 58.0076 62.4409C57.9429 62.4409 57.8838 62.4563 57.8207 62.4587L54.7839 54.9055C55.5654 54.1516 56.0548 53.0983 56.0548 51.927C56.0548 49.6376 54.1982 47.7811 51.9089 47.7811C50.6194 47.7811 49.4812 48.3821 48.7216 49.3068L30.3188 45.5435C30.3188 45.5241 30.3212 45.5055 30.3212 45.4861C30.3212 44.6318 30.1158 43.8277 29.7582 43.1126L49.5783 23.316C50.5183 24.15 51.7528 24.6613 53.1078 24.6613C54.2031 24.6613 55.2191 24.3296 56.0653 23.7633L66.3414 34.0394C66.1424 34.4844 66.0251 34.9746 66.0251 35.4931C66.0251 37.4662 67.6244 39.0638 69.5958 39.0638C71.5672 39.0638 73.1657 37.4662 73.1657 35.4931C73.1657 33.5209 71.5672 31.9224 69.5958 31.9224C68.9591 31.9224 68.3694 32.1028 67.8533 32.3948L57.6193 22.16C58.133 21.3405 58.4347 20.3747 58.4347 19.3368C58.4347 19.2535 58.4258 19.1734 58.4218 19.0909L73.5694 16.0193C74.1016 16.9827 75.1153 17.642 76.2931 17.642Z" fill="black"/>
</svg>
