<svg width="81" height="91" viewBox="0 0 81 91" fill="none" xmlns="http://www.w3.org/2000/svg">
<path d="M77.7079 20.344C72.5352 17.9573 54.7117 9.51545 42.4851 1.19383C41.784 0.718201 40.9503 0.463257 40.0963 0.463257C39.2422 0.463257 38.4086 0.718201 37.7075 1.19383C25.4809 9.51545 7.65741 17.9573 2.4847 20.344C1.77785 20.6734 1.18104 21.1912 0.763285 21.8375C0.345531 22.4839 0.1239 23.2323 0.124023 23.9964C0.154114 42.1534 0.201679 69.592 38.0948 89.9047C38.7091 90.2303 39.3971 90.4008 40.0963 90.4008C40.7954 90.4008 41.4835 90.2303 42.0978 89.9047C79.9909 69.592 80.0385 42.1534 80.0685 23.9954C80.0685 23.2316 79.8468 22.4833 79.429 21.8371C79.0113 21.191 78.4146 20.6733 77.7079 20.344ZM40.9427 87.857C40.6833 87.9958 40.3922 88.0686 40.0963 88.0686C39.8004 88.0686 39.5093 87.9958 39.2499 87.857C2.59438 68.2089 2.54876 41.6005 2.51867 23.9926C2.51633 23.6712 2.60854 23.3559 2.78437 23.0841C2.9602 22.8122 3.21227 22.5953 3.5107 22.4589C8.72417 20.0495 26.701 11.5395 39.079 3.11377C39.3767 2.90719 39.7329 2.79619 40.0982 2.79619C40.4635 2.79619 40.8198 2.90719 41.1174 3.11377C53.4916 11.5395 71.4684 20.0495 76.6819 22.4589C76.9801 22.5952 77.2321 22.812 77.4079 23.0837C77.5838 23.3553 77.676 23.6704 77.6739 23.9917C77.6438 41.6005 77.5982 68.2089 40.9427 87.857Z" fill="black"/>
<path d="M72.199 25.5432C65.0801 22.1804 51.5237 15.4966 40.758 8.52312C40.5617 8.39619 40.3315 8.32849 40.096 8.32849C39.8605 8.32849 39.6303 8.39619 39.434 8.52312C28.6848 15.4843 15.1216 22.1747 7.99492 25.5441C7.79052 25.6397 7.61815 25.7899 7.49786 25.9772C7.37757 26.1646 7.31431 26.3815 7.31544 26.6025C7.43095 44.9688 10.0217 65.9499 39.4913 82.6272C39.6739 82.7302 39.8812 82.7844 40.0921 82.7844C40.3031 82.7844 40.5103 82.7302 40.693 82.6272C70.1616 65.9537 72.7533 44.9659 72.8707 26.6025C72.8723 26.3822 72.8101 26.1659 72.6913 25.9785C72.5724 25.7911 72.4018 25.6402 72.199 25.5432ZM40.096 80.2642C12.6687 64.4815 9.8984 44.7359 9.7198 27.323C20.1663 22.4324 30.3092 16.9475 40.096 10.8965C49.8841 16.9489 60.029 22.4342 70.478 27.3239C70.2936 44.7378 67.5214 64.4862 40.096 80.2642Z" fill="black"/>
<path d="M27.4688 48.1079C27.2422 47.8987 26.9408 47.7839 26.6288 47.7881C26.3167 47.7923 26.0187 47.9152 25.7981 48.1304C25.5775 48.3457 25.4517 48.6365 25.4476 48.9408C25.4435 49.2451 25.5613 49.539 25.776 49.7599L32.9589 56.7656C33.07 56.8742 33.2019 56.9603 33.3472 57.019C33.4924 57.0778 33.6481 57.108 33.8054 57.108C33.9626 57.108 34.1183 57.0778 34.2635 57.019C34.4088 56.9603 34.5407 56.8742 34.6518 56.7656L56.2094 35.7429C56.4162 35.521 56.5275 35.23 56.5205 34.9303C56.5134 34.6305 56.3884 34.3449 56.1714 34.1325C55.9544 33.9202 55.662 33.7973 55.3547 33.7894C55.0474 33.7814 54.7487 33.889 54.5205 34.0899L33.8083 54.2909L27.4688 48.1079Z" fill="black"/>
</svg>
