<svg width="81" height="91" viewBox="0 0 81 91" fill="none" xmlns="http://www.w3.org/2000/svg">
<path d="M34.3285 48.4518L34.3297 48.4518C34.4273 48.4491 34.5234 48.4275 34.6129 48.3882L40.4556 45.8373L46.284 48.3876C46.2843 48.3877 46.2845 48.3878 46.2848 48.388C46.4064 48.443 46.5402 48.4649 46.6729 48.4514C46.8059 48.4378 46.9329 48.389 47.0412 48.3102C47.1494 48.2314 47.2351 48.1253 47.2897 48.0027C47.3442 47.8803 47.3659 47.7456 47.3526 47.6122C47.3526 47.612 47.3526 47.6117 47.3526 47.6115L46.7669 41.2069L50.9581 36.3931L50.9586 36.3925C51.0449 36.2922 51.1039 36.1711 51.1298 36.0411L51.0072 36.0166C51.029 35.9076 51.0224 35.7947 50.9879 35.6891C50.9535 35.5835 50.8926 35.4887 50.811 35.414C50.7294 35.3393 50.63 35.2874 50.5226 35.2632L50.5503 35.1413L50.55 35.1413C50.55 35.1413 50.55 35.1413 50.55 35.1413L44.3555 33.7342L41.1016 28.1973L41.1013 28.1968C41.0339 28.0833 40.9385 27.9892 40.8242 27.9238C40.7099 27.8584 40.5807 27.824 40.4491 27.824C40.3176 27.824 40.1884 27.8584 40.0741 27.9238C39.9598 27.9892 39.8643 28.0833 39.7969 28.1968L39.7967 28.1973L36.5428 33.7343L30.3614 35.1413L30.3888 35.2632L30.3611 35.1414L30.3612 35.1413C30.2325 35.1703 30.1136 35.2325 30.016 35.3218C29.9184 35.4111 29.8456 35.5243 29.8046 35.6504C29.7635 35.7764 29.7556 35.9111 29.7816 36.0411C29.8075 36.1711 29.8665 36.2922 29.9528 36.3925L29.9533 36.3931L34.1445 41.2069L33.5587 47.6121C33.5587 47.6122 33.5587 47.6122 33.5587 47.6123C33.5486 47.7195 33.561 47.8277 33.595 47.9298C33.6292 48.032 33.6843 48.1258 33.7569 48.2052C33.8294 48.2845 33.9179 48.3475 34.0164 48.39C34.1149 48.4326 34.2212 48.4536 34.3285 48.4518ZM31.9457 36.3467L37.2143 35.1466C37.2145 35.1466 37.2147 35.1465 37.2148 35.1465C37.3151 35.1245 37.4098 35.0822 37.4934 35.0223C37.5771 34.9623 37.6478 34.8858 37.7013 34.7976L37.7013 34.7976L37.7023 34.796L40.4557 30.0993L43.2091 34.796L43.2091 34.796L43.2101 34.7976C43.2636 34.8858 43.3343 34.9623 43.418 35.0223C43.5016 35.0822 43.5963 35.1245 43.6966 35.1465C43.6967 35.1465 43.6969 35.1466 43.6971 35.1466L48.9657 36.3467L45.4019 40.4459C45.4018 40.4459 45.4017 40.446 45.4016 40.4461C45.3319 40.5254 45.2793 40.6183 45.247 40.7189C45.2147 40.8195 45.2034 40.9257 45.2137 41.0309C45.2138 41.0311 45.2138 41.0313 45.2138 41.0315L45.7065 46.4569L40.755 44.2998L40.7546 44.2996C40.6601 44.2589 40.5585 44.2379 40.4557 44.2379C40.3529 44.2379 40.2513 44.2589 40.1568 44.2996L40.1563 44.2999L35.1917 46.4699L35.6844 41.0322C35.6966 40.9286 35.6878 40.8234 35.6583 40.7233C35.6287 40.6226 35.5788 40.5291 35.5118 40.4485L35.5118 40.4485L35.51 40.4465L31.9457 36.3467Z" fill="black" stroke="black" stroke-width="0.25"/>
<path d="M77.7567 20.3412C72.584 17.9545 54.7605 9.51265 42.5339 1.19103C41.8328 0.715393 40.9992 0.460449 40.1451 0.460449C39.291 0.460449 38.4574 0.715393 37.7563 1.19103C25.5297 9.51265 7.70623 17.9545 2.53353 20.3412C1.82668 20.6706 1.22987 21.1884 0.812113 21.8347C0.394359 22.4811 0.172728 23.2295 0.172852 23.9936C0.202942 42.1506 0.250507 69.5892 38.1436 89.9019C38.7579 90.2275 39.446 90.398 40.1451 90.398C40.8443 90.398 41.5323 90.2275 42.1466 89.9019C80.0397 69.5892 80.0873 42.1506 80.1174 23.9926C80.1173 23.2288 79.8956 22.4805 79.4779 21.8343C79.0601 21.1881 78.4634 20.6705 77.7567 20.3412ZM40.9915 87.8542C40.7321 87.993 40.441 88.0658 40.1451 88.0658C39.8492 88.0658 39.5581 87.993 39.2987 87.8542C2.64321 68.2061 2.59759 41.5977 2.5675 23.9898C2.56516 23.6684 2.65737 23.3531 2.8332 23.0813C3.00903 22.8094 3.2611 22.5925 3.55953 22.4561C8.773 20.0467 26.7498 11.5367 39.1278 3.11096C39.4255 2.90438 39.7817 2.79338 40.147 2.79338C40.5124 2.79338 40.8686 2.90438 41.1663 3.11096C53.5404 11.5367 71.5172 20.0467 76.7307 22.4561C77.029 22.5924 77.2809 22.8092 77.4568 23.0809C77.6326 23.3525 77.7249 23.6676 77.7227 23.9889C77.6926 41.5977 77.647 68.2061 40.9915 87.8542Z" fill="black"/>
<path d="M72.2474 25.5406C65.1285 22.1779 51.5721 15.4941 40.8063 8.52056C40.6101 8.39363 40.3798 8.32593 40.1443 8.32593C39.9089 8.32593 39.6786 8.39363 39.4823 8.52056C28.7331 15.4818 15.1699 22.1722 8.04326 25.5415C7.83886 25.6371 7.66649 25.7873 7.5462 25.9747C7.42591 26.1621 7.36265 26.3789 7.36378 26.6C7.47929 44.9662 10.07 65.9473 39.5396 82.6246C39.7223 82.7276 39.9295 82.7818 40.1405 82.7818C40.3514 82.7818 40.5587 82.7276 40.7413 82.6246C70.2099 65.9511 72.8016 44.9634 72.9191 26.6C72.9206 26.3796 72.8584 26.1634 72.7396 25.976C72.6208 25.7886 72.4502 25.6377 72.2474 25.5406ZM40.1443 80.2616C12.717 64.479 9.94674 44.7333 9.76814 27.3204C20.2146 22.4299 30.3575 16.9449 40.1443 10.894C49.9325 16.9464 60.0774 22.4317 70.5264 27.3214C70.3419 44.7352 67.5697 64.4837 40.1443 80.2616Z" fill="black"/>
</svg>
