<svg xmlns="http://www.w3.org/2000/svg" xmlns:xlink="http://www.w3.org/1999/xlink" width="170" height="32" viewBox="0 0 170 32"><defs><path id="fwtob" d="M100 89.34l10.28 10.22 10.27-10.22-10.27-10.21z"/><path id="fwtoc" d="M125 73l-16.09 16 16.1 16 16.1-16z"/><path id="fwtod" d="M230.82 90.24a3.1 3.1 0 0 1-2.23.88 3.1 3.1 0 0 1-2.22-.88 2.83 2.83 0 0 1-.92-2.12c0-.83.3-1.54.92-2.13a3.1 3.1 0 0 1 2.22-.88c.87 0 1.61.3 2.23.88.61.59.92 1.3.92 2.13 0 .83-.31 1.54-.92 2.12zm-2.23 3.88a6.2 6.2 0 0 0 4.45-1.76 5.66 5.66 0 0 0 1.84-4.24c0-1.66-.61-3.08-1.84-4.25a6.2 6.2 0 0 0-4.45-1.76 6.2 6.2 0 0 0-4.45 1.76 5.66 5.66 0 0 0-1.84 4.25c0 1.65.61 3.07 1.84 4.24a6.2 6.2 0 0 0 4.45 1.76z"/><path id="fwtoe" d="M243.24 87.9V83.6c0-.41.15-.77.46-1.06.3-.3.68-.44 1.11-.44.44 0 .8.15 1.12.44.3.3.46.65.46 1.06v9.01c0 .42-.16.77-.46 1.06-.31.3-.68.44-1.12.44-.43 0-.8-.14-1.1-.44-.11-.1-.2-.2-.26-.3h-.01l-3.34-5.04v4.28c0 .42-.16.77-.46 1.06-.31.3-.68.44-1.12.44-.43 0-.8-.14-1.11-.44-.3-.29-.46-.64-.46-1.06v-9c0-.42.15-.78.46-1.07.3-.3.68-.44 1.11-.44a1.58 1.58 0 0 1 1.37.75z"/><path id="fwtof" d="M255.33 86.62c.44 0 .8.14 1.11.43.31.3.46.65.46 1.07 0 .41-.15.77-.46 1.06-.3.3-.67.44-1.1.44h-3.15v1.5h4.71c.44 0 .81.15 1.12.44.3.3.46.65.46 1.06 0 .42-.16.77-.46 1.06-.31.3-.68.44-1.12.44h-6.29c-.43 0-.8-.14-1.11-.44-.3-.29-.46-.64-.46-1.06v-9c0-.42.15-.78.46-1.07.3-.3.68-.44 1.11-.44h6.3c.43 0 .8.15 1.1.44.31.3.47.65.47 1.06 0 .42-.16.77-.46 1.06-.31.3-.68.44-1.12.44h-4.71v1.5z"/><path id="fwtoa" d="M269.9 94.12V82.11h-9.43v12.01h9.44z"/><path id="fwtoh" d="M263.62 88.69l-.37-.52-2.58-3.62a1.8 1.8 0 0 1-.2-.94c0-.41.15-.77.46-1.06.3-.3.68-.44 1.11-.44a1.57 1.57 0 0 1 1.37.76l1.78 2.52 1.77-2.53a1.57 1.57 0 0 1 1.37-.76c.44.01.8.16 1.12.45.3.3.46.65.46 1.06 0 .42-.07.73-.2.94l-2.58 3.62-.37.52v3.93c0 .42-.15.77-.46 1.06-.3.3-.68.44-1.11.44-.44 0-.8-.14-1.12-.44-.3-.29-.45-.64-.45-1.06z"/><path id="fwtoi" d="M165.27 92.63c0 .41-.15.77-.46 1.06-.3.3-.67.44-1.1.44a1.55 1.55 0 0 1-1.58-1.5v-9c0-.42.15-.78.46-1.07.3-.3.68-.44 1.11-.44.44 0 .8.15 1.11.44.31.3.46.65.46 1.06z"/><path id="fwtoj" d="M177.98 83.96l.12.1c.3.3.46.65.46 1.06a1.55 1.55 0 0 1-1.57 1.5 1.54 1.54 0 0 1-1.22-.55.46.46 0 0 1-.1-.07 3.1 3.1 0 0 0-2.22-.88c-.87 0-1.61.3-2.23.88-.6.59-.92 1.3-.92 2.12 0 .83.31 1.54.92 2.13a3.1 3.1 0 0 0 2.23.88 3.1 3.1 0 0 0 2.32-.96l.1-.11c.31-.3.68-.44 1.12-.44.43 0 .8.15 1.1.44.31.3.47.65.47 1.07 0 .41-.16.76-.46 1.05l-.16.14-.04.04a6.21 6.21 0 0 1-4.45 1.77 6.2 6.2 0 0 1-4.45-1.76 5.65 5.65 0 0 1-1.84-4.25c0-1.65.61-3.07 1.84-4.24a6.2 6.2 0 0 1 4.45-1.76 6.22 6.22 0 0 1 4.53 1.84"/><path id="fwtok" d="M185.96 85.12c.22 0 .4.08.56.22a.7.7 0 0 1 .23.53.7.7 0 0 1-.23.53.77.77 0 0 1-.56.22h-2.36v-1.5zm.98 8.26h.01c.07.1.16.21.26.3.3.3.67.45 1.1.45.44 0 .81-.15 1.12-.44.3-.3.46-.65.46-1.06 0-.28-.07-.53-.2-.75l-1.81-2.72c.3-.17.6-.38.86-.64a3.53 3.53 0 0 0 1.15-2.65c0-1.03-.38-1.92-1.15-2.65a3.88 3.88 0 0 0-2.78-1.1h-3.93c-.43 0-.8.15-1.11.44-.3.3-.46.65-.46 1.06v9c0 .42.15.78.46 1.07.3.3.68.44 1.11.44.44 0 .8-.15 1.11-.44.31-.3.46-.65.46-1.06v-3h.73z"/><path id="fwtol" d="M200.3 90.25a3.1 3.1 0 0 1-2.23.88 3.1 3.1 0 0 1-2.23-.88 2.83 2.83 0 0 1-.92-2.13c0-.83.31-1.53.92-2.12a3.1 3.1 0 0 1 2.23-.88c.87 0 1.6.3 2.22.88.61.59.92 1.3.92 2.12 0 .83-.3 1.54-.92 2.13zm-2.23 3.88a6.2 6.2 0 0 0 4.44-1.76 5.65 5.65 0 0 0 1.84-4.25c0-1.65-.6-3.07-1.84-4.24a6.2 6.2 0 0 0-4.44-1.76 6.2 6.2 0 0 0-4.45 1.76 5.65 5.65 0 0 0-1.84 4.24c0 1.66.61 3.07 1.84 4.25a6.2 6.2 0 0 0 4.45 1.76z"/><path id="fwtom" d="M159.06 82.26c-.64-.2-1.32.03-1.7.54l-4.15 5.58-4.15-5.58a1.56 1.56 0 0 0-1.7-.54c-.63.2-1.06.75-1.06 1.38v8.96c0 .8.68 1.45 1.52 1.45s1.52-.65 1.52-1.45v-4.4l2.57 3.46c.31.41.8.63 1.3.61.5.02.98-.2 1.3-.61l2.56-3.46v4.4c0 .8.68 1.45 1.52 1.45s1.53-.65 1.53-1.45v-8.96c0-.63-.43-1.19-1.06-1.38"/><path id="fwton" d="M219.18 82.26c-.64-.2-1.32.03-1.7.54l-4.15 5.58-4.15-5.58a1.56 1.56 0 0 0-1.7-.54c-.63.2-1.06.75-1.06 1.38v8.96c0 .8.68 1.45 1.52 1.45s1.52-.65 1.52-1.45v-4.4l2.57 3.46c.31.41.8.63 1.3.61.5.02.98-.2 1.3-.61l2.56-3.46v4.4c0 .8.68 1.45 1.52 1.45s1.53-.65 1.53-1.45v-8.96c0-.63-.43-1.19-1.06-1.38"/><clipPath id="fwtog"><use xlink:href="#fwtoa"/></clipPath></defs><g><g transform="translate(-100 -73)"><use fill="#ff6800" xlink:href="#fwtob"/></g><g transform="translate(-100 -73)"><use fill="#ff6800" xlink:href="#fwtoc"/></g><g transform="translate(-100 -73)"><use fill="#0077c0" xlink:href="#fwtod"/></g><g transform="translate(-100 -73)"><use fill="#0077c0" xlink:href="#fwtoe"/></g><g transform="translate(-100 -73)"><use fill="#0077c0" xlink:href="#fwtof"/></g><g transform="translate(-100 -73)"><g><g/><g clip-path="url(#fwtog)"><use fill="#0077c0" xlink:href="#fwtoh"/></g></g></g><g transform="translate(-100 -73)"><use fill="#0077c0" xlink:href="#fwtoi"/></g><g transform="translate(-100 -73)"><use fill="#0077c0" xlink:href="#fwtoj"/></g><g transform="translate(-100 -73)"><use fill="#0077c0" xlink:href="#fwtok"/></g><g transform="translate(-100 -73)"><use fill="#0077c0" xlink:href="#fwtol"/></g><g transform="translate(-100 -73)"><use fill="#0077c0" xlink:href="#fwtom"/></g><g transform="translate(-100 -73)"><use fill="#0077c0" xlink:href="#fwton"/></g></g></svg>