<svg width="18" height="27" viewBox="0 0 18 27" fill="none" xmlns="http://www.w3.org/2000/svg">
<path d="M17.5 9.5C17.5 14.4964 13.6693 18.5 9 18.5C4.33071 18.5 0.5 14.4964 0.5 9.5C0.5 4.50362 4.33071 0.5 9 0.5C13.6693 0.5 17.5 4.50362 17.5 9.5Z" stroke="black"/>
<path d="M8.64645 26.3536C8.84171 26.5488 9.15829 26.5488 9.35355 26.3536L12.5355 23.1716C12.7308 22.9763 12.7308 22.6597 12.5355 22.4645C12.3403 22.2692 12.0237 22.2692 11.8284 22.4645L9 25.2929L6.17157 22.4645C5.97631 22.2692 5.65973 22.2692 5.46447 22.4645C5.2692 22.6597 5.2692 22.9763 5.46447 23.1716L8.64645 26.3536ZM8.5 9L8.5 26H9.5L9.5 9H8.5Z" fill="black"/>
</svg>
