<svg width="472" height="347" viewBox="0 0 472 347" fill="none" xmlns="http://www.w3.org/2000/svg">
<rect x="0.763184" y="270.109" width="21.6469" height="76.6558" fill="#F8F8F8"/>
<rect x="30.7358" y="235.114" width="21.6469" height="111.651" fill="#F8F8F8"/>
<rect x="60.7085" y="260.111" width="21.6469" height="86.6544" fill="#F8F8F8"/>
<rect x="90.6812" y="175.123" width="21.6469" height="171.642" fill="#F8F8F8"/>
<rect x="120.654" y="88.4685" width="21.6469" height="258.297" fill="#F8F8F8"/>
<rect x="150.626" y="151.793" width="21.6469" height="194.972" fill="#F8F8F8"/>
<rect x="180.599" y="193.454" width="21.6469" height="153.312" fill="#F8F8F8"/>
<rect x="210.572" y="175.123" width="21.6469" height="171.642" fill="#F8F8F8"/>
<rect x="240.544" y="223.449" width="21.6469" height="123.316" fill="#F8F8F8"/>
<rect x="270.517" y="285.107" width="21.6469" height="61.6579" fill="#F8F8F8"/>
<rect x="300.49" y="250.112" width="21.6469" height="96.653" fill="#F8F8F8"/>
<rect x="330.462" y="193.454" width="21.6469" height="153.312" fill="#F8F8F8"/>
<rect x="360.435" y="133.462" width="21.6469" height="213.303" fill="#F8F8F8"/>
<rect x="390.408" y="235.114" width="21.6469" height="111.651" fill="#F8F8F8"/>
<rect x="420.38" y="175.123" width="21.6469" height="171.642" fill="#F8F8F8"/>
<rect x="450.353" y="270.109" width="21.6469" height="76.6558" fill="#F8F8F8"/>
<path opacity="0.4" fill-rule="evenodd" clip-rule="evenodd" d="M258.056 205.832C258.056 207.043 257.795 208.135 257.273 209.107C256.751 210.079 256.033 210.84 255.117 211.39C254.201 211.94 253.171 212.215 252.028 212.215C250.884 212.215 249.855 211.94 248.939 211.39C248.023 210.84 247.304 210.079 246.783 209.107C246.261 208.135 246 207.043 246 205.832C246 204.621 246.261 203.533 246.783 202.566C247.304 201.599 248.023 200.838 248.939 200.283C249.855 199.727 250.884 199.45 252.028 199.45C253.171 199.45 254.201 199.727 255.117 200.283C256.033 200.838 256.751 201.599 257.273 202.566C257.795 203.533 258.056 204.621 258.056 205.832ZM255.758 205.832C255.758 205.144 255.6 204.522 255.283 203.966C254.967 203.411 254.526 202.975 253.959 202.658C253.393 202.341 252.749 202.183 252.028 202.183C251.306 202.183 250.662 202.341 250.096 202.658C249.53 202.975 249.089 203.411 248.772 203.966C248.456 204.522 248.298 205.144 248.298 205.832C248.298 206.521 248.456 207.143 248.772 207.699C249.089 208.254 249.53 208.69 250.096 209.007C250.662 209.324 251.306 209.482 252.028 209.482C252.749 209.482 253.393 209.324 253.959 209.007C254.526 208.69 254.967 208.254 255.283 207.699C255.6 207.143 255.758 206.521 255.758 205.832ZM253.277 191.316L254.908 192.882H257.856V195.565H246.2V192.882H251.645L246.2 187.716V184.717L251.395 189.549L257.856 184.433V187.583L253.277 191.316ZM255.691 172.35H257.856V181.382H246.2V172.566H248.364V178.699H250.895V173.283H252.994V178.699H255.691V172.35ZM257.856 161.116L253.809 163.933L257.856 166.699V169.798L251.928 165.482L246.2 169.582V166.515L249.98 163.833L246.2 161.2V158.283L251.828 162.349L257.856 158V161.116Z" fill="#9B9B9B"/>
<path opacity="0.4" fill-rule="evenodd" clip-rule="evenodd" d="M34.1841 211.686H45.8401V214.385H41.0611V219.685H45.8401V222.384H34.1841V219.685H38.7799V214.385H34.1841V211.686ZM36.8818 207.251V204.652H45.8403V207.251H36.8818ZM35.6327 205.951C35.6327 206.429 35.4939 206.818 35.2164 207.118C34.9389 207.418 34.5948 207.568 34.184 207.568C33.7733 207.568 33.4292 207.418 33.1516 207.118C32.8741 206.818 32.7354 206.429 32.7354 205.951C32.7354 205.474 32.8686 205.085 33.135 204.785C33.4014 204.485 33.7344 204.335 34.1341 204.335C34.567 204.335 34.925 204.485 35.2081 204.785C35.4912 205.085 35.6327 205.474 35.6327 205.951ZM45.4075 194.601C45.5962 194.857 45.7377 195.171 45.8321 195.543C45.9264 195.915 45.9736 196.306 45.9736 196.718C45.9736 197.784 45.7016 198.609 45.1577 199.192C44.6137 199.775 43.8145 200.067 42.7599 200.067H39.0799V201.45H37.0817V200.067H34.9004V197.467H37.0817V195.234H39.0799V197.467H42.7266C43.104 197.467 43.3954 197.37 43.6008 197.176C43.8062 196.981 43.9088 196.706 43.9088 196.351C43.9088 195.94 43.7978 195.59 43.5758 195.301L45.4075 194.601ZM39.779 182.534C39.9899 181.868 40.3423 181.346 40.8363 180.968C41.3303 180.59 41.9381 180.401 42.6597 180.401C43.681 180.401 44.4664 180.799 45.0159 181.593C45.5654 182.387 45.8401 183.545 45.8401 185.067V191.1H34.1841V185.401C34.1841 183.979 34.4561 182.887 35 182.126C35.544 181.365 36.2822 180.985 37.2146 180.985C37.7808 180.985 38.2859 181.121 38.7299 181.393C39.174 181.665 39.5237 182.046 39.779 182.534ZM36.2153 188.417H38.9628V185.734C38.9628 185.067 38.8463 184.562 38.6131 184.217C38.38 183.873 38.0359 183.701 37.5808 183.701C37.1256 183.701 36.7843 183.873 36.5567 184.217C36.3291 184.562 36.2153 185.067 36.2153 185.734V188.417ZM43.8084 185.267C43.8084 184.556 43.6919 184.02 43.4588 183.659C43.2256 183.298 42.8649 183.118 42.3764 183.118C41.4106 183.118 40.9277 183.834 40.9277 185.267V188.417H43.8084V185.267ZM36.3821 174.25V177.983H34.1841V167.818H36.3821V171.551H45.8401V174.25H36.3821ZM46.04 159.101C46.04 160.289 45.7819 161.364 45.2657 162.325C44.7495 163.286 44.0335 164.042 43.1177 164.592C42.2019 165.142 41.1667 165.417 40.0122 165.417C38.8577 165.417 37.8225 165.142 36.9067 164.592C35.9909 164.042 35.2749 163.286 34.7587 162.325C34.2425 161.364 33.9844 160.284 33.9844 159.084C33.9844 158.073 34.162 157.159 34.5172 156.343C34.8725 155.526 35.3831 154.84 36.0492 154.285L37.6477 156.018C36.7374 156.807 36.2823 157.784 36.2823 158.951C36.2823 159.673 36.4405 160.317 36.7568 160.884C37.0732 161.45 37.5145 161.892 38.0806 162.209C38.6468 162.525 39.2906 162.684 40.0122 162.684C40.7338 162.684 41.3776 162.525 41.9438 162.209C42.5099 161.892 42.9512 161.45 43.2676 160.884C43.584 160.317 43.7421 159.673 43.7421 158.951C43.7421 157.784 43.2815 156.807 42.3601 156.018L43.9586 154.285C44.6358 154.84 45.152 155.529 45.5072 156.351C45.8624 157.173 46.04 158.09 46.04 159.101Z" fill="#9B9B9B"/>
<path opacity="0.4" fill-rule="evenodd" clip-rule="evenodd" d="M220.975 156.351H225.105V159.05H220.942L213.449 163.566V160.7L218.627 157.584L213.449 154.468V151.818L220.975 156.351ZM225.238 145.75C225.238 146.695 225.041 147.542 224.647 148.292C224.253 149.042 223.706 149.628 223.007 150.05C222.307 150.472 221.514 150.683 220.626 150.683C219.738 150.683 218.944 150.472 218.244 150.05C217.545 149.628 216.998 149.042 216.604 148.292C216.21 147.542 216.013 146.695 216.013 145.75C216.013 144.806 216.21 143.962 216.604 143.217C216.998 142.473 217.545 141.89 218.244 141.468C218.944 141.046 219.738 140.835 220.626 140.835C221.514 140.835 222.307 141.046 223.007 141.468C223.706 141.89 224.253 142.473 224.647 143.217C225.041 143.962 225.238 144.806 225.238 145.75ZM223.107 145.751C223.107 145.084 222.882 144.537 222.432 144.109C221.983 143.681 221.38 143.468 220.626 143.468C219.871 143.468 219.269 143.681 218.819 144.109C218.369 144.537 218.145 145.084 218.145 145.751C218.145 146.417 218.369 146.967 218.819 147.4C219.269 147.834 219.871 148.05 220.626 148.05C221.38 148.05 221.983 147.834 222.432 147.4C222.882 146.967 223.107 146.417 223.107 145.751ZM219.044 128.501C219.255 127.834 219.607 127.312 220.101 126.935C220.595 126.557 221.203 126.368 221.924 126.368C222.946 126.368 223.731 126.765 224.281 127.559C224.83 128.354 225.105 129.512 225.105 131.034V137.066H213.449V131.367C213.449 129.945 213.721 128.854 214.265 128.093C214.809 127.332 215.547 126.951 216.479 126.951C217.045 126.951 217.551 127.087 217.995 127.359C218.439 127.632 218.788 128.012 219.044 128.501ZM215.48 134.384H218.228V131.701C218.228 131.034 218.111 130.529 217.878 130.184C217.645 129.84 217.301 129.668 216.846 129.668C216.391 129.668 216.049 129.84 215.822 130.184C215.594 130.529 215.48 131.034 215.48 131.701V134.384ZM223.074 131.234C223.074 130.523 222.957 129.987 222.724 129.626C222.491 129.265 222.13 129.084 221.642 129.084C220.676 129.084 220.193 129.801 220.193 131.234V134.384H223.074V131.234ZM216.146 122.65V120.05H225.105V122.65H216.146ZM214.897 121.35C214.897 121.828 214.759 122.217 214.481 122.517C214.204 122.817 213.859 122.967 213.449 122.967C213.038 122.967 212.694 122.817 212.416 122.517C212.139 122.217 212 121.828 212 121.35C212 120.872 212.133 120.484 212.4 120.184C212.666 119.884 212.999 119.734 213.399 119.734C213.832 119.734 214.19 119.884 214.473 120.184C214.756 120.484 214.897 120.872 214.897 121.35ZM224.672 110C224.861 110.256 225.002 110.569 225.097 110.942C225.191 111.314 225.238 111.705 225.238 112.116C225.238 113.183 224.966 114.008 224.422 114.591C223.878 115.174 223.079 115.466 222.025 115.466H218.345V116.849H216.346V115.466H214.165V112.866H216.346V110.633H218.345V112.866H221.991C222.369 112.866 222.66 112.769 222.865 112.575C223.071 112.38 223.173 112.105 223.173 111.75C223.173 111.339 223.062 110.989 222.84 110.7L224.672 110Z" fill="#9B9B9B"/>
<path opacity="0.4" fill-rule="evenodd" clip-rule="evenodd" d="M275.449 263.768H287.105V266.467H282.326V271.766H287.105V274.466H275.449V271.766H280.045V266.467H275.449V263.768ZM278.146 250.301H287.104V252.767H286.039C286.427 253.112 286.724 253.523 286.93 254C287.135 254.478 287.238 254.995 287.238 255.55C287.238 256.728 286.899 257.661 286.222 258.35C285.545 259.039 284.54 259.383 283.208 259.383H278.146V256.783H282.825C284.268 256.783 284.99 256.178 284.99 254.967C284.99 254.345 284.787 253.845 284.382 253.467C283.977 253.089 283.375 252.901 282.575 252.901H278.146V250.301ZM287.238 241.767C287.238 242.711 287.041 243.558 286.647 244.308C286.253 245.058 285.706 245.644 285.007 246.066C284.307 246.489 283.514 246.7 282.626 246.7C281.738 246.7 280.944 246.489 280.244 246.066C279.545 245.644 278.998 245.058 278.604 244.308C278.21 243.558 278.013 242.711 278.013 241.767C278.013 240.823 278.21 239.978 278.604 239.234C278.998 238.49 279.545 237.906 280.244 237.484C280.944 237.062 281.738 236.851 282.626 236.851C283.514 236.851 284.307 237.062 285.007 237.484C285.706 237.906 286.253 238.49 286.647 239.234C287.041 239.978 287.238 240.823 287.238 241.767ZM285.107 241.767C285.107 241.1 284.882 240.553 284.432 240.126C283.983 239.698 283.38 239.484 282.626 239.484C281.871 239.484 281.269 239.698 280.819 240.126C280.369 240.553 280.145 241.1 280.145 241.767C280.145 242.434 280.369 242.983 280.819 243.417C281.269 243.85 281.871 244.067 282.626 244.067C283.38 244.067 283.983 243.85 284.432 243.417C284.882 242.983 285.107 242.434 285.107 241.767ZM278.013 227.967C278.013 227.134 278.205 226.376 278.588 225.692C278.971 225.009 279.509 224.473 280.203 224.084C280.897 223.695 281.704 223.501 282.626 223.501C283.547 223.501 284.355 223.695 285.048 224.084C285.742 224.473 286.281 225.009 286.664 225.692C287.047 226.376 287.238 227.134 287.238 227.967C287.238 229.2 286.85 230.139 286.073 230.783H287.105V233.266H274.75V230.667H279.096C278.374 230.011 278.013 229.111 278.013 227.967ZM285.107 228.417C285.107 227.75 284.882 227.203 284.432 226.776C283.983 226.348 283.38 226.134 282.626 226.134C281.871 226.134 281.269 226.348 280.819 226.776C280.369 227.203 280.145 227.75 280.145 228.417C280.145 229.084 280.369 229.631 280.819 230.058C281.269 230.486 281.871 230.7 282.626 230.7C283.38 230.7 283.983 230.486 284.432 230.058C284.882 229.631 285.107 229.084 285.107 228.417ZM278.146 219.916V217.317H287.104V219.916H278.146ZM276.897 218.616C276.897 219.094 276.759 219.483 276.481 219.783C276.204 220.083 275.859 220.233 275.449 220.233C275.038 220.233 274.694 220.083 274.416 219.783C274.139 219.483 274 219.094 274 218.616C274 218.139 274.133 217.75 274.4 217.45C274.666 217.15 274.999 217 275.399 217C275.832 217 276.19 217.15 276.473 217.45C276.756 217.75 276.897 218.139 276.897 218.616Z" fill="#9B9B9B"/>
<path opacity="0.4" fill-rule="evenodd" clip-rule="evenodd" d="M311.044 230.051C311.255 229.384 311.607 228.862 312.101 228.484C312.595 228.107 313.203 227.918 313.924 227.918C314.946 227.918 315.731 228.315 316.281 229.109C316.83 229.904 317.105 231.062 317.105 232.584V238.616H305.449V232.917C305.449 231.495 305.721 230.403 306.265 229.642C306.809 228.881 307.547 228.501 308.479 228.501C309.045 228.501 309.551 228.637 309.995 228.909C310.439 229.181 310.788 229.562 311.044 230.051ZM307.48 235.933H310.228V233.25C310.228 232.584 310.111 232.078 309.878 231.734C309.645 231.39 309.301 231.217 308.846 231.217C308.391 231.217 308.049 231.39 307.822 231.734C307.594 232.078 307.48 232.584 307.48 233.25V235.933ZM315.074 232.784C315.074 232.073 314.957 231.537 314.724 231.176C314.491 230.815 314.13 230.634 313.642 230.634C312.676 230.634 312.193 231.351 312.193 232.784V235.933H315.074V232.784ZM308.146 224.2V221.6H317.105V224.2H308.146ZM306.897 222.9C306.897 223.378 306.759 223.766 306.481 224.066C306.204 224.366 305.859 224.516 305.449 224.516C305.038 224.516 304.694 224.366 304.416 224.066C304.139 223.766 304 223.378 304 222.9C304 222.422 304.133 222.033 304.4 221.733C304.666 221.433 304.999 221.283 305.399 221.283C305.832 221.283 306.19 221.433 306.473 221.733C306.756 222.033 306.897 222.422 306.897 222.9ZM308.013 211.883C308.013 210.772 308.346 209.875 309.012 209.192C309.678 208.509 310.666 208.167 311.976 208.167H317.105V210.767H312.376C311.665 210.767 311.135 210.922 310.786 211.233C310.436 211.544 310.261 211.994 310.261 212.583C310.261 213.238 310.464 213.761 310.869 214.149C311.274 214.538 311.876 214.733 312.676 214.733H317.105V217.332H308.146V214.849H309.195C308.818 214.505 308.527 214.077 308.321 213.566C308.116 213.055 308.013 212.494 308.013 211.883ZM308.013 200.349C308.013 198.961 308.343 197.894 309.004 197.15C309.664 196.406 310.661 196.033 311.993 196.033H317.105V198.466H315.989C316.822 198.955 317.238 199.866 317.238 201.199C317.238 201.888 317.122 202.485 316.888 202.991C316.655 203.496 316.333 203.882 315.923 204.149C315.512 204.416 315.046 204.549 314.524 204.549C313.691 204.549 313.036 204.235 312.559 203.607C312.082 202.98 311.843 202.01 311.843 200.699V198.633C311.277 198.633 310.841 198.805 310.536 199.15C310.231 199.494 310.078 200.011 310.078 200.699C310.078 201.177 310.153 201.646 310.303 202.108C310.453 202.569 310.655 202.96 310.911 203.282L309.096 204.216C308.751 203.727 308.485 203.141 308.296 202.457C308.108 201.774 308.013 201.072 308.013 200.349ZM315.49 200.549C315.49 200.105 315.387 199.711 315.182 199.366C314.976 199.022 314.674 198.777 314.274 198.633H313.358V200.416C313.358 201.483 313.708 202.016 314.407 202.016C314.74 202.016 315.004 201.885 315.198 201.624C315.393 201.363 315.49 201.005 315.49 200.549ZM308.013 186.383C308.013 185.272 308.346 184.375 309.012 183.692C309.678 183.009 310.666 182.667 311.976 182.667H317.105V185.267H312.376C311.665 185.267 311.135 185.422 310.786 185.733C310.436 186.044 310.261 186.494 310.261 187.083C310.261 187.738 310.464 188.261 310.869 188.649C311.274 189.038 311.876 189.233 312.676 189.233H317.105V191.832H308.146V189.349H309.195C308.818 189.005 308.527 188.577 308.321 188.066C308.116 187.555 308.013 186.994 308.013 186.383ZM317.238 174.033C317.238 174.988 317.041 175.847 316.647 176.608C316.253 177.369 315.706 177.963 315.007 178.391C314.307 178.818 313.514 179.032 312.626 179.032C311.738 179.032 310.944 178.818 310.244 178.391C309.545 177.963 308.998 177.369 308.604 176.608C308.21 175.847 308.013 174.988 308.013 174.033C308.013 173.089 308.21 172.264 308.604 171.558C308.998 170.853 309.562 170.339 310.294 170.017L311.377 172.033C310.555 172.5 310.145 173.172 310.145 174.05C310.145 174.727 310.367 175.288 310.811 175.733C311.255 176.177 311.86 176.399 312.626 176.399C313.392 176.399 313.997 176.177 314.441 175.733C314.885 175.288 315.107 174.727 315.107 174.05C315.107 173.161 314.696 172.489 313.875 172.033L314.973 170.017C315.684 170.339 316.239 170.853 316.639 171.558C317.038 172.264 317.238 173.089 317.238 174.033ZM312.659 158C312.692 158 312.925 158.017 313.358 158.05V164.832C313.913 164.71 314.352 164.421 314.674 163.966C314.996 163.51 315.157 162.944 315.157 162.266C315.157 161.8 315.087 161.386 314.949 161.025C314.81 160.664 314.591 160.328 314.291 160.016L315.789 158.633C316.755 159.478 317.238 160.711 317.238 162.333C317.238 163.344 317.041 164.238 316.647 165.016C316.253 165.793 315.706 166.393 315.007 166.815C314.307 167.238 313.514 167.449 312.626 167.449C311.749 167.449 310.958 167.24 310.253 166.824C309.548 166.407 308.998 165.835 308.604 165.107C308.21 164.38 308.013 163.566 308.013 162.666C308.013 161.788 308.202 160.994 308.579 160.283C308.957 159.572 309.498 159.014 310.203 158.608C310.908 158.203 311.726 158 312.659 158ZM309.978 162.649C309.978 163.238 310.145 163.732 310.478 164.132C310.811 164.532 311.266 164.777 311.843 164.865V160.449C311.277 160.538 310.824 160.783 310.486 161.183C310.147 161.583 309.978 162.071 309.978 162.649Z" fill="#9B9B9B"/>
<rect x="0.637207" y="285.126" width="2.73047" height="21.314" fill="#FD6700"/>
<rect x="4.73291" y="263.812" width="2.73047" height="34.1025" fill="#FD6700"/>
<rect x="8.82861" y="275.18" width="2.73047" height="38.3653" fill="#FD6700"/>
<rect x="12.9243" y="280.864" width="2.73047" height="28.4187" fill="#FD6700"/>
<rect x="17.02" y="275.18" width="2.73047" height="17.0512" fill="#FD6700"/>
<rect x="19.7505" y="297.879" width="2.73047" height="21.314" fill="#FD6700"/>
<rect x="23.8462" y="276.564" width="2.73047" height="34.1025" fill="#FD6700"/>
<rect x="27.9419" y="287.932" width="2.73047" height="38.3653" fill="#FD6700"/>
<rect x="32.0376" y="293.616" width="2.73047" height="28.4187" fill="#FD6700"/>
<rect x="36.1333" y="287.932" width="2.73047" height="17.0512" fill="#FD6700"/>
<rect x="31.2183" y="265.999" width="2.73047" height="21.314" fill="#FD6700"/>
<rect x="35.314" y="244.685" width="2.73047" height="34.1025" fill="#FD6700"/>
<rect x="39.4097" y="256.052" width="2.73047" height="38.3653" fill="#FD6700"/>
<rect x="43.5054" y="261.736" width="2.73047" height="28.4187" fill="#FD6700"/>
<rect x="47.6011" y="256.052" width="2.73047" height="17.0512" fill="#FD6700"/>
<rect x="43.9604" y="297.879" width="2.73047" height="21.314" fill="#FD6700"/>
<rect x="48.0562" y="276.564" width="2.73047" height="34.1025" fill="#FD6700"/>
<rect x="52.1519" y="287.932" width="2.73047" height="38.3653" fill="#FD6700"/>
<rect x="56.2476" y="293.616" width="2.73047" height="28.4187" fill="#FD6700"/>
<rect x="60.3433" y="287.932" width="2.73047" height="17.0512" fill="#FD6700"/>
<rect x="61.7998" y="308.08" width="2.73047" height="21.314" fill="#FD6700"/>
<rect x="65.8955" y="286.766" width="2.73047" height="34.1025" fill="#FD6700"/>
<rect x="69.9912" y="298.134" width="2.73047" height="38.3653" fill="#FD6700"/>
<rect x="74.0869" y="303.817" width="2.73047" height="28.4187" fill="#FD6700"/>
<rect x="78.1826" y="298.134" width="2.73047" height="17.0512" fill="#FD6700"/>
<rect x="74.0322" y="279.342" width="2.80328" height="21.1774" fill="#FD6700"/>
<rect x="69.8271" y="263.812" width="2.80328" height="33.8839" fill="#FD6700"/>
<rect x="65.6221" y="268.048" width="2.80328" height="16.9419" fill="#FD6700"/>
<rect x="86.647" y="275.107" width="2.80328" height="28.2366" fill="#FD6700"/>
<rect x="90.8516" y="269.459" width="2.80328" height="16.9419" fill="#FD6700"/>
<rect x="86.0098" y="249.421" width="2.73047" height="21.314" fill="#FD6700"/>
<rect x="90.1055" y="228.107" width="2.73047" height="34.1025" fill="#FD6700"/>
<rect x="94.2012" y="239.474" width="2.73047" height="38.3653" fill="#FD6700"/>
<rect x="98.2969" y="245.158" width="2.73047" height="28.4187" fill="#FD6700"/>
<rect x="102.393" y="239.474" width="2.73047" height="17.0512" fill="#FD6700"/>
<rect x="98.752" y="221.366" width="2.73047" height="21.314" fill="#FD6700"/>
<rect x="102.848" y="200.052" width="2.73047" height="34.1025" fill="#FD6700"/>
<rect x="106.943" y="211.42" width="2.73047" height="38.3653" fill="#FD6700"/>
<rect x="111.039" y="217.104" width="2.73047" height="28.4187" fill="#FD6700"/>
<rect x="115.135" y="211.42" width="2.73047" height="17.0512" fill="#FD6700"/>
<rect x="138.253" y="233.744" width="2.79706" height="21.1415" fill="#FD6700"/>
<rect x="194.194" y="245.02" width="2.79706" height="21.1415" fill="#FD6700"/>
<rect x="142.448" y="230.926" width="2.79706" height="33.8263" fill="#FD6700"/>
<rect x="146.644" y="242.201" width="2.79706" height="38.0546" fill="#FD6700"/>
<rect x="150.839" y="247.839" width="2.79706" height="28.1886" fill="#FD6700"/>
<rect x="198.39" y="228.107" width="2.79706" height="33.8263" fill="#FD6700"/>
<rect x="202.585" y="239.382" width="2.79706" height="38.0546" fill="#FD6700"/>
<rect x="206.781" y="245.02" width="2.79706" height="28.1886" fill="#FD6700"/>
<rect x="226.36" y="247.839" width="2.79706" height="33.8263" fill="#FD6700"/>
<rect x="230.556" y="259.114" width="2.79706" height="38.0546" fill="#FD6700"/>
<rect x="234.751" y="264.752" width="2.79706" height="28.1886" fill="#FD6700"/>
<rect x="255.729" y="284.484" width="2.79706" height="38.0546" fill="#FD6700"/>
<rect x="259.925" y="290.122" width="2.79706" height="28.1886" fill="#FD6700"/>
<rect x="292.091" y="307.035" width="2.79706" height="28.1886" fill="#FD6700"/>
<rect x="307.475" y="283.074" width="2.79706" height="28.1886" fill="#FD6700"/>
<rect x="157.366" y="238.854" width="2.80886" height="20.9497" fill="#FD6700"/>
<rect x="213.543" y="265.391" width="2.80886" height="20.9497" fill="#FD6700"/>
<rect x="221.97" y="244.441" width="2.80886" height="20.9497" fill="#FD6700"/>
<rect x="264.103" y="297.514" width="2.80886" height="20.9497" fill="#FD6700"/>
<rect x="296.405" y="314.274" width="2.80886" height="20.9497" fill="#FD6700"/>
<rect x="303.427" y="297.514" width="2.80886" height="20.9497" fill="#FD6700"/>
<rect x="268.316" y="310.084" width="2.80886" height="20.9497" fill="#FD6700"/>
<rect x="226.183" y="237.458" width="2.80886" height="20.9497" fill="#FD6700"/>
<rect x="346.964" y="255.615" width="2.80886" height="20.9497" fill="#FD6700"/>
<rect x="161.58" y="217.905" width="2.80886" height="33.5195" fill="#FD6700"/>
<rect x="165.793" y="229.078" width="2.80886" height="37.7095" fill="#FD6700"/>
<rect x="170.006" y="234.665" width="2.80886" height="27.9329" fill="#FD6700"/>
<rect x="174.219" y="229.078" width="2.80886" height="16.7598" fill="#FD6700"/>
<rect x="91.1064" y="200.052" width="2.86699" height="38.256" fill="#FD6700"/>
<rect x="95.4067" y="205.72" width="2.86699" height="28.3378" fill="#FD6700"/>
<rect x="99.7075" y="200.052" width="2.86699" height="17.0027" fill="#FD6700"/>
<rect x="94.9292" y="181.916" width="2.86699" height="21.2533" fill="#FD6700"/>
<rect x="103.53" y="171.998" width="2.86699" height="38.256" fill="#FD6700"/>
<rect x="74.0322" y="279.342" width="2.80328" height="21.1774" fill="#FD6700"/>
<rect x="69.8271" y="263.812" width="2.80328" height="33.8839" fill="#FD6700"/>
<rect x="65.6221" y="268.048" width="2.80328" height="16.9419" fill="#FD6700"/>
<rect x="86.647" y="275.107" width="2.80328" height="28.2366" fill="#FD6700"/>
<rect x="90.8516" y="269.459" width="2.80328" height="16.9419" fill="#FD6700"/>
<rect x="86.0098" y="249.421" width="2.73047" height="21.314" fill="#FD6700"/>
<rect x="90.1055" y="228.107" width="2.73047" height="34.1025" fill="#FD6700"/>
<rect x="94.2012" y="239.474" width="2.73047" height="38.3653" fill="#FD6700"/>
<rect x="98.2969" y="245.158" width="2.73047" height="28.4187" fill="#FD6700"/>
<rect x="102.393" y="239.474" width="2.73047" height="17.0512" fill="#FD6700"/>
<rect x="91.1064" y="200.052" width="2.86699" height="38.256" fill="#FD6700"/>
<rect x="95.4067" y="205.72" width="2.86699" height="28.3378" fill="#FD6700"/>
<rect x="99.7075" y="200.052" width="2.86699" height="17.0027" fill="#FD6700"/>
<rect x="94.9292" y="181.916" width="2.86699" height="21.2533" fill="#FD6700"/>
<rect x="103.53" y="171.998" width="2.86699" height="38.256" fill="#FD6700"/>
<rect x="153.543" y="174.891" width="2.80098" height="20.9941" fill="#FD6700"/>
<rect x="243.175" y="247.67" width="2.80098" height="20.9941" fill="#FD6700"/>
<rect x="453.249" y="293.857" width="2.80098" height="20.9941" fill="#FD6700"/>
<rect x="428.04" y="293.857" width="2.80098" height="20.9941" fill="#FD6700"/>
<rect x="303.396" y="272.863" width="2.80098" height="20.9941" fill="#FD6700"/>
<rect x="273.986" y="307.853" width="2.80098" height="20.9941" fill="#FD6700"/>
<rect x="213.765" y="202.883" width="2.80098" height="20.9941" fill="#FD6700"/>
<rect x="334.207" y="221.077" width="2.80098" height="20.9941" fill="#FD6700"/>
<rect x="161.947" y="156.696" width="2.80098" height="33.5906" fill="#FD6700"/>
<rect x="157.745" y="160.894" width="2.80098" height="16.7953" fill="#FD6700"/>
<rect x="251.578" y="229.475" width="2.80098" height="33.5906" fill="#FD6700"/>
<rect x="247.376" y="233.674" width="2.80098" height="16.7953" fill="#FD6700"/>
<rect x="461.651" y="275.662" width="2.80098" height="33.5906" fill="#FD6700"/>
<rect x="457.45" y="279.861" width="2.80098" height="16.7953" fill="#FD6700"/>
<rect x="436.442" y="275.662" width="2.80098" height="33.5906" fill="#FD6700"/>
<rect x="432.241" y="279.861" width="2.80098" height="16.7953" fill="#FD6700"/>
<rect x="311.799" y="254.668" width="2.80098" height="33.5906" fill="#FD6700"/>
<rect x="307.598" y="258.867" width="2.80098" height="16.7953" fill="#FD6700"/>
<rect x="324.403" y="265.865" width="2.80098" height="33.5906" fill="#FD6700"/>
<rect x="353.814" y="214.079" width="2.80098" height="33.5906" fill="#FD6700"/>
<rect x="432.241" y="205.682" width="2.80098" height="33.5906" fill="#FD6700"/>
<rect x="428.04" y="239.272" width="2.80098" height="33.5906" fill="#FD6700"/>
<rect x="419.637" y="253.269" width="2.80098" height="33.5906" fill="#FD6700"/>
<rect x="320.202" y="270.064" width="2.80098" height="16.7953" fill="#FD6700"/>
<rect x="334.207" y="284.06" width="2.80098" height="16.7953" fill="#FD6700"/>
<rect x="282.389" y="289.658" width="2.80098" height="33.5906" fill="#FD6700"/>
<rect x="278.188" y="293.857" width="2.80098" height="16.7953" fill="#FD6700"/>
<rect x="222.168" y="184.688" width="2.80098" height="33.5906" fill="#FD6700"/>
<rect x="217.966" y="188.886" width="2.80098" height="16.7953" fill="#FD6700"/>
<rect x="342.61" y="202.883" width="2.80098" height="33.5906" fill="#FD6700"/>
<rect x="338.408" y="207.081" width="2.80098" height="16.7953" fill="#FD6700"/>
<rect x="185.755" y="239.272" width="2.80098" height="16.7953" fill="#FD6700"/>
<rect x="181.576" y="220.091" width="2.73047" height="21.314" fill="#FD6700"/>
<rect x="185.672" y="198.777" width="2.73047" height="34.1025" fill="#FD6700"/>
<rect x="189.768" y="210.145" width="2.73047" height="38.3653" fill="#FD6700"/>
<rect x="193.863" y="215.828" width="2.73047" height="28.4187" fill="#FD6700"/>
<rect x="197.959" y="210.145" width="2.73047" height="17.0512" fill="#FD6700"/>
<rect x="363.789" y="220.091" width="2.73047" height="21.314" fill="#FD6700"/>
<rect x="367.885" y="198.777" width="2.73047" height="34.1025" fill="#FD6700"/>
<rect x="371.98" y="210.145" width="2.73047" height="38.3653" fill="#FD6700"/>
<rect x="376.076" y="215.828" width="2.73047" height="28.4187" fill="#FD6700"/>
<rect x="380.172" y="210.145" width="2.73047" height="17.0512" fill="#FD6700"/>
<rect x="390.548" y="263.448" width="2.73047" height="21.314" fill="#FD6700"/>
<rect x="394.644" y="242.134" width="2.73047" height="34.1025" fill="#FD6700"/>
<rect x="398.739" y="253.501" width="2.73047" height="38.3653" fill="#FD6700"/>
<rect x="402.835" y="259.185" width="2.73047" height="28.4187" fill="#FD6700"/>
<rect x="406.931" y="253.501" width="2.73047" height="17.0512" fill="#FD6700"/>
<rect x="376.531" y="249.421" width="2.86699" height="21.314" fill="#FD6700"/>
<rect x="380.832" y="228.107" width="2.86699" height="34.1025" fill="#FD6700"/>
<rect x="385.132" y="239.474" width="2.86699" height="38.3653" fill="#FD6700"/>
<rect x="153.543" y="198.777" width="2.86699" height="38.256" fill="#FD6700"/>
<rect x="157.844" y="204.445" width="2.86699" height="28.3378" fill="#FD6700"/>
<rect x="162.145" y="198.777" width="2.86699" height="17.0027" fill="#FD6700"/>
<rect x="157.366" y="180.641" width="2.86699" height="21.2533" fill="#FD6700"/>
<rect x="165.967" y="170.723" width="2.86699" height="38.256" fill="#FD6700"/>
<rect x="244.013" y="271.464" width="2.79828" height="37.8734" fill="#FD6700"/>
<rect x="248.21" y="277.074" width="2.79828" height="28.0544" fill="#FD6700"/>
<rect x="252.407" y="271.464" width="2.79828" height="16.8326" fill="#FD6700"/>
<rect x="312.57" y="296.713" width="2.79828" height="16.8326" fill="#FD6700"/>
<rect x="247.835" y="254.046" width="2.8065" height="20.9941" fill="#FD6700"/>
<rect x="458.323" y="300.233" width="2.8065" height="20.9941" fill="#FD6700"/>
<rect x="433.065" y="300.233" width="2.8065" height="20.9941" fill="#FD6700"/>
<rect x="278.707" y="314.229" width="2.8065" height="20.9941" fill="#FD6700"/>
<rect x="287.126" y="307.231" width="2.8065" height="20.9941" fill="#FD6700"/>
<rect x="256.255" y="244.249" width="2.8065" height="37.7894" fill="#FD6700"/>
<rect x="466.743" y="290.436" width="2.8065" height="37.7894" fill="#FD6700"/>
<rect x="441.484" y="290.436" width="2.8065" height="37.7894" fill="#FD6700"/>
<rect x="447.097" y="301.633" width="2.8065" height="16.7953" fill="#FD6700"/>
<rect x="316.595" y="269.442" width="2.8065" height="37.7894" fill="#FD6700"/>
<rect x="329.224" y="280.639" width="2.8065" height="25.193" fill="#FD6700"/>
<rect x="358.692" y="228.853" width="2.8065" height="25.193" fill="#FD6700"/>
<rect x="437.274" y="220.456" width="2.8065" height="25.193" fill="#FD6700"/>
<rect x="433.064" y="254.046" width="2.8065" height="25.193" fill="#FD6700"/>
<rect x="424.645" y="268.042" width="2.8065" height="25.193" fill="#FD6700"/>
<rect x="414.822" y="270.842" width="2.8065" height="25.193" fill="#FD6700"/>
<rect x="343.257" y="263.843" width="2.8065" height="25.193" fill="#FD6700"/>
<rect x="339.047" y="282.038" width="2.8065" height="25.193" fill="#FD6700"/>
<rect x="213.431" y="226.832" width="2.86699" height="38.256" fill="#FD6700"/>
<rect x="217.731" y="232.5" width="2.86699" height="28.3378" fill="#FD6700"/>
<rect x="222.032" y="226.832" width="2.86699" height="17.0027" fill="#FD6700"/>
<rect x="218.528" y="208.596" width="2.79243" height="21.0408" fill="#FD6700"/>
<rect x="226.906" y="198.777" width="2.79243" height="37.8734" fill="#FD6700"/>
<rect x="346.98" y="217.012" width="2.79243" height="37.8734" fill="#FD6700"/>
<rect x="334.482" y="244.685" width="2.86699" height="38.256" fill="#FD6700"/>
<rect x="338.782" y="250.352" width="2.86699" height="28.3378" fill="#FD6700"/>
<rect x="343.083" y="244.685" width="2.86699" height="17.0027" fill="#FD6700"/>
<rect x="338.305" y="226.548" width="2.86699" height="21.2533" fill="#FD6700"/>
<rect x="346.906" y="216.63" width="2.86699" height="38.256" fill="#FD6700"/>
<rect x="346.906" y="216.63" width="2.86699" height="38.256" fill="#FD6700"/>
<rect x="117.865" y="231.568" width="2.73047" height="21.314" fill="#FD6700"/>
<rect x="121.961" y="210.254" width="2.73047" height="34.1025" fill="#FD6700"/>
<rect x="126.057" y="221.622" width="2.73047" height="38.3653" fill="#FD6700"/>
<rect x="130.152" y="227.305" width="2.73047" height="28.4187" fill="#FD6700"/>
<rect x="134.248" y="221.622" width="2.73047" height="17.0512" fill="#FD6700"/>
<rect x="129.333" y="204.442" width="2.78011" height="20.9672" fill="#FD6700"/>
<rect x="133.503" y="183.475" width="2.78011" height="33.5475" fill="#FD6700"/>
<rect x="137.673" y="194.657" width="2.78011" height="37.741" fill="#FD6700"/>
<rect x="141.843" y="200.249" width="2.78011" height="27.9563" fill="#FD6700"/>
<rect x="133.503" y="239.387" width="2.78011" height="16.7738" fill="#FD6700"/>
<rect x="125.511" y="170.396" width="2.86699" height="30.9318" fill="#FD6700"/>
<rect x="125.511" y="170.396" width="2.86699" height="30.9318" fill="#FD6700"/>
<rect x="134.112" y="146.494" width="2.86699" height="16.8719" fill="#FD6700"/>
<rect width="2.86699" height="33.1552" transform="matrix(1 0 0 -1 129.333 183.475)" fill="#FD6700"/>
<rect width="2.86699" height="27.6293" transform="matrix(1 0 0 -1 137.934 180.712)" fill="#FD6700"/>
<rect x="125.511" y="95.4861" width="2.78011" height="34.1025" fill="#FD6700"/>
<rect x="129.681" y="106.854" width="2.78011" height="38.3653" fill="#FD6700"/>
<rect x="138.021" y="106.854" width="2.78011" height="17.0512" fill="#FD6700"/>
<rect x="125.511" y="137.104" width="2.86699" height="20.8669" fill="#FD6700"/>
<rect x="134.112" y="112.064" width="2.86699" height="27.8225" fill="#FD6700"/>
<rect width="2.86699" height="33.1552" transform="matrix(1 0 0 -1 367.612 233.208)" fill="#FD6700"/>
<rect width="2.86699" height="27.6293" transform="matrix(1 0 0 -1 376.213 230.445)" fill="#FD6700"/>
<rect x="363.789" y="145.219" width="2.78011" height="34.1025" fill="#FD6700"/>
<rect x="367.959" y="156.586" width="2.78011" height="38.3653" fill="#FD6700"/>
<rect x="376.299" y="156.586" width="2.78011" height="17.0512" fill="#FD6700"/>
<rect x="363.789" y="186.837" width="2.86699" height="20.8669" fill="#FD6700"/>
<rect x="372.39" y="161.796" width="2.86699" height="27.8225" fill="#FD6700"/>
<rect x="423.677" y="186.025" width="2.78011" height="34.1025" fill="#FD6700"/>
<rect x="427.848" y="197.393" width="2.78011" height="38.3653" fill="#FD6700"/>
<rect x="436.188" y="197.393" width="2.78011" height="17.0512" fill="#FD6700"/>
<rect x="423.677" y="227.643" width="2.86699" height="20.8669" fill="#FD6700"/>
<rect x="432.278" y="202.603" width="2.86699" height="27.8225" fill="#FD6700"/>
<path d="M17.192 249.156C17.192 250.297 16.9467 251.332 16.456 252.26C15.9547 253.177 15.2667 253.902 14.392 254.436C13.5067 254.958 12.5093 255.22 11.4 255.22C10.2907 255.22 9.29867 254.958 8.424 254.436C7.53867 253.902 6.85067 253.177 6.36 252.26C5.85867 251.332 5.608 250.292 5.608 249.14C5.608 248.169 5.77867 247.294 6.12 246.516C6.46133 245.726 6.952 245.065 7.592 244.532L9.128 246.196C8.25333 246.953 7.816 247.892 7.816 249.012C7.816 249.705 7.97067 250.324 8.28 250.868C8.57867 251.412 9 251.838 9.544 252.148C10.088 252.446 10.7067 252.596 11.4 252.596C12.0933 252.596 12.712 252.446 13.256 252.148C13.8 251.838 14.2267 251.412 14.536 250.868C14.8347 250.324 14.984 249.705 14.984 249.012C14.984 247.892 14.5413 246.953 13.656 246.196L15.192 244.532C15.8427 245.065 16.3387 245.726 16.68 246.516C17.0213 247.305 17.192 248.185 17.192 249.156ZM17.128 237.158C17.128 238.065 16.9413 238.881 16.568 239.606C16.184 240.321 15.656 240.881 14.984 241.286C14.312 241.692 13.5493 241.894 12.696 241.894C11.8427 241.894 11.08 241.692 10.408 241.286C9.736 240.881 9.21333 240.321 8.84 239.606C8.456 238.881 8.264 238.065 8.264 237.158C8.264 236.252 8.456 235.441 8.84 234.726C9.21333 234.012 9.736 233.452 10.408 233.046C11.08 232.641 11.8427 232.438 12.696 232.438C13.5493 232.438 14.312 232.641 14.984 233.046C15.656 233.452 16.184 234.012 16.568 234.726C16.9413 235.441 17.128 236.252 17.128 237.158ZM15.08 237.158C15.08 236.518 14.8667 235.996 14.44 235.59C14.0027 235.174 13.4213 234.966 12.696 234.966C11.9707 234.966 11.3947 235.174 10.968 235.59C10.5307 235.996 10.312 236.518 10.312 237.158C10.312 237.798 10.5307 238.326 10.968 238.742C11.3947 239.158 11.9707 239.366 12.696 239.366C13.4213 239.366 14.0027 239.158 14.44 238.742C14.8667 238.326 15.08 237.798 15.08 237.158ZM8.392 228.77V226.274H17V228.77H8.392ZM7.192 227.522C7.192 227.981 7.05867 228.354 6.792 228.642C6.52533 228.93 6.19467 229.074 5.8 229.074C5.40533 229.074 5.07467 228.93 4.808 228.642C4.54133 228.354 4.408 227.981 4.408 227.522C4.408 227.063 4.536 226.69 4.792 226.402C5.048 226.114 5.368 225.97 5.752 225.97C6.168 225.97 6.51467 226.114 6.792 226.402C7.05867 226.69 7.192 227.063 7.192 227.522ZM8.264 216.725C8.264 215.659 8.584 214.8 9.224 214.149C9.864 213.488 10.8133 213.157 12.072 213.157H17V215.653H12.456C11.7733 215.653 11.2667 215.803 10.936 216.101C10.5947 216.4 10.424 216.832 10.424 217.397C10.424 218.027 10.6213 218.528 11.016 218.901C11.4 219.275 11.976 219.461 12.744 219.461H17V221.957H8.392L8.392 219.573H9.4C9.03733 219.243 8.76 218.832 8.568 218.341C8.36533 217.851 8.264 217.312 8.264 216.725ZM17.128 205.999C17.128 206.714 17.0427 207.412 16.872 208.095C16.6907 208.778 16.4667 209.322 16.2 209.727L14.408 208.895C14.6533 208.511 14.856 208.047 15.016 207.503C15.1653 206.959 15.24 206.426 15.24 205.903C15.24 204.847 14.9787 204.319 14.456 204.319C14.2107 204.319 14.0347 204.463 13.928 204.751C13.8213 205.039 13.7307 205.482 13.656 206.079C13.5493 206.783 13.4267 207.364 13.288 207.823C13.1493 208.282 12.904 208.682 12.552 209.023C12.2 209.354 11.6987 209.519 11.048 209.519C10.504 209.519 10.024 209.364 9.608 209.055C9.18133 208.735 8.85067 208.276 8.616 207.679C8.38133 207.071 8.264 206.356 8.264 205.535C8.264 204.927 8.33333 204.324 8.472 203.727C8.6 203.119 8.78133 202.618 9.016 202.223L10.792 203.055C10.3653 203.812 10.152 204.639 10.152 205.535C10.152 206.068 10.2267 206.468 10.376 206.735C10.5253 207.002 10.7173 207.135 10.952 207.135C11.2187 207.135 11.4053 206.991 11.512 206.703C11.6187 206.415 11.72 205.956 11.816 205.327C11.9333 204.623 12.0613 204.047 12.2 203.599C12.328 203.151 12.568 202.762 12.92 202.431C13.272 202.1 13.7627 201.935 14.392 201.935C14.9253 201.935 15.4 202.095 15.816 202.415C16.232 202.735 16.5573 203.204 16.792 203.823C17.016 204.431 17.128 205.156 17.128 205.999ZM8.392 189.723H17V192.091H15.976C16.3493 192.422 16.6373 192.816 16.84 193.275C17.032 193.734 17.128 194.23 17.128 194.763C17.128 195.894 16.8027 196.79 16.152 197.451C15.5013 198.112 14.536 198.443 13.256 198.443H8.392V195.947H12.888C14.2747 195.947 14.968 195.366 14.968 194.203C14.968 193.606 14.776 193.126 14.392 192.763C13.9973 192.4 13.416 192.219 12.648 192.219H8.392V189.723ZM8.264 180.322C8.264 179.522 8.45067 178.797 8.824 178.146C9.18667 177.485 9.704 176.968 10.376 176.594C11.0373 176.221 11.8107 176.034 12.696 176.034C13.5813 176.034 14.36 176.221 15.032 176.594C15.6933 176.968 16.2107 177.485 16.584 178.146C16.9467 178.797 17.128 179.522 17.128 180.322C17.128 181.421 16.7813 182.285 16.088 182.914H20.104V185.41H8.392V183.026H9.384C8.63733 182.408 8.264 181.506 8.264 180.322ZM15.08 180.754C15.08 180.114 14.8667 179.592 14.44 179.186C14.0027 178.77 13.4213 178.562 12.696 178.562C11.9707 178.562 11.3947 178.77 10.968 179.186C10.5307 179.592 10.312 180.114 10.312 180.754C10.312 181.394 10.5307 181.922 10.968 182.339C11.3947 182.744 11.9707 182.946 12.696 182.946C13.4213 182.946 14.0027 182.744 14.44 182.339C14.8667 181.922 15.08 181.394 15.08 180.754ZM12.728 163.932C12.76 163.932 12.984 163.948 13.4 163.98V170.492C13.9333 170.374 14.3547 170.097 14.664 169.66C14.9733 169.222 15.128 168.678 15.128 168.028C15.128 167.58 15.064 167.185 14.936 166.844C14.7973 166.492 14.584 166.166 14.296 165.868L15.736 164.54C16.664 165.35 17.128 166.534 17.128 168.092C17.128 169.062 16.9413 169.921 16.568 170.668C16.184 171.414 15.656 171.99 14.984 172.396C14.312 172.801 13.5493 173.004 12.696 173.004C11.8533 173.004 11.096 172.806 10.424 172.412C9.74133 172.006 9.21333 171.457 8.84 170.764C8.456 170.06 8.264 169.276 8.264 168.412C8.264 167.569 8.44533 166.806 8.808 166.124C9.17067 165.441 9.69333 164.908 10.376 164.524C11.048 164.129 11.832 163.932 12.728 163.932ZM10.152 168.396C10.152 168.961 10.312 169.436 10.632 169.82C10.952 170.204 11.3893 170.438 11.944 170.524V166.284C11.4 166.369 10.968 166.604 10.648 166.988C10.3173 167.372 10.152 167.841 10.152 168.396ZM9.528 157.886C9.112 157.587 8.79733 157.187 8.584 156.686C8.37067 156.174 8.264 155.587 8.264 154.926H10.568C10.5467 155.203 10.536 155.39 10.536 155.486C10.536 156.201 10.7387 156.761 11.144 157.166C11.5387 157.571 12.136 157.774 12.936 157.774H17V160.27H8.392V157.886H9.528Z" fill="#D7D7D7"/>
<path d="M74.92 239H77V247.672H65.8V239.208H67.88V245.096H70.312V239.896H72.328V245.096H74.92V239ZM77 229.751L74.36 231.639L77 233.591V236.311L72.664 232.999L68.392 236.199V233.399L70.904 231.575L68.392 229.703V227.047L72.6 230.247L77 226.919V229.751ZM69.528 221.323C69.112 221.025 68.7973 220.625 68.584 220.123C68.3707 219.611 68.264 219.025 68.264 218.363H70.568C70.5467 218.641 70.536 218.827 70.536 218.923C70.536 219.638 70.7387 220.198 71.144 220.603C71.5387 221.009 72.136 221.211 72.936 221.211H77V223.707H68.392V221.323H69.528ZM68.264 211.454C68.264 210.121 68.584 209.097 69.224 208.382C69.8533 207.667 70.808 207.31 72.088 207.31H77V209.646H75.928C76.728 210.115 77.128 210.99 77.128 212.27C77.128 212.931 77.016 213.507 76.792 213.998C76.568 214.478 76.2587 214.846 75.864 215.102C75.4693 215.358 75.0213 215.486 74.52 215.486C73.72 215.486 73.0907 215.187 72.632 214.59C72.1733 213.982 71.944 213.049 71.944 211.79V209.806C71.4 209.806 70.984 209.971 70.696 210.302C70.3973 210.633 70.248 211.129 70.248 211.79C70.248 212.249 70.3227 212.702 70.472 213.15C70.6107 213.587 70.8027 213.961 71.048 214.27L69.304 215.166C68.9733 214.697 68.7173 214.137 68.536 213.486C68.3547 212.825 68.264 212.147 68.264 211.454ZM75.448 211.646C75.448 211.219 75.352 210.841 75.16 210.51C74.9573 210.179 74.664 209.945 74.28 209.806H73.4V211.518C73.4 212.542 73.736 213.054 74.408 213.054C74.728 213.054 74.984 212.931 75.176 212.686C75.3573 212.43 75.448 212.083 75.448 211.646ZM76.584 197.499C76.7653 197.744 76.904 198.048 77 198.411C77.0853 198.763 77.128 199.136 77.128 199.531C77.128 200.555 76.8667 201.35 76.344 201.915C75.8213 202.47 75.0533 202.747 74.04 202.747H70.504V204.075H68.584V202.747H66.488V200.251H68.584V198.107H70.504V200.251H74.008C74.3707 200.251 74.6533 200.16 74.856 199.979C75.048 199.787 75.144 199.52 75.144 199.179C75.144 198.784 75.0373 198.448 74.824 198.171L76.584 197.499ZM72.728 185.932C72.76 185.932 72.984 185.948 73.4 185.98V192.492C73.9333 192.374 74.3547 192.097 74.664 191.66C74.9733 191.222 75.128 190.678 75.128 190.028C75.128 189.58 75.064 189.185 74.936 188.844C74.7973 188.492 74.584 188.166 74.296 187.868L75.736 186.54C76.664 187.35 77.128 188.534 77.128 190.092C77.128 191.062 76.9413 191.921 76.568 192.668C76.184 193.414 75.656 193.99 74.984 194.396C74.312 194.801 73.5493 195.004 72.696 195.004C71.8533 195.004 71.096 194.806 70.424 194.412C69.7413 194.006 69.2133 193.457 68.84 192.764C68.456 192.06 68.264 191.276 68.264 190.412C68.264 189.569 68.4453 188.806 68.808 188.124C69.1707 187.441 69.6933 186.908 70.376 186.524C71.048 186.129 71.832 185.932 72.728 185.932ZM70.152 190.396C70.152 190.961 70.312 191.436 70.632 191.82C70.952 192.204 71.3893 192.438 71.944 192.524V188.284C71.4 188.369 70.968 188.604 70.648 188.988C70.3173 189.372 70.152 189.841 70.152 190.396ZM77.128 179.374C77.128 180.089 77.0427 180.787 76.872 181.47C76.6907 182.153 76.4667 182.697 76.2 183.102L74.408 182.27C74.6533 181.886 74.856 181.422 75.016 180.878C75.1653 180.334 75.24 179.801 75.24 179.278C75.24 178.222 74.9787 177.694 74.456 177.694C74.2107 177.694 74.0347 177.838 73.928 178.126C73.8213 178.414 73.7307 178.857 73.656 179.454C73.5493 180.158 73.4267 180.739 73.288 181.198C73.1493 181.657 72.904 182.057 72.552 182.398C72.2 182.729 71.6987 182.894 71.048 182.894C70.504 182.894 70.024 182.739 69.608 182.43C69.1813 182.11 68.8507 181.651 68.616 181.054C68.3813 180.446 68.264 179.731 68.264 178.91C68.264 178.302 68.3333 177.699 68.472 177.102C68.6 176.494 68.7813 175.993 69.016 175.598L70.792 176.43C70.3653 177.187 70.152 178.014 70.152 178.91C70.152 179.443 70.2267 179.843 70.376 180.11C70.5253 180.377 70.7173 180.51 70.952 180.51C71.2187 180.51 71.4053 180.366 71.512 180.078C71.6187 179.79 71.72 179.331 71.816 178.702C71.9333 177.998 72.0613 177.422 72.2 176.974C72.328 176.526 72.568 176.137 72.92 175.806C73.272 175.475 73.7627 175.31 74.392 175.31C74.9253 175.31 75.4 175.47 75.816 175.79C76.232 176.11 76.5573 176.579 76.792 177.198C77.016 177.806 77.128 178.531 77.128 179.374Z" fill="#D7D7D7"/>
<path d="M104.192 158.312C104.192 159.453 103.947 160.488 103.456 161.416C102.955 162.333 102.267 163.059 101.392 163.592C100.507 164.115 99.5093 164.376 98.4 164.376C97.2907 164.376 96.2987 164.115 95.424 163.592C94.5387 163.059 93.8507 162.333 93.36 161.416C92.8587 160.488 92.608 159.448 92.608 158.296C92.608 157.325 92.7787 156.451 93.12 155.672C93.4613 154.883 93.952 154.221 94.592 153.688L96.128 155.352C95.2533 156.109 94.816 157.048 94.816 158.168C94.816 158.861 94.9707 159.48 95.28 160.024C95.5787 160.568 96 160.995 96.544 161.304C97.088 161.603 97.7067 161.752 98.4 161.752C99.0933 161.752 99.712 161.603 100.256 161.304C100.8 160.995 101.227 160.568 101.536 160.024C101.835 159.48 101.984 158.861 101.984 158.168C101.984 157.048 101.541 156.109 100.656 155.352L102.192 153.688C102.843 154.221 103.339 154.883 103.68 155.672C104.021 156.461 104.192 157.341 104.192 158.312ZM104.128 146.314C104.128 147.221 103.941 148.037 103.568 148.762C103.184 149.477 102.656 150.037 101.984 150.442C101.312 150.848 100.549 151.05 99.696 151.05C98.8427 151.05 98.08 150.848 97.408 150.442C96.736 150.037 96.2133 149.477 95.84 148.762C95.456 148.037 95.264 147.221 95.264 146.314C95.264 145.408 95.456 144.597 95.84 143.882C96.2133 143.168 96.736 142.608 97.408 142.202C98.08 141.797 98.8427 141.594 99.696 141.594C100.549 141.594 101.312 141.797 101.984 142.202C102.656 142.608 103.184 143.168 103.568 143.882C103.941 144.597 104.128 145.408 104.128 146.314ZM102.08 146.314C102.08 145.674 101.867 145.152 101.44 144.746C101.003 144.33 100.421 144.122 99.696 144.122C98.9707 144.122 98.3947 144.33 97.968 144.746C97.5307 145.152 97.312 145.674 97.312 146.314C97.312 146.954 97.5307 147.482 97.968 147.898C98.3947 148.314 98.9707 148.522 99.696 148.522C100.421 148.522 101.003 148.314 101.44 147.898C101.867 147.482 102.08 146.954 102.08 146.314ZM95.392 137.926V135.43H104V137.926H95.392ZM94.192 136.678C94.192 137.137 94.0587 137.51 93.792 137.798C93.5253 138.086 93.1947 138.23 92.8 138.23C92.4053 138.23 92.0747 138.086 91.808 137.798C91.5413 137.51 91.408 137.137 91.408 136.678C91.408 136.219 91.536 135.846 91.792 135.558C92.048 135.27 92.368 135.126 92.752 135.126C93.168 135.126 93.5147 135.27 93.792 135.558C94.0587 135.846 94.192 136.219 94.192 136.678ZM95.264 125.882C95.264 124.815 95.584 123.956 96.224 123.306C96.864 122.644 97.8133 122.314 99.072 122.314H104V124.81H99.456C98.7733 124.81 98.2667 124.959 97.936 125.258C97.5947 125.556 97.424 125.988 97.424 126.554C97.424 127.183 97.6213 127.684 98.016 128.058C98.4 128.431 98.976 128.618 99.744 128.618H104V131.114H95.392V128.73H96.4C96.0373 128.399 95.76 127.988 95.568 127.498C95.3653 127.007 95.264 126.468 95.264 125.882ZM98.176 109.651C98.3787 109.011 98.72 108.51 99.2 108.147C99.6693 107.784 100.251 107.603 100.944 107.603C101.925 107.603 102.683 107.987 103.216 108.755C103.739 109.512 104 110.622 104 112.083V117.875H92.8V112.403C92.8 111.038 93.0613 109.992 93.584 109.267C94.1067 108.531 94.816 108.163 95.712 108.163C96.256 108.163 96.7413 108.296 97.168 108.563C97.5947 108.819 97.9307 109.182 98.176 109.651ZM94.752 115.299H97.392V112.723C97.392 112.083 97.28 111.598 97.056 111.267C96.832 110.936 96.5013 110.771 96.064 110.771C95.6267 110.771 95.3013 110.936 95.088 111.267C94.864 111.598 94.752 112.083 94.752 112.723V115.299ZM102.048 112.275C102.048 111.592 101.936 111.08 101.712 110.739C101.488 110.387 101.141 110.211 100.672 110.211C99.744 110.211 99.28 110.899 99.28 112.275V115.299H102.048V112.275ZM99.728 95.3847C99.76 95.3847 99.984 95.4007 100.4 95.4327V101.945C100.933 101.827 101.355 101.55 101.664 101.113C101.973 100.675 102.128 100.131 102.128 99.4807C102.128 99.0327 102.064 98.6381 101.936 98.2967C101.797 97.9447 101.584 97.6194 101.296 97.3207L102.736 95.9927C103.664 96.8034 104.128 97.9874 104.128 99.5447C104.128 100.515 103.941 101.374 103.568 102.121C103.184 102.867 102.656 103.443 101.984 103.849C101.312 104.254 100.549 104.457 99.696 104.457C98.8533 104.457 98.096 104.259 97.424 103.865C96.7413 103.459 96.2133 102.91 95.84 102.217C95.456 101.513 95.264 100.729 95.264 99.8647C95.264 99.0221 95.4453 98.2594 95.808 97.5767C96.1707 96.8941 96.6933 96.3607 97.376 95.9767C98.048 95.5821 98.832 95.3847 99.728 95.3847ZM97.152 99.8487C97.152 100.414 97.312 100.889 97.632 101.273C97.952 101.657 98.3893 101.891 98.944 101.977V97.7367C98.4 97.8221 97.968 98.0567 97.648 98.4407C97.3173 98.8247 97.152 99.2941 97.152 99.8487ZM95.264 86.491C95.264 85.4243 95.584 84.5657 96.224 83.915C96.864 83.2537 97.8133 82.923 99.072 82.923H104V85.419H99.456C98.7733 85.419 98.2667 85.5683 97.936 85.867C97.5947 86.1657 97.424 86.5977 97.424 87.163C97.424 87.7923 97.6213 88.2937 98.016 88.667C98.4 89.0403 98.976 89.227 99.744 89.227H104V91.723H95.392V89.339H96.4C96.0373 89.0083 95.76 88.5977 95.568 88.107C95.3653 87.6163 95.264 87.0777 95.264 86.491ZM99.728 70.1347C99.76 70.1347 99.984 70.1507 100.4 70.1827V76.6947C100.933 76.5774 101.355 76.3001 101.664 75.8627C101.973 75.4254 102.128 74.8814 102.128 74.2307C102.128 73.7827 102.064 73.3881 101.936 73.0467C101.797 72.6947 101.584 72.3694 101.296 72.0707L102.736 70.7427C103.664 71.5534 104.128 72.7374 104.128 74.2947C104.128 75.2654 103.941 76.1241 103.568 76.8707C103.184 77.6174 102.656 78.1934 101.984 78.5987C101.312 79.0041 100.549 79.2067 99.696 79.2067C98.8533 79.2067 98.096 79.0094 97.424 78.6147C96.7413 78.2094 96.2133 77.6601 95.84 76.9667C95.456 76.2627 95.264 75.4787 95.264 74.6147C95.264 73.7721 95.4453 73.0094 95.808 72.3267C96.1707 71.6441 96.6933 71.1107 97.376 70.7267C98.048 70.3321 98.832 70.1347 99.728 70.1347ZM97.152 74.5987C97.152 75.1641 97.312 75.6387 97.632 76.0227C97.952 76.4067 98.3893 76.6414 98.944 76.7267V72.4867C98.4 72.5721 97.968 72.8067 97.648 73.1907C97.3173 73.5747 97.152 74.0441 97.152 74.5987Z" fill="#D7D7D7"/>
<path d="M159.176 132.448C159.379 131.808 159.72 131.307 160.2 130.944C160.669 130.581 161.251 130.4 161.944 130.4C162.925 130.4 163.683 130.784 164.216 131.552C164.739 132.309 165 133.419 165 134.88V140.672H153.8V135.2C153.8 133.835 154.061 132.789 154.584 132.064C155.107 131.328 155.816 130.96 156.712 130.96C157.256 130.96 157.741 131.093 158.168 131.36C158.595 131.616 158.931 131.979 159.176 132.448ZM155.752 138.096H158.392V135.52C158.392 134.88 158.28 134.395 158.056 134.064C157.832 133.733 157.501 133.568 157.064 133.568C156.627 133.568 156.301 133.733 156.088 134.064C155.864 134.395 155.752 134.88 155.752 135.52V138.096ZM163.048 135.072C163.048 134.389 162.936 133.877 162.712 133.536C162.488 133.184 162.141 133.008 161.672 133.008C160.744 133.008 160.28 133.696 160.28 135.072V138.096H163.048V135.072ZM155.912 124.274V127.858H153.8V118.098H155.912V121.682H165V124.274H155.912ZM165.192 109.499C165.192 110.641 164.947 111.675 164.456 112.603C163.955 113.521 163.267 114.246 162.392 114.779C161.507 115.302 160.509 115.563 159.4 115.563C158.291 115.563 157.299 115.302 156.424 114.779C155.539 114.246 154.851 113.521 154.36 112.603C153.859 111.675 153.608 110.635 153.608 109.483C153.608 108.513 153.779 107.638 154.12 106.859C154.461 106.07 154.952 105.409 155.592 104.875L157.128 106.539C156.253 107.297 155.816 108.235 155.816 109.355C155.816 110.049 155.971 110.667 156.28 111.211C156.579 111.755 157 112.182 157.544 112.491C158.088 112.79 158.707 112.939 159.4 112.939C160.093 112.939 160.712 112.79 161.256 112.491C161.8 112.182 162.227 111.755 162.536 111.211C162.835 110.667 162.984 110.049 162.984 109.355C162.984 108.235 162.541 107.297 161.656 106.539L163.192 104.875C163.843 105.409 164.339 106.07 164.68 106.859C165.021 107.649 165.192 108.529 165.192 109.499ZM159.496 101.715V97.1869H161.496V101.715H159.496ZM162.6 86.046V91.246L165 92.238V94.894L153.8 89.902V87.342L165 82.334V85.054L162.6 86.046ZM160.632 86.862L156.344 88.638L160.632 90.414V86.862ZM153.128 79.348V76.852H165V79.348H153.128ZM156.264 67.4475C156.264 66.6475 156.451 65.9222 156.824 65.2715C157.187 64.6102 157.704 64.0928 158.376 63.7195C159.037 63.3462 159.811 63.1595 160.696 63.1595C161.581 63.1595 162.36 63.3462 163.032 63.7195C163.693 64.0928 164.211 64.6102 164.584 65.2715C164.947 65.9222 165.128 66.6475 165.128 67.4475C165.128 68.5462 164.781 69.4102 164.088 70.0395H168.104V72.5355H156.392V70.1515H157.384C156.637 69.5328 156.264 68.6315 156.264 67.4475ZM163.08 67.8795C163.08 67.2395 162.867 66.7168 162.44 66.3115C162.003 65.8955 161.421 65.6875 160.696 65.6875C159.971 65.6875 159.395 65.8955 158.968 66.3115C158.531 66.7168 158.312 67.2395 158.312 67.8795C158.312 68.5195 158.531 69.0475 158.968 69.4635C159.395 69.8688 159.971 70.0715 160.696 70.0715C161.421 70.0715 162.003 69.8688 162.44 69.4635C162.867 69.0475 163.08 68.5195 163.08 67.8795ZM156.264 54.2566C156.264 53.19 156.584 52.3313 157.224 51.6806C157.864 51.0193 158.813 50.6886 160.072 50.6886H165V53.1846H160.456C159.773 53.1846 159.267 53.334 158.936 53.6326C158.595 53.9313 158.424 54.3633 158.424 54.9286C158.424 55.558 158.621 56.0593 159.016 56.4326C159.4 56.806 159.976 56.9926 160.744 56.9926H165V59.4886H153.128V56.9926H157.288C156.957 56.662 156.707 56.262 156.536 55.7926C156.355 55.3233 156.264 54.8113 156.264 54.2566ZM156.264 42.9541C156.264 41.6208 156.584 40.5968 157.224 39.8821C157.853 39.1675 158.808 38.8101 160.088 38.8101H165V41.1461H163.928C164.728 41.6155 165.128 42.4901 165.128 43.7701C165.128 44.4315 165.016 45.0075 164.792 45.4981C164.568 45.9781 164.259 46.3461 163.864 46.6021C163.469 46.8581 163.021 46.9861 162.52 46.9861C161.72 46.9861 161.091 46.6875 160.632 46.0901C160.173 45.4821 159.944 44.5488 159.944 43.2901V41.3061C159.4 41.3061 158.984 41.4715 158.696 41.8021C158.397 42.1328 158.248 42.6288 158.248 43.2901C158.248 43.7488 158.323 44.2021 158.472 44.6501C158.611 45.0875 158.803 45.4608 159.048 45.7701L157.304 46.6661C156.973 46.1968 156.717 45.6368 156.536 44.9861C156.355 44.3248 156.264 43.6475 156.264 42.9541ZM163.448 43.1461C163.448 42.7195 163.352 42.3408 163.16 42.0101C162.957 41.6795 162.664 41.4448 162.28 41.3061H161.4V43.0181C161.4 44.0421 161.736 44.5541 162.408 44.5541C162.728 44.5541 162.984 44.4315 163.176 44.1861C163.357 43.9301 163.448 43.5835 163.448 43.1461Z" fill="#D7D7D7"/>
<path d="M333.8 180.672V178.08H342.888V172.464H345V180.672H333.8ZM342.6 161.546V166.746L345 167.738V170.394L333.8 165.402V162.842L345 157.834V160.554L342.6 161.546ZM340.632 162.362L336.344 164.138L340.632 165.914V162.362ZM335.912 152.914V156.498H333.8V146.738H335.912V150.322H345V152.914H335.912ZM345.128 140.299C345.128 141.206 344.941 142.022 344.568 142.747C344.184 143.462 343.656 144.022 342.984 144.427C342.312 144.832 341.549 145.035 340.696 145.035C339.843 145.035 339.08 144.832 338.408 144.427C337.736 144.022 337.213 143.462 336.84 142.747C336.456 142.022 336.264 141.206 336.264 140.299C336.264 139.392 336.456 138.582 336.84 137.867C337.213 137.152 337.736 136.592 338.408 136.187C339.08 135.782 339.843 135.579 340.696 135.579C341.549 135.579 342.312 135.782 342.984 136.187C343.656 136.592 344.184 137.152 344.568 137.867C344.941 138.582 345.128 139.392 345.128 140.299ZM343.08 140.299C343.08 139.659 342.867 139.136 342.44 138.731C342.003 138.315 341.421 138.107 340.696 138.107C339.971 138.107 339.395 138.315 338.968 138.731C338.531 139.136 338.312 139.659 338.312 140.299C338.312 140.939 338.531 141.467 338.968 141.883C339.395 142.299 339.971 142.507 340.696 142.507C341.421 142.507 342.003 142.299 342.44 141.883C342.867 141.467 343.08 140.939 343.08 140.299ZM341.624 128.214L342.808 129.414H345V131.91H333.128V129.414H339.848L336.392 125.766V122.79L340.04 126.374L345 122.47V125.494L341.624 128.214ZM340.728 111.291C340.76 111.291 340.984 111.307 341.4 111.339V117.851C341.933 117.734 342.355 117.456 342.664 117.019C342.973 116.582 343.128 116.038 343.128 115.387C343.128 114.939 343.064 114.544 342.936 114.203C342.797 113.851 342.584 113.526 342.296 113.227L343.736 111.899C344.664 112.71 345.128 113.894 345.128 115.451C345.128 116.422 344.941 117.28 344.568 118.027C344.184 118.774 343.656 119.35 342.984 119.755C342.312 120.16 341.549 120.363 340.696 120.363C339.853 120.363 339.096 120.166 338.424 119.771C337.741 119.366 337.213 118.816 336.84 118.123C336.456 117.419 336.264 116.635 336.264 115.771C336.264 114.928 336.445 114.166 336.808 113.483C337.171 112.8 337.693 112.267 338.376 111.883C339.048 111.488 339.832 111.291 340.728 111.291ZM338.152 115.755C338.152 116.32 338.312 116.795 338.632 117.179C338.952 117.563 339.389 117.798 339.944 117.883V113.643C339.4 113.728 338.968 113.963 338.648 114.347C338.317 114.731 338.152 115.2 338.152 115.755ZM336.264 102.397C336.264 101.331 336.584 100.472 337.224 99.8212C337.864 99.1599 338.813 98.8292 340.072 98.8292H345V101.325H340.456C339.773 101.325 339.267 101.475 338.936 101.773C338.595 102.072 338.424 102.504 338.424 103.069C338.424 103.699 338.621 104.2 339.016 104.573C339.4 104.947 339.976 105.133 340.744 105.133H345V107.629H336.392V105.245H337.4C337.037 104.915 336.76 104.504 336.568 104.013C336.365 103.523 336.264 102.984 336.264 102.397Z" fill="#D7D7D7"/>
<path d="M368.176 115.448C368.379 114.808 368.72 114.307 369.2 113.944C369.669 113.581 370.251 113.4 370.944 113.4C371.925 113.4 372.683 113.784 373.216 114.552C373.739 115.309 374 116.419 374 117.88V123.672H362.8V118.2C362.8 116.835 363.061 115.789 363.584 115.064C364.107 114.328 364.816 113.96 365.712 113.96C366.256 113.96 366.741 114.093 367.168 114.36C367.595 114.616 367.931 114.979 368.176 115.448ZM364.752 121.096H367.392V118.52C367.392 117.88 367.28 117.395 367.056 117.064C366.832 116.733 366.501 116.568 366.064 116.568C365.627 116.568 365.301 116.733 365.088 117.064C364.864 117.395 364.752 117.88 364.752 118.52V121.096ZM372.048 118.072C372.048 117.389 371.936 116.877 371.712 116.536C371.488 116.184 371.141 116.008 370.672 116.008C369.744 116.008 369.28 116.696 369.28 118.072V121.096H372.048V118.072ZM362.128 109.614V107.118H374V109.614H362.128ZM369.728 94.3691C369.76 94.3691 369.984 94.3851 370.4 94.4171V100.929C370.933 100.812 371.355 100.534 371.664 100.097C371.973 99.6598 372.128 99.1158 372.128 98.4651C372.128 98.0171 372.064 97.6225 371.936 97.2811C371.797 96.9291 371.584 96.6038 371.296 96.3051L372.736 94.9771C373.664 95.7878 374.128 96.9718 374.128 98.5291C374.128 99.4998 373.941 100.358 373.568 101.105C373.184 101.852 372.656 102.428 371.984 102.833C371.312 103.238 370.549 103.441 369.696 103.441C368.853 103.441 368.096 103.244 367.424 102.849C366.741 102.444 366.213 101.894 365.84 101.201C365.456 100.497 365.264 99.7131 365.264 98.8491C365.264 98.0065 365.445 97.2438 365.808 96.5611C366.171 95.8785 366.693 95.3451 367.376 94.9611C368.048 94.5665 368.832 94.3691 369.728 94.3691ZM367.152 98.8331C367.152 99.3985 367.312 99.8731 367.632 100.257C367.952 100.641 368.389 100.876 368.944 100.961V96.7211C368.4 96.8065 367.968 97.0411 367.648 97.4251C367.317 97.8091 367.152 98.2785 367.152 98.8331ZM365.392 82.0354H374V84.4034H372.976C373.349 84.734 373.637 85.1287 373.84 85.5874C374.032 86.046 374.128 86.542 374.128 87.0754C374.128 88.206 373.803 89.102 373.152 89.7634C372.501 90.4247 371.536 90.7554 370.256 90.7554H365.392V88.2594H369.888C371.275 88.2594 371.968 87.678 371.968 86.5154C371.968 85.918 371.776 85.438 371.392 85.0754C370.997 84.7127 370.416 84.5314 369.648 84.5314H365.392V82.0354ZM364.912 76.2582V79.8422H362.8V70.0822H364.912V73.6662H374V76.2582H364.912ZM366.528 64.6671C366.112 64.3685 365.797 63.9685 365.584 63.4671C365.371 62.9551 365.264 62.3685 365.264 61.7071H367.568C367.547 61.9845 367.536 62.1711 367.536 62.2671C367.536 62.9818 367.739 63.5418 368.144 63.9471C368.539 64.3525 369.136 64.5551 369.936 64.5551H374V67.0511H365.392V64.6671H366.528ZM365.264 54.7979C365.264 53.4645 365.584 52.4405 366.224 51.7259C366.853 51.0112 367.808 50.6539 369.088 50.6539H374V52.9899H372.928C373.728 53.4592 374.128 54.3339 374.128 55.6139C374.128 56.2752 374.016 56.8512 373.792 57.3419C373.568 57.8219 373.259 58.1899 372.864 58.4459C372.469 58.7019 372.021 58.8299 371.52 58.8299C370.72 58.8299 370.091 58.5312 369.632 57.9339C369.173 57.3259 368.944 56.3925 368.944 55.1339V53.1499C368.4 53.1499 367.984 53.3152 367.696 53.6459C367.397 53.9765 367.248 54.4725 367.248 55.1339C367.248 55.5925 367.323 56.0459 367.472 56.4939C367.611 56.9312 367.803 57.3045 368.048 57.6139L366.304 58.5099C365.973 58.0405 365.717 57.4805 365.536 56.8299C365.355 56.1685 365.264 55.4912 365.264 54.7979ZM372.448 54.9899C372.448 54.5632 372.352 54.1845 372.16 53.8539C371.957 53.5232 371.664 53.2885 371.28 53.1499H370.4V54.8619C370.4 55.8859 370.736 56.3979 371.408 56.3979C371.728 56.3979 371.984 56.2752 372.176 56.0299C372.357 55.7739 372.448 55.4272 372.448 54.9899ZM362.128 37.5331H374V39.9171H373.008C373.755 40.5358 374.128 41.4318 374.128 42.6051C374.128 43.4158 373.947 44.1518 373.584 44.8131C373.221 45.4638 372.704 45.9758 372.032 46.3491C371.36 46.7225 370.581 46.9091 369.696 46.9091C368.811 46.9091 368.032 46.7225 367.36 46.3491C366.688 45.9758 366.171 45.4638 365.808 44.8131C365.445 44.1518 365.264 43.4158 365.264 42.6051C365.264 41.5065 365.611 40.6478 366.304 40.0291H362.128V37.5331ZM372.08 42.1731C372.08 41.5438 371.867 41.0211 371.44 40.6051C371.003 40.1891 370.421 39.9811 369.696 39.9811C368.971 39.9811 368.395 40.1891 367.968 40.6051C367.531 41.0211 367.312 41.5438 367.312 42.1731C367.312 42.8131 367.531 43.3411 367.968 43.7571C368.395 44.1731 368.971 44.3811 369.696 44.3811C370.421 44.3811 371.003 44.1731 371.44 43.7571C371.867 43.3411 372.08 42.8131 372.08 42.1731ZM369.728 24.791C369.76 24.791 369.984 24.807 370.4 24.839V31.351C370.933 31.2337 371.355 30.9563 371.664 30.519C371.973 30.0817 372.128 29.5377 372.128 28.887C372.128 28.439 372.064 28.0443 371.936 27.703C371.797 27.351 371.584 27.0257 371.296 26.727L372.736 25.399C373.664 26.2097 374.128 27.3937 374.128 28.951C374.128 29.9217 373.941 30.7803 373.568 31.527C373.184 32.2737 372.656 32.8497 371.984 33.255C371.312 33.6603 370.549 33.863 369.696 33.863C368.853 33.863 368.096 33.6657 367.424 33.271C366.741 32.8657 366.213 32.3163 365.84 31.623C365.456 30.919 365.264 30.135 365.264 29.271C365.264 28.4283 365.445 27.6657 365.808 26.983C366.171 26.3003 366.693 25.767 367.376 25.383C368.048 24.9883 368.832 24.791 369.728 24.791ZM367.152 29.255C367.152 29.8203 367.312 30.295 367.632 30.679C367.952 31.063 368.389 31.2977 368.944 31.383V27.143C368.4 27.2283 367.968 27.463 367.648 27.847C367.317 28.231 367.152 28.7003 367.152 29.255Z" fill="#D7D7D7"/>
<path d="M396.392 222.848V220.352H405V222.848H396.392ZM395.192 221.6C395.192 222.059 395.059 222.432 394.792 222.72C394.525 223.008 394.195 223.152 393.8 223.152C393.405 223.152 393.075 223.008 392.808 222.72C392.541 222.432 392.408 222.059 392.408 221.6C392.408 221.141 392.536 220.768 392.792 220.48C393.048 220.192 393.368 220.048 393.752 220.048C394.168 220.048 394.515 220.192 394.792 220.48C395.059 220.768 395.192 221.141 395.192 221.6ZM396.264 205.011C396.264 203.934 396.584 203.081 397.224 202.451C397.853 201.811 398.803 201.491 400.072 201.491H405V203.987H400.456C399.773 203.987 399.267 204.131 398.936 204.419C398.595 204.697 398.424 205.097 398.424 205.619C398.424 206.206 398.616 206.67 399 207.011C399.373 207.353 399.933 207.523 400.68 207.523H405V210.019H400.456C399.101 210.019 398.424 210.563 398.424 211.651C398.424 212.227 398.616 212.686 399 213.027C399.373 213.369 399.933 213.539 400.68 213.539H405V216.035H396.392V213.651H397.384C397.021 213.331 396.744 212.942 396.552 212.484C396.36 212.014 396.264 211.502 396.264 210.947C396.264 210.339 396.387 209.79 396.632 209.299C396.867 208.809 397.213 208.414 397.672 208.115C397.224 207.763 396.877 207.321 396.632 206.787C396.387 206.243 396.264 205.651 396.264 205.011ZM395.912 194.758V198.342H393.8V188.582H395.912V192.166H405V194.758H395.912ZM405.128 182.143C405.128 183.049 404.941 183.865 404.568 184.591C404.184 185.305 403.656 185.865 402.984 186.271C402.312 186.676 401.549 186.879 400.696 186.879C399.843 186.879 399.08 186.676 398.408 186.271C397.736 185.865 397.213 185.305 396.84 184.591C396.456 183.865 396.264 183.049 396.264 182.143C396.264 181.236 396.456 180.425 396.84 179.711C397.213 178.996 397.736 178.436 398.408 178.031C399.08 177.625 399.843 177.423 400.696 177.423C401.549 177.423 402.312 177.625 402.984 178.031C403.656 178.436 404.184 178.996 404.568 179.711C404.941 180.425 405.128 181.236 405.128 182.143ZM403.08 182.143C403.08 181.503 402.867 180.98 402.44 180.575C402.003 180.159 401.421 179.951 400.696 179.951C399.971 179.951 399.395 180.159 398.968 180.575C398.531 180.98 398.312 181.503 398.312 182.143C398.312 182.783 398.531 183.311 398.968 183.727C399.395 184.143 399.971 184.351 400.696 184.351C401.421 184.351 402.003 184.143 402.44 183.727C402.867 183.311 403.08 182.783 403.08 182.143ZM401.624 170.058L402.808 171.258H405V173.754H393.128V171.258H399.848L396.392 167.61V164.634L400.04 168.218L405 164.314V167.338L401.624 170.058ZM400.728 153.135C400.76 153.135 400.984 153.151 401.4 153.183V159.695C401.933 159.577 402.355 159.3 402.664 158.863C402.973 158.425 403.128 157.881 403.128 157.231C403.128 156.783 403.064 156.388 402.936 156.047C402.797 155.695 402.584 155.369 402.296 155.071L403.736 153.743C404.664 154.553 405.128 155.737 405.128 157.295C405.128 158.265 404.941 159.124 404.568 159.871C404.184 160.617 403.656 161.193 402.984 161.599C402.312 162.004 401.549 162.207 400.696 162.207C399.853 162.207 399.096 162.009 398.424 161.615C397.741 161.209 397.213 160.66 396.84 159.967C396.456 159.263 396.264 158.479 396.264 157.615C396.264 156.772 396.445 156.009 396.808 155.327C397.171 154.644 397.693 154.111 398.376 153.727C399.048 153.332 399.832 153.135 400.728 153.135ZM398.152 157.599C398.152 158.164 398.312 158.639 398.632 159.023C398.952 159.407 399.389 159.641 399.944 159.727V155.487C399.4 155.572 398.968 155.807 398.648 156.191C398.317 156.575 398.152 157.044 398.152 157.599ZM396.264 144.241C396.264 143.174 396.584 142.316 397.224 141.665C397.864 141.004 398.813 140.673 400.072 140.673H405V143.169H400.456C399.773 143.169 399.267 143.318 398.936 143.617C398.595 143.916 398.424 144.348 398.424 144.913C398.424 145.542 398.621 146.044 399.016 146.417C399.4 146.79 399.976 146.977 400.744 146.977H405V149.473H396.392V147.089H397.4C397.037 146.758 396.76 146.348 396.568 145.857C396.365 145.366 396.264 144.828 396.264 144.241Z" fill="#D7D7D7"/>
<path d="M422.8 154.4H434V156.992H429.408V162.08H434V164.672H422.8V162.08H427.216V156.992H422.8V154.4ZM434.128 145.83C434.128 146.737 433.941 147.553 433.568 148.278C433.184 148.993 432.656 149.553 431.984 149.958C431.312 150.363 430.549 150.566 429.696 150.566C428.843 150.566 428.08 150.363 427.408 149.958C426.736 149.553 426.213 148.993 425.84 148.278C425.456 147.553 425.264 146.737 425.264 145.83C425.264 144.923 425.456 144.113 425.84 143.398C426.213 142.683 426.736 142.123 427.408 141.718C428.08 141.313 428.843 141.11 429.696 141.11C430.549 141.11 431.312 141.313 431.984 141.718C432.656 142.123 433.184 142.683 433.568 143.398C433.941 144.113 434.128 144.923 434.128 145.83ZM432.08 145.83C432.08 145.19 431.867 144.667 431.44 144.262C431.003 143.846 430.421 143.638 429.696 143.638C428.971 143.638 428.395 143.846 427.968 144.262C427.531 144.667 427.312 145.19 427.312 145.83C427.312 146.47 427.531 146.998 427.968 147.414C428.395 147.83 428.971 148.038 429.696 148.038C430.421 148.038 431.003 147.83 431.44 147.414C431.867 146.998 432.08 146.47 432.08 145.83ZM433.584 131.89C433.765 132.135 433.904 132.439 434 132.802C434.085 133.154 434.128 133.527 434.128 133.922C434.128 134.946 433.867 135.74 433.344 136.306C432.821 136.86 432.053 137.138 431.04 137.138H427.504V138.466H425.584V137.138H423.488V134.642H425.584V132.498H427.504V134.642H431.008C431.371 134.642 431.653 134.551 431.856 134.37C432.048 134.178 432.144 133.911 432.144 133.57C432.144 133.175 432.037 132.839 431.824 132.562L433.584 131.89ZM428.176 120.089C428.379 119.449 428.72 118.947 429.2 118.585C429.669 118.222 430.251 118.041 430.944 118.041C431.925 118.041 432.683 118.425 433.216 119.193C433.739 119.95 434 121.059 434 122.521V128.313H422.8V122.841C422.8 121.475 423.061 120.43 423.584 119.705C424.107 118.969 424.816 118.601 425.712 118.601C426.256 118.601 426.741 118.734 427.168 119.001C427.595 119.257 427.931 119.619 428.176 120.089ZM424.752 125.737H427.392V123.161C427.392 122.521 427.28 122.035 427.056 121.705C426.832 121.374 426.501 121.209 426.064 121.209C425.627 121.209 425.301 121.374 425.088 121.705C424.864 122.035 424.752 122.521 424.752 123.161V125.737ZM432.048 122.713C432.048 122.03 431.936 121.518 431.712 121.177C431.488 120.825 431.141 120.649 430.672 120.649C429.744 120.649 429.28 121.337 429.28 122.713V125.737H432.048V122.713ZM425.392 114.254V111.758H434V114.254H425.392ZM424.192 113.006C424.192 113.465 424.059 113.838 423.792 114.126C423.525 114.414 423.195 114.558 422.8 114.558C422.405 114.558 422.075 114.414 421.808 114.126C421.541 113.838 421.408 113.465 421.408 113.006C421.408 112.548 421.536 112.174 421.792 111.886C422.048 111.598 422.368 111.454 422.752 111.454C423.168 111.454 423.515 111.598 423.792 111.886C424.059 112.174 424.192 112.548 424.192 113.006ZM433.584 101.89C433.765 102.135 433.904 102.439 434 102.802C434.085 103.154 434.128 103.527 434.128 103.922C434.128 104.946 433.867 105.74 433.344 106.306C432.821 106.86 432.053 107.138 431.04 107.138H427.504V108.466H425.584V107.138H423.488V104.642H425.584V102.498H427.504V104.642H431.008C431.371 104.642 431.653 104.551 431.856 104.37C432.048 104.178 432.144 103.911 432.144 103.57C432.144 103.175 432.037 102.839 431.824 102.562L433.584 101.89Z" fill="#D7D7D7"/>
<path d="M460.176 249.448C460.379 248.808 460.72 248.307 461.2 247.944C461.669 247.581 462.251 247.4 462.944 247.4C463.925 247.4 464.683 247.784 465.216 248.552C465.739 249.309 466 250.419 466 251.88V257.672H454.8V252.2C454.8 250.835 455.061 249.789 455.584 249.064C456.107 248.328 456.816 247.96 457.712 247.96C458.256 247.96 458.741 248.093 459.168 248.36C459.595 248.616 459.931 248.979 460.176 249.448ZM456.752 255.096H459.392V252.52C459.392 251.88 459.28 251.395 459.056 251.064C458.832 250.733 458.501 250.568 458.064 250.568C457.627 250.568 457.301 250.733 457.088 251.064C456.864 251.395 456.752 251.88 456.752 252.52V255.096ZM464.048 252.072C464.048 251.389 463.936 250.877 463.712 250.536C463.488 250.184 463.141 250.008 462.672 250.008C461.744 250.008 461.28 250.696 461.28 252.072V255.096H464.048V252.072ZM457.392 243.614V241.118H466V243.614H457.392ZM456.192 242.366C456.192 242.824 456.059 243.198 455.792 243.486C455.525 243.774 455.195 243.918 454.8 243.918C454.405 243.918 454.075 243.774 453.808 243.486C453.541 243.198 453.408 242.824 453.408 242.366C453.408 241.907 453.536 241.534 453.792 241.246C454.048 240.958 454.368 240.814 454.752 240.814C455.168 240.814 455.515 240.958 455.792 241.246C456.059 241.534 456.192 241.907 456.192 242.366ZM465.584 231.249C465.765 231.494 465.904 231.798 466 232.161C466.085 232.513 466.128 232.886 466.128 233.281C466.128 234.305 465.867 235.1 465.344 235.665C464.821 236.22 464.053 236.497 463.04 236.497H459.504V237.825H457.584V236.497H455.488V234.001H457.584V231.857H459.504V234.001H463.008C463.371 234.001 463.653 233.91 463.856 233.729C464.048 233.537 464.144 233.27 464.144 232.929C464.144 232.534 464.037 232.198 463.824 231.921L465.584 231.249ZM457.584 225.112V222.904H459.504V225.048H466V227.544H459.504V228.872H457.584V227.544H457.2C456.219 227.544 455.44 227.256 454.864 226.68C454.288 226.093 454 225.272 454 224.216C454 223.843 454.043 223.491 454.128 223.16C454.203 222.819 454.315 222.536 454.464 222.312L456.272 222.968C456.069 223.256 455.968 223.592 455.968 223.976C455.968 224.733 456.384 225.112 457.216 225.112H457.584ZM466.128 215.674C466.128 216.581 465.941 217.397 465.568 218.122C465.184 218.837 464.656 219.397 463.984 219.802C463.312 220.207 462.549 220.41 461.696 220.41C460.843 220.41 460.08 220.207 459.408 219.802C458.736 219.397 458.213 218.837 457.84 218.122C457.456 217.397 457.264 216.581 457.264 215.674C457.264 214.767 457.456 213.957 457.84 213.242C458.213 212.527 458.736 211.967 459.408 211.562C460.08 211.157 460.843 210.954 461.696 210.954C462.549 210.954 463.312 211.157 463.984 211.562C464.656 211.967 465.184 212.527 465.568 213.242C465.941 213.957 466.128 214.767 466.128 215.674ZM464.08 215.674C464.08 215.034 463.867 214.511 463.44 214.106C463.003 213.69 462.421 213.482 461.696 213.482C460.971 213.482 460.395 213.69 459.968 214.106C459.531 214.511 459.312 215.034 459.312 215.674C459.312 216.314 459.531 216.842 459.968 217.258C460.395 217.674 460.971 217.882 461.696 217.882C462.421 217.882 463.003 217.674 463.44 217.258C463.867 216.842 464.08 216.314 464.08 215.674ZM458.528 204.901C458.112 204.603 457.797 204.203 457.584 203.701C457.371 203.189 457.264 202.603 457.264 201.941H459.568C459.547 202.219 459.536 202.405 459.536 202.501C459.536 203.216 459.739 203.776 460.144 204.181C460.539 204.587 461.136 204.789 461.936 204.789H466V207.285H457.392V204.901H458.528ZM461.728 190.103C461.76 190.103 461.984 190.119 462.4 190.151V196.663C462.933 196.546 463.355 196.269 463.664 195.831C463.973 195.394 464.128 194.85 464.128 194.199C464.128 193.751 464.064 193.357 463.936 193.015C463.797 192.663 463.584 192.338 463.296 192.039L464.736 190.711C465.664 191.522 466.128 192.706 466.128 194.263C466.128 195.234 465.941 196.093 465.568 196.839C465.184 197.586 464.656 198.162 463.984 198.567C463.312 198.973 462.549 199.175 461.696 199.175C460.853 199.175 460.096 198.978 459.424 198.583C458.741 198.178 458.213 197.629 457.84 196.935C457.456 196.231 457.264 195.447 457.264 194.583C457.264 193.741 457.445 192.978 457.808 192.295C458.171 191.613 458.693 191.079 459.376 190.695C460.048 190.301 460.832 190.103 461.728 190.103ZM459.152 194.567C459.152 195.133 459.312 195.607 459.632 195.991C459.952 196.375 460.389 196.61 460.944 196.695V192.455C460.4 192.541 459.968 192.775 459.648 193.159C459.317 193.543 459.152 194.013 459.152 194.567ZM466 181.204L463.36 183.092L466 185.044V187.764L461.664 184.452L457.392 187.652V184.852L459.904 183.028L457.392 181.156V178.5L461.6 181.7L466 178.372V181.204Z" fill="#D7D7D7"/>
<path d="M183.8 181.672V179.08H192.888V173.464H195V181.672H183.8ZM186.392 170.192V167.696H195V170.192H186.392ZM185.192 168.944C185.192 169.402 185.059 169.776 184.792 170.064C184.525 170.352 184.195 170.496 183.8 170.496C183.405 170.496 183.075 170.352 182.808 170.064C182.541 169.776 182.408 169.402 182.408 168.944C182.408 168.485 182.536 168.112 182.792 167.824C183.048 167.536 183.368 167.392 183.752 167.392C184.168 167.392 184.515 167.536 184.792 167.824C185.059 168.112 185.192 168.485 185.192 168.944ZM186.392 154.835L195 158.467V161.043L186.392 164.659V162.083L192.248 159.699L186.392 157.235V154.835ZM190.728 143.619C190.76 143.619 190.984 143.635 191.4 143.667V150.179C191.933 150.062 192.355 149.784 192.664 149.347C192.973 148.91 193.128 148.366 193.128 147.715C193.128 147.267 193.064 146.872 192.936 146.531C192.797 146.179 192.584 145.854 192.296 145.555L193.736 144.227C194.664 145.038 195.128 146.222 195.128 147.779C195.128 148.75 194.941 149.608 194.568 150.355C194.184 151.102 193.656 151.678 192.984 152.083C192.312 152.488 191.549 152.691 190.696 152.691C189.853 152.691 189.096 152.494 188.424 152.099C187.741 151.694 187.213 151.144 186.84 150.451C186.456 149.747 186.264 148.963 186.264 148.099C186.264 147.256 186.445 146.494 186.808 145.811C187.171 145.128 187.693 144.595 188.376 144.211C189.048 143.816 189.832 143.619 190.728 143.619ZM188.152 148.083C188.152 148.648 188.312 149.123 188.632 149.507C188.952 149.891 189.389 150.126 189.944 150.211V145.971C189.4 146.056 188.968 146.291 188.648 146.675C188.317 147.059 188.152 147.528 188.152 148.083ZM195.192 134.421C195.192 135.563 194.947 136.597 194.456 137.525C193.955 138.443 193.267 139.168 192.392 139.701C191.507 140.224 190.509 140.485 189.4 140.485C188.291 140.485 187.299 140.224 186.424 139.701C185.539 139.168 184.851 138.443 184.36 137.525C183.859 136.597 183.608 135.557 183.608 134.405C183.608 133.435 183.779 132.56 184.12 131.781C184.461 130.992 184.952 130.331 185.592 129.797L187.128 131.461C186.253 132.219 185.816 133.157 185.816 134.277C185.816 134.971 185.971 135.589 186.28 136.133C186.579 136.677 187 137.104 187.544 137.413C188.088 137.712 188.707 137.861 189.4 137.861C190.093 137.861 190.712 137.712 191.256 137.413C191.8 137.104 192.227 136.677 192.536 136.133C192.835 135.589 192.984 134.971 192.984 134.277C192.984 133.157 192.541 132.219 191.656 131.461L193.192 129.797C193.843 130.331 194.339 130.992 194.68 131.781C195.021 132.571 195.192 133.451 195.192 134.421ZM195.128 122.424C195.128 123.331 194.941 124.147 194.568 124.872C194.184 125.587 193.656 126.147 192.984 126.552C192.312 126.957 191.549 127.16 190.696 127.16C189.843 127.16 189.08 126.957 188.408 126.552C187.736 126.147 187.213 125.587 186.84 124.872C186.456 124.147 186.264 123.331 186.264 122.424C186.264 121.517 186.456 120.707 186.84 119.992C187.213 119.277 187.736 118.717 188.408 118.312C189.08 117.907 189.843 117.704 190.696 117.704C191.549 117.704 192.312 117.907 192.984 118.312C193.656 118.717 194.184 119.277 194.568 119.992C194.941 120.707 195.128 121.517 195.128 122.424ZM193.08 122.424C193.08 121.784 192.867 121.261 192.44 120.856C192.003 120.44 191.421 120.232 190.696 120.232C189.971 120.232 189.395 120.44 188.968 120.856C188.531 121.261 188.312 121.784 188.312 122.424C188.312 123.064 188.531 123.592 188.968 124.008C189.395 124.424 189.971 124.632 190.696 124.632C191.421 124.632 192.003 124.424 192.44 124.008C192.867 123.592 193.08 123.064 193.08 122.424ZM186.392 114.035V111.539H195V114.035H186.392ZM185.192 112.787C185.192 113.246 185.059 113.619 184.792 113.907C184.525 114.195 184.195 114.339 183.8 114.339C183.405 114.339 183.075 114.195 182.808 113.907C182.541 113.619 182.408 113.246 182.408 112.787C182.408 112.329 182.536 111.955 182.792 111.667C183.048 111.379 183.368 111.235 183.752 111.235C184.168 111.235 184.515 111.379 184.792 111.667C185.059 111.955 185.192 112.329 185.192 112.787ZM186.264 101.991C186.264 100.924 186.584 100.066 187.224 99.415C187.864 98.7537 188.813 98.423 190.072 98.423H195V100.919H190.456C189.773 100.919 189.267 101.068 188.936 101.367C188.595 101.666 188.424 102.098 188.424 102.663C188.424 103.292 188.621 103.794 189.016 104.167C189.4 104.54 189.976 104.727 190.744 104.727H195V107.223H186.392V104.839H187.4C187.037 104.508 186.76 104.098 186.568 103.607C186.365 103.116 186.264 102.578 186.264 101.991Z" fill="#D7D7D7"/>
<path d="M126.912 73.352V76.936H124.8V67.176H126.912V70.76H136V73.352H126.912ZM136.128 60.7364C136.128 61.643 135.941 62.459 135.568 63.1844C135.184 63.899 134.656 64.459 133.984 64.8644C133.312 65.2697 132.549 65.4724 131.696 65.4724C130.843 65.4724 130.08 65.2697 129.408 64.8644C128.736 64.459 128.213 63.899 127.84 63.1844C127.456 62.459 127.264 61.643 127.264 60.7364C127.264 59.8297 127.456 59.019 127.84 58.3044C128.213 57.5897 128.736 57.0297 129.408 56.6244C130.08 56.219 130.843 56.0164 131.696 56.0164C132.549 56.0164 133.312 56.219 133.984 56.6244C134.656 57.0297 135.184 57.5897 135.568 58.3044C135.941 59.019 136.128 59.8297 136.128 60.7364ZM134.08 60.7364C134.08 60.0964 133.867 59.5737 133.44 59.1684C133.003 58.7524 132.421 58.5444 131.696 58.5444C130.971 58.5444 130.395 58.7524 129.968 59.1684C129.531 59.5737 129.312 60.0964 129.312 60.7364C129.312 61.3764 129.531 61.9044 129.968 62.3204C130.395 62.7364 130.971 62.9444 131.696 62.9444C132.421 62.9444 133.003 62.7364 133.44 62.3204C133.867 61.9044 134.08 61.3764 134.08 60.7364ZM127.264 47.26C127.264 46.46 127.451 45.7347 127.824 45.084C128.187 44.4227 128.704 43.9053 129.376 43.532C130.037 43.1587 130.811 42.972 131.696 42.972C132.581 42.972 133.36 43.1587 134.032 43.532C134.693 43.9053 135.211 44.4227 135.584 45.084C135.947 45.7347 136.128 46.46 136.128 47.26C136.128 48.3587 135.781 49.2227 135.088 49.852H139.104V52.348H127.392V49.964H128.384C127.637 49.3453 127.264 48.444 127.264 47.26ZM134.08 47.692C134.08 47.052 133.867 46.5293 133.44 46.124C133.003 45.708 132.421 45.5 131.696 45.5C130.971 45.5 130.395 45.708 129.968 46.124C129.531 46.5293 129.312 47.052 129.312 47.692C129.312 48.332 129.531 48.86 129.968 49.276C130.395 49.6813 130.971 49.884 131.696 49.884C132.421 49.884 133.003 49.6813 133.44 49.276C133.867 48.86 134.08 48.332 134.08 47.692ZM130.176 30.9011C130.379 30.2611 130.72 29.7598 131.2 29.3971C131.669 29.0345 132.251 28.8531 132.944 28.8531C133.925 28.8531 134.683 29.2371 135.216 30.0051C135.739 30.7625 136 31.8718 136 33.3331V39.1251H124.8V33.6531C124.8 32.2878 125.061 31.2425 125.584 30.5171C126.107 29.7811 126.816 29.4131 127.712 29.4131C128.256 29.4131 128.741 29.5465 129.168 29.8131C129.595 30.0691 129.931 30.4318 130.176 30.9011ZM126.752 36.5491H129.392V33.9731C129.392 33.3331 129.28 32.8478 129.056 32.5171C128.832 32.1865 128.501 32.0211 128.064 32.0211C127.627 32.0211 127.301 32.1865 127.088 32.5171C126.864 32.8478 126.752 33.3331 126.752 33.9731V36.5491ZM134.048 33.5251C134.048 32.8425 133.936 32.3305 133.712 31.9891C133.488 31.6371 133.141 31.4611 132.672 31.4611C131.744 31.4611 131.28 32.1491 131.28 33.5251V36.5491H134.048V33.5251ZM126.912 22.727V26.311H124.8V16.551H126.912V20.135H136V22.727H126.912ZM136.192 7.95262C136.192 9.09396 135.947 10.1286 135.456 11.0566C134.955 11.974 134.267 12.6993 133.392 13.2326C132.507 13.7553 131.509 14.0166 130.4 14.0166C129.291 14.0166 128.299 13.7553 127.424 13.2326C126.539 12.6993 125.851 11.974 125.36 11.0566C124.859 10.1286 124.608 9.08862 124.608 7.93662C124.608 6.96596 124.779 6.09129 125.12 5.31262C125.461 4.52329 125.952 3.86196 126.592 3.32862L128.128 4.99262C127.253 5.74996 126.816 6.68862 126.816 7.80862C126.816 8.50196 126.971 9.12062 127.28 9.66462C127.579 10.2086 128 10.6353 128.544 10.9446C129.088 11.2433 129.707 11.3926 130.4 11.3926C131.093 11.3926 131.712 11.2433 132.256 10.9446C132.8 10.6353 133.227 10.2086 133.536 9.66462C133.835 9.12062 133.984 8.50196 133.984 7.80862C133.984 6.68862 133.541 5.74996 132.656 4.99262L134.192 3.32862C134.843 3.86196 135.339 4.52329 135.68 5.31262C136.021 6.10196 136.192 6.98196 136.192 7.95262Z" fill="#D7D7D7"/>
</svg>
