<svg width="212" height="34" viewBox="0 0 212 34" fill="none" xmlns="http://www.w3.org/2000/svg">
    <path d="M39.4912 10.2461C39.885 10.6379 39.8841 11.2756 39.4891 11.6662L34.862 16.2418C34.468 16.6314 34.4659 17.2671 34.8574 17.6593L39.4958 22.3065C39.8874 22.6988 39.8852 23.3349 39.4907 23.7244L29.8953 33.2007C29.5051 33.586 28.8773 33.5852 28.4881 33.1989L12.8321 17.6579C12.4381 17.2668 12.4381 16.6296 12.8321 16.2385L28.4856 0.700052C28.8758 0.31271 29.5055 0.313039 29.8953 0.700789L39.4912 10.2461Z"
          fill="#FF6932"/>
    <path d="M15.3566 10.4085C15.741 10.7997 15.7386 11.4276 15.3511 11.8158L10.8596 16.3158C10.4681 16.708 10.4702 17.3438 10.8644 17.7334L15.3417 22.1594C15.7336 22.5468 15.7382 23.1784 15.3519 23.5715L11.7204 27.2667C11.3316 27.6622 10.6952 27.6659 10.302 27.2747L0.710175 17.7334C0.318151 17.3435 0.317015 16.7094 0.707639 16.318L10.3019 6.7056C10.6948 6.31204 11.3332 6.31451 11.7229 6.7111L15.3566 10.4085Z"
          fill="#FF6932"/>
    <path d="M46.5033 6.69756C46.893 6.30713 47.5253 6.306 47.9164 6.69504L57.5873 16.3155C57.9813 16.7074 57.9801 17.3454 57.5847 17.7359L47.9138 27.2877C47.5233 27.6734 46.895 27.6722 46.5059 27.2852L36.9035 17.7334C36.5115 17.3435 36.5104 16.7094 36.901 16.318L46.5033 6.69756Z"
          fill="#FF6932"/>
    <path d="M65 20.5217V6.47826C65 5.61594 65.7273 5 66.5758 5H71.9091C76.0303 5 78.5758 7.21739 78.5758 10.6667C78.5758 14.4855 75.4242 16.4565 71.5455 16.4565H68.0303V20.5217C68.0303 21.3841 67.303 22 66.4546 22C65.6061 22 65 21.2609 65 20.5217ZM68.0303 13.7464H71.5455C73.8485 13.7464 75.303 12.5145 75.303 10.7899C75.303 8.81884 73.8485 7.83333 71.5455 7.83333H68.0303V13.7464ZM84.6364 20.5217V8.44928C84.6364 7.71015 85.2424 7.21739 85.9697 7.21739C86.697 7.21739 87.303 7.83333 87.303 8.44928V19.413H94.0909C94.697 19.413 95.303 19.9058 95.303 20.5217C95.303 21.1377 94.8182 21.6304 94.0909 21.6304H85.9697C85.2424 21.8768 84.6364 21.2609 84.6364 20.5217ZM100.152 20.7681C100.152 20.5217 100.273 20.3986 100.273 20.1522L105.848 8.2029C106.091 7.58696 106.697 7.21739 107.424 7.21739H107.545C108.273 7.21739 108.758 7.58696 109.121 8.2029L114.697 20.1522C114.818 20.3986 114.818 20.5217 114.818 20.6449C114.818 21.3841 114.333 21.8768 113.606 21.8768C113 21.8768 112.515 21.5072 112.273 21.0145L111.061 18.3043H103.788L102.576 21.1377C102.333 21.6304 101.97 22 101.364 22C100.758 21.8768 100.152 21.3841 100.152 20.7681ZM104.879 16.087H110.091L107.424 10.2971L104.879 16.087ZM123.061 20.6449V9.68116H119.424C118.697 9.68116 118.212 9.18841 118.212 8.44928C118.212 7.83333 118.697 7.21739 119.424 7.21739H129.364C129.97 7.21739 130.576 7.71015 130.576 8.44928C130.576 9.06522 130.091 9.68116 129.364 9.68116H125.727V20.6449C125.727 21.3841 125.121 21.8768 124.394 21.8768C123.667 21.8768 123.061 21.3841 123.061 20.6449ZM136.636 20.6449V8.44928C136.636 7.71015 137.242 7.21739 137.97 7.21739C138.697 7.21739 139.303 7.83333 139.303 8.44928V20.6449C139.303 21.3841 138.697 21.8768 137.97 21.8768C137.242 21.8768 136.636 21.3841 136.636 20.6449ZM146.576 20.6449V8.57246C146.576 7.83333 147.182 7.34058 147.909 7.34058H148.152C148.758 7.34058 149.121 7.71014 149.485 8.07971L157 17.442V8.57246C157 7.83333 157.606 7.34058 158.333 7.34058C159.061 7.34058 159.667 7.95652 159.667 8.57246V20.7681C159.667 21.5072 159.061 22 158.333 22H158.212C157.606 22 157.242 21.6304 156.879 21.2609L149.121 11.6522V20.7681C149.121 21.5072 148.515 22 147.788 22C147.182 21.8768 146.576 21.3841 146.576 20.6449ZM173 22C169.121 22 166.576 19.7826 166.576 15.5942V8.44928C166.576 7.71015 167.182 7.21739 167.909 7.21739C168.636 7.21739 169.242 7.83333 169.242 8.44928V15.471C169.242 18.1812 170.697 19.5362 173 19.5362C175.303 19.5362 176.758 18.1812 176.758 15.471V8.32609C176.758 7.58696 177.364 7.0942 178.091 7.0942C178.818 7.0942 179.424 7.71014 179.424 8.32609V15.3478C179.424 19.9058 176.879 22 173 22ZM186.333 20.6449V8.57246C186.333 7.83333 186.939 7.34058 187.667 7.34058H187.909C188.515 7.34058 188.879 7.58696 189.121 8.07971L193.606 14.9783L198.212 8.07971C198.455 7.58696 198.818 7.46377 199.424 7.46377H199.667C200.394 7.46377 201 8.07971 201 8.69565V20.7681C201 21.5072 200.394 22 199.667 22C198.939 22 198.333 21.3841 198.333 20.7681V12.1449L194.697 17.442C194.455 17.8116 194.091 18.058 193.606 18.058C193.121 18.058 192.758 17.8116 192.515 17.442L188.879 12.1449V20.7681C188.879 21.5072 188.273 22 187.545 22C186.818 22 186.333 21.3841 186.333 20.6449Z"
          fill="black"/>
    <path d="M67.064 30.08C67.848 30.08 68.472 29.616 68.472 28.888V28.872C68.472 28.152 67.784 27.912 67.128 27.728C66.544 27.56 65.992 27.392 65.992 26.936V26.92C65.992 26.512 66.36 26.208 66.92 26.208C67.312 26.208 67.704 26.336 68.056 26.544C68.08 26.56 68.12 26.576 68.168 26.576C68.272 26.576 68.36 26.488 68.36 26.384C68.36 26.296 68.304 26.24 68.256 26.208C67.864 25.984 67.376 25.84 66.936 25.84C66.144 25.84 65.592 26.312 65.592 26.968V26.984C65.592 27.712 66.328 27.912 66.992 28.104C67.56 28.264 68.072 28.44 68.072 28.92V28.936C68.072 29.408 67.64 29.712 67.088 29.712C66.6 29.712 66.152 29.552 65.728 29.248C65.696 29.224 65.648 29.208 65.6 29.208C65.496 29.208 65.408 29.296 65.408 29.4C65.408 29.464 65.448 29.528 65.48 29.552C65.896 29.864 66.512 30.08 67.064 30.08ZM80.8166 27.768C80.8886 26.864 81.5126 26.184 82.3206 26.184C83.2566 26.184 83.7286 26.944 83.7846 27.768H80.8166ZM83.9926 29.432C84.0406 29.384 84.0566 29.336 84.0566 29.296C84.0566 29.192 83.9686 29.112 83.8646 29.112C83.8086 29.112 83.7686 29.136 83.7366 29.168C83.4086 29.488 83.0006 29.728 82.4166 29.728C81.6166 29.728 80.8886 29.136 80.8166 28.12H84.0166C84.1126 28.12 84.2086 28.032 84.2086 27.936C84.2086 26.768 83.4806 25.824 82.3366 25.824C81.2326 25.824 80.4006 26.768 80.4006 27.952V27.968C80.4006 29.24 81.3286 30.096 82.4006 30.096C83.1366 30.096 83.5926 29.832 83.9926 29.432ZM98.1124 30.096C98.8084 30.096 99.2804 29.808 99.6884 29.392C99.7204 29.36 99.7364 29.312 99.7364 29.272C99.7364 29.176 99.6404 29.08 99.5444 29.08C99.4884 29.08 99.4484 29.112 99.4164 29.144C99.0884 29.472 98.6644 29.728 98.1364 29.728C97.2004 29.728 96.4564 28.944 96.4564 27.96V27.944C96.4564 26.968 97.1764 26.192 98.1044 26.192C98.6564 26.192 99.0404 26.456 99.3684 26.768C99.4004 26.8 99.4564 26.816 99.5044 26.816C99.6164 26.816 99.7044 26.728 99.7044 26.616C99.7044 26.56 99.6804 26.504 99.6484 26.472C99.2804 26.128 98.8164 25.824 98.1124 25.824C96.9444 25.824 96.0324 26.816 96.0324 27.96V27.976C96.0324 29.12 96.9364 30.096 98.1124 30.096ZM115.259 26.088C115.259 25.968 115.171 25.888 115.059 25.888C114.947 25.888 114.867 25.968 114.867 26.088V28.28C114.867 29.128 114.251 29.736 113.451 29.736C112.627 29.736 112.155 29.184 112.155 28.344V26.088C112.155 25.968 112.067 25.888 111.955 25.888C111.843 25.888 111.763 25.968 111.763 26.088V28.416C111.763 29.392 112.363 30.096 113.395 30.096C114.139 30.096 114.595 29.72 114.867 29.24V29.832C114.867 29.952 114.955 30.032 115.067 30.032C115.179 30.032 115.259 29.944 115.259 29.832V26.088ZM127.709 29.832C127.709 29.952 127.797 30.032 127.909 30.032C128.021 30.032 128.101 29.944 128.101 29.832V28.328C128.101 27.016 128.877 26.368 129.741 26.288C129.869 26.28 129.949 26.184 129.949 26.072C129.949 25.952 129.861 25.856 129.741 25.856C129.165 25.856 128.453 26.288 128.101 27.08V26.088C128.101 25.968 128.013 25.888 127.901 25.888C127.789 25.888 127.709 25.976 127.709 26.088V29.832ZM141.88 24.656C141.88 24.792 141.984 24.896 142.12 24.896C142.256 24.896 142.368 24.792 142.368 24.656V24.52C142.368 24.384 142.256 24.28 142.12 24.28C141.984 24.28 141.88 24.384 141.88 24.52V24.656ZM141.928 29.832C141.928 29.952 142.016 30.032 142.128 30.032C142.24 30.032 142.32 29.952 142.32 29.832V26.088C142.32 25.968 142.232 25.888 142.12 25.888C142.008 25.888 141.928 25.976 141.928 26.088V29.832ZM156.184 30.072C156.416 30.072 156.6 30.024 156.76 29.968C156.84 29.936 156.888 29.88 156.888 29.8C156.888 29.704 156.8 29.624 156.712 29.624C156.656 29.624 156.528 29.704 156.248 29.704C155.776 29.704 155.432 29.496 155.432 28.912V26.28H156.712C156.808 26.28 156.896 26.2 156.896 26.104C156.896 26.008 156.808 25.92 156.712 25.92H155.432V24.784C155.432 24.672 155.344 24.584 155.232 24.584C155.12 24.584 155.04 24.672 155.04 24.784V25.92H154.6C154.504 25.92 154.416 26 154.416 26.096C154.416 26.192 154.504 26.28 154.6 26.28H155.04V28.952C155.04 29.728 155.552 30.072 156.184 30.072ZM168.995 24.656C168.995 24.792 169.099 24.896 169.235 24.896C169.371 24.896 169.483 24.792 169.483 24.656V24.52C169.483 24.384 169.371 24.28 169.235 24.28C169.099 24.28 168.995 24.384 168.995 24.52V24.656ZM169.043 29.832C169.043 29.952 169.131 30.032 169.243 30.032C169.355 30.032 169.435 29.952 169.435 29.832V26.088C169.435 25.968 169.347 25.888 169.235 25.888C169.123 25.888 169.043 25.976 169.043 26.088V29.832ZM182.076 27.768C182.148 26.864 182.772 26.184 183.58 26.184C184.516 26.184 184.988 26.944 185.044 27.768H182.076ZM185.252 29.432C185.3 29.384 185.316 29.336 185.316 29.296C185.316 29.192 185.228 29.112 185.124 29.112C185.068 29.112 185.028 29.136 184.996 29.168C184.668 29.488 184.26 29.728 183.676 29.728C182.876 29.728 182.148 29.136 182.076 28.12H185.276C185.372 28.12 185.468 28.032 185.468 27.936C185.468 26.768 184.74 25.824 183.596 25.824C182.492 25.824 181.66 26.768 181.66 27.952V27.968C181.66 29.24 182.588 30.096 183.66 30.096C184.396 30.096 184.852 29.832 185.252 29.432ZM198.891 30.08C199.675 30.08 200.299 29.616 200.299 28.888V28.872C200.299 28.152 199.611 27.912 198.955 27.728C198.371 27.56 197.819 27.392 197.819 26.936V26.92C197.819 26.512 198.187 26.208 198.747 26.208C199.139 26.208 199.531 26.336 199.883 26.544C199.907 26.56 199.947 26.576 199.995 26.576C200.099 26.576 200.187 26.488 200.187 26.384C200.187 26.296 200.131 26.24 200.083 26.208C199.691 25.984 199.203 25.84 198.763 25.84C197.971 25.84 197.419 26.312 197.419 26.968V26.984C197.419 27.712 198.155 27.912 198.819 28.104C199.387 28.264 199.899 28.44 199.899 28.92V28.936C199.899 29.408 199.467 29.712 198.915 29.712C198.427 29.712 197.979 29.552 197.555 29.248C197.523 29.224 197.475 29.208 197.427 29.208C197.323 29.208 197.235 29.296 197.235 29.4C197.235 29.464 197.275 29.528 197.307 29.552C197.723 29.864 198.339 30.08 198.891 30.08Z"
          fill="black"/>
</svg>
