<svg width="161" height="34" viewBox="0 0 161 34" fill="none" xmlns="http://www.w3.org/2000/svg">
    <path d="M39.4912 10.2461C39.885 10.6379 39.8841 11.2756 39.4891 11.6662L34.862 16.2418C34.468 16.6314 34.4659 17.2671 34.8574 17.6593L39.4958 22.3065C39.8874 22.6988 39.8852 23.3349 39.4907 23.7244L29.8953 33.2007C29.5051 33.586 28.8773 33.5852 28.4881 33.1989L12.8321 17.6579C12.4381 17.2668 12.4381 16.6296 12.8321 16.2385L28.4856 0.700052C28.8758 0.31271 29.5055 0.313039 29.8953 0.700789L39.4912 10.2461Z"
          fill="#FF6932"/>
    <path d="M15.3566 10.4085C15.741 10.7997 15.7386 11.4276 15.3511 11.8158L10.8596 16.3158C10.4681 16.708 10.4702 17.3438 10.8644 17.7334L15.3417 22.1594C15.7336 22.5468 15.7382 23.1784 15.3519 23.5715L11.7204 27.2667C11.3316 27.6622 10.6952 27.6659 10.302 27.2747L0.710175 17.7334C0.318151 17.3435 0.317015 16.7094 0.707639 16.318L10.3019 6.7056C10.6948 6.31204 11.3332 6.31451 11.7229 6.7111L15.3566 10.4085Z"
          fill="#FF6932"/>
    <path d="M46.5033 6.69756C46.893 6.30713 47.5253 6.306 47.9164 6.69504L57.5873 16.3155C57.9813 16.7074 57.9801 17.3454 57.5847 17.7359L47.9138 27.2877C47.5233 27.6734 46.895 27.6722 46.5059 27.2852L36.9035 17.7334C36.5115 17.3435 36.5104 16.7094 36.901 16.318L46.5033 6.69756Z"
          fill="#FF6932"/>
    <path d="M66 21.8356V12.8491C66 12.2973 66.4721 11.9032 67.0228 11.9032H70.4848C73.1599 11.9032 74.8122 13.3221 74.8122 15.5293C74.8122 17.973 72.7665 19.2343 70.2487 19.2343H67.967V21.8356C67.967 22.3874 67.4949 22.7816 66.9442 22.7816C66.3934 22.7816 66 22.3086 66 21.8356ZM67.967 17.5H70.2487C71.7437 17.5 72.6878 16.7118 72.6878 15.6082C72.6878 14.3469 71.7437 13.7163 70.2487 13.7163H67.967V17.5ZM78.7462 21.8356V14.1104C78.7462 13.6374 79.1396 13.3221 79.6117 13.3221C80.0838 13.3221 80.4772 13.7163 80.4772 14.1104V21.1262H84.8832C85.2766 21.1262 85.67 21.4415 85.67 21.8356C85.67 22.2298 85.3553 22.5451 84.8832 22.5451H79.6117C79.1396 22.7027 78.7462 22.3086 78.7462 21.8356ZM88.8173 21.9933C88.8173 21.8356 88.8959 21.7568 88.8959 21.5991L92.5152 13.9527C92.6726 13.5586 93.066 13.3221 93.5381 13.3221H93.6168C94.0888 13.3221 94.4036 13.5586 94.6396 13.9527L98.2589 21.5991C98.3376 21.7568 98.3376 21.8356 98.3376 21.9145C98.3376 22.3874 98.0228 22.7027 97.5508 22.7027C97.1574 22.7027 96.8426 22.4663 96.6853 22.1509L95.8985 20.4167H91.1777L90.3909 22.2298C90.2335 22.5451 89.9975 22.7816 89.6041 22.7816C89.2107 22.7027 88.8173 22.3874 88.8173 21.9933ZM91.8858 18.9978H95.269L93.5381 15.2928L91.8858 18.9978ZM103.688 21.9145V14.8987H101.327C100.855 14.8987 100.541 14.5834 100.541 14.1104C100.541 13.7163 100.855 13.3221 101.327 13.3221H107.779C108.173 13.3221 108.566 13.6374 108.566 14.1104C108.566 14.5045 108.251 14.8987 107.779 14.8987H105.419V21.9145C105.419 22.3874 105.025 22.7027 104.553 22.7027C104.081 22.7027 103.688 22.3874 103.688 21.9145ZM112.5 21.9145V14.1104C112.5 13.6374 112.893 13.3221 113.365 13.3221C113.838 13.3221 114.231 13.7163 114.231 14.1104V21.9145C114.231 22.3874 113.838 22.7027 113.365 22.7027C112.893 22.7027 112.5 22.3874 112.5 21.9145ZM118.952 21.9145V14.1892C118.952 13.7163 119.345 13.4009 119.817 13.4009H119.975C120.368 13.4009 120.604 13.6374 120.84 13.8739L125.718 19.8649V14.1892C125.718 13.7163 126.112 13.4009 126.584 13.4009C127.056 13.4009 127.449 13.7951 127.449 14.1892V21.9933C127.449 22.4663 127.056 22.7816 126.584 22.7816H126.505C126.112 22.7816 125.876 22.5451 125.64 22.3086L120.604 16.16V21.9933C120.604 22.4663 120.211 22.7816 119.739 22.7816C119.345 22.7027 118.952 22.3874 118.952 21.9145ZM136.104 22.7816C133.586 22.7816 131.934 21.3627 131.934 18.6825V14.1104C131.934 13.6374 132.327 13.3221 132.799 13.3221C133.272 13.3221 133.665 13.7163 133.665 14.1104V18.6036C133.665 20.3379 134.609 21.205 136.104 21.205C137.599 21.205 138.543 20.3379 138.543 18.6036V14.0316C138.543 13.5586 138.937 13.2433 139.409 13.2433C139.881 13.2433 140.274 13.6374 140.274 14.0316V18.5248C140.274 21.4415 138.622 22.7816 136.104 22.7816ZM144.759 21.9145V14.1892C144.759 13.7163 145.152 13.4009 145.624 13.4009H145.782C146.175 13.4009 146.411 13.5586 146.569 13.8739L149.48 18.2883L152.47 13.8739C152.627 13.5586 152.863 13.4798 153.256 13.4798H153.414C153.886 13.4798 154.279 13.8739 154.279 14.2681V21.9933C154.279 22.4663 153.886 22.7816 153.414 22.7816C152.942 22.7816 152.548 22.3874 152.548 21.9933V16.4753L150.188 19.8649C150.03 20.1014 149.794 20.2591 149.48 20.2591C149.165 20.2591 148.929 20.1014 148.772 19.8649L146.411 16.4753V21.9933C146.411 22.4663 146.018 22.7816 145.546 22.7816C145.074 22.7816 144.759 22.3874 144.759 21.9145Z"
          fill="black"/>
    <path d="M67.064 30.08C67.848 30.08 68.472 29.616 68.472 28.888V28.872C68.472 28.152 67.784 27.912 67.128 27.728C66.544 27.56 65.992 27.392 65.992 26.936V26.92C65.992 26.512 66.36 26.208 66.92 26.208C67.312 26.208 67.704 26.336 68.056 26.544C68.08 26.56 68.12 26.576 68.168 26.576C68.272 26.576 68.36 26.488 68.36 26.384C68.36 26.296 68.304 26.24 68.256 26.208C67.864 25.984 67.376 25.84 66.936 25.84C66.144 25.84 65.592 26.312 65.592 26.968V26.984C65.592 27.712 66.328 27.912 66.992 28.104C67.56 28.264 68.072 28.44 68.072 28.92V28.936C68.072 29.408 67.64 29.712 67.088 29.712C66.6 29.712 66.152 29.552 65.728 29.248C65.696 29.224 65.648 29.208 65.6 29.208C65.496 29.208 65.408 29.296 65.408 29.4C65.408 29.464 65.448 29.528 65.48 29.552C65.896 29.864 66.512 30.08 67.064 30.08ZM75.6966 27.768C75.7686 26.864 76.3926 26.184 77.2006 26.184C78.1366 26.184 78.6086 26.944 78.6646 27.768H75.6966ZM78.8726 29.432C78.9206 29.384 78.9366 29.336 78.9366 29.296C78.9366 29.192 78.8486 29.112 78.7446 29.112C78.6886 29.112 78.6486 29.136 78.6166 29.168C78.2886 29.488 77.8806 29.728 77.2966 29.728C76.4966 29.728 75.7686 29.136 75.6966 28.12H78.8966C78.9926 28.12 79.0886 28.032 79.0886 27.936C79.0886 26.768 78.3606 25.824 77.2166 25.824C76.1126 25.824 75.2806 26.768 75.2806 27.952V27.968C75.2806 29.24 76.2086 30.096 77.2806 30.096C78.0166 30.096 78.4726 29.832 78.8726 29.432ZM87.8724 30.096C88.5684 30.096 89.0404 29.808 89.4484 29.392C89.4804 29.36 89.4964 29.312 89.4964 29.272C89.4964 29.176 89.4004 29.08 89.3044 29.08C89.2484 29.08 89.2084 29.112 89.1764 29.144C88.8484 29.472 88.4244 29.728 87.8964 29.728C86.9604 29.728 86.2164 28.944 86.2164 27.96V27.944C86.2164 26.968 86.9364 26.192 87.8644 26.192C88.4164 26.192 88.8004 26.456 89.1284 26.768C89.1604 26.8 89.2164 26.816 89.2644 26.816C89.3764 26.816 89.4644 26.728 89.4644 26.616C89.4644 26.56 89.4404 26.504 89.4084 26.472C89.0404 26.128 88.5764 25.824 87.8724 25.824C86.7044 25.824 85.7924 26.816 85.7924 27.96V27.976C85.7924 29.12 86.6964 30.096 87.8724 30.096ZM99.8988 26.088C99.8988 25.968 99.8108 25.888 99.6988 25.888C99.5868 25.888 99.5068 25.968 99.5068 26.088V28.28C99.5068 29.128 98.8908 29.736 98.0908 29.736C97.2668 29.736 96.7948 29.184 96.7948 28.344V26.088C96.7948 25.968 96.7068 25.888 96.5948 25.888C96.4828 25.888 96.4028 25.968 96.4028 26.088V28.416C96.4028 29.392 97.0028 30.096 98.0348 30.096C98.7788 30.096 99.2348 29.72 99.5068 29.24V29.832C99.5068 29.952 99.5948 30.032 99.7068 30.032C99.8188 30.032 99.8988 29.944 99.8988 29.832V26.088ZM107.229 29.832C107.229 29.952 107.317 30.032 107.429 30.032C107.541 30.032 107.621 29.944 107.621 29.832V28.328C107.621 27.016 108.397 26.368 109.261 26.288C109.389 26.28 109.469 26.184 109.469 26.072C109.469 25.952 109.381 25.856 109.261 25.856C108.685 25.856 107.973 26.288 107.621 27.08V26.088C107.621 25.968 107.533 25.888 107.421 25.888C107.309 25.888 107.229 25.976 107.229 26.088V29.832ZM116.28 24.656C116.28 24.792 116.384 24.896 116.52 24.896C116.656 24.896 116.768 24.792 116.768 24.656V24.52C116.768 24.384 116.656 24.28 116.52 24.28C116.384 24.28 116.28 24.384 116.28 24.52V24.656ZM116.328 29.832C116.328 29.952 116.416 30.032 116.528 30.032C116.64 30.032 116.72 29.952 116.72 29.832V26.088C116.72 25.968 116.632 25.888 116.52 25.888C116.408 25.888 116.328 25.976 116.328 26.088V29.832ZM125.464 30.072C125.696 30.072 125.88 30.024 126.04 29.968C126.12 29.936 126.168 29.88 126.168 29.8C126.168 29.704 126.08 29.624 125.992 29.624C125.936 29.624 125.808 29.704 125.528 29.704C125.056 29.704 124.712 29.496 124.712 28.912V26.28H125.992C126.088 26.28 126.176 26.2 126.176 26.104C126.176 26.008 126.088 25.92 125.992 25.92H124.712V24.784C124.712 24.672 124.624 24.584 124.512 24.584C124.4 24.584 124.32 24.672 124.32 24.784V25.92H123.88C123.784 25.92 123.696 26 123.696 26.096C123.696 26.192 123.784 26.28 123.88 26.28H124.32V28.952C124.32 29.728 124.832 30.072 125.464 30.072ZM133.155 24.656C133.155 24.792 133.259 24.896 133.395 24.896C133.531 24.896 133.643 24.792 133.643 24.656V24.52C133.643 24.384 133.531 24.28 133.395 24.28C133.259 24.28 133.155 24.384 133.155 24.52V24.656ZM133.203 29.832C133.203 29.952 133.291 30.032 133.403 30.032C133.515 30.032 133.595 29.952 133.595 29.832V26.088C133.595 25.968 133.507 25.888 133.395 25.888C133.283 25.888 133.203 25.976 133.203 26.088V29.832ZM141.116 27.768C141.188 26.864 141.812 26.184 142.62 26.184C143.556 26.184 144.028 26.944 144.084 27.768H141.116ZM144.292 29.432C144.34 29.384 144.356 29.336 144.356 29.296C144.356 29.192 144.268 29.112 144.164 29.112C144.108 29.112 144.068 29.136 144.036 29.168C143.708 29.488 143.3 29.728 142.716 29.728C141.916 29.728 141.188 29.136 141.116 28.12H144.316C144.412 28.12 144.508 28.032 144.508 27.936C144.508 26.768 143.78 25.824 142.636 25.824C141.532 25.824 140.7 26.768 140.7 27.952V27.968C140.7 29.24 141.628 30.096 142.7 30.096C143.436 30.096 143.892 29.832 144.292 29.432ZM152.811 30.08C153.595 30.08 154.219 29.616 154.219 28.888V28.872C154.219 28.152 153.531 27.912 152.875 27.728C152.291 27.56 151.739 27.392 151.739 26.936V26.92C151.739 26.512 152.107 26.208 152.667 26.208C153.059 26.208 153.451 26.336 153.803 26.544C153.827 26.56 153.867 26.576 153.915 26.576C154.019 26.576 154.107 26.488 154.107 26.384C154.107 26.296 154.051 26.24 154.003 26.208C153.611 25.984 153.123 25.84 152.683 25.84C151.891 25.84 151.339 26.312 151.339 26.968V26.984C151.339 27.712 152.075 27.912 152.739 28.104C153.307 28.264 153.819 28.44 153.819 28.92V28.936C153.819 29.408 153.387 29.712 152.835 29.712C152.347 29.712 151.899 29.552 151.475 29.248C151.443 29.224 151.395 29.208 151.347 29.208C151.243 29.208 151.155 29.296 151.155 29.4C151.155 29.464 151.195 29.528 151.227 29.552C151.643 29.864 152.259 30.08 152.811 30.08Z"
          fill="black"/>
</svg>

