<svg width="348" height="348" viewBox="0 0 348 348" fill="none" xmlns="http://www.w3.org/2000/svg">
<path d="M58.4004 162.425V163.28H55.3854V173H54.3354V163.28H51.3354V162.425H58.4004ZM60.873 166.505C61.113 165.915 61.498 165.46 62.028 165.14C62.558 164.82 63.203 164.66 63.963 164.66V165.8H63.618C62.828 165.8 62.173 166.015 61.653 166.445C61.133 166.865 60.873 167.555 60.873 168.515V173H59.808V164.81H60.873V166.505ZM68.8097 164.705C69.6397 164.705 70.3447 164.92 70.9247 165.35C71.5147 165.78 71.9197 166.35 72.1397 167.06V164.81H73.1747V173H72.1397V170.75C71.9197 171.46 71.5147 172.03 70.9247 172.46C70.3447 172.89 69.6397 173.105 68.8097 173.105C68.0697 173.105 67.4047 172.935 66.8147 172.595C66.2347 172.255 65.7797 171.77 65.4497 171.14C65.1297 170.5 64.9697 169.755 64.9697 168.905C64.9697 168.045 65.1297 167.3 65.4497 166.67C65.7797 166.03 66.2347 165.545 66.8147 165.215C67.3947 164.875 68.0597 164.705 68.8097 164.705ZM69.0797 165.635C68.1597 165.635 67.4197 165.93 66.8597 166.52C66.3097 167.1 66.0347 167.895 66.0347 168.905C66.0347 169.915 66.3097 170.715 66.8597 171.305C67.4197 171.885 68.1597 172.175 69.0797 172.175C69.6597 172.175 70.1797 172.04 70.6397 171.77C71.1097 171.5 71.4747 171.12 71.7347 170.63C72.0047 170.13 72.1397 169.555 72.1397 168.905C72.1397 168.255 72.0047 167.685 71.7347 167.195C71.4747 166.695 71.1097 166.31 70.6397 166.04C70.1797 165.77 69.6597 165.635 69.0797 165.635ZM78.9025 164.705C79.7325 164.705 80.4375 164.92 81.0175 165.35C81.6075 165.78 82.0075 166.35 82.2175 167.06V161.9H83.2675V173H82.2175V170.75C82.0075 171.46 81.6075 172.03 81.0175 172.46C80.4375 172.89 79.7325 173.105 78.9025 173.105C78.1625 173.105 77.4975 172.935 76.9075 172.595C76.3275 172.255 75.8725 171.77 75.5425 171.14C75.2225 170.5 75.0625 169.755 75.0625 168.905C75.0625 168.045 75.2225 167.3 75.5425 166.67C75.8725 166.03 76.3275 165.545 76.9075 165.215C77.4875 164.875 78.1525 164.705 78.9025 164.705ZM79.1725 165.635C78.2525 165.635 77.5125 165.93 76.9525 166.52C76.4025 167.1 76.1275 167.895 76.1275 168.905C76.1275 169.915 76.4025 170.715 76.9525 171.305C77.5125 171.885 78.2525 172.175 79.1725 172.175C79.7525 172.175 80.2725 172.04 80.7325 171.77C81.2025 171.5 81.5675 171.12 81.8275 170.63C82.0975 170.13 82.2325 169.555 82.2325 168.905C82.2325 168.255 82.0975 167.685 81.8275 167.195C81.5675 166.695 81.2025 166.31 80.7325 166.04C80.2725 165.77 79.7525 165.635 79.1725 165.635ZM89.1153 172.235C89.8553 172.235 90.4753 172.05 90.9753 171.68C91.4753 171.31 91.7753 170.81 91.8753 170.18H92.9853C92.8353 171.05 92.4203 171.755 91.7403 172.295C91.0603 172.835 90.2003 173.105 89.1603 173.105C88.3803 173.105 87.6853 172.94 87.0753 172.61C86.4753 172.27 86.0053 171.785 85.6653 171.155C85.3253 170.515 85.1553 169.765 85.1553 168.905C85.1553 168.045 85.3253 167.3 85.6653 166.67C86.0053 166.03 86.4753 165.545 87.0753 165.215C87.6853 164.875 88.3803 164.705 89.1603 164.705C89.9603 164.705 90.6503 164.875 91.2303 165.215C91.8203 165.545 92.2653 165.99 92.5653 166.55C92.8753 167.11 93.0303 167.72 93.0303 168.38C93.0303 168.66 93.0103 168.915 92.9703 169.145H86.1903C86.2003 169.835 86.3403 170.415 86.6103 170.885C86.8903 171.345 87.2503 171.685 87.6903 171.905C88.1303 172.125 88.6053 172.235 89.1153 172.235ZM89.1603 165.56C88.6303 165.56 88.1453 165.67 87.7053 165.89C87.2653 166.11 86.9053 166.45 86.6253 166.91C86.3553 167.36 86.2103 167.925 86.1903 168.605H91.9803C92.0203 167.935 91.9103 167.37 91.6503 166.91C91.3903 166.45 91.0403 166.11 90.6003 165.89C90.1603 165.67 89.6803 165.56 89.1603 165.56ZM95.9853 166.505C96.2253 165.915 96.6103 165.46 97.1403 165.14C97.6703 164.82 98.3153 164.66 99.0753 164.66V165.8H98.7303C97.9403 165.8 97.2853 166.015 96.7653 166.445C96.2453 166.865 95.9853 167.555 95.9853 168.515V173H94.9203V164.81H95.9853V166.505ZM102.947 164.705C103.837 164.705 104.552 164.94 105.092 165.41C105.632 165.88 105.962 166.515 106.082 167.315H105.077C105.017 166.785 104.797 166.35 104.417 166.01C104.047 165.66 103.547 165.485 102.917 165.485C102.377 165.485 101.952 165.62 101.642 165.89C101.342 166.15 101.192 166.5 101.192 166.94C101.192 167.27 101.287 167.535 101.477 167.735C101.677 167.935 101.922 168.09 102.212 168.2C102.502 168.3 102.892 168.405 103.382 168.515C103.982 168.655 104.462 168.8 104.822 168.95C105.192 169.09 105.507 169.315 105.767 169.625C106.027 169.935 106.157 170.355 106.157 170.885C106.157 171.535 105.912 172.07 105.422 172.49C104.942 172.9 104.302 173.105 103.502 173.105C102.562 173.105 101.792 172.875 101.192 172.415C100.592 171.945 100.237 171.305 100.127 170.495H101.147C101.207 171.035 101.442 171.475 101.852 171.815C102.262 172.155 102.817 172.325 103.517 172.325C104.037 172.325 104.442 172.19 104.732 171.92C105.022 171.65 105.167 171.3 105.167 170.87C105.167 170.52 105.067 170.24 104.867 170.03C104.667 169.82 104.417 169.665 104.117 169.565C103.827 169.455 103.427 169.34 102.917 169.22C102.327 169.08 101.852 168.94 101.492 168.8C101.142 168.66 100.842 168.445 100.592 168.155C100.342 167.855 100.217 167.45 100.217 166.94C100.217 166.27 100.462 165.73 100.952 165.32C101.442 164.91 102.107 164.705 102.947 164.705Z" fill="white"/>
<path d="M217.335 162.425V163.28H214.32V173H213.27V163.28H210.27V162.425H217.335ZM219.808 166.505C220.048 165.915 220.433 165.46 220.963 165.14C221.493 164.82 222.138 164.66 222.898 164.66V165.8H222.553C221.763 165.8 221.108 166.015 220.588 166.445C220.068 166.865 219.808 167.555 219.808 168.515V173H218.743V164.81H219.808V166.505ZM227.744 164.705C228.574 164.705 229.279 164.92 229.859 165.35C230.449 165.78 230.854 166.35 231.074 167.06V164.81H232.109V173H231.074V170.75C230.854 171.46 230.449 172.03 229.859 172.46C229.279 172.89 228.574 173.105 227.744 173.105C227.004 173.105 226.339 172.935 225.749 172.595C225.169 172.255 224.714 171.77 224.384 171.14C224.064 170.5 223.904 169.755 223.904 168.905C223.904 168.045 224.064 167.3 224.384 166.67C224.714 166.03 225.169 165.545 225.749 165.215C226.329 164.875 226.994 164.705 227.744 164.705ZM228.014 165.635C227.094 165.635 226.354 165.93 225.794 166.52C225.244 167.1 224.969 167.895 224.969 168.905C224.969 169.915 225.244 170.715 225.794 171.305C226.354 171.885 227.094 172.175 228.014 172.175C228.594 172.175 229.114 172.04 229.574 171.77C230.044 171.5 230.409 171.12 230.669 170.63C230.939 170.13 231.074 169.555 231.074 168.905C231.074 168.255 230.939 167.685 230.669 167.195C230.409 166.695 230.044 166.31 229.574 166.04C229.114 165.77 228.594 165.635 228.014 165.635ZM237.837 164.705C238.667 164.705 239.372 164.92 239.952 165.35C240.542 165.78 240.942 166.35 241.152 167.06V161.9H242.202V173H241.152V170.75C240.942 171.46 240.542 172.03 239.952 172.46C239.372 172.89 238.667 173.105 237.837 173.105C237.097 173.105 236.432 172.935 235.842 172.595C235.262 172.255 234.807 171.77 234.477 171.14C234.157 170.5 233.997 169.755 233.997 168.905C233.997 168.045 234.157 167.3 234.477 166.67C234.807 166.03 235.262 165.545 235.842 165.215C236.422 164.875 237.087 164.705 237.837 164.705ZM238.107 165.635C237.187 165.635 236.447 165.93 235.887 166.52C235.337 167.1 235.062 167.895 235.062 168.905C235.062 169.915 235.337 170.715 235.887 171.305C236.447 171.885 237.187 172.175 238.107 172.175C238.687 172.175 239.207 172.04 239.667 171.77C240.137 171.5 240.502 171.12 240.762 170.63C241.032 170.13 241.167 169.555 241.167 168.905C241.167 168.255 241.032 167.685 240.762 167.195C240.502 166.695 240.137 166.31 239.667 166.04C239.207 165.77 238.687 165.635 238.107 165.635ZM248.05 172.235C248.79 172.235 249.41 172.05 249.91 171.68C250.41 171.31 250.71 170.81 250.81 170.18H251.92C251.77 171.05 251.355 171.755 250.675 172.295C249.995 172.835 249.135 173.105 248.095 173.105C247.315 173.105 246.62 172.94 246.01 172.61C245.41 172.27 244.94 171.785 244.6 171.155C244.26 170.515 244.09 169.765 244.09 168.905C244.09 168.045 244.26 167.3 244.6 166.67C244.94 166.03 245.41 165.545 246.01 165.215C246.62 164.875 247.315 164.705 248.095 164.705C248.895 164.705 249.585 164.875 250.165 165.215C250.755 165.545 251.2 165.99 251.5 166.55C251.81 167.11 251.965 167.72 251.965 168.38C251.965 168.66 251.945 168.915 251.905 169.145H245.125C245.135 169.835 245.275 170.415 245.545 170.885C245.825 171.345 246.185 171.685 246.625 171.905C247.065 172.125 247.54 172.235 248.05 172.235ZM248.095 165.56C247.565 165.56 247.08 165.67 246.64 165.89C246.2 166.11 245.84 166.45 245.56 166.91C245.29 167.36 245.145 167.925 245.125 168.605H250.915C250.955 167.935 250.845 167.37 250.585 166.91C250.325 166.45 249.975 166.11 249.535 165.89C249.095 165.67 248.615 165.56 248.095 165.56ZM260.226 164.705C261.116 164.705 261.831 164.94 262.371 165.41C262.911 165.88 263.241 166.515 263.361 167.315H262.356C262.296 166.785 262.076 166.35 261.696 166.01C261.326 165.66 260.826 165.485 260.196 165.485C259.656 165.485 259.231 165.62 258.921 165.89C258.621 166.15 258.471 166.5 258.471 166.94C258.471 167.27 258.566 167.535 258.756 167.735C258.956 167.935 259.201 168.09 259.491 168.2C259.781 168.3 260.171 168.405 260.661 168.515C261.261 168.655 261.741 168.8 262.101 168.95C262.471 169.09 262.786 169.315 263.046 169.625C263.306 169.935 263.436 170.355 263.436 170.885C263.436 171.535 263.191 172.07 262.701 172.49C262.221 172.9 261.581 173.105 260.781 173.105C259.841 173.105 259.071 172.875 258.471 172.415C257.871 171.945 257.516 171.305 257.406 170.495H258.426C258.486 171.035 258.721 171.475 259.131 171.815C259.541 172.155 260.096 172.325 260.796 172.325C261.316 172.325 261.721 172.19 262.011 171.92C262.301 171.65 262.446 171.3 262.446 170.87C262.446 170.52 262.346 170.24 262.146 170.03C261.946 169.82 261.696 169.665 261.396 169.565C261.106 169.455 260.706 169.34 260.196 169.22C259.606 169.08 259.131 168.94 258.771 168.8C258.421 168.66 258.121 168.445 257.871 168.155C257.621 167.855 257.496 167.45 257.496 166.94C257.496 166.27 257.741 165.73 258.231 165.32C258.721 164.91 259.386 164.705 260.226 164.705ZM269.074 172.07V173H268.099C267.309 173 266.719 172.815 266.329 172.445C265.939 172.065 265.744 171.43 265.744 170.54V165.725H264.499V164.81H265.744V162.74H266.809V164.81H269.059V165.725H266.809V170.555C266.809 171.135 266.914 171.535 267.124 171.755C267.334 171.965 267.704 172.07 268.234 172.07H269.074ZM274.253 164.705C275.083 164.705 275.788 164.92 276.368 165.35C276.958 165.78 277.363 166.35 277.583 167.06V164.81H278.618V173H277.583V170.75C277.363 171.46 276.958 172.03 276.368 172.46C275.788 172.89 275.083 173.105 274.253 173.105C273.513 173.105 272.848 172.935 272.258 172.595C271.678 172.255 271.223 171.77 270.893 171.14C270.573 170.5 270.413 169.755 270.413 168.905C270.413 168.045 270.573 167.3 270.893 166.67C271.223 166.03 271.678 165.545 272.258 165.215C272.838 164.875 273.503 164.705 274.253 164.705ZM274.523 165.635C273.603 165.635 272.863 165.93 272.303 166.52C271.753 167.1 271.478 167.895 271.478 168.905C271.478 169.915 271.753 170.715 272.303 171.305C272.863 171.885 273.603 172.175 274.523 172.175C275.103 172.175 275.623 172.04 276.083 171.77C276.553 171.5 276.918 171.12 277.178 170.63C277.448 170.13 277.583 169.555 277.583 168.905C277.583 168.255 277.448 167.685 277.178 167.195C276.918 166.695 276.553 166.31 276.083 166.04C275.623 165.77 275.103 165.635 274.523 165.635ZM285.276 164.705C286.026 164.705 286.686 164.875 287.256 165.215C287.836 165.545 288.286 166.03 288.606 166.67C288.936 167.3 289.101 168.045 289.101 168.905C289.101 169.755 288.936 170.5 288.606 171.14C288.286 171.77 287.836 172.255 287.256 172.595C286.676 172.935 286.016 173.105 285.276 173.105C284.436 173.105 283.726 172.89 283.146 172.46C282.566 172.03 282.166 171.46 281.946 170.75V173H280.896V161.9H281.946V167.06C282.166 166.35 282.566 165.78 283.146 165.35C283.726 164.92 284.436 164.705 285.276 164.705ZM284.991 165.635C284.411 165.635 283.886 165.77 283.416 166.04C282.956 166.31 282.596 166.695 282.336 167.195C282.076 167.685 281.946 168.255 281.946 168.905C281.946 169.555 282.076 170.13 282.336 170.63C282.596 171.12 282.956 171.5 283.416 171.77C283.886 172.04 284.411 172.175 284.991 172.175C285.921 172.175 286.661 171.885 287.211 171.305C287.761 170.715 288.036 169.915 288.036 168.905C288.036 167.895 287.761 167.1 287.211 166.52C286.661 165.93 285.921 165.635 284.991 165.635ZM292.054 161.9V173H290.989V161.9H292.054ZM297.898 172.235C298.638 172.235 299.258 172.05 299.758 171.68C300.258 171.31 300.558 170.81 300.658 170.18H301.768C301.618 171.05 301.203 171.755 300.523 172.295C299.843 172.835 298.983 173.105 297.943 173.105C297.163 173.105 296.468 172.94 295.858 172.61C295.258 172.27 294.788 171.785 294.448 171.155C294.108 170.515 293.938 169.765 293.938 168.905C293.938 168.045 294.108 167.3 294.448 166.67C294.788 166.03 295.258 165.545 295.858 165.215C296.468 164.875 297.163 164.705 297.943 164.705C298.743 164.705 299.433 164.875 300.013 165.215C300.603 165.545 301.048 165.99 301.348 166.55C301.658 167.11 301.813 167.72 301.813 168.38C301.813 168.66 301.793 168.915 301.753 169.145H294.973C294.983 169.835 295.123 170.415 295.393 170.885C295.673 171.345 296.033 171.685 296.473 171.905C296.913 172.125 297.388 172.235 297.898 172.235ZM297.943 165.56C297.413 165.56 296.928 165.67 296.488 165.89C296.048 166.11 295.688 166.45 295.408 166.91C295.138 167.36 294.993 167.925 294.973 168.605H300.763C300.803 167.935 300.693 167.37 300.433 166.91C300.173 166.45 299.823 166.11 299.383 165.89C298.943 165.67 298.463 165.56 297.943 165.56ZM307.318 164.705C308.358 164.705 309.218 164.98 309.898 165.53C310.588 166.08 311.008 166.81 311.158 167.72H310.063C309.953 167.07 309.648 166.56 309.148 166.19C308.648 165.81 308.033 165.62 307.303 165.62C306.773 165.62 306.283 165.74 305.833 165.98C305.393 166.22 305.038 166.59 304.768 167.09C304.508 167.58 304.378 168.185 304.378 168.905C304.378 169.625 304.508 170.235 304.768 170.735C305.038 171.225 305.393 171.59 305.833 171.83C306.283 172.07 306.773 172.19 307.303 172.19C308.033 172.19 308.648 172.005 309.148 171.635C309.648 171.255 309.953 170.74 310.063 170.09H311.158C311.008 171 310.588 171.73 309.898 172.28C309.218 172.83 308.358 173.105 307.318 173.105C306.538 173.105 305.843 172.94 305.233 172.61C304.633 172.27 304.163 171.785 303.823 171.155C303.483 170.515 303.313 169.765 303.313 168.905C303.313 168.045 303.483 167.3 303.823 166.67C304.163 166.03 304.633 165.545 305.233 165.215C305.843 164.875 306.538 164.705 307.318 164.705ZM316.754 164.705C317.534 164.705 318.229 164.875 318.839 165.215C319.459 165.545 319.944 166.03 320.294 166.67C320.644 167.3 320.819 168.045 320.819 168.905C320.819 169.765 320.644 170.51 320.294 171.14C319.944 171.77 319.459 172.255 318.839 172.595C318.229 172.935 317.534 173.105 316.754 173.105C315.974 173.105 315.274 172.935 314.654 172.595C314.034 172.255 313.544 171.77 313.184 171.14C312.834 170.5 312.659 169.755 312.659 168.905C312.659 168.045 312.834 167.3 313.184 166.67C313.544 166.03 314.034 165.545 314.654 165.215C315.274 164.875 315.974 164.705 316.754 164.705ZM316.754 165.62C316.214 165.62 315.714 165.74 315.254 165.98C314.794 166.22 314.424 166.59 314.144 167.09C313.864 167.58 313.724 168.185 313.724 168.905C313.724 169.625 313.864 170.23 314.144 170.72C314.424 171.21 314.794 171.575 315.254 171.815C315.714 172.055 316.214 172.175 316.754 172.175C317.284 172.175 317.774 172.055 318.224 171.815C318.684 171.575 319.054 171.21 319.334 170.72C319.614 170.23 319.754 169.625 319.754 168.905C319.754 168.185 319.614 167.58 319.334 167.09C319.054 166.59 318.684 166.22 318.224 165.98C317.774 165.74 317.284 165.62 316.754 165.62ZM322.463 162.38C322.463 162.16 322.533 161.985 322.673 161.855C322.823 161.725 323.013 161.66 323.243 161.66C323.473 161.66 323.658 161.725 323.798 161.855C323.938 161.985 324.008 162.16 324.008 162.38C324.008 162.59 323.938 162.76 323.798 162.89C323.658 163.02 323.473 163.085 323.243 163.085C323.013 163.085 322.823 163.02 322.673 162.89C322.533 162.76 322.463 162.59 322.463 162.38ZM323.767 164.81V173H322.703V164.81H323.767ZM330.137 164.66C331.087 164.66 331.857 164.965 332.447 165.575C333.047 166.175 333.347 167.06 333.347 168.23V173H332.312V168.305C332.312 167.415 332.087 166.735 331.637 166.265C331.187 165.785 330.572 165.545 329.792 165.545C328.972 165.545 328.317 165.81 327.827 166.34C327.347 166.86 327.107 167.63 327.107 168.65V173H326.042V164.81H327.107V166.82C327.317 166.12 327.697 165.585 328.247 165.215C328.797 164.845 329.427 164.66 330.137 164.66ZM214.59 184.635C213.83 184.625 213.295 184.765 212.985 185.055C212.685 185.335 212.535 185.81 212.535 186.48V186.81H214.59V187.74H212.535V195H211.485V187.74H210.27V186.81H211.485V186.405C211.485 185.485 211.735 184.795 212.235 184.335C212.735 183.875 213.52 183.665 214.59 183.705V184.635ZM219.869 186.705C220.649 186.705 221.344 186.875 221.954 187.215C222.574 187.545 223.059 188.03 223.409 188.67C223.759 189.3 223.934 190.045 223.934 190.905C223.934 191.765 223.759 192.51 223.409 193.14C223.059 193.77 222.574 194.255 221.954 194.595C221.344 194.935 220.649 195.105 219.869 195.105C219.089 195.105 218.389 194.935 217.769 194.595C217.149 194.255 216.659 193.77 216.299 193.14C215.949 192.5 215.774 191.755 215.774 190.905C215.774 190.045 215.949 189.3 216.299 188.67C216.659 188.03 217.149 187.545 217.769 187.215C218.389 186.875 219.089 186.705 219.869 186.705ZM219.869 187.62C219.329 187.62 218.829 187.74 218.369 187.98C217.909 188.22 217.539 188.59 217.259 189.09C216.979 189.58 216.839 190.185 216.839 190.905C216.839 191.625 216.979 192.23 217.259 192.72C217.539 193.21 217.909 193.575 218.369 193.815C218.829 194.055 219.329 194.175 219.869 194.175C220.399 194.175 220.889 194.055 221.339 193.815C221.799 193.575 222.169 193.21 222.449 192.72C222.729 192.23 222.869 191.625 222.869 190.905C222.869 190.185 222.729 189.58 222.449 189.09C222.169 188.59 221.799 188.22 221.339 187.98C220.889 187.74 220.399 187.62 219.869 187.62ZM226.883 188.505C227.123 187.915 227.508 187.46 228.038 187.14C228.568 186.82 229.213 186.66 229.973 186.66V187.8H229.628C228.838 187.8 228.183 188.015 227.663 188.445C227.143 188.865 226.883 189.555 226.883 190.515V195H225.818V186.81H226.883V188.505ZM238.971 186.705C239.751 186.705 240.446 186.875 241.056 187.215C241.676 187.545 242.161 188.03 242.511 188.67C242.861 189.3 243.036 190.045 243.036 190.905C243.036 191.765 242.861 192.51 242.511 193.14C242.161 193.77 241.676 194.255 241.056 194.595C240.446 194.935 239.751 195.105 238.971 195.105C238.191 195.105 237.491 194.935 236.871 194.595C236.251 194.255 235.761 193.77 235.401 193.14C235.051 192.5 234.876 191.755 234.876 190.905C234.876 190.045 235.051 189.3 235.401 188.67C235.761 188.03 236.251 187.545 236.871 187.215C237.491 186.875 238.191 186.705 238.971 186.705ZM238.971 187.62C238.431 187.62 237.931 187.74 237.471 187.98C237.011 188.22 236.641 188.59 236.361 189.09C236.081 189.58 235.941 190.185 235.941 190.905C235.941 191.625 236.081 192.23 236.361 192.72C236.641 193.21 237.011 193.575 237.471 193.815C237.931 194.055 238.431 194.175 238.971 194.175C239.501 194.175 239.991 194.055 240.441 193.815C240.901 193.575 241.271 193.21 241.551 192.72C241.831 192.23 241.971 191.625 241.971 190.905C241.971 190.185 241.831 189.58 241.551 189.09C241.271 188.59 240.901 188.22 240.441 187.98C239.991 187.74 239.501 187.62 238.971 187.62ZM249.014 186.66C249.964 186.66 250.734 186.965 251.324 187.575C251.924 188.175 252.224 189.06 252.224 190.23V195H251.189V190.305C251.189 189.415 250.964 188.735 250.514 188.265C250.064 187.785 249.449 187.545 248.669 187.545C247.849 187.545 247.194 187.81 246.704 188.34C246.224 188.86 245.984 189.63 245.984 190.65V195H244.919V186.81H245.984V188.82C246.194 188.12 246.574 187.585 247.124 187.215C247.674 186.845 248.304 186.66 249.014 186.66ZM258.011 194.235C258.751 194.235 259.371 194.05 259.871 193.68C260.371 193.31 260.671 192.81 260.771 192.18H261.881C261.731 193.05 261.316 193.755 260.636 194.295C259.956 194.835 259.096 195.105 258.056 195.105C257.276 195.105 256.581 194.94 255.971 194.61C255.371 194.27 254.901 193.785 254.561 193.155C254.221 192.515 254.051 191.765 254.051 190.905C254.051 190.045 254.221 189.3 254.561 188.67C254.901 188.03 255.371 187.545 255.971 187.215C256.581 186.875 257.276 186.705 258.056 186.705C258.856 186.705 259.546 186.875 260.126 187.215C260.716 187.545 261.161 187.99 261.461 188.55C261.771 189.11 261.926 189.72 261.926 190.38C261.926 190.66 261.906 190.915 261.866 191.145H255.086C255.096 191.835 255.236 192.415 255.506 192.885C255.786 193.345 256.146 193.685 256.586 193.905C257.026 194.125 257.501 194.235 258.011 194.235ZM258.056 187.56C257.526 187.56 257.041 187.67 256.601 187.89C256.161 188.11 255.801 188.45 255.521 188.91C255.251 189.36 255.106 189.925 255.086 190.605H260.876C260.916 189.935 260.806 189.37 260.546 188.91C260.286 188.45 259.936 188.11 259.496 187.89C259.056 187.67 258.576 187.56 258.056 187.56ZM271.162 186.705C271.992 186.705 272.697 186.92 273.277 187.35C273.867 187.78 274.267 188.35 274.477 189.06V183.9H275.527V195H274.477V192.75C274.267 193.46 273.867 194.03 273.277 194.46C272.697 194.89 271.992 195.105 271.162 195.105C270.422 195.105 269.757 194.935 269.167 194.595C268.587 194.255 268.132 193.77 267.802 193.14C267.482 192.5 267.322 191.755 267.322 190.905C267.322 190.045 267.482 189.3 267.802 188.67C268.132 188.03 268.587 187.545 269.167 187.215C269.747 186.875 270.412 186.705 271.162 186.705ZM271.432 187.635C270.512 187.635 269.772 187.93 269.212 188.52C268.662 189.1 268.387 189.895 268.387 190.905C268.387 191.915 268.662 192.715 269.212 193.305C269.772 193.885 270.512 194.175 271.432 194.175C272.012 194.175 272.532 194.04 272.992 193.77C273.462 193.5 273.827 193.12 274.087 192.63C274.357 192.13 274.492 191.555 274.492 190.905C274.492 190.255 274.357 189.685 274.087 189.195C273.827 188.695 273.462 188.31 272.992 188.04C272.532 187.77 272.012 187.635 271.432 187.635ZM281.51 186.705C282.29 186.705 282.985 186.875 283.595 187.215C284.215 187.545 284.7 188.03 285.05 188.67C285.4 189.3 285.575 190.045 285.575 190.905C285.575 191.765 285.4 192.51 285.05 193.14C284.7 193.77 284.215 194.255 283.595 194.595C282.985 194.935 282.29 195.105 281.51 195.105C280.73 195.105 280.03 194.935 279.41 194.595C278.79 194.255 278.3 193.77 277.94 193.14C277.59 192.5 277.415 191.755 277.415 190.905C277.415 190.045 277.59 189.3 277.94 188.67C278.3 188.03 278.79 187.545 279.41 187.215C280.03 186.875 280.73 186.705 281.51 186.705ZM281.51 187.62C280.97 187.62 280.47 187.74 280.01 187.98C279.55 188.22 279.18 188.59 278.9 189.09C278.62 189.58 278.48 190.185 278.48 190.905C278.48 191.625 278.62 192.23 278.9 192.72C279.18 193.21 279.55 193.575 280.01 193.815C280.47 194.055 280.97 194.175 281.51 194.175C282.04 194.175 282.53 194.055 282.98 193.815C283.44 193.575 283.81 193.21 284.09 192.72C284.37 192.23 284.51 191.625 284.51 190.905C284.51 190.185 284.37 189.58 284.09 189.09C283.81 188.59 283.44 188.22 282.98 187.98C282.53 187.74 282.04 187.62 281.51 187.62ZM288.523 183.9V195H287.458V183.9H288.523ZM291.863 183.9V195H290.798V183.9H291.863ZM297.588 186.705C298.418 186.705 299.123 186.92 299.703 187.35C300.293 187.78 300.698 188.35 300.918 189.06V186.81H301.953V195H300.918V192.75C300.698 193.46 300.293 194.03 299.703 194.46C299.123 194.89 298.418 195.105 297.588 195.105C296.848 195.105 296.183 194.935 295.593 194.595C295.013 194.255 294.558 193.77 294.228 193.14C293.908 192.5 293.748 191.755 293.748 190.905C293.748 190.045 293.908 189.3 294.228 188.67C294.558 188.03 295.013 187.545 295.593 187.215C296.173 186.875 296.838 186.705 297.588 186.705ZM297.858 187.635C296.938 187.635 296.198 187.93 295.638 188.52C295.088 189.1 294.813 189.895 294.813 190.905C294.813 191.915 295.088 192.715 295.638 193.305C296.198 193.885 296.938 194.175 297.858 194.175C298.438 194.175 298.958 194.04 299.418 193.77C299.888 193.5 300.253 193.12 300.513 192.63C300.783 192.13 300.918 191.555 300.918 190.905C300.918 190.255 300.783 189.685 300.513 189.195C300.253 188.695 299.888 188.31 299.418 188.04C298.958 187.77 298.438 187.635 297.858 187.635ZM305.296 188.505C305.536 187.915 305.921 187.46 306.451 187.14C306.981 186.82 307.626 186.66 308.386 186.66V187.8H308.041C307.251 187.8 306.596 188.015 306.076 188.445C305.556 188.865 305.296 189.555 305.296 190.515V195H304.231V186.81H305.296V188.505Z" fill="white"/>
<path d="M93.0061 65.813C93.0086 65.8504 93.0104 65.8878 93.0172 65.9246C93.0227 65.9528 93.0319 65.9791 93.0392 66.0061C93.0478 66.0361 93.0552 66.0668 93.0674 66.0962C93.0803 66.1281 93.0968 66.1569 93.1134 66.1869C93.1244 66.2071 93.1318 66.228 93.144 66.2476C93.1465 66.2513 93.1496 66.2537 93.152 66.2574C93.1704 66.2856 93.1925 66.3101 93.2133 66.3359C93.2311 66.3573 93.247 66.3806 93.2666 66.4002C93.2826 66.4168 93.3016 66.4297 93.3194 66.445C93.3469 66.4689 93.3739 66.4946 93.4039 66.5149C93.418 66.5247 93.434 66.5308 93.4487 66.54C93.4849 66.5614 93.5204 66.5835 93.5584 66.5994C93.5762 66.6068 93.5952 66.6111 93.613 66.6172C93.651 66.6307 93.689 66.6448 93.7282 66.6528C93.746 66.6565 93.7644 66.6571 93.7828 66.6595C93.8251 66.6656 93.8674 66.6718 93.9103 66.6724C93.9133 66.6724 93.9164 66.6736 93.9201 66.6736H143.687C143.758 66.6736 143.827 66.6632 143.895 66.6479C143.913 66.6436 143.93 66.6368 143.949 66.6313C143.998 66.6166 144.046 66.5988 144.091 66.5762C144.112 66.5657 144.132 66.5553 144.152 66.5431C144.195 66.5173 144.236 66.4885 144.274 66.456C144.29 66.4431 144.306 66.4315 144.322 66.4174C144.372 66.369 144.418 66.315 144.456 66.2562C144.458 66.2531 144.461 66.2513 144.463 66.2482C144.475 66.2286 144.483 66.2078 144.494 66.1875C144.51 66.1575 144.527 66.1287 144.54 66.0968C144.551 66.0674 144.559 66.0367 144.568 66.0067C144.576 65.9797 144.585 65.9528 144.59 65.9252C144.597 65.8878 144.599 65.851 144.601 65.8136C144.602 65.794 144.607 65.775 144.607 65.7554C144.607 65.7517 144.606 65.748 144.606 65.7444C144.605 65.7064 144.6 65.669 144.594 65.631C144.591 65.6083 144.591 65.5844 144.586 65.5623C144.579 65.5317 144.567 65.5016 144.558 65.4716C144.549 65.4452 144.543 65.4176 144.532 65.3919C144.52 65.3643 144.504 65.3392 144.489 65.3134C144.475 65.2883 144.463 65.2613 144.447 65.2374C144.431 65.2141 144.41 65.1933 144.392 65.1712C144.372 65.1473 144.354 65.1228 144.333 65.1007C144.315 65.0842 144.296 65.0707 144.277 65.0548C144.249 65.0309 144.222 65.0063 144.19 64.9861C144.187 64.9843 144.185 64.9812 144.181 64.9788L119.296 49.1439C118.995 48.952 118.611 48.952 118.31 49.1439L93.426 64.9788C93.4229 64.9806 93.4205 64.9837 93.4168 64.9861C93.3856 65.0063 93.358 65.0309 93.3298 65.0548C93.3114 65.0701 93.2912 65.0842 93.2746 65.1007C93.2525 65.1222 93.2348 65.1473 93.2152 65.1712C93.1968 65.1933 93.1765 65.2141 93.1606 65.2374C93.1447 65.2613 93.1324 65.2877 93.1183 65.3134C93.1042 65.3398 93.087 65.3649 93.0754 65.3919C93.0644 65.4176 93.0582 65.4446 93.049 65.4716C93.0392 65.5016 93.0276 65.531 93.0215 65.5617C93.0166 65.5838 93.0159 65.6077 93.0129 65.6303C93.008 65.6683 93.0018 65.7057 93.0012 65.7437C93.0012 65.7474 93 65.7511 93 65.7548C93 65.775 93.0049 65.7934 93.0061 65.813ZM118.803 51.0098L140.529 64.8353H97.0769L118.803 51.0098Z" fill="white"/>
<path d="M137.838 76.1796C138.346 76.1796 138.757 75.7677 138.757 75.2601V72.3541H141.232C141.74 72.3541 142.151 71.9421 142.151 71.4346C142.151 70.9271 141.74 70.5151 141.232 70.5151H137.838H136.383C136.379 70.5151 136.375 70.5139 136.371 70.5139H130.309C130.305 70.5139 130.301 70.5151 130.298 70.5151H128.84H123.302H121.85C121.845 70.5151 121.842 70.5139 121.838 70.5139H115.77C115.765 70.5139 115.762 70.5151 115.758 70.5151H114.304H108.768H107.31C107.306 70.5151 107.302 70.5139 107.298 70.5139H101.236C101.232 70.5139 101.228 70.5151 101.224 70.5151H99.7692H96.3745C95.8664 70.5151 95.4551 70.9271 95.4551 71.4346C95.4551 71.9421 95.8664 72.3541 96.3745 72.3541H98.8491V75.2601C98.8491 75.7677 99.2604 76.1796 99.7686 76.1796H100.317V92.8236H99.7686C99.2604 92.8236 98.8491 93.2355 98.8491 93.743V96.6491H96.3745C95.8664 96.6491 95.4551 97.0611 95.4551 97.5686C95.4551 98.0761 95.8664 98.488 96.3745 98.488H99.7686H101.224C101.228 98.488 101.232 98.4893 101.235 98.4893H107.298C107.302 98.4893 107.306 98.488 107.309 98.488H108.767H114.303H115.757C115.761 98.488 115.765 98.4893 115.768 98.4893H121.837C121.841 98.4893 121.845 98.488 121.848 98.488H123.302H128.838H130.296C130.3 98.488 130.304 98.4893 130.307 98.4893H136.37C136.374 98.4893 136.378 98.488 136.381 98.488H137.836H141.23C141.739 98.488 142.15 98.0761 142.15 97.5686C142.15 97.0611 141.739 96.6491 141.23 96.6491H138.756V93.743C138.756 93.2355 138.345 92.8236 137.836 92.8236H137.29V76.1796H137.838ZM136.918 74.3407H136.389C136.382 74.3407 136.377 74.3389 136.371 74.3389C136.365 74.3389 136.359 74.3407 136.353 74.3407H130.326C130.32 74.3407 130.315 74.3389 130.309 74.3389C130.302 74.3389 130.297 74.3407 130.291 74.3407H129.759V72.3541H136.919V74.3407H136.918ZM128.839 92.8236C128.331 92.8236 127.92 93.2355 127.92 93.743V96.6491H124.222V93.743C124.222 93.2355 123.81 92.8236 123.302 92.8236H122.757V76.1796H123.302C123.81 76.1796 124.222 75.7677 124.222 75.2601V72.3541H127.919V75.2601C127.919 75.7677 128.331 76.1796 128.839 76.1796H129.389V92.8236H128.839ZM108.767 92.8236H108.217V76.1796H108.767C109.275 76.1796 109.686 75.7677 109.686 75.2601V72.3541H113.384V75.2601C113.384 75.7677 113.795 76.1796 114.303 76.1796H114.849V92.8236H114.304C113.796 92.8236 113.384 93.2355 113.384 93.743V96.6491H109.687V93.743C109.686 93.2355 109.275 92.8236 108.767 92.8236ZM116.688 92.8236V76.1796H120.918V92.8236H116.688ZM122.383 72.3541V74.3407H121.855C121.849 74.3407 121.843 74.3389 121.837 74.3389C121.831 74.3389 121.826 74.3407 121.82 74.3407H115.787C115.781 74.3407 115.775 74.3389 115.769 74.3389C115.763 74.3389 115.757 74.3407 115.751 74.3407H115.223V72.3541H122.383ZM115.223 96.6491V94.6625H115.746C115.754 94.6625 115.761 94.6649 115.77 94.6649C115.778 94.6649 115.785 94.6625 115.793 94.6625H121.815C121.823 94.6625 121.83 94.6649 121.839 94.6649C121.847 94.6649 121.854 94.6625 121.862 94.6625H122.384V96.6491H115.223ZM107.847 72.3541V74.3407H107.315C107.309 74.3407 107.304 74.3389 107.298 74.3389C107.292 74.3389 107.286 74.3407 107.28 74.3407H101.254C101.248 74.3407 101.242 74.3389 101.236 74.3389C101.23 74.3389 101.224 74.3407 101.218 74.3407H100.689V72.3541H107.847ZM102.155 76.1796H106.378V92.8236H102.155V76.1796ZM100.688 94.6625H101.212C101.22 94.6625 101.227 94.6649 101.236 94.6649C101.245 94.6649 101.252 94.6625 101.26 94.6625H107.274C107.282 94.6625 107.29 94.6649 107.298 94.6649C107.307 94.6649 107.314 94.6625 107.322 94.6625H107.849V96.6491H100.688V94.6625ZM129.759 96.6491V94.6625H130.285C130.293 94.6625 130.301 94.6649 130.309 94.6649C130.318 94.6649 130.325 94.6625 130.333 94.6625H136.348C136.356 94.6625 136.363 94.6649 136.372 94.6649C136.381 94.6649 136.388 94.6625 136.396 94.6625H136.919V96.6491H129.759ZM135.451 92.8236H131.228V76.1796H135.451V92.8236Z" fill="white"/>
<path d="M93.9195 104.168H143.686C144.194 104.168 144.605 103.756 144.605 103.248C144.605 102.741 144.194 102.329 143.686 102.329H93.9195C93.4113 102.329 93 102.741 93 103.248C93 103.756 93.4119 104.168 93.9195 104.168Z" fill="white"/>
<path d="M204.207 65.813C204.209 65.8504 204.211 65.8878 204.218 65.9246C204.223 65.9528 204.233 65.9791 204.24 66.0061C204.248 66.0361 204.256 66.0668 204.268 66.0962C204.281 66.1281 204.298 66.1569 204.314 66.1869C204.325 66.2071 204.332 66.228 204.345 66.2476C204.347 66.2513 204.35 66.2537 204.353 66.2574C204.371 66.2856 204.393 66.3101 204.414 66.3359C204.432 66.3573 204.448 66.3806 204.467 66.4002C204.483 66.4168 204.502 66.4297 204.52 66.445C204.548 66.4689 204.575 66.4946 204.605 66.5149C204.619 66.5247 204.635 66.5308 204.649 66.54C204.686 66.5614 204.721 66.5835 204.759 66.5994C204.777 66.6068 204.796 66.6111 204.814 66.6172C204.852 66.6307 204.89 66.6448 204.929 66.6528C204.947 66.6565 204.965 66.6571 204.983 66.6595C205.026 66.6656 205.068 66.6718 205.111 66.6724C205.114 66.6724 205.117 66.6736 205.121 66.6736H254.887C254.959 66.6736 255.028 66.6632 255.096 66.6479C255.114 66.6436 255.131 66.6368 255.15 66.6313C255.199 66.6166 255.246 66.5988 255.292 66.5762C255.313 66.5657 255.332 66.5553 255.352 66.5431C255.396 66.5173 255.436 66.4885 255.475 66.456C255.491 66.4431 255.507 66.4315 255.522 66.4174C255.573 66.369 255.618 66.315 255.657 66.2562C255.659 66.2531 255.662 66.2513 255.664 66.2482C255.676 66.2286 255.683 66.2078 255.694 66.1875C255.71 66.1575 255.728 66.1287 255.74 66.0968C255.752 66.0674 255.76 66.0367 255.769 66.0067C255.777 65.9797 255.786 65.9528 255.791 65.9252C255.797 65.8878 255.8 65.851 255.802 65.8136C255.803 65.794 255.808 65.775 255.808 65.7554C255.808 65.7517 255.807 65.748 255.807 65.7444C255.806 65.7064 255.801 65.669 255.795 65.631C255.792 65.6083 255.791 65.5844 255.786 65.5623C255.78 65.5317 255.768 65.5016 255.758 65.4716C255.75 65.4452 255.744 65.4176 255.732 65.3919C255.721 65.3643 255.704 65.3392 255.69 65.3134C255.675 65.2883 255.664 65.2613 255.647 65.2374C255.631 65.2141 255.611 65.1933 255.593 65.1712C255.573 65.1473 255.555 65.1228 255.533 65.1007C255.516 65.0842 255.496 65.0707 255.478 65.0548C255.45 65.0309 255.422 65.0063 255.391 64.9861C255.388 64.9843 255.386 64.9812 255.382 64.9788L230.497 49.1439C230.196 48.952 229.811 48.952 229.51 49.1439L204.627 64.9788C204.624 64.9806 204.621 64.9837 204.618 64.9861C204.586 65.0063 204.559 65.0309 204.53 65.0548C204.512 65.0701 204.492 65.0842 204.475 65.1007C204.453 65.1222 204.435 65.1473 204.416 65.1712C204.397 65.1933 204.377 65.2141 204.361 65.2374C204.345 65.2613 204.333 65.2877 204.319 65.3134C204.305 65.3398 204.288 65.3649 204.276 65.3919C204.265 65.4176 204.259 65.4446 204.25 65.4716C204.24 65.5016 204.228 65.531 204.222 65.5617C204.217 65.5838 204.217 65.6077 204.214 65.6303C204.209 65.6683 204.203 65.7057 204.202 65.7437C204.202 65.7474 204.201 65.7511 204.201 65.7548C204.201 65.775 204.206 65.7934 204.207 65.813ZM230.004 51.0098L251.73 64.8353H208.278L230.004 51.0098Z" fill="white"/>
<path d="M249.038 76.1796C249.546 76.1796 249.958 75.7677 249.958 75.2601V72.3541H252.432C252.94 72.3541 253.352 71.9421 253.352 71.4346C253.352 70.9271 252.94 70.5151 252.432 70.5151H249.038H247.584C247.579 70.5151 247.576 70.5139 247.572 70.5139H241.51C241.505 70.5139 241.502 70.5151 241.498 70.5151H240.04H234.503H233.05C233.046 70.5151 233.042 70.5139 233.038 70.5139H226.97C226.966 70.5139 226.962 70.5151 226.958 70.5151H225.504H219.968H218.51C218.506 70.5151 218.502 70.5139 218.499 70.5139H212.436C212.432 70.5139 212.428 70.5151 212.425 70.5151H210.97H207.575C207.067 70.5151 206.656 70.9271 206.656 71.4346C206.656 71.9421 207.067 72.3541 207.575 72.3541H210.05V75.2601C210.05 75.7677 210.461 76.1796 210.969 76.1796H211.517V92.8236H210.969C210.461 92.8236 210.05 93.2355 210.05 93.743V96.6491H207.575C207.067 96.6491 206.656 97.0611 206.656 97.5686C206.656 98.0761 207.067 98.488 207.575 98.488H210.969H212.424C212.428 98.488 212.432 98.4893 212.436 98.4893H218.498C218.502 98.4893 218.506 98.488 218.51 98.488H219.967H225.504H226.957C226.961 98.488 226.965 98.4893 226.969 98.4893H233.037C233.041 98.4893 233.045 98.488 233.049 98.488H234.502H240.038H241.496C241.5 98.488 241.504 98.4893 241.508 98.4893H247.57C247.574 98.4893 247.578 98.488 247.582 98.488H249.037H252.431C252.939 98.488 253.35 98.0761 253.35 97.5686C253.35 97.0611 252.939 96.6491 252.431 96.6491H249.956V93.743C249.956 93.2355 249.545 92.8236 249.037 92.8236H248.491V76.1796H249.038ZM248.119 74.3407H247.589C247.583 74.3407 247.577 74.3389 247.571 74.3389C247.565 74.3389 247.56 74.3407 247.554 74.3407H241.527C241.521 74.3407 241.515 74.3389 241.509 74.3389C241.503 74.3389 241.497 74.3407 241.491 74.3407H240.959V72.3541H248.119L248.119 74.3407ZM240.04 92.8236C239.532 92.8236 239.12 93.2355 239.12 93.743V96.6491H235.422V93.743C235.422 93.2355 235.011 92.8236 234.503 92.8236H233.957V76.1796H234.503C235.011 76.1796 235.422 75.7677 235.422 75.2601V72.3541H239.12V75.2601C239.12 75.7677 239.531 76.1796 240.039 76.1796H240.589V92.8236H240.04ZM219.967 92.8236H219.418V76.1796H219.967C220.476 76.1796 220.887 75.7677 220.887 75.2601V72.3541H224.584V75.2601C224.584 75.7677 224.996 76.1796 225.504 76.1796H226.05V92.8236H225.504C224.996 92.8236 224.585 93.2355 224.585 93.743V96.6491H220.887V93.743C220.887 93.2355 220.476 92.8236 219.967 92.8236ZM227.889 92.8236V76.1796H232.118V92.8236H227.889ZM233.583 72.3541V74.3407H233.056C233.049 74.3407 233.044 74.3389 233.038 74.3389C233.032 74.3389 233.026 74.3407 233.02 74.3407H226.987C226.981 74.3407 226.975 74.3389 226.969 74.3389C226.963 74.3389 226.958 74.3407 226.952 74.3407H226.424V72.3541H233.583ZM226.424 96.6491V94.6625H226.946C226.954 94.6625 226.961 94.6649 226.97 94.6649C226.979 94.6649 226.986 94.6625 226.994 94.6625H233.015C233.023 94.6625 233.03 94.6649 233.039 94.6649C233.048 94.6649 233.055 94.6625 233.063 94.6625H233.585V96.6491H226.424ZM219.048 72.3541V74.3407H218.516C218.51 74.3407 218.504 74.3389 218.498 74.3389C218.492 74.3389 218.486 74.3407 218.48 74.3407H212.454C212.448 74.3407 212.443 74.3389 212.436 74.3389C212.43 74.3389 212.425 74.3407 212.419 74.3407H211.889V72.3541H219.048ZM213.355 76.1796H217.579V92.8236H213.355V76.1796ZM211.888 94.6625H212.413C212.421 94.6625 212.428 94.6649 212.436 94.6649C212.445 94.6649 212.452 94.6625 212.46 94.6625H218.475C218.483 94.6625 218.49 94.6649 218.499 94.6649C218.507 94.6649 218.515 94.6625 218.523 94.6625H219.049V96.6491H211.888V94.6625ZM240.959 96.6491V94.6625H241.486C241.494 94.6625 241.501 94.6649 241.51 94.6649C241.518 94.6649 241.526 94.6625 241.534 94.6625H247.549C247.557 94.6625 247.564 94.6649 247.573 94.6649C247.581 94.6649 247.588 94.6625 247.596 94.6625H248.12V96.6491H240.959ZM246.652 92.8236H242.428V76.1796H246.652V92.8236Z" fill="white"/>
<path d="M205.12 104.168H254.887C255.395 104.168 255.806 103.756 255.806 103.248C255.806 102.741 255.395 102.329 254.887 102.329H205.12C204.612 102.329 204.201 102.741 204.201 103.248C204.201 103.756 204.613 104.168 205.12 104.168Z" fill="white"/>
<path d="M149.268 84.2315C149.27 84.2689 149.272 84.3062 149.279 84.343C149.284 84.3712 149.293 84.3976 149.301 84.4246C149.309 84.4546 149.317 84.4852 149.329 84.5147C149.342 84.5465 149.358 84.5753 149.375 84.6054C149.386 84.6256 149.393 84.6464 149.406 84.6661C149.408 84.6697 149.411 84.6722 149.413 84.6759C149.432 84.7041 149.454 84.7286 149.475 84.7543C149.493 84.7758 149.509 84.7991 149.528 84.8187C149.544 84.8352 149.563 84.8481 149.581 84.8634C149.608 84.8873 149.635 84.9131 149.665 84.9333C149.68 84.9431 149.695 84.9493 149.71 84.9584C149.746 84.9799 149.782 85.002 149.82 85.0179C149.838 85.0253 149.857 85.0296 149.874 85.0357C149.912 85.0492 149.95 85.0633 149.99 85.0712C150.007 85.0749 150.026 85.0755 150.044 85.078C150.087 85.0841 150.129 85.0902 150.172 85.0909C150.175 85.0909 150.178 85.0921 150.182 85.0921H199.948C200.02 85.0921 200.089 85.0817 200.156 85.0663C200.175 85.062 200.192 85.0553 200.21 85.0498C200.259 85.0351 200.307 85.0173 200.353 84.9946C200.373 84.9842 200.393 84.9738 200.413 84.9615C200.457 84.9358 200.497 84.907 200.536 84.8745C200.552 84.8616 200.568 84.85 200.583 84.8359C200.634 84.7874 200.679 84.7335 200.718 84.6746C200.72 84.6716 200.723 84.6697 200.725 84.6667C200.737 84.6471 200.744 84.6262 200.755 84.606C200.771 84.576 200.788 84.5471 200.801 84.5153C200.813 84.4858 200.821 84.4552 200.829 84.4252C200.837 84.3982 200.847 84.3712 200.852 84.3436C200.858 84.3062 200.861 84.2695 200.863 84.2321C200.864 84.2125 200.869 84.1935 200.869 84.1738C200.869 84.1702 200.867 84.1665 200.867 84.1628C200.867 84.1248 200.861 84.0874 200.856 84.0494C200.853 84.0267 200.852 84.0028 200.847 83.9808C200.84 83.9501 200.829 83.9201 200.819 83.89C200.81 83.8637 200.804 83.8361 200.793 83.8104C200.782 83.7828 200.765 83.7576 200.75 83.7319C200.736 83.7068 200.725 83.6798 200.708 83.6559C200.692 83.6326 200.672 83.6118 200.654 83.5897C200.634 83.5658 200.616 83.5413 200.594 83.5192C200.577 83.5026 200.557 83.4892 200.539 83.4732C200.511 83.4493 200.483 83.4248 200.452 83.4046C200.449 83.4027 200.446 83.3997 200.443 83.3972L175.558 67.5624C175.257 67.3705 174.872 67.3705 174.571 67.5624L149.687 83.3972C149.684 83.3991 149.682 83.4021 149.678 83.4046C149.647 83.4248 149.619 83.4493 149.591 83.4732C149.573 83.4885 149.553 83.5026 149.536 83.5192C149.514 83.5406 149.496 83.5658 149.477 83.5897C149.458 83.6118 149.438 83.6326 149.422 83.6559C149.406 83.6798 149.394 83.7062 149.38 83.7319C149.366 83.7583 149.349 83.7834 149.337 83.8104C149.326 83.8361 149.32 83.8631 149.311 83.89C149.301 83.9201 149.289 83.9495 149.283 83.9801C149.278 84.0022 149.277 84.0261 149.274 84.0488C149.269 84.0868 149.263 84.1242 149.263 84.1622C149.263 84.1659 149.261 84.1696 149.261 84.1732C149.261 84.1935 149.266 84.2119 149.268 84.2315ZM175.064 69.4282L196.791 83.2538H153.338L175.064 69.4282Z" fill="white"/>
<path d="M194.099 94.5981C194.607 94.5981 195.019 94.1861 195.019 93.6786V90.7725H197.493C198.001 90.7725 198.413 90.3606 198.413 89.8531C198.413 89.3455 198.001 88.9336 197.493 88.9336H194.099H192.645C192.64 88.9336 192.637 88.9324 192.633 88.9324H186.571C186.566 88.9324 186.563 88.9336 186.559 88.9336H185.101H179.564H178.111C178.107 88.9336 178.103 88.9324 178.099 88.9324H172.031C172.027 88.9324 172.023 88.9336 172.019 88.9336H170.565H165.029H163.571C163.567 88.9336 163.563 88.9324 163.56 88.9324H157.497C157.493 88.9324 157.49 88.9336 157.486 88.9336H156.031H152.636C152.128 88.9336 151.717 89.3455 151.717 89.8531C151.717 90.3606 152.128 90.7725 152.636 90.7725H155.111V93.6786C155.111 94.1861 155.522 94.5981 156.03 94.5981H156.578V111.242H156.03C155.522 111.242 155.111 111.654 155.111 112.161V115.068H152.636C152.128 115.068 151.717 115.48 151.717 115.987C151.717 116.495 152.128 116.907 152.636 116.907H156.03H157.485C157.49 116.907 157.493 116.908 157.497 116.908H163.559C163.563 116.908 163.567 116.907 163.571 116.907H165.028H170.565H172.018C172.022 116.907 172.026 116.908 172.03 116.908H178.098C178.102 116.908 178.106 116.907 178.11 116.907H179.563H185.1H186.557C186.561 116.907 186.565 116.908 186.569 116.908H192.631C192.635 116.908 192.639 116.907 192.643 116.907H194.098H197.492C198 116.907 198.411 116.495 198.411 115.987C198.411 115.48 198 115.068 197.492 115.068H195.017V112.161C195.017 111.654 194.606 111.242 194.098 111.242H193.552V94.5981H194.099ZM193.18 92.7591H192.65C192.644 92.7591 192.638 92.7573 192.632 92.7573C192.626 92.7573 192.621 92.7591 192.615 92.7591H186.588C186.582 92.7591 186.576 92.7573 186.57 92.7573C186.564 92.7573 186.558 92.7591 186.552 92.7591H186.02V90.7725H193.18V92.7591H193.18ZM185.101 111.242C184.593 111.242 184.181 111.654 184.181 112.161V115.068H180.483V112.161C180.483 111.654 180.072 111.242 179.564 111.242H179.018V94.5981H179.564C180.072 94.5981 180.483 94.1861 180.483 93.6786V90.7725H184.181V93.6786C184.181 94.1861 184.592 94.5981 185.1 94.5981H185.65V111.242H185.101ZM165.028 111.242H164.479V94.5981H165.028C165.537 94.5981 165.948 94.1861 165.948 93.6786V90.7725H169.645V93.6786C169.645 94.1861 170.057 94.5981 170.565 94.5981H171.111V111.242H170.565C170.057 111.242 169.646 111.654 169.646 112.161V115.068H165.948V112.161C165.948 111.654 165.537 111.242 165.028 111.242ZM172.95 111.242V94.5981H177.179V111.242H172.95ZM178.644 90.7725V92.7591H178.117C178.11 92.7591 178.105 92.7573 178.099 92.7573C178.093 92.7573 178.087 92.7591 178.081 92.7591H172.048C172.042 92.7591 172.037 92.7573 172.03 92.7573C172.024 92.7573 172.019 92.7591 172.013 92.7591H171.485V90.7725H178.644ZM171.485 115.068V113.081H172.007C172.015 113.081 172.022 113.083 172.031 113.083C172.04 113.083 172.047 113.081 172.055 113.081H178.076C178.084 113.081 178.091 113.083 178.1 113.083C178.109 113.083 178.116 113.081 178.124 113.081H178.646V115.068H171.485ZM164.109 90.7725V92.7591H163.577C163.571 92.7591 163.565 92.7573 163.559 92.7573C163.553 92.7573 163.547 92.7591 163.541 92.7591H157.515C157.509 92.7591 157.504 92.7573 157.497 92.7573C157.491 92.7573 157.486 92.7591 157.48 92.7591H156.95V90.7725H164.109ZM158.416 94.5981H162.64V111.242H158.416V94.5981ZM156.949 113.081H157.474C157.482 113.081 157.489 113.083 157.497 113.083C157.506 113.083 157.513 113.081 157.521 113.081H163.536C163.544 113.081 163.551 113.083 163.56 113.083C163.568 113.083 163.576 113.081 163.584 113.081H164.11V115.068H156.949V113.081ZM186.02 115.068V113.081H186.547C186.555 113.081 186.562 113.083 186.571 113.083C186.579 113.083 186.587 113.081 186.595 113.081H192.61C192.618 113.081 192.625 113.083 192.634 113.083C192.642 113.083 192.649 113.081 192.657 113.081H193.181V115.068H186.02ZM191.713 111.242H187.49V94.5981H191.713V111.242Z" fill="white"/>
<path d="M150.181 122.586H199.947C200.456 122.586 200.867 122.174 200.867 121.667C200.867 121.159 200.456 120.747 199.947 120.747H150.181C149.673 120.747 149.261 121.159 149.261 121.667C149.261 122.174 149.673 122.586 150.181 122.586Z" fill="white"/>
<path d="M211.965 276.398C211.271 276.746 210.937 277.533 210.786 278.348C210.523 279.763 211.777 280.903 213.215 280.846C213.378 280.839 213.536 280.83 213.683 280.818C213.761 280.812 213.842 280.804 213.924 280.795C215.721 280.603 217.531 280.654 219.331 280.818C219.669 280.849 220.068 280.86 220.454 280.86C221.443 280.862 222.408 280.307 222.509 279.324C222.525 279.173 222.531 279.015 222.523 278.854C222.478 277.898 221.881 276.78 221.295 276.398C220.054 275.59 218.531 276.454 216.139 276.398C214.65 276.363 213.683 275.539 211.965 276.398Z" fill="white"/>
<path d="M211.965 288.185L214.175 285.484C214.175 285.484 212.129 284.942 210.983 284.256C209.353 283.281 208.281 280.818 207.545 280.818C207.211 280.818 201.897 281.309 197.232 286.22C192.566 291.131 192.321 296.042 192.812 298.989C193.303 301.935 201.652 302.426 201.652 302.426L211.965 302.672C211.965 302.672 213.438 296.17 213.438 293.341C213.438 290.512 211.965 288.185 211.965 288.185Z" fill="white"/>
<path d="M221.296 288.185L219.086 285.484C219.086 285.484 221.132 284.942 222.278 284.256C223.907 283.281 224.979 280.818 225.715 280.818C226.049 280.818 231.363 281.309 236.028 286.22C240.694 291.131 240.939 296.042 240.448 298.989C239.957 301.935 231.609 302.426 231.609 302.426L221.296 302.672C221.296 302.672 219.822 296.17 219.822 293.341C219.822 290.512 221.296 288.185 221.296 288.185Z" fill="white"/>
<path d="M215.157 286.711L213.684 288.676L215.157 291.868H218.103L219.577 288.43L218.103 286.711H215.157Z" fill="#D5505B"/>
<path d="M218.103 292.604H215.157L213.04 306.719C212.983 307.097 213.147 307.475 213.462 307.691L216.269 309.622C216.63 309.87 217.11 309.854 217.454 309.584L219.856 307.697C220.139 307.475 220.28 307.118 220.227 306.762L218.103 292.604Z" fill="#D5505B"/>
<path d="M207.79 261.42L208.527 255.527C208.527 255.527 202.432 255.379 200.178 253.317C198.746 252.006 197.944 248.888 197.55 246.79C197.394 245.964 196.401 245.661 195.935 246.361C194.704 248.211 193.28 251.378 195.022 254.545C197.723 259.456 207.79 261.42 207.79 261.42Z" fill="white"/>
<path d="M225.395 261.42L224.658 255.527C224.658 255.527 230.754 255.379 233.007 253.317C234.44 252.006 235.242 248.888 235.636 246.79C235.791 245.964 236.785 245.661 237.251 246.361C238.482 248.211 239.905 251.378 238.164 254.545C235.463 259.456 225.395 261.42 225.395 261.42Z" fill="white"/>
<path d="M209.611 255.491L208.527 262.648C208.527 262.648 204.839 261.42 202.634 261.42C201.11 261.42 199.113 262.006 198.024 262.369C197.563 262.522 197.308 263.006 197.585 263.405C197.892 263.847 198.449 264.364 199.442 264.612C201.359 265.092 207.054 265.103 207.054 265.103C207.054 265.103 206.58 266.431 207.299 268.541C207.832 270.105 209.464 273.397 210.272 274.997C210.526 275.498 211.146 275.687 211.674 275.498C212.115 275.34 212.659 275.192 213.192 275.171C214.146 275.133 215.758 275.466 216.377 275.604C216.544 275.641 216.716 275.638 216.882 275.596C217.448 275.452 218.848 275.129 219.822 275.171C220.336 275.193 221.074 275.403 221.649 275.593C222.146 275.757 222.699 275.545 222.926 275.073C223.753 273.351 225.616 269.428 226.206 267.804C226.973 265.695 226.452 265.103 226.452 265.103C226.452 265.103 231.847 265.087 233.573 264.612C234.639 264.319 235.318 263.757 235.728 263.274C236.093 262.843 235.829 262.26 235.284 262.113C234.173 261.812 232.334 261.389 230.872 261.42C228.618 261.468 224.733 262.648 224.733 262.648L223.649 255.491C223.568 254.962 223.086 254.59 222.553 254.647L216.736 255.27C216.666 255.278 216.594 255.278 216.523 255.27L210.706 254.647C210.174 254.59 209.691 254.962 209.611 255.491Z" fill="white"/>
<path d="M222.537 267.068C223.028 266.822 223.689 264.024 223.274 263.63C223.014 263.385 221.05 265.349 220.818 265.595C219.822 266.577 218.444 266.331 218.595 266.577C219.411 267.907 222.317 267.178 222.537 267.068Z" fill="black"/>
<path d="M210.623 267.089C210.131 266.843 209.47 264.045 209.886 263.651C210.145 263.406 212.11 265.37 212.341 265.616C213.337 266.598 214.716 266.352 214.565 266.598C213.749 267.928 210.842 267.199 210.623 267.089Z" fill="black"/>
<path d="M220.559 281.799C220.727 281.631 212.375 281.582 212.701 281.799C213.028 282.016 214.87 284.009 216.63 284.009C218.39 284.009 219.312 283.042 220.559 281.799Z" fill="white"/>
<path d="M212.701 278.482V277.406C212.701 277.268 213.171 277.717 213.682 278.213L213.687 278.217C214.174 278.689 214.703 279.201 214.663 279.289C214.418 279.827 213.864 279.861 213.437 279.827C212.825 279.777 212.701 278.482 212.701 278.482Z" fill="black"/>
<path d="M220.559 278.482V277.406C220.559 277.268 220.089 277.717 219.578 278.213L219.573 278.217C219.086 278.689 218.557 279.201 218.597 279.289C218.842 279.827 219.396 279.861 219.823 279.827C220.435 279.777 220.559 278.482 220.559 278.482Z" fill="black"/>
<path d="M168.728 296.637C168.034 296.984 167.7 297.771 167.549 298.586C167.286 300.001 168.54 301.141 169.978 301.084C170.141 301.078 170.299 301.069 170.446 301.057C170.524 301.05 170.605 301.043 170.687 301.034C172.484 300.841 174.294 300.893 176.094 301.056C176.432 301.087 176.831 301.098 177.217 301.099C178.205 301.101 179.171 300.545 179.272 299.563C179.288 299.411 179.294 299.254 179.286 299.092C179.241 298.136 178.644 297.018 178.058 296.637C176.817 295.828 175.294 296.693 172.902 296.636C171.413 296.601 170.446 295.777 168.728 296.637Z" fill="white"/>
<path d="M168.728 308.423L170.938 305.722C170.938 305.722 168.891 305.18 167.745 304.494C166.116 303.519 165.044 301.057 164.308 301.057C163.974 301.057 158.66 301.548 153.995 306.459C149.329 311.37 149.084 316.281 149.575 319.227C150.066 322.174 158.415 322.665 158.415 322.665L168.728 322.91C168.728 322.91 170.201 316.408 170.201 313.58C170.201 310.751 168.728 308.423 168.728 308.423Z" fill="white"/>
<path d="M178.058 308.423L175.848 305.722C175.848 305.722 177.894 305.18 179.04 304.494C180.669 303.519 181.741 301.057 182.478 301.057C182.812 301.057 188.126 301.548 192.791 306.459C197.456 311.37 197.702 316.281 197.211 319.227C196.72 322.174 188.371 322.665 188.371 322.665L178.058 322.91C178.058 322.91 176.585 316.408 176.585 313.58C176.585 310.751 178.058 308.423 178.058 308.423Z" fill="white"/>
<path d="M171.92 306.95L170.446 308.914L171.92 312.106H174.866L176.339 308.669L174.866 306.95H171.92Z" fill="#D5505B"/>
<path d="M174.866 312.843H171.92L169.802 326.958C169.746 327.336 169.91 327.713 170.225 327.93L173.032 329.86C173.393 330.108 173.873 330.093 174.217 329.822L176.619 327.935C176.901 327.713 177.043 327.356 176.99 327.001L174.866 312.843Z" fill="#D5505B"/>
<path d="M164.553 281.659L165.29 275.765C165.29 275.765 159.195 275.617 156.941 273.556C155.509 272.245 154.707 269.126 154.312 267.029C154.157 266.202 153.164 265.899 152.698 266.599C151.467 268.449 150.043 271.616 151.785 274.783C154.486 279.694 164.553 281.659 164.553 281.659Z" fill="white"/>
<path d="M182.158 281.659L181.421 275.765C181.421 275.765 187.517 275.617 189.77 273.556C191.203 272.245 192.005 269.126 192.399 267.029C192.554 266.202 193.548 265.899 194.014 266.599C195.245 268.449 196.668 271.616 194.927 274.783C192.225 279.694 182.158 281.659 182.158 281.659Z" fill="white"/>
<path d="M166.374 275.73L165.29 282.886C165.29 282.886 161.602 281.659 159.397 281.659C157.873 281.659 155.876 282.245 154.787 282.607C154.326 282.76 154.071 283.244 154.348 283.643C154.655 284.085 155.212 284.602 156.205 284.851C158.122 285.33 163.816 285.342 163.816 285.342C163.816 285.342 163.343 286.67 164.062 288.779C164.595 290.343 166.226 293.636 167.035 295.235C167.289 295.736 167.909 295.926 168.437 295.736C168.878 295.578 169.422 295.43 169.955 295.409C170.909 295.371 172.521 295.704 173.14 295.842C173.307 295.879 173.479 295.876 173.645 295.834C174.211 295.69 175.611 295.367 176.585 295.409C177.099 295.431 177.837 295.641 178.412 295.831C178.909 295.996 179.462 295.784 179.689 295.311C180.516 293.589 182.379 289.666 182.969 288.043C183.736 285.933 183.215 285.342 183.215 285.342C183.215 285.342 188.609 285.325 190.336 284.851C191.402 284.557 192.081 283.996 192.491 283.512C192.856 283.081 192.592 282.498 192.047 282.351C190.935 282.05 189.097 281.627 187.635 281.659C185.381 281.706 181.496 282.886 181.496 282.886L180.412 275.73C180.331 275.2 179.849 274.828 179.316 274.885L173.499 275.508C173.429 275.516 173.357 275.516 173.286 275.508L167.469 274.885C166.937 274.828 166.454 275.2 166.374 275.73Z" fill="white"/>
<path d="M179.3 287.306C179.791 287.061 180.452 284.262 180.036 283.869C179.777 283.623 177.813 285.587 177.581 285.833C176.585 286.815 175.206 286.57 175.357 286.815C176.174 288.145 179.08 287.416 179.3 287.306Z" fill="black"/>
<path d="M167.385 287.327C166.894 287.082 166.233 284.284 166.649 283.89C166.908 283.644 168.873 285.608 169.104 285.854C170.1 286.836 171.479 286.591 171.328 286.836C170.511 288.167 167.605 287.437 167.385 287.327Z" fill="black"/>
<path d="M177.322 302.038C177.49 301.87 169.138 301.821 169.464 302.038C169.791 302.255 171.633 304.248 173.393 304.248C175.153 304.248 176.075 303.281 177.322 302.038Z" fill="white"/>
<path d="M169.464 298.72V297.644C169.464 297.507 169.934 297.956 170.445 298.451L170.45 298.456C170.937 298.927 171.466 299.44 171.426 299.527C171.181 300.065 170.627 300.1 170.2 300.065C169.588 300.016 169.464 298.72 169.464 298.72Z" fill="black"/>
<path d="M177.322 298.72V297.644C177.322 297.507 176.852 297.956 176.34 298.451L176.336 298.456C175.849 298.927 175.319 299.44 175.359 299.527C175.605 300.065 176.158 300.1 176.586 300.065C177.197 300.016 177.322 298.72 177.322 298.72Z" fill="black"/>
<path d="M127.331 276.398C126.637 276.746 126.303 277.533 126.152 278.348C125.889 279.763 127.143 280.903 128.581 280.846C128.744 280.839 128.902 280.83 129.049 280.818C129.127 280.812 129.208 280.804 129.29 280.795C131.087 280.603 132.897 280.654 134.697 280.818C135.035 280.849 135.434 280.86 135.82 280.86C136.808 280.862 137.774 280.307 137.875 279.324C137.891 279.173 137.897 279.015 137.889 278.854C137.844 277.898 137.247 276.78 136.661 276.398C135.42 275.59 133.897 276.454 131.505 276.398C130.016 276.363 129.049 275.539 127.331 276.398Z" fill="white"/>
<path d="M127.331 288.185L129.541 285.484C129.541 285.484 127.494 284.942 126.348 284.256C124.719 283.281 123.647 280.818 122.911 280.818C122.577 280.818 117.263 281.309 112.598 286.22C107.932 291.131 107.687 296.042 108.178 298.989C108.669 301.935 117.018 302.426 117.018 302.426L127.331 302.672C127.331 302.672 128.804 296.17 128.804 293.341C128.804 290.512 127.331 288.185 127.331 288.185Z" fill="white"/>
<path d="M136.662 288.185L134.452 285.484C134.452 285.484 136.498 284.942 137.644 284.256C139.273 283.281 140.345 280.818 141.081 280.818C141.415 280.818 146.729 281.309 151.394 286.22C156.06 291.131 156.305 296.042 155.814 298.989C155.323 301.935 146.975 302.426 146.975 302.426L136.662 302.672C136.662 302.672 135.188 296.17 135.188 293.341C135.188 290.512 136.662 288.185 136.662 288.185Z" fill="white"/>
<path d="M130.523 286.711L129.05 288.676L130.523 291.868H133.469L134.943 288.43L133.469 286.711H130.523Z" fill="#D5505B"/>
<path d="M133.469 292.604H130.523L128.405 306.719C128.349 307.097 128.513 307.475 128.828 307.691L131.635 309.622C131.996 309.87 132.476 309.854 132.82 309.584L135.222 307.697C135.504 307.475 135.646 307.118 135.593 306.762L133.469 292.604Z" fill="#D5505B"/>
<path d="M123.156 261.42L123.893 255.527C123.893 255.527 117.798 255.379 115.544 253.317C114.112 252.006 113.31 248.888 112.915 246.79C112.76 245.964 111.767 245.661 111.301 246.361C110.07 248.211 108.646 251.378 110.388 254.545C113.089 259.456 123.156 261.42 123.156 261.42Z" fill="white"/>
<path d="M140.761 261.42L140.025 255.527C140.025 255.527 146.12 255.379 148.373 253.317C149.806 252.006 150.608 248.888 151.002 246.79C151.158 245.964 152.151 245.661 152.617 246.361C153.848 248.211 155.272 251.378 153.53 254.545C150.829 259.456 140.761 261.42 140.761 261.42Z" fill="white"/>
<path d="M124.977 255.491L123.893 262.648C123.893 262.648 120.205 261.42 118 261.42C116.476 261.42 114.479 262.006 113.39 262.369C112.929 262.522 112.674 263.006 112.951 263.405C113.258 263.847 113.815 264.364 114.808 264.612C116.725 265.092 122.42 265.103 122.42 265.103C122.42 265.103 121.946 266.431 122.665 268.541C123.198 270.105 124.829 273.397 125.638 274.997C125.892 275.498 126.512 275.687 127.04 275.498C127.481 275.34 128.025 275.192 128.558 275.171C129.512 275.133 131.124 275.466 131.743 275.604C131.91 275.641 132.082 275.638 132.248 275.596C132.814 275.452 134.214 275.129 135.188 275.171C135.702 275.193 136.44 275.403 137.015 275.593C137.512 275.757 138.065 275.545 138.292 275.073C139.119 273.351 140.982 269.428 141.572 267.804C142.339 265.695 141.818 265.103 141.818 265.103C141.818 265.103 147.213 265.087 148.939 264.612C150.005 264.319 150.684 263.757 151.094 263.274C151.459 262.843 151.195 262.26 150.65 262.113C149.538 261.812 147.7 261.389 146.238 261.42C143.984 261.468 140.099 262.648 140.099 262.648L139.015 255.491C138.934 254.962 138.452 254.59 137.919 254.647L132.102 255.27C132.032 255.278 131.96 255.278 131.889 255.27L126.072 254.647C125.54 254.59 125.057 254.962 124.977 255.491Z" fill="white"/>
<path d="M137.903 267.068C138.394 266.822 139.055 264.024 138.64 263.63C138.38 263.385 136.416 265.349 136.184 265.595C135.188 266.577 133.81 266.331 133.96 266.577C134.777 267.907 137.683 267.178 137.903 267.068Z" fill="black"/>
<path d="M125.989 267.089C125.497 266.843 124.836 264.045 125.252 263.651C125.511 263.406 127.476 265.37 127.707 265.616C128.703 266.598 130.082 266.352 129.931 266.598C129.114 267.928 126.208 267.199 125.989 267.089Z" fill="black"/>
<path d="M135.925 281.8C136.093 281.631 127.741 281.582 128.067 281.8C128.394 282.017 130.236 284.01 131.996 284.01C133.756 284.01 134.678 283.043 135.925 281.8Z" fill="white"/>
<path d="M128.067 278.482V277.406C128.067 277.268 128.537 277.717 129.049 278.213L129.053 278.217C129.54 278.689 130.069 279.201 130.03 279.289C129.784 279.827 129.23 279.861 128.803 279.827C128.192 279.777 128.067 278.482 128.067 278.482Z" fill="black"/>
<path d="M135.925 278.482V277.406C135.925 277.268 135.455 277.717 134.944 278.213L134.939 278.217C134.452 278.689 133.923 279.201 133.963 279.289C134.208 279.827 134.762 279.861 135.189 279.827C135.801 279.777 135.925 278.482 135.925 278.482Z" fill="black"/>
<path d="M154.56 221V172.344C154.56 171.239 153.665 170.344 152.56 170.344H149.438C147.715 170.344 146.799 168.31 147.94 167.019L163.168 149.798C163.964 148.898 165.369 148.898 166.165 149.798L181.393 167.019C182.535 168.31 181.618 170.344 179.895 170.344H176.5C175.395 170.344 174.5 171.239 174.5 172.344V190.892C174.5 191.996 173.605 192.892 172.5 192.892H169.105C167.382 192.892 166.465 194.926 167.607 196.217L182.835 213.437C183.631 214.337 185.036 214.337 185.832 213.437L201.06 196.217C202.201 194.926 201.285 192.892 199.562 192.892H196.713C195.608 192.892 194.713 191.996 194.713 190.892V141" stroke="white" stroke-width="2"/>
</svg>
