<svg width="348" height="348" viewBox="0 0 348 348" fill="none" xmlns="http://www.w3.org/2000/svg">
<path d="M109.887 113.328H112.959V114H109.035V105.54H109.887V113.328ZM117.073 107.364C117.697 107.364 118.253 107.5 118.741 107.772C119.237 108.036 119.625 108.424 119.905 108.936C120.185 109.44 120.325 110.036 120.325 110.724C120.325 111.412 120.185 112.008 119.905 112.512C119.625 113.016 119.237 113.404 118.741 113.676C118.253 113.948 117.697 114.084 117.073 114.084C116.449 114.084 115.889 113.948 115.393 113.676C114.897 113.404 114.505 113.016 114.217 112.512C113.937 112 113.797 111.404 113.797 110.724C113.797 110.036 113.937 109.44 114.217 108.936C114.505 108.424 114.897 108.036 115.393 107.772C115.889 107.5 116.449 107.364 117.073 107.364ZM117.073 108.096C116.641 108.096 116.241 108.192 115.873 108.384C115.505 108.576 115.209 108.872 114.985 109.272C114.761 109.664 114.649 110.148 114.649 110.724C114.649 111.3 114.761 111.784 114.985 112.176C115.209 112.568 115.505 112.86 115.873 113.052C116.241 113.244 116.641 113.34 117.073 113.34C117.497 113.34 117.889 113.244 118.249 113.052C118.617 112.86 118.913 112.568 119.137 112.176C119.361 111.784 119.473 111.3 119.473 110.724C119.473 110.148 119.361 109.664 119.137 109.272C118.913 108.872 118.617 108.576 118.249 108.384C117.889 108.192 117.497 108.096 117.073 108.096ZM124.724 107.364C125.556 107.364 126.244 107.584 126.788 108.024C127.34 108.464 127.676 109.048 127.796 109.776H126.92C126.832 109.256 126.588 108.848 126.188 108.552C125.788 108.248 125.296 108.096 124.712 108.096C124.288 108.096 123.896 108.192 123.536 108.384C123.184 108.576 122.9 108.872 122.684 109.272C122.476 109.664 122.372 110.148 122.372 110.724C122.372 111.3 122.476 111.788 122.684 112.188C122.9 112.58 123.184 112.872 123.536 113.064C123.896 113.256 124.288 113.352 124.712 113.352C125.296 113.352 125.788 113.204 126.188 112.908C126.588 112.604 126.832 112.192 126.92 111.672H127.796C127.676 112.4 127.34 112.984 126.788 113.424C126.244 113.864 125.556 114.084 124.724 114.084C124.1 114.084 123.544 113.952 123.056 113.688C122.576 113.416 122.2 113.028 121.928 112.524C121.656 112.012 121.52 111.412 121.52 110.724C121.52 110.036 121.656 109.44 121.928 108.936C122.2 108.424 122.576 108.036 123.056 107.772C123.544 107.5 124.1 107.364 124.724 107.364ZM132.812 114L130.16 111V114H129.308V105.12H130.16V110.328L132.764 107.448H133.808L130.796 110.688L133.892 114H132.812ZM137.743 113.388C138.335 113.388 138.831 113.24 139.231 112.944C139.631 112.648 139.871 112.248 139.951 111.744H140.839C140.719 112.44 140.387 113.004 139.843 113.436C139.299 113.868 138.611 114.084 137.779 114.084C137.155 114.084 136.599 113.952 136.111 113.688C135.631 113.416 135.255 113.028 134.983 112.524C134.711 112.012 134.575 111.412 134.575 110.724C134.575 110.036 134.711 109.44 134.983 108.936C135.255 108.424 135.631 108.036 136.111 107.772C136.599 107.5 137.155 107.364 137.779 107.364C138.419 107.364 138.971 107.5 139.435 107.772C139.907 108.036 140.263 108.392 140.503 108.84C140.751 109.288 140.875 109.776 140.875 110.304C140.875 110.528 140.859 110.732 140.827 110.916H135.403C135.411 111.468 135.523 111.932 135.739 112.308C135.963 112.676 136.251 112.948 136.603 113.124C136.955 113.3 137.335 113.388 137.743 113.388ZM137.779 108.048C137.355 108.048 136.967 108.136 136.615 108.312C136.263 108.488 135.975 108.76 135.751 109.128C135.535 109.488 135.419 109.94 135.403 110.484H140.035C140.067 109.948 139.979 109.496 139.771 109.128C139.563 108.76 139.283 108.488 138.931 108.312C138.579 108.136 138.195 108.048 137.779 108.048ZM145.147 107.364C145.811 107.364 146.375 107.536 146.839 107.88C147.311 108.224 147.631 108.68 147.799 109.248V105.12H148.639V114H147.799V112.2C147.631 112.768 147.311 113.224 146.839 113.568C146.375 113.912 145.811 114.084 145.147 114.084C144.555 114.084 144.023 113.948 143.551 113.676C143.087 113.404 142.723 113.016 142.459 112.512C142.203 112 142.075 111.404 142.075 110.724C142.075 110.036 142.203 109.44 142.459 108.936C142.723 108.424 143.087 108.036 143.551 107.772C144.015 107.5 144.547 107.364 145.147 107.364ZM145.363 108.108C144.627 108.108 144.035 108.344 143.587 108.816C143.147 109.28 142.927 109.916 142.927 110.724C142.927 111.532 143.147 112.172 143.587 112.644C144.035 113.108 144.627 113.34 145.363 113.34C145.827 113.34 146.243 113.232 146.611 113.016C146.987 112.8 147.279 112.496 147.487 112.104C147.703 111.704 147.811 111.244 147.811 110.724C147.811 110.204 147.703 109.748 147.487 109.356C147.279 108.956 146.987 108.648 146.611 108.432C146.243 108.216 145.827 108.108 145.363 108.108ZM157.454 109.62C157.982 109.724 158.41 109.968 158.738 110.352C159.066 110.736 159.23 111.192 159.23 111.72C159.23 112.4 158.998 112.952 158.534 113.376C158.07 113.792 157.398 114 156.518 114H153.578V105.54H156.482C157.33 105.54 157.966 105.732 158.39 106.116C158.822 106.492 159.038 107 159.038 107.64C159.038 108.192 158.89 108.636 158.594 108.972C158.298 109.3 157.918 109.516 157.454 109.62ZM154.43 109.32H156.374C156.966 109.32 157.414 109.184 157.718 108.912C158.03 108.632 158.186 108.252 158.186 107.772C158.186 107.3 158.034 106.928 157.73 106.656C157.426 106.384 156.958 106.248 156.326 106.248H154.43V109.32ZM156.374 113.28C157.006 113.28 157.498 113.136 157.85 112.848C158.202 112.552 158.378 112.144 158.378 111.624C158.378 111.112 158.198 110.708 157.838 110.412C157.478 110.108 156.982 109.956 156.35 109.956H154.43V113.28H156.374ZM160.476 105.504C160.476 105.328 160.532 105.188 160.644 105.084C160.764 104.98 160.916 104.928 161.1 104.928C161.284 104.928 161.432 104.98 161.544 105.084C161.656 105.188 161.712 105.328 161.712 105.504C161.712 105.672 161.656 105.808 161.544 105.912C161.432 106.016 161.284 106.068 161.1 106.068C160.916 106.068 160.764 106.016 160.644 105.912C160.532 105.808 160.476 105.672 160.476 105.504ZM161.52 107.448V114H160.668V107.448H161.52ZM166.316 113.256V114H165.536C164.904 114 164.432 113.852 164.12 113.556C163.808 113.252 163.652 112.744 163.652 112.032V108.18H162.656V107.448H163.652V105.792H164.504V107.448H166.304V108.18H164.504V112.044C164.504 112.508 164.588 112.828 164.756 113.004C164.924 113.172 165.22 113.256 165.644 113.256H166.316ZM170.591 107.364C171.423 107.364 172.111 107.584 172.655 108.024C173.207 108.464 173.543 109.048 173.663 109.776H172.787C172.699 109.256 172.455 108.848 172.055 108.552C171.655 108.248 171.163 108.096 170.579 108.096C170.155 108.096 169.763 108.192 169.403 108.384C169.051 108.576 168.767 108.872 168.551 109.272C168.343 109.664 168.239 110.148 168.239 110.724C168.239 111.3 168.343 111.788 168.551 112.188C168.767 112.58 169.051 112.872 169.403 113.064C169.763 113.256 170.155 113.352 170.579 113.352C171.163 113.352 171.655 113.204 172.055 112.908C172.455 112.604 172.699 112.192 172.787 111.672H173.663C173.543 112.4 173.207 112.984 172.655 113.424C172.111 113.864 171.423 114.084 170.591 114.084C169.967 114.084 169.411 113.952 168.923 113.688C168.443 113.416 168.067 113.028 167.795 112.524C167.523 112.012 167.387 111.412 167.387 110.724C167.387 110.036 167.523 109.44 167.795 108.936C168.067 108.424 168.443 108.036 168.923 107.772C169.411 107.5 169.967 107.364 170.591 107.364ZM178.14 107.364C178.764 107.364 179.32 107.5 179.808 107.772C180.304 108.036 180.692 108.424 180.972 108.936C181.252 109.44 181.392 110.036 181.392 110.724C181.392 111.412 181.252 112.008 180.972 112.512C180.692 113.016 180.304 113.404 179.808 113.676C179.32 113.948 178.764 114.084 178.14 114.084C177.516 114.084 176.956 113.948 176.46 113.676C175.964 113.404 175.572 113.016 175.284 112.512C175.004 112 174.864 111.404 174.864 110.724C174.864 110.036 175.004 109.44 175.284 108.936C175.572 108.424 175.964 108.036 176.46 107.772C176.956 107.5 177.516 107.364 178.14 107.364ZM178.14 108.096C177.708 108.096 177.308 108.192 176.94 108.384C176.572 108.576 176.276 108.872 176.052 109.272C175.828 109.664 175.716 110.148 175.716 110.724C175.716 111.3 175.828 111.784 176.052 112.176C176.276 112.568 176.572 112.86 176.94 113.052C177.308 113.244 177.708 113.34 178.14 113.34C178.564 113.34 178.956 113.244 179.316 113.052C179.684 112.86 179.98 112.568 180.204 112.176C180.428 111.784 180.54 111.3 180.54 110.724C180.54 110.148 180.428 109.664 180.204 109.272C179.98 108.872 179.684 108.576 179.316 108.384C178.956 108.192 178.564 108.096 178.14 108.096ZM182.706 105.504C182.706 105.328 182.762 105.188 182.874 105.084C182.994 104.98 183.146 104.928 183.33 104.928C183.514 104.928 183.662 104.98 183.774 105.084C183.886 105.188 183.942 105.328 183.942 105.504C183.942 105.672 183.886 105.808 183.774 105.912C183.662 106.016 183.514 106.068 183.33 106.068C183.146 106.068 182.994 106.016 182.874 105.912C182.762 105.808 182.706 105.672 182.706 105.504ZM183.75 107.448V114H182.898V107.448H183.75ZM188.846 107.328C189.606 107.328 190.222 107.572 190.694 108.06C191.174 108.54 191.414 109.248 191.414 110.184V114H190.586V110.244C190.586 109.532 190.406 108.988 190.046 108.612C189.686 108.228 189.194 108.036 188.57 108.036C187.914 108.036 187.39 108.248 186.998 108.672C186.614 109.088 186.422 109.704 186.422 110.52V114H185.57V107.448H186.422V109.056C186.59 108.496 186.894 108.068 187.334 107.772C187.774 107.476 188.278 107.328 188.846 107.328ZM199.065 107.364C199.729 107.364 200.293 107.536 200.757 107.88C201.229 108.224 201.549 108.68 201.717 109.248V105.12H202.557V114H201.717V112.2C201.549 112.768 201.229 113.224 200.757 113.568C200.293 113.912 199.729 114.084 199.065 114.084C198.473 114.084 197.941 113.948 197.469 113.676C197.005 113.404 196.641 113.016 196.377 112.512C196.121 112 195.993 111.404 195.993 110.724C195.993 110.036 196.121 109.44 196.377 108.936C196.641 108.424 197.005 108.036 197.469 107.772C197.933 107.5 198.465 107.364 199.065 107.364ZM199.281 108.108C198.545 108.108 197.953 108.344 197.505 108.816C197.065 109.28 196.845 109.916 196.845 110.724C196.845 111.532 197.065 112.172 197.505 112.644C197.953 113.108 198.545 113.34 199.281 113.34C199.745 113.34 200.161 113.232 200.529 113.016C200.905 112.8 201.197 112.496 201.405 112.104C201.621 111.704 201.729 111.244 201.729 110.724C201.729 110.204 201.621 109.748 201.405 109.356C201.197 108.956 200.905 108.648 200.529 108.432C200.161 108.216 199.745 108.108 199.281 108.108ZM207.235 113.388C207.827 113.388 208.323 113.24 208.723 112.944C209.123 112.648 209.363 112.248 209.443 111.744H210.331C210.211 112.44 209.879 113.004 209.335 113.436C208.791 113.868 208.103 114.084 207.271 114.084C206.647 114.084 206.091 113.952 205.603 113.688C205.123 113.416 204.747 113.028 204.475 112.524C204.203 112.012 204.067 111.412 204.067 110.724C204.067 110.036 204.203 109.44 204.475 108.936C204.747 108.424 205.123 108.036 205.603 107.772C206.091 107.5 206.647 107.364 207.271 107.364C207.911 107.364 208.463 107.5 208.927 107.772C209.399 108.036 209.755 108.392 209.995 108.84C210.243 109.288 210.367 109.776 210.367 110.304C210.367 110.528 210.351 110.732 210.319 110.916H204.895C204.903 111.468 205.015 111.932 205.231 112.308C205.455 112.676 205.743 112.948 206.095 113.124C206.447 113.3 206.827 113.388 207.235 113.388ZM207.271 108.048C206.847 108.048 206.459 108.136 206.107 108.312C205.755 108.488 205.467 108.76 205.243 109.128C205.027 109.488 204.911 109.94 204.895 110.484H209.527C209.559 109.948 209.471 109.496 209.263 109.128C209.055 108.76 208.775 108.488 208.423 108.312C208.071 108.136 207.687 108.048 207.271 108.048ZM215.383 107.364C215.983 107.364 216.511 107.5 216.967 107.772C217.431 108.036 217.791 108.424 218.047 108.936C218.311 109.44 218.443 110.036 218.443 110.724C218.443 111.404 218.311 112 218.047 112.512C217.791 113.016 217.431 113.404 216.967 113.676C216.503 113.948 215.975 114.084 215.383 114.084C214.711 114.084 214.143 113.912 213.679 113.568C213.215 113.224 212.895 112.768 212.719 112.2V117.096H211.879V107.448H212.719V109.248C212.895 108.68 213.215 108.224 213.679 107.88C214.143 107.536 214.711 107.364 215.383 107.364ZM215.155 108.108C214.691 108.108 214.271 108.216 213.895 108.432C213.527 108.648 213.239 108.956 213.031 109.356C212.823 109.748 212.719 110.204 212.719 110.724C212.719 111.244 212.823 111.704 213.031 112.104C213.239 112.496 213.527 112.8 213.895 113.016C214.271 113.232 214.691 113.34 215.155 113.34C215.899 113.34 216.491 113.108 216.931 112.644C217.371 112.172 217.591 111.532 217.591 110.724C217.591 109.916 217.371 109.28 216.931 108.816C216.491 108.344 215.899 108.108 215.155 108.108ZM222.917 107.364C223.541 107.364 224.097 107.5 224.585 107.772C225.081 108.036 225.469 108.424 225.749 108.936C226.029 109.44 226.169 110.036 226.169 110.724C226.169 111.412 226.029 112.008 225.749 112.512C225.469 113.016 225.081 113.404 224.585 113.676C224.097 113.948 223.541 114.084 222.917 114.084C222.293 114.084 221.733 113.948 221.237 113.676C220.741 113.404 220.349 113.016 220.061 112.512C219.781 112 219.641 111.404 219.641 110.724C219.641 110.036 219.781 109.44 220.061 108.936C220.349 108.424 220.741 108.036 221.237 107.772C221.733 107.5 222.293 107.364 222.917 107.364ZM222.917 108.096C222.485 108.096 222.085 108.192 221.717 108.384C221.349 108.576 221.053 108.872 220.829 109.272C220.605 109.664 220.493 110.148 220.493 110.724C220.493 111.3 220.605 111.784 220.829 112.176C221.053 112.568 221.349 112.86 221.717 113.052C222.085 113.244 222.485 113.34 222.917 113.34C223.341 113.34 223.733 113.244 224.093 113.052C224.461 112.86 224.757 112.568 224.981 112.176C225.205 111.784 225.317 111.3 225.317 110.724C225.317 110.148 225.205 109.664 224.981 109.272C224.757 108.872 224.461 108.576 224.093 108.384C223.733 108.192 223.341 108.096 222.917 108.096ZM229.656 107.364C230.368 107.364 230.94 107.552 231.372 107.928C231.804 108.304 232.068 108.812 232.164 109.452H231.36C231.312 109.028 231.136 108.68 230.832 108.408C230.536 108.128 230.136 107.988 229.632 107.988C229.2 107.988 228.86 108.096 228.612 108.312C228.372 108.52 228.252 108.8 228.252 109.152C228.252 109.416 228.328 109.628 228.48 109.788C228.64 109.948 228.836 110.072 229.068 110.16C229.3 110.24 229.612 110.324 230.004 110.412C230.484 110.524 230.868 110.64 231.156 110.76C231.452 110.872 231.704 111.052 231.912 111.3C232.12 111.548 232.224 111.884 232.224 112.308C232.224 112.828 232.028 113.256 231.636 113.592C231.252 113.92 230.74 114.084 230.1 114.084C229.348 114.084 228.732 113.9 228.252 113.532C227.772 113.156 227.488 112.644 227.4 111.996H228.216C228.264 112.428 228.452 112.78 228.78 113.052C229.108 113.324 229.552 113.46 230.112 113.46C230.528 113.46 230.852 113.352 231.084 113.136C231.316 112.92 231.432 112.64 231.432 112.296C231.432 112.016 231.352 111.792 231.192 111.624C231.032 111.456 230.832 111.332 230.592 111.252C230.36 111.164 230.04 111.072 229.632 110.976C229.16 110.864 228.78 110.752 228.492 110.64C228.212 110.528 227.972 110.356 227.772 110.124C227.572 109.884 227.472 109.56 227.472 109.152C227.472 108.616 227.668 108.184 228.06 107.856C228.452 107.528 228.984 107.364 229.656 107.364ZM233.566 105.504C233.566 105.328 233.622 105.188 233.734 105.084C233.854 104.98 234.006 104.928 234.19 104.928C234.374 104.928 234.522 104.98 234.634 105.084C234.746 105.188 234.802 105.328 234.802 105.504C234.802 105.672 234.746 105.808 234.634 105.912C234.522 106.016 234.374 106.068 234.19 106.068C234.006 106.068 233.854 106.016 233.734 105.912C233.622 105.808 233.566 105.672 233.566 105.504ZM234.61 107.448V114H233.758V107.448H234.61ZM239.406 113.256V114H238.626C237.994 114 237.522 113.852 237.21 113.556C236.898 113.252 236.742 112.744 236.742 112.032V108.18H235.746V107.448H236.742V105.792H237.594V107.448H239.394V108.18H237.594V112.044C237.594 112.508 237.678 112.828 237.846 113.004C238.014 113.172 238.31 113.256 238.734 113.256H239.406Z" fill="white"/>
<path d="M136.981 172.328H140.053V173H136.129V164.54H136.981V172.328ZM144.167 166.364C144.791 166.364 145.347 166.5 145.835 166.772C146.331 167.036 146.719 167.424 146.999 167.936C147.279 168.44 147.419 169.036 147.419 169.724C147.419 170.412 147.279 171.008 146.999 171.512C146.719 172.016 146.331 172.404 145.835 172.676C145.347 172.948 144.791 173.084 144.167 173.084C143.543 173.084 142.983 172.948 142.487 172.676C141.991 172.404 141.599 172.016 141.311 171.512C141.031 171 140.891 170.404 140.891 169.724C140.891 169.036 141.031 168.44 141.311 167.936C141.599 167.424 141.991 167.036 142.487 166.772C142.983 166.5 143.543 166.364 144.167 166.364ZM144.167 167.096C143.735 167.096 143.335 167.192 142.967 167.384C142.599 167.576 142.303 167.872 142.079 168.272C141.855 168.664 141.743 169.148 141.743 169.724C141.743 170.3 141.855 170.784 142.079 171.176C142.303 171.568 142.599 171.86 142.967 172.052C143.335 172.244 143.735 172.34 144.167 172.34C144.591 172.34 144.983 172.244 145.343 172.052C145.711 171.86 146.007 171.568 146.231 171.176C146.455 170.784 146.567 170.3 146.567 169.724C146.567 169.148 146.455 168.664 146.231 168.272C146.007 167.872 145.711 167.576 145.343 167.384C144.983 167.192 144.591 167.096 144.167 167.096ZM151.686 166.364C152.35 166.364 152.914 166.536 153.378 166.88C153.85 167.224 154.174 167.68 154.35 168.248V166.448H155.178V173H154.35V171.2C154.174 171.768 153.85 172.224 153.378 172.568C152.914 172.912 152.35 173.084 151.686 173.084C151.094 173.084 150.562 172.948 150.09 172.676C149.626 172.404 149.262 172.016 148.998 171.512C148.742 171 148.614 170.404 148.614 169.724C148.614 169.036 148.742 168.44 148.998 167.936C149.262 167.424 149.626 167.036 150.09 166.772C150.554 166.5 151.086 166.364 151.686 166.364ZM151.902 167.108C151.166 167.108 150.574 167.344 150.126 167.816C149.686 168.28 149.466 168.916 149.466 169.724C149.466 170.532 149.686 171.172 150.126 171.644C150.574 172.108 151.166 172.34 151.902 172.34C152.366 172.34 152.782 172.232 153.15 172.016C153.526 171.8 153.818 171.496 154.026 171.104C154.242 170.704 154.35 170.244 154.35 169.724C154.35 169.204 154.242 168.748 154.026 168.356C153.818 167.956 153.526 167.648 153.15 167.432C152.782 167.216 152.366 167.108 151.902 167.108ZM160.276 166.328C161.036 166.328 161.652 166.572 162.124 167.06C162.604 167.54 162.844 168.248 162.844 169.184V173H162.016V169.244C162.016 168.532 161.836 167.988 161.476 167.612C161.116 167.228 160.624 167.036 160 167.036C159.344 167.036 158.82 167.248 158.428 167.672C158.044 168.088 157.852 168.704 157.852 169.52V173H157V166.448H157.852V168.056C158.02 167.496 158.324 167.068 158.764 166.772C159.204 166.476 159.708 166.328 160.276 166.328ZM167.542 164.504C167.542 164.328 167.598 164.188 167.71 164.084C167.83 163.98 167.982 163.928 168.166 163.928C168.35 163.928 168.498 163.98 168.61 164.084C168.722 164.188 168.778 164.328 168.778 164.504C168.778 164.672 168.722 164.808 168.61 164.912C168.498 165.016 168.35 165.068 168.166 165.068C167.982 165.068 167.83 165.016 167.71 164.912C167.598 164.808 167.542 164.672 167.542 164.504ZM168.586 166.448V173H167.734V166.448H168.586ZM173.682 166.328C174.442 166.328 175.058 166.572 175.53 167.06C176.01 167.54 176.25 168.248 176.25 169.184V173H175.422V169.244C175.422 168.532 175.242 167.988 174.882 167.612C174.522 167.228 174.03 167.036 173.406 167.036C172.75 167.036 172.226 167.248 171.834 167.672C171.45 168.088 171.258 168.704 171.258 169.52V173H170.406V166.448H171.258V168.056C171.426 167.496 171.73 167.068 172.17 166.772C172.61 166.476 173.114 166.328 173.682 166.328ZM181.933 164.54V169.664C181.933 170.568 182.129 171.232 182.521 171.656C182.921 172.08 183.465 172.292 184.153 172.292C184.841 172.292 185.377 172.08 185.761 171.656C186.153 171.232 186.349 170.568 186.349 169.664V164.54H187.189V169.664C187.189 170.808 186.913 171.664 186.361 172.232C185.809 172.8 185.069 173.084 184.141 173.084C183.213 173.084 182.473 172.8 181.921 172.232C181.369 171.664 181.093 170.808 181.093 169.664V164.54H181.933ZM194.129 170.852C194.129 171.236 194.037 171.6 193.853 171.944C193.677 172.28 193.401 172.556 193.025 172.772C192.649 172.98 192.181 173.084 191.621 173.084C191.077 173.084 190.593 172.984 190.169 172.784C189.745 172.584 189.405 172.312 189.149 171.968C188.901 171.616 188.757 171.224 188.717 170.792H189.605C189.637 171.04 189.729 171.288 189.881 171.536C190.033 171.784 190.253 171.992 190.541 172.16C190.829 172.32 191.177 172.4 191.585 172.4C192.121 172.4 192.529 172.256 192.809 171.968C193.097 171.68 193.241 171.316 193.241 170.876C193.241 170.5 193.145 170.196 192.953 169.964C192.769 169.724 192.537 169.54 192.257 169.412C191.985 169.284 191.609 169.144 191.129 168.992C190.601 168.824 190.173 168.664 189.845 168.512C189.525 168.352 189.253 168.12 189.029 167.816C188.805 167.512 188.693 167.108 188.693 166.604C188.693 165.964 188.917 165.444 189.365 165.044C189.813 164.644 190.429 164.444 191.213 164.444C192.013 164.444 192.645 164.64 193.109 165.032C193.581 165.424 193.861 165.912 193.949 166.496H193.049C192.977 166.136 192.785 165.816 192.473 165.536C192.169 165.256 191.749 165.116 191.213 165.116C190.717 165.116 190.321 165.244 190.025 165.5C189.729 165.756 189.581 166.112 189.581 166.568C189.581 166.928 189.673 167.22 189.857 167.444C190.041 167.668 190.265 167.84 190.529 167.96C190.801 168.08 191.169 168.216 191.633 168.368C192.169 168.536 192.601 168.7 192.929 168.86C193.265 169.02 193.549 169.26 193.781 169.58C194.013 169.9 194.129 170.324 194.129 170.852ZM202.668 168.764C202.668 169.636 202.496 170.392 202.152 171.032C201.808 171.664 201.3 172.152 200.628 172.496C199.964 172.832 199.16 173 198.216 173H195.66V164.54H198.216C199.64 164.54 200.736 164.916 201.504 165.668C202.28 166.412 202.668 167.444 202.668 168.764ZM198.156 172.244C199.348 172.244 200.256 171.94 200.88 171.332C201.504 170.716 201.816 169.86 201.816 168.764C201.816 167.668 201.504 166.816 200.88 166.208C200.256 165.592 199.348 165.284 198.156 165.284H196.512V172.244H198.156ZM211.211 174.692L209.315 172.916C208.923 173.036 208.499 173.096 208.043 173.096C207.259 173.096 206.555 172.912 205.931 172.544C205.307 172.176 204.815 171.664 204.455 171.008C204.103 170.344 203.927 169.596 203.927 168.764C203.927 167.932 204.103 167.188 204.455 166.532C204.815 165.876 205.307 165.364 205.931 164.996C206.555 164.628 207.259 164.444 208.043 164.444C208.827 164.444 209.531 164.628 210.155 164.996C210.779 165.364 211.267 165.876 211.619 166.532C211.979 167.188 212.159 167.932 212.159 168.764C212.159 169.628 211.967 170.4 211.583 171.08C211.199 171.752 210.679 172.264 210.023 172.616L212.315 174.692H211.211ZM204.791 168.764C204.791 169.476 204.931 170.1 205.211 170.636C205.499 171.172 205.887 171.584 206.375 171.872C206.871 172.16 207.427 172.304 208.043 172.304C208.659 172.304 209.211 172.16 209.699 171.872C210.195 171.584 210.583 171.172 210.863 170.636C211.151 170.1 211.295 169.476 211.295 168.764C211.295 168.052 211.151 167.428 210.863 166.892C210.583 166.356 210.195 165.944 209.699 165.656C209.211 165.368 208.659 165.224 208.043 165.224C207.427 165.224 206.871 165.368 206.375 165.656C205.887 165.944 205.499 166.356 205.211 166.892C204.931 167.428 204.791 168.052 204.791 168.764Z" fill="white"/>
<path d="M72.73 194.468C73.69 194.468 74.502 194.708 75.166 195.188C75.83 195.668 76.286 196.32 76.534 197.144H75.658C75.442 196.576 75.074 196.116 74.554 195.764C74.042 195.412 73.434 195.236 72.73 195.236C72.122 195.236 71.57 195.38 71.074 195.668C70.586 195.956 70.202 196.368 69.922 196.904C69.642 197.44 69.502 198.064 69.502 198.776C69.502 199.504 69.642 200.136 69.922 200.672C70.21 201.208 70.602 201.62 71.098 201.908C71.602 202.196 72.174 202.34 72.814 202.34C73.382 202.34 73.902 202.216 74.374 201.968C74.846 201.712 75.226 201.344 75.514 200.864C75.81 200.384 75.982 199.82 76.03 199.172H72.514V198.536H76.762V199.28C76.706 200 76.502 200.648 76.15 201.224C75.806 201.8 75.338 202.256 74.746 202.592C74.162 202.92 73.494 203.084 72.742 203.084C71.942 203.084 71.23 202.904 70.606 202.544C69.982 202.176 69.498 201.664 69.154 201.008C68.81 200.352 68.638 199.608 68.638 198.776C68.638 197.944 68.81 197.2 69.154 196.544C69.498 195.888 69.978 195.38 70.594 195.02C71.218 194.652 71.93 194.468 72.73 194.468ZM78.1087 194.504C78.1087 194.328 78.1647 194.188 78.2767 194.084C78.3967 193.98 78.5487 193.928 78.7327 193.928C78.9167 193.928 79.0647 193.98 79.1767 194.084C79.2887 194.188 79.3447 194.328 79.3447 194.504C79.3447 194.672 79.2887 194.808 79.1767 194.912C79.0647 195.016 78.9167 195.068 78.7327 195.068C78.5487 195.068 78.3967 195.016 78.2767 194.912C78.1647 194.808 78.1087 194.672 78.1087 194.504ZM79.1527 196.448V203H78.3007V196.448H79.1527ZM83.3965 202.052L85.5925 196.448H86.5045L83.8645 203H82.9045L80.2645 196.448H81.1765L83.3965 202.052ZM90.4731 202.388C91.0651 202.388 91.5611 202.24 91.9611 201.944C92.3611 201.648 92.6011 201.248 92.6811 200.744H93.5691C93.4491 201.44 93.1171 202.004 92.5731 202.436C92.0291 202.868 91.3411 203.084 90.5091 203.084C89.8851 203.084 89.3291 202.952 88.8411 202.688C88.3611 202.416 87.9851 202.028 87.7131 201.524C87.4411 201.012 87.3051 200.412 87.3051 199.724C87.3051 199.036 87.4411 198.44 87.7131 197.936C87.9851 197.424 88.3611 197.036 88.8411 196.772C89.3291 196.5 89.8851 196.364 90.5091 196.364C91.1491 196.364 91.7011 196.5 92.1651 196.772C92.6371 197.036 92.9931 197.392 93.2331 197.84C93.4811 198.288 93.6051 198.776 93.6051 199.304C93.6051 199.528 93.5891 199.732 93.5571 199.916H88.1331C88.1411 200.468 88.2531 200.932 88.4691 201.308C88.6931 201.676 88.9811 201.948 89.3331 202.124C89.6851 202.3 90.0651 202.388 90.4731 202.388ZM90.5091 197.048C90.0851 197.048 89.6971 197.136 89.3451 197.312C88.9931 197.488 88.7051 197.76 88.4811 198.128C88.2651 198.488 88.1491 198.94 88.1331 199.484H92.7651C92.7971 198.948 92.7091 198.496 92.5011 198.128C92.2931 197.76 92.0131 197.488 91.6611 197.312C91.3091 197.136 90.9251 197.048 90.5091 197.048ZM101.738 196.364C102.338 196.364 102.866 196.5 103.322 196.772C103.786 197.036 104.146 197.424 104.402 197.936C104.666 198.44 104.798 199.036 104.798 199.724C104.798 200.404 104.666 201 104.402 201.512C104.146 202.016 103.786 202.404 103.322 202.676C102.858 202.948 102.33 203.084 101.738 203.084C101.066 203.084 100.498 202.912 100.034 202.568C99.5703 202.224 99.2503 201.768 99.0743 201.2V203H98.2343V194.12H99.0743V198.248C99.2503 197.68 99.5703 197.224 100.034 196.88C100.498 196.536 101.066 196.364 101.738 196.364ZM101.51 197.108C101.046 197.108 100.626 197.216 100.25 197.432C99.8823 197.648 99.5943 197.956 99.3863 198.356C99.1783 198.748 99.0743 199.204 99.0743 199.724C99.0743 200.244 99.1783 200.704 99.3863 201.104C99.5943 201.496 99.8823 201.8 100.25 202.016C100.626 202.232 101.046 202.34 101.51 202.34C102.254 202.34 102.846 202.108 103.286 201.644C103.726 201.172 103.946 200.532 103.946 199.724C103.946 198.916 103.726 198.28 103.286 197.816C102.846 197.344 102.254 197.108 101.51 197.108ZM106.116 194.504C106.116 194.328 106.172 194.188 106.284 194.084C106.404 193.98 106.556 193.928 106.74 193.928C106.924 193.928 107.072 193.98 107.184 194.084C107.296 194.188 107.352 194.328 107.352 194.504C107.352 194.672 107.296 194.808 107.184 194.912C107.072 195.016 106.924 195.068 106.74 195.068C106.556 195.068 106.404 195.016 106.284 194.912C106.172 194.808 106.116 194.672 106.116 194.504ZM107.16 196.448V203H106.308V196.448H107.16ZM111.956 202.256V203H111.176C110.544 203 110.072 202.852 109.76 202.556C109.448 202.252 109.292 201.744 109.292 201.032V197.18H108.296V196.448H109.292V194.792H110.144V196.448H111.944V197.18H110.144V201.044C110.144 201.508 110.228 201.828 110.396 202.004C110.564 202.172 110.86 202.256 111.284 202.256H111.956ZM116.232 196.364C117.064 196.364 117.752 196.584 118.296 197.024C118.848 197.464 119.184 198.048 119.304 198.776H118.428C118.34 198.256 118.096 197.848 117.696 197.552C117.296 197.248 116.804 197.096 116.22 197.096C115.796 197.096 115.404 197.192 115.044 197.384C114.692 197.576 114.408 197.872 114.192 198.272C113.984 198.664 113.88 199.148 113.88 199.724C113.88 200.3 113.984 200.788 114.192 201.188C114.408 201.58 114.692 201.872 115.044 202.064C115.404 202.256 115.796 202.352 116.22 202.352C116.804 202.352 117.296 202.204 117.696 201.908C118.096 201.604 118.34 201.192 118.428 200.672H119.304C119.184 201.4 118.848 201.984 118.296 202.424C117.752 202.864 117.064 203.084 116.232 203.084C115.608 203.084 115.052 202.952 114.564 202.688C114.084 202.416 113.708 202.028 113.436 201.524C113.164 201.012 113.028 200.412 113.028 199.724C113.028 199.036 113.164 198.44 113.436 197.936C113.708 197.424 114.084 197.036 114.564 196.772C115.052 196.5 115.608 196.364 116.232 196.364ZM123.78 196.364C124.404 196.364 124.96 196.5 125.448 196.772C125.944 197.036 126.332 197.424 126.612 197.936C126.892 198.44 127.032 199.036 127.032 199.724C127.032 200.412 126.892 201.008 126.612 201.512C126.332 202.016 125.944 202.404 125.448 202.676C124.96 202.948 124.404 203.084 123.78 203.084C123.156 203.084 122.596 202.948 122.1 202.676C121.604 202.404 121.212 202.016 120.924 201.512C120.644 201 120.504 200.404 120.504 199.724C120.504 199.036 120.644 198.44 120.924 197.936C121.212 197.424 121.604 197.036 122.1 196.772C122.596 196.5 123.156 196.364 123.78 196.364ZM123.78 197.096C123.348 197.096 122.948 197.192 122.58 197.384C122.212 197.576 121.916 197.872 121.692 198.272C121.468 198.664 121.356 199.148 121.356 199.724C121.356 200.3 121.468 200.784 121.692 201.176C121.916 201.568 122.212 201.86 122.58 202.052C122.948 202.244 123.348 202.34 123.78 202.34C124.204 202.34 124.596 202.244 124.956 202.052C125.324 201.86 125.62 201.568 125.844 201.176C126.068 200.784 126.18 200.3 126.18 199.724C126.18 199.148 126.068 198.664 125.844 198.272C125.62 197.872 125.324 197.576 124.956 197.384C124.596 197.192 124.204 197.096 123.78 197.096ZM128.347 194.504C128.347 194.328 128.403 194.188 128.515 194.084C128.635 193.98 128.787 193.928 128.971 193.928C129.155 193.928 129.303 193.98 129.415 194.084C129.527 194.188 129.583 194.328 129.583 194.504C129.583 194.672 129.527 194.808 129.415 194.912C129.303 195.016 129.155 195.068 128.971 195.068C128.787 195.068 128.635 195.016 128.515 194.912C128.403 194.808 128.347 194.672 128.347 194.504ZM129.391 196.448V203H128.539V196.448H129.391ZM134.487 196.328C135.247 196.328 135.863 196.572 136.335 197.06C136.815 197.54 137.055 198.248 137.055 199.184V203H136.227V199.244C136.227 198.532 136.047 197.988 135.687 197.612C135.327 197.228 134.835 197.036 134.211 197.036C133.555 197.036 133.031 197.248 132.639 197.672C132.255 198.088 132.063 198.704 132.063 199.52V203H131.211V196.448H132.063V198.056C132.231 197.496 132.535 197.068 132.975 196.772C133.415 196.476 133.919 196.328 134.487 196.328ZM140.808 196.364C141.52 196.364 142.092 196.552 142.524 196.928C142.956 197.304 143.22 197.812 143.316 198.452H142.512C142.464 198.028 142.288 197.68 141.984 197.408C141.688 197.128 141.288 196.988 140.784 196.988C140.352 196.988 140.012 197.096 139.764 197.312C139.524 197.52 139.404 197.8 139.404 198.152C139.404 198.416 139.48 198.628 139.632 198.788C139.792 198.948 139.988 199.072 140.22 199.16C140.452 199.24 140.764 199.324 141.156 199.412C141.636 199.524 142.02 199.64 142.308 199.76C142.604 199.872 142.856 200.052 143.064 200.3C143.272 200.548 143.376 200.884 143.376 201.308C143.376 201.828 143.18 202.256 142.788 202.592C142.404 202.92 141.892 203.084 141.252 203.084C140.5 203.084 139.884 202.9 139.404 202.532C138.924 202.156 138.64 201.644 138.552 200.996H139.368C139.416 201.428 139.604 201.78 139.932 202.052C140.26 202.324 140.704 202.46 141.264 202.46C141.68 202.46 142.004 202.352 142.236 202.136C142.468 201.92 142.584 201.64 142.584 201.296C142.584 201.016 142.504 200.792 142.344 200.624C142.184 200.456 141.984 200.332 141.744 200.252C141.512 200.164 141.192 200.072 140.784 199.976C140.312 199.864 139.932 199.752 139.644 199.64C139.364 199.528 139.124 199.356 138.924 199.124C138.724 198.884 138.624 198.56 138.624 198.152C138.624 197.616 138.82 197.184 139.212 196.856C139.604 196.528 140.136 196.364 140.808 196.364Z" fill="white"/>
<path d="M218.769 194.468C219.729 194.468 220.541 194.708 221.205 195.188C221.869 195.668 222.325 196.32 222.573 197.144H221.697C221.481 196.576 221.113 196.116 220.593 195.764C220.081 195.412 219.473 195.236 218.769 195.236C218.161 195.236 217.609 195.38 217.113 195.668C216.625 195.956 216.241 196.368 215.961 196.904C215.681 197.44 215.541 198.064 215.541 198.776C215.541 199.504 215.681 200.136 215.961 200.672C216.249 201.208 216.641 201.62 217.137 201.908C217.641 202.196 218.213 202.34 218.853 202.34C219.421 202.34 219.941 202.216 220.413 201.968C220.885 201.712 221.265 201.344 221.553 200.864C221.849 200.384 222.021 199.82 222.069 199.172H218.553V198.536H222.801V199.28C222.745 200 222.541 200.648 222.189 201.224C221.845 201.8 221.377 202.256 220.785 202.592C220.201 202.92 219.533 203.084 218.781 203.084C217.981 203.084 217.269 202.904 216.645 202.544C216.021 202.176 215.537 201.664 215.193 201.008C214.849 200.352 214.677 199.608 214.677 198.776C214.677 197.944 214.849 197.2 215.193 196.544C215.537 195.888 216.017 195.38 216.633 195.02C217.257 194.652 217.969 194.468 218.769 194.468ZM227.196 202.388C227.788 202.388 228.284 202.24 228.684 201.944C229.084 201.648 229.324 201.248 229.404 200.744H230.292C230.172 201.44 229.84 202.004 229.296 202.436C228.752 202.868 228.064 203.084 227.232 203.084C226.608 203.084 226.052 202.952 225.564 202.688C225.084 202.416 224.708 202.028 224.436 201.524C224.164 201.012 224.028 200.412 224.028 199.724C224.028 199.036 224.164 198.44 224.436 197.936C224.708 197.424 225.084 197.036 225.564 196.772C226.052 196.5 226.608 196.364 227.232 196.364C227.872 196.364 228.424 196.5 228.888 196.772C229.36 197.036 229.716 197.392 229.956 197.84C230.204 198.288 230.328 198.776 230.328 199.304C230.328 199.528 230.312 199.732 230.28 199.916H224.856C224.864 200.468 224.976 200.932 225.192 201.308C225.416 201.676 225.704 201.948 226.056 202.124C226.408 202.3 226.788 202.388 227.196 202.388ZM227.232 197.048C226.808 197.048 226.42 197.136 226.068 197.312C225.716 197.488 225.428 197.76 225.204 198.128C224.988 198.488 224.872 198.94 224.856 199.484H229.488C229.52 198.948 229.432 198.496 229.224 198.128C229.016 197.76 228.736 197.488 228.384 197.312C228.032 197.136 227.648 197.048 227.232 197.048ZM234.816 202.256V203H234.036C233.404 203 232.932 202.852 232.62 202.556C232.308 202.252 232.152 201.744 232.152 201.032V197.18H231.156V196.448H232.152V194.792H233.004V196.448H234.804V197.18H233.004V201.044C233.004 201.508 233.088 201.828 233.256 202.004C233.424 202.172 233.72 202.256 234.144 202.256H234.816ZM240.108 194.54V199.664C240.108 200.568 240.304 201.232 240.696 201.656C241.096 202.08 241.64 202.292 242.328 202.292C243.016 202.292 243.552 202.08 243.936 201.656C244.328 201.232 244.524 200.568 244.524 199.664V194.54H245.364V199.664C245.364 200.808 245.088 201.664 244.536 202.232C243.984 202.8 243.244 203.084 242.316 203.084C241.388 203.084 240.648 202.8 240.096 202.232C239.544 201.664 239.268 200.808 239.268 199.664V194.54H240.108ZM252.304 200.852C252.304 201.236 252.212 201.6 252.028 201.944C251.852 202.28 251.576 202.556 251.2 202.772C250.824 202.98 250.356 203.084 249.796 203.084C249.252 203.084 248.768 202.984 248.344 202.784C247.92 202.584 247.58 202.312 247.324 201.968C247.076 201.616 246.932 201.224 246.892 200.792H247.78C247.812 201.04 247.904 201.288 248.056 201.536C248.208 201.784 248.428 201.992 248.716 202.16C249.004 202.32 249.352 202.4 249.76 202.4C250.296 202.4 250.704 202.256 250.984 201.968C251.272 201.68 251.416 201.316 251.416 200.876C251.416 200.5 251.32 200.196 251.128 199.964C250.944 199.724 250.712 199.54 250.432 199.412C250.16 199.284 249.784 199.144 249.304 198.992C248.776 198.824 248.348 198.664 248.02 198.512C247.7 198.352 247.428 198.12 247.204 197.816C246.98 197.512 246.868 197.108 246.868 196.604C246.868 195.964 247.092 195.444 247.54 195.044C247.988 194.644 248.604 194.444 249.388 194.444C250.188 194.444 250.82 194.64 251.284 195.032C251.756 195.424 252.036 195.912 252.124 196.496H251.224C251.152 196.136 250.96 195.816 250.648 195.536C250.344 195.256 249.924 195.116 249.388 195.116C248.892 195.116 248.496 195.244 248.2 195.5C247.904 195.756 247.756 196.112 247.756 196.568C247.756 196.928 247.848 197.22 248.032 197.444C248.216 197.668 248.44 197.84 248.704 197.96C248.976 198.08 249.344 198.216 249.808 198.368C250.344 198.536 250.776 198.7 251.104 198.86C251.44 199.02 251.724 199.26 251.956 199.58C252.188 199.9 252.304 200.324 252.304 200.852ZM260.844 198.764C260.844 199.636 260.672 200.392 260.328 201.032C259.984 201.664 259.476 202.152 258.804 202.496C258.14 202.832 257.336 203 256.392 203H253.836V194.54H256.392C257.816 194.54 258.912 194.916 259.68 195.668C260.456 196.412 260.844 197.444 260.844 198.764ZM256.332 202.244C257.524 202.244 258.432 201.94 259.056 201.332C259.68 200.716 259.992 199.86 259.992 198.764C259.992 197.668 259.68 196.816 259.056 196.208C258.432 195.592 257.524 195.284 256.332 195.284H254.688V202.244H256.332ZM269.387 204.692L267.491 202.916C267.099 203.036 266.675 203.096 266.219 203.096C265.435 203.096 264.731 202.912 264.107 202.544C263.483 202.176 262.991 201.664 262.631 201.008C262.279 200.344 262.103 199.596 262.103 198.764C262.103 197.932 262.279 197.188 262.631 196.532C262.991 195.876 263.483 195.364 264.107 194.996C264.731 194.628 265.435 194.444 266.219 194.444C267.003 194.444 267.707 194.628 268.331 194.996C268.955 195.364 269.443 195.876 269.795 196.532C270.155 197.188 270.335 197.932 270.335 198.764C270.335 199.628 270.143 200.4 269.759 201.08C269.375 201.752 268.855 202.264 268.199 202.616L270.491 204.692H269.387ZM262.967 198.764C262.967 199.476 263.107 200.1 263.387 200.636C263.675 201.172 264.063 201.584 264.551 201.872C265.047 202.16 265.603 202.304 266.219 202.304C266.835 202.304 267.387 202.16 267.875 201.872C268.371 201.584 268.759 201.172 269.039 200.636C269.327 200.1 269.471 199.476 269.471 198.764C269.471 198.052 269.327 197.428 269.039 196.892C268.759 196.356 268.371 195.944 267.875 195.656C267.387 195.368 266.835 195.224 266.219 195.224C265.603 195.224 265.047 195.368 264.551 195.656C264.063 195.944 263.675 196.356 263.387 196.892C263.107 197.428 262.967 198.052 262.967 198.764Z" fill="white"/>
<path d="M236.774 271.503C235.472 270.235 233.976 269.226 232.384 268.264C231.445 267.703 230.471 267.168 229.509 266.669C229.259 266.807 229.005 266.941 228.741 267.063C226.197 268.257 223.037 268.84 219.079 268.844H219.078C218.751 268.844 218.436 268.795 218.136 268.71C217.836 268.795 217.521 268.844 217.194 268.844H217.194C213.235 268.84 210.074 268.257 207.531 267.063C207.267 266.941 207.012 266.807 206.761 266.668C206.709 266.695 206.657 266.722 206.606 266.749C204.633 267.783 202.629 268.939 200.9 270.282C200.034 270.965 199.226 271.685 198.496 272.625C198.132 273.1 197.785 273.636 197.501 274.296C197.22 274.952 197.001 275.756 197 276.668C196.99 277.637 197.283 278.699 197.795 279.536C198.188 280.2 198.745 280.731 199.27 281.07C200.068 281.585 200.749 281.755 201.296 281.859C201.849 281.956 202.303 281.973 202.734 281.975C204.215 281.961 205.575 281.742 207.25 281.56C208.902 281.372 210.773 281.198 212.809 281.198C216.305 281.2 220.239 281.705 224.31 283.53C224.861 283.777 225.439 283.895 226.006 283.895C227.592 283.895 229.106 282.982 229.797 281.442C230.735 279.349 229.801 276.893 227.709 275.954C222.35 273.548 217.179 272.902 212.9 272.894C213.232 272.738 213.557 272.587 213.869 272.446C214.895 271.977 215.795 271.59 216.433 271.325C216.618 271.247 216.778 271.181 216.915 271.125H218.531H219.358C220.113 271.434 221.635 272.076 223.369 272.894C222.516 272.895 221.626 272.923 220.708 272.985C223.247 273.506 225.682 274.285 227.993 275.323C230.429 276.416 231.521 279.287 230.429 281.724C231.506 281.853 232.492 281.965 233.536 281.975C234.111 281.968 234.723 281.953 235.564 281.723C235.983 281.602 236.472 281.417 237 281.071C237.525 280.732 238.084 280.201 238.477 279.536C238.984 278.697 239.28 277.646 239.271 276.668C239.27 275.755 239.051 274.952 238.77 274.296C238.228 273.062 237.512 272.242 236.774 271.503Z" fill="white"/>
<path d="M207.328 282.248C207.21 282.261 207.098 282.274 206.984 282.287C207.776 283.309 208.997 283.894 210.265 283.894C210.834 283.894 211.411 283.777 211.963 283.529C213.381 282.893 214.782 282.42 216.154 282.07C215.071 281.954 213.96 281.89 212.808 281.889C210.761 281.89 208.889 282.071 207.328 282.248Z" fill="white"/>
<path d="M225.716 235.11C226.691 230.924 224.088 226.74 219.902 225.765C215.716 224.79 211.532 227.394 210.557 231.58C209.582 235.766 212.185 239.949 216.372 240.924C220.558 241.899 224.741 239.296 225.716 235.11Z" fill="white"/>
<path d="M207.826 266.437C210.222 267.563 213.221 268.126 217.007 268.148C216.166 267.516 215.618 266.514 215.618 265.385C215.618 264.251 216.169 263.246 217.013 262.615C212.675 262.596 210.221 261.68 209.03 260.729C208.413 260.242 208.058 259.752 207.808 259.186C207.717 258.979 207.649 258.754 207.59 258.519C207.489 258.112 207.431 257.667 207.431 257.171C207.407 255.353 208.231 252.984 209.316 251.065L210.151 260.637C211.264 261.244 213.353 261.924 217.146 261.924H217.194C217.521 261.924 217.836 261.973 218.137 262.058C218.437 261.973 218.752 261.924 219.08 261.924H219.127C222.921 261.924 225.01 261.243 226.122 260.637L226.957 251.066C228.042 252.985 228.867 255.353 228.842 257.171C228.842 257.667 228.785 258.112 228.683 258.519C228.625 258.754 228.556 258.98 228.465 259.186C228.214 259.753 227.86 260.243 227.244 260.73C226.036 261.693 223.532 262.624 219.079 262.617C217.55 262.617 216.311 263.856 216.311 265.385C216.311 266.913 217.55 268.152 219.079 268.152C222.955 268.149 226.011 267.582 228.448 266.437C230.155 265.644 231.535 264.507 232.515 263.179C232.931 262.615 233.275 262.019 233.541 261.398C234.143 260.015 234.379 258.568 234.378 257.171C234.372 254.791 233.724 252.527 232.849 250.501C231.967 248.475 230.847 246.689 229.71 245.294C228.937 244.361 228.203 243.605 227.284 243.005C226.807 242.721 226.284 242.399 225.411 242.304C225.22 242.261 225.023 242.236 224.82 242.236H211.453C211.25 242.236 211.053 242.261 210.863 242.304C209.989 242.399 209.466 242.721 208.989 243.005C208.071 243.605 207.336 244.361 206.564 245.294C205.426 246.689 204.306 248.475 203.424 250.501C202.549 252.527 201.901 254.791 201.895 257.171C201.894 258.568 202.13 260.015 202.732 261.398C202.998 262.019 203.343 262.616 203.758 263.179C204.738 264.507 206.119 265.644 207.826 266.437Z" fill="white"/>
<path d="M210 258.716H226.325L226.1 260.8C224 261.5 221.234 261.97 218.5 262C214.139 262.047 210 261.023 210 260.716C210 260.216 210 258.716 210 258.716Z" fill="#D03F4C" stroke="black" stroke-width="0.25"/>
<path d="M151.774 271.503C150.472 270.235 148.976 269.226 147.384 268.264C146.445 267.703 145.471 267.168 144.509 266.669C144.259 266.807 144.005 266.941 143.741 267.063C141.197 268.257 138.037 268.84 134.079 268.844H134.078C133.751 268.844 133.436 268.795 133.136 268.71C132.836 268.795 132.521 268.844 132.194 268.844H132.194C128.235 268.84 125.074 268.257 122.531 267.063C122.267 266.941 122.012 266.807 121.761 266.668C121.709 266.695 121.657 266.722 121.606 266.749C119.633 267.783 117.629 268.939 115.9 270.282C115.034 270.965 114.226 271.685 113.496 272.625C113.132 273.1 112.785 273.636 112.501 274.296C112.22 274.952 112.001 275.756 112 276.668C111.99 277.637 112.283 278.699 112.795 279.536C113.188 280.2 113.745 280.731 114.27 281.07C115.068 281.585 115.749 281.755 116.296 281.859C116.849 281.956 117.303 281.973 117.734 281.975C119.215 281.961 120.575 281.742 122.25 281.56C123.902 281.372 125.773 281.198 127.809 281.198C131.305 281.2 135.239 281.705 139.31 283.53C139.861 283.777 140.439 283.895 141.006 283.895C142.592 283.895 144.106 282.982 144.797 281.442C145.735 279.349 144.801 276.893 142.709 275.954C137.35 273.548 132.179 272.902 127.9 272.894C128.232 272.738 128.557 272.587 128.869 272.446C129.895 271.977 130.795 271.59 131.433 271.325C131.618 271.247 131.778 271.181 131.915 271.125H133.531H134.358C135.113 271.434 136.635 272.076 138.369 272.894C137.516 272.895 136.626 272.923 135.708 272.985C138.247 273.506 140.682 274.285 142.993 275.323C145.429 276.416 146.521 279.287 145.429 281.724C146.506 281.853 147.492 281.965 148.536 281.975C149.111 281.968 149.723 281.953 150.564 281.723C150.983 281.602 151.472 281.417 152 281.071C152.525 280.732 153.084 280.201 153.477 279.536C153.984 278.697 154.28 277.646 154.271 276.668C154.27 275.755 154.051 274.952 153.77 274.296C153.228 273.062 152.512 272.242 151.774 271.503Z" fill="white"/>
<path d="M122.328 282.248C122.21 282.261 122.098 282.274 121.984 282.287C122.776 283.309 123.997 283.894 125.265 283.894C125.834 283.894 126.411 283.777 126.963 283.529C128.381 282.893 129.782 282.42 131.154 282.07C130.071 281.954 128.96 281.89 127.808 281.889C125.761 281.89 123.889 282.071 122.328 282.248Z" fill="white"/>
<path d="M140.716 235.11C141.691 230.924 139.088 226.74 134.902 225.765C130.715 224.79 126.532 227.394 125.557 231.58C124.582 235.766 127.185 239.949 131.371 240.924C135.557 241.899 139.741 239.296 140.716 235.11Z" fill="white"/>
<path d="M122.826 266.437C125.222 267.563 128.221 268.126 132.006 268.148C131.166 267.516 130.618 266.514 130.618 265.385C130.618 264.251 131.168 263.246 132.013 262.615C127.675 262.596 125.22 261.68 124.03 260.729C123.413 260.242 123.058 259.752 122.807 259.186C122.717 258.979 122.648 258.754 122.59 258.519C122.489 258.112 122.43 257.667 122.43 257.171C122.407 255.353 123.231 252.984 124.316 251.065L125.151 260.637C126.263 261.244 128.353 261.924 132.145 261.924H132.193C132.52 261.924 132.836 261.973 133.137 262.058C133.437 261.973 133.752 261.924 134.08 261.924H134.127C137.92 261.924 140.009 261.243 141.122 260.637L141.957 251.066C143.042 252.985 143.867 255.353 143.842 257.171C143.842 257.667 143.784 258.112 143.683 258.519C143.624 258.754 143.556 258.98 143.465 259.186C143.214 259.753 142.86 260.243 142.243 260.73C141.036 261.693 138.532 262.624 134.078 262.617C132.55 262.617 131.311 263.856 131.311 265.385C131.311 266.913 132.55 268.152 134.078 268.152C137.954 268.149 141.011 267.582 143.447 266.437C145.155 265.644 146.535 264.507 147.515 263.179C147.93 262.615 148.275 262.019 148.54 261.398C149.142 260.015 149.378 258.568 149.378 257.171C149.371 254.791 148.724 252.527 147.849 250.501C146.967 248.475 145.847 246.689 144.71 245.294C143.937 244.361 143.202 243.605 142.284 243.005C141.807 242.721 141.284 242.399 140.41 242.304C140.22 242.261 140.023 242.236 139.82 242.236H126.453C126.25 242.236 126.053 242.261 125.863 242.304C124.989 242.399 124.466 242.721 123.989 243.005C123.071 243.605 122.336 244.361 121.563 245.294C120.426 246.689 119.306 248.475 118.423 250.501C117.549 252.527 116.901 254.791 116.895 257.171C116.894 258.568 117.13 260.015 117.732 261.398C117.997 262.019 118.342 262.616 118.758 263.179C119.738 264.507 121.118 265.644 122.826 266.437Z" fill="white"/>
<path d="M125 258.716H141.325L141.1 260.8C139 261.5 136.234 261.97 133.5 262C129.139 262.047 125 261.023 125 260.716C125 260.216 125 258.716 125 258.716Z" fill="#D03F4C" stroke="black" stroke-width="0.25"/>
<path d="M193.774 288.503C192.472 287.235 190.976 286.226 189.384 285.264C188.445 284.703 187.471 284.168 186.509 283.669C186.259 283.807 186.005 283.941 185.741 284.063C183.197 285.257 180.037 285.84 176.079 285.844H176.078C175.751 285.844 175.436 285.795 175.136 285.71C174.836 285.795 174.521 285.844 174.194 285.844H174.194C170.235 285.84 167.074 285.257 164.531 284.063C164.267 283.941 164.012 283.807 163.761 283.668C163.709 283.695 163.657 283.722 163.606 283.749C161.633 284.783 159.629 285.939 157.9 287.282C157.034 287.965 156.226 288.685 155.496 289.625C155.132 290.1 154.785 290.636 154.501 291.296C154.22 291.952 154.001 292.756 154 293.668C153.99 294.637 154.283 295.699 154.795 296.536C155.188 297.2 155.745 297.731 156.27 298.07C157.068 298.585 157.749 298.755 158.296 298.859C158.849 298.956 159.303 298.973 159.734 298.975C161.215 298.961 162.575 298.742 164.25 298.56C165.902 298.372 167.773 298.198 169.809 298.198C173.305 298.2 177.239 298.705 181.31 300.53C181.861 300.777 182.439 300.895 183.006 300.895C184.592 300.895 186.106 299.982 186.797 298.442C187.735 296.349 186.801 293.893 184.709 292.954C179.35 290.548 174.179 289.902 169.9 289.894C170.232 289.738 170.557 289.587 170.869 289.446C171.895 288.977 172.795 288.59 173.433 288.325C173.618 288.247 173.778 288.181 173.915 288.125H175.531H176.358C177.113 288.434 178.635 289.076 180.369 289.894C179.516 289.895 178.626 289.923 177.708 289.985C180.247 290.506 182.682 291.285 184.993 292.323C187.429 293.416 188.521 296.287 187.429 298.724C188.506 298.853 189.492 298.965 190.536 298.975C191.111 298.968 191.723 298.953 192.564 298.723C192.983 298.602 193.472 298.417 194 298.071C194.525 297.732 195.084 297.201 195.477 296.536C195.984 295.697 196.28 294.646 196.271 293.668C196.27 292.755 196.051 291.952 195.77 291.296C195.228 290.062 194.512 289.242 193.774 288.503Z" fill="white"/>
<path d="M164.328 299.248C164.21 299.261 164.098 299.274 163.984 299.287C164.776 300.309 165.997 300.894 167.265 300.894C167.834 300.894 168.411 300.777 168.963 300.529C170.381 299.893 171.782 299.42 173.154 299.07C172.071 298.954 170.96 298.89 169.808 298.889C167.761 298.89 165.889 299.071 164.328 299.248Z" fill="white"/>
<path d="M182.716 252.11C183.691 247.924 181.088 243.74 176.902 242.765C172.715 241.79 168.532 244.394 167.557 248.58C166.582 252.766 169.185 256.949 173.371 257.924C177.557 258.899 181.741 256.296 182.716 252.11Z" fill="white"/>
<path d="M164.826 283.437C167.222 284.563 170.221 285.126 174.006 285.148C173.166 284.516 172.618 283.514 172.618 282.385C172.618 281.251 173.168 280.246 174.013 279.615C169.675 279.596 167.22 278.68 166.03 277.729C165.413 277.242 165.058 276.752 164.807 276.186C164.717 275.979 164.648 275.754 164.59 275.519C164.489 275.112 164.43 274.667 164.43 274.171C164.407 272.353 165.231 269.984 166.316 268.065L167.151 277.637C168.263 278.244 170.353 278.924 174.145 278.924H174.193C174.52 278.924 174.836 278.973 175.137 279.058C175.437 278.973 175.752 278.924 176.08 278.924H176.127C179.92 278.924 182.009 278.243 183.122 277.637L183.957 268.066C185.042 269.985 185.867 272.353 185.842 274.171C185.842 274.667 185.784 275.112 185.683 275.519C185.624 275.754 185.556 275.98 185.465 276.186C185.214 276.753 184.86 277.243 184.243 277.73C183.036 278.693 180.532 279.624 176.078 279.617C174.55 279.617 173.311 280.856 173.311 282.385C173.311 283.913 174.55 285.152 176.078 285.152C179.954 285.149 183.011 284.582 185.447 283.437C187.155 282.644 188.535 281.507 189.515 280.179C189.93 279.615 190.275 279.019 190.54 278.398C191.142 277.015 191.378 275.568 191.378 274.171C191.371 271.791 190.724 269.527 189.849 267.501C188.967 265.475 187.847 263.689 186.71 262.294C185.937 261.361 185.202 260.605 184.284 260.005C183.807 259.721 183.284 259.399 182.41 259.304C182.22 259.261 182.023 259.236 181.82 259.236H168.453C168.25 259.236 168.053 259.261 167.863 259.304C166.989 259.399 166.466 259.721 165.989 260.005C165.071 260.605 164.336 261.361 163.563 262.294C162.426 263.689 161.306 265.475 160.423 267.501C159.549 269.527 158.901 271.791 158.895 274.171C158.894 275.568 159.13 277.015 159.732 278.398C159.997 279.019 160.342 279.616 160.758 280.179C161.738 281.507 163.118 282.644 164.826 283.437Z" fill="white"/>
<path d="M167 276H183.325L183.1 278.084C181 278.784 178.234 279.255 175.5 279.284C171.139 279.331 167 278.307 167 278C167 277.5 167 276 167 276Z" fill="#D03F4C" stroke="black" stroke-width="0.25"/>
<path d="M166.727 154V137.983C166.727 137.387 166.243 136.903 165.647 136.903V136.903C164.679 136.903 164.2 135.729 164.891 135.052L169.268 130.767C170.045 130.006 171.288 130.006 172.066 130.767L176.388 134.999C177.099 135.695 176.606 136.903 175.611 136.903V136.903C174.997 136.903 174.5 137.401 174.5 138.014V143.403C174.5 144.016 174.003 144.514 173.389 144.514V144.514C172.394 144.514 171.901 145.722 172.612 146.418L176.934 150.65C177.712 151.411 178.955 151.411 179.732 150.65L184.163 146.312C184.834 145.655 184.369 144.514 183.429 144.514V144.514C182.849 144.514 182.38 144.044 182.38 143.464V127" stroke="white" stroke-width="2"/>
<path d="M165.889 215V197.78C165.889 197.149 165.377 196.637 164.745 196.637V196.637C163.729 196.637 163.218 195.41 163.934 194.688L168.58 190.006C169.363 189.218 170.637 189.218 171.42 190.006L176.011 194.633C176.747 195.375 176.222 196.637 175.176 196.637V196.637C174.527 196.637 174 197.164 174 197.813V203.635C174 204.284 173.473 204.811 172.824 204.811V204.811C171.778 204.811 171.253 206.073 171.989 206.815L176.58 211.442C177.363 212.23 178.637 212.23 179.42 211.442L184.121 206.704C184.817 206.003 184.32 204.811 183.333 204.811V204.811C182.72 204.811 182.222 204.314 182.222 203.7V186" stroke="white" stroke-width="2"/>
<path d="M160.003 56.8877C160.036 56.8925 160.069 56.8961 160.102 56.9021C160.2 56.9195 160.297 56.9472 160.39 56.9844C160.764 57.1356 161.062 57.4446 161.2 57.8238C161.234 57.9174 161.259 58.0151 161.272 58.1141C161.285 58.2023 161.283 58.2251 161.286 58.3139V75.8064C161.283 75.8951 161.285 75.9179 161.272 76.0061C161.24 76.2377 161.15 76.4603 161.013 76.6493C160.915 76.7843 160.793 76.9019 160.654 76.9949C160.544 77.0699 160.423 77.1287 160.296 77.1701C159.977 77.2733 159.627 77.2613 159.316 77.1359C159.192 77.0855 159.075 77.0183 158.97 76.9361C158.812 76.8131 158.681 76.6565 158.587 76.4795C158.509 76.3325 158.457 76.1712 158.433 76.0061C158.421 75.9179 158.422 75.8951 158.419 75.8064V58.3139C158.422 58.2251 158.421 58.2023 158.433 58.1141C158.447 58.0151 158.472 57.9174 158.506 57.8238C158.655 57.4122 158.994 57.0857 159.41 56.9501C159.505 56.9195 159.603 56.8985 159.703 56.8877C159.792 56.8787 159.814 56.8811 159.903 56.8811C159.936 56.8835 159.969 56.8859 160.003 56.8877Z" fill="white"/>
<path fill-rule="evenodd" clip-rule="evenodd" d="M203 88.9074H197.638C197.604 89.1078 197.555 89.3052 197.492 89.499C197.395 89.7978 197.265 90.0852 197.106 90.3558C196.781 90.9084 196.327 91.3896 195.796 91.7466C195.492 91.95 195.165 92.1156 194.82 92.238C194.342 92.4072 193.836 92.487 193.329 92.4828C192.807 92.4786 192.286 92.3736 191.802 92.1834C191.315 91.9926 190.862 91.7106 190.477 91.3578C190.068 90.984 189.731 90.5352 189.49 90.036C189.318 89.6784 189.195 89.298 189.127 88.9074H164.108C164.058 89.1948 163.98 89.4768 163.872 89.7486C163.725 90.12 163.526 90.471 163.283 90.7884C163.011 91.1448 162.681 91.4574 162.313 91.7136C161.881 92.0148 161.392 92.235 160.88 92.3598C160.508 92.451 160.123 92.4918 159.74 92.4816C159.254 92.4684 158.772 92.3748 158.317 92.2014C157.813 92.0088 157.347 91.7226 156.948 91.3596C156.538 90.9864 156.201 90.5358 155.96 90.036C155.788 89.6784 155.665 89.298 155.597 88.9074H149V45H203V88.9074ZM191.172 89.1186C191.284 89.3808 191.446 89.6196 191.642 89.826C191.827 90.0216 192.048 90.1854 192.288 90.3084C192.498 90.4158 192.724 90.492 192.957 90.534C193.287 90.5928 193.63 90.5832 193.956 90.5034C194.418 90.3894 194.845 90.1368 195.164 89.7834C195.274 89.6622 195.374 89.5302 195.456 89.3886C195.507 89.3034 195.551 89.2152 195.592 89.1252L195.594 89.1186C194.121 89.1186 192.646 89.1186 191.172 89.1186ZM157.642 89.1186C157.753 89.379 157.915 89.619 158.11 89.8236C158.311 90.0348 158.549 90.2082 158.811 90.3354C159.024 90.438 159.252 90.5082 159.486 90.5436C159.708 90.5778 159.936 90.5808 160.16 90.552C160.395 90.522 160.626 90.4572 160.843 90.3594C161.203 90.1962 161.524 89.9418 161.764 89.6274C161.883 89.472 161.982 89.304 162.061 89.1252L162.064 89.1186C160.59 89.1186 159.116 89.1186 157.642 89.1186ZM200.133 47.8668H151.867V86.04H200.133V47.8668Z" fill="white"/>
<path fill-rule="evenodd" clip-rule="evenodd" d="M197.702 58.7622C197.808 58.7634 197.913 58.7646 198.019 58.7664C198.079 58.7694 198.139 58.7742 198.2 58.7838C198.349 58.8078 198.495 58.8558 198.63 58.9254C198.792 59.0088 198.937 59.1228 199.057 59.2608C199.166 59.3868 199.253 59.532 199.312 59.688C199.361 59.8152 199.392 59.9496 199.402 60.0858C199.434 60.4818 199.296 60.8808 199.026 61.1724C198.924 61.2834 198.803 61.3782 198.67 61.452C198.525 61.5336 198.364 61.5888 198.2 61.6152C198.139 61.6248 198.079 61.6296 198.019 61.6326C197.913 61.6338 197.808 61.6356 197.702 61.6368V72.4836C197.808 72.4848 197.913 72.4866 198.019 72.4878C198.079 72.4908 198.139 72.4956 198.2 72.5052C198.349 72.5292 198.495 72.5772 198.63 72.6468C198.792 72.7302 198.937 72.8448 199.057 72.9822C199.166 73.1082 199.253 73.2534 199.312 73.4094C199.454 73.7802 199.434 74.202 199.258 74.5578C199.197 74.6802 199.119 74.7936 199.026 74.8938C198.924 75.0054 198.803 75.1002 198.67 75.174C198.525 75.255 198.364 75.3102 198.2 75.3366C198.139 75.3462 198.079 75.351 198.019 75.354C197.913 75.3558 197.808 75.357 197.702 75.3582V83.7204H154.188V50.187H197.702V58.7622ZM195.791 58.7526V52.0986H156.098V81.8088H195.791V75.36C195.307 75.3576 194.823 75.3546 194.339 75.3546C194.278 75.3534 194.218 75.351 194.157 75.3432C193.992 75.3222 193.83 75.2718 193.682 75.195C193.547 75.126 193.423 75.0348 193.317 74.9268C193.221 74.8296 193.14 74.7186 193.075 74.598C192.88 74.2344 192.852 73.7946 193 73.4094C193.059 73.2534 193.146 73.1082 193.255 72.9822C193.375 72.8448 193.52 72.7302 193.682 72.6468C193.817 72.5772 193.963 72.5292 194.112 72.5052C194.172 72.4956 194.233 72.4908 194.293 72.4878C194.793 72.48 195.292 72.4752 195.791 72.474V61.6386C195.307 61.6362 194.823 61.6332 194.339 61.6332C194.278 61.632 194.218 61.629 194.157 61.6218C194.007 61.6026 193.86 61.5588 193.723 61.494C193.558 61.4154 193.409 61.3062 193.286 61.1724C193.173 61.0494 193.081 60.9072 193.016 60.7536C192.857 60.3726 192.871 59.9328 193.054 59.5626C193.115 59.4402 193.193 59.3268 193.286 59.2266C193.389 59.115 193.509 59.0202 193.642 58.9464C193.788 58.8654 193.948 58.8102 194.112 58.7838C194.172 58.7742 194.233 58.7694 194.293 58.7664C194.793 58.7586 195.292 58.7538 195.791 58.7526Z" fill="white"/>
<path d="M183.572 66.8639C183.436 66.4873 183.248 66.1499 183.013 65.8598C182.769 65.5578 182.461 65.3151 182.099 65.1386C181.745 64.9659 181.332 64.8616 180.871 64.8282C180.844 64.8263 180.817 64.8247 180.789 64.8232C181.031 64.5227 181.211 64.2083 181.328 63.888C181.455 63.5386 181.515 63.1827 181.507 62.8305C181.498 62.4854 181.433 62.1422 181.313 61.8104C181.161 61.3936 180.933 61.0294 180.635 60.7277C180.326 60.415 179.926 60.1896 179.445 60.0579C178.989 59.9331 178.444 59.9026 177.825 59.9681C177.228 60.0315 176.53 60.207 175.751 60.4895L175.117 60.72L174.326 58.5415L173.207 58.9481L173.998 61.1264L172.58 61.6413L171.789 59.463L170.67 59.8693L171.461 62.0476L168.2 63.232L168.739 64.7161L170.212 64.1816L173.343 72.8048L171.871 73.3393L172.41 74.8238L175.67 73.6396L176.469 75.8384L177.588 75.4321L176.79 73.2333L178.207 72.7184L179.006 74.9171L180.125 74.5108L179.326 72.312L180.145 72.0148C180.997 71.7057 181.689 71.3496 182.204 70.9566C182.731 70.5541 183.129 70.1202 183.387 69.6669C183.653 69.1994 183.792 68.714 183.8 68.2238C183.807 67.7568 183.731 67.2993 183.572 66.8639ZM173.766 66.7019L172.543 63.3349L176.195 62.0088C176.686 61.8304 177.098 61.722 177.42 61.687C177.702 61.6563 177.932 61.6749 178.104 61.7428C178.264 61.8056 178.393 61.9076 178.498 62.0552C178.631 62.242 178.752 62.4847 178.858 62.7764C178.997 63.1601 179.07 63.4935 179.072 63.7672C179.074 64.0008 179.015 64.2042 178.892 64.3883C178.757 64.5913 178.533 64.7854 178.226 64.9654C177.929 65.1403 175.011 66.2494 174.186 66.5488L173.766 66.7019ZM181.19 69.4888C181.083 69.6824 180.9 69.8636 180.647 70.0282C180.357 70.2159 179.967 70.3995 179.488 70.5734L175.674 71.9584L174.304 68.1867L175.013 67.9295C176 67.571 178.9 66.5807 179.243 66.5319C179.609 66.4819 179.911 66.4959 180.14 66.5733C180.349 66.6443 180.515 66.7653 180.647 66.9427C180.809 67.1607 180.956 67.4524 181.086 67.809C181.231 68.2091 181.311 68.5568 181.326 68.8433C181.337 69.0905 181.293 69.302 181.19 69.4888Z" fill="white"/>
</svg>
