<svg width="348" height="348" viewBox="0 0 348 348" fill="none" xmlns="http://www.w3.org/2000/svg">
<path d="M158.28 129.825H173.605V138.192H170.721C170.452 138.192 170.206 138.347 170.094 138.592C169.981 138.836 170.021 139.122 170.196 139.326L174.461 144.306C174.592 144.459 174.784 144.549 174.986 144.549C175.188 144.549 175.38 144.46 175.511 144.306L179.776 139.326C179.95 139.122 179.99 138.836 179.878 138.592C179.765 138.347 179.52 138.192 179.251 138.192H176.367V129.825H190.726C190.735 129.825 190.744 129.824 190.753 129.825C192.278 129.825 193.516 128.592 193.516 127.072C193.516 126.615 193.404 126.184 193.206 125.806L190.709 118.744V106.753C190.709 105.233 189.472 104 187.947 104H161.059C159.534 104 158.296 105.233 158.296 106.753V118.744L155.675 126.157C155.376 126.999 155.508 127.934 156.026 128.662C156.544 129.393 157.383 129.825 158.28 129.825ZM174.986 142.8L172.218 139.568H177.755L174.986 142.8ZM158.116 127.557C158.116 127.557 160.45 119.979 160.469 119.903H188.537C188.557 119.979 190.891 127.557 190.891 127.557H158.116ZM188.439 106.268V118.527H160.567V106.268H188.439ZM116.762 129.825H131.604V136.859C131.604 137.457 131.989 137.984 132.558 138.168L154.702 145.33L153.877 148.07C153.799 148.327 153.872 148.612 154.081 148.784C154.346 149.002 154.748 148.929 154.817 148.898L160.831 146.26C161.016 146.177 161.155 146.02 161.213 145.827C161.271 145.635 161.242 145.427 161.132 145.257L157.575 139.753C157.43 139.527 157.165 139.413 156.898 139.443C156.632 139.48 156.411 139.669 156.334 139.928L155.499 142.694L134.366 135.86V129.825H149.208C149.216 129.825 149.226 129.824 149.236 129.825C150.761 129.825 151.998 128.592 151.998 127.072C151.998 126.615 151.886 126.184 151.689 125.806L149.192 118.744V106.753C149.192 105.233 147.954 104 146.429 104H119.541C118.016 104 116.779 105.233 116.779 106.753V118.744L114.157 126.157C113.859 126.999 113.99 127.934 114.508 128.662C115.026 129.393 115.866 129.825 116.762 129.825ZM157.226 141.753L159.534 145.325L155.631 147.037L157.226 141.753ZM116.599 127.557C116.599 127.557 118.933 119.979 118.952 119.903H147.02C147.039 119.979 149.373 127.557 149.373 127.557H116.599ZM146.922 106.268V118.527H119.05V106.268H146.922ZM116.762 176.413H149.208C149.216 176.411 149.226 176.411 149.236 176.413C150.761 176.413 151.998 175.179 151.998 173.66C151.998 173.202 151.886 172.772 151.689 172.393L149.192 165.33V163.095H154.713V165.523C154.713 165.791 154.87 166.035 155.115 166.148C155.208 166.19 155.307 166.211 155.404 166.211C155.566 166.211 155.724 166.155 155.853 166.046L160.85 161.794C161.003 161.663 161.092 161.473 161.092 161.271C161.092 161.068 161.003 160.878 160.85 160.748L155.853 156.497C155.649 156.322 155.361 156.281 155.115 156.395C154.871 156.508 154.713 156.752 154.713 157.02V159.857H149.192V153.339C149.192 151.819 147.954 150.586 146.429 150.586H119.541C118.016 150.586 116.779 151.819 116.779 153.339V165.33L114.157 172.744C113.859 173.587 113.99 174.521 114.508 175.249C115.026 175.979 115.866 176.413 116.762 176.413ZM156.095 158.512L159.338 161.271L156.095 164.031V158.512ZM116.597 174.145C116.597 174.145 118.931 166.565 118.952 166.489H147.02C147.039 166.565 149.374 174.145 149.374 174.145H116.597ZM146.922 152.854V165.113H119.05V152.854H146.922ZM233.193 165.33V153.339C233.193 151.819 231.956 150.586 230.431 150.586H203.541C202.017 150.586 200.779 151.819 200.779 153.339V159.894H195.255V156.897C195.255 156.629 195.098 156.385 194.853 156.273C194.61 156.16 194.32 156.201 194.115 156.374L189.118 160.626C188.965 160.757 188.876 160.947 188.876 161.15C188.876 161.352 188.965 161.542 189.118 161.673L194.115 165.923C194.242 166.032 194.402 166.089 194.564 166.089C194.662 166.089 194.761 166.068 194.853 166.025C195.097 165.912 195.255 165.669 195.255 165.4V162.647H200.779V165.33L198.158 172.744C197.859 173.587 197.991 174.521 198.509 175.249C199.026 175.979 199.866 176.413 200.763 176.413H233.209C233.218 176.411 233.227 176.411 233.236 176.413C234.761 176.413 235.999 175.179 235.999 173.66C235.999 173.202 235.887 172.772 235.689 172.393L233.193 165.33ZM193.873 163.908L190.63 161.15L193.873 158.39V163.908ZM230.922 152.854V165.113H203.05V152.854H230.922ZM200.599 174.145C200.599 174.145 202.933 166.565 202.954 166.489H231.022C231.041 166.565 233.376 174.145 233.376 174.145H200.599ZM190.711 211.916V199.927C190.711 198.407 189.473 197.173 187.948 197.173H176.367V190.734H179.251C179.261 190.734 179.269 190.734 179.279 190.734C179.66 190.734 179.969 190.426 179.969 190.046C179.969 189.815 179.855 189.609 179.678 189.484L175.511 184.621C175.249 184.314 174.724 184.314 174.46 184.621L170.195 189.6C170.021 189.802 169.981 190.09 170.093 190.333C170.206 190.578 170.45 190.734 170.72 190.734H173.604V197.173H161.057C159.532 197.173 158.295 198.407 158.295 199.927V211.916L155.673 219.33C155.375 220.173 155.506 221.107 156.024 221.835C156.542 222.565 157.382 222.999 158.278 222.999H190.724C190.734 222.997 190.742 222.997 190.752 222.999C192.277 222.999 193.514 221.765 193.514 220.246C193.514 219.789 193.402 219.358 193.205 218.979L190.711 211.916ZM174.986 186.127L177.754 189.358H172.218L174.986 186.127ZM188.439 199.442V211.699H160.567V199.442H188.439ZM158.115 220.731C158.115 220.731 160.449 213.151 160.469 213.075H188.537C188.557 213.151 190.891 220.731 190.891 220.731H158.115ZM149.193 211.916V199.927C149.193 198.407 147.955 197.173 146.431 197.173H134.366V193.622L155.499 186.788L156.334 189.554C156.411 189.813 156.632 190 156.898 190.039C157.267 190.084 157.452 189.921 157.575 189.729L161.132 184.224C161.241 184.055 161.271 183.847 161.213 183.655C161.155 183.46 161.014 183.304 160.831 183.222L154.817 180.583C154.571 180.477 154.284 180.52 154.081 180.698C153.879 180.877 153.799 181.155 153.877 181.412L154.702 184.151L132.558 191.314C131.989 191.498 131.604 192.027 131.604 192.623V197.175H119.541C118.016 197.175 116.779 198.408 116.779 199.928V211.918L114.157 219.332C113.859 220.174 113.99 221.109 114.508 221.837C115.026 222.566 115.866 223 116.762 223H149.208C149.216 222.999 149.226 222.999 149.236 223C150.761 223 151.998 221.767 151.998 220.247C151.998 219.79 151.886 219.359 151.689 218.981L149.193 211.916ZM159.535 184.157L157.227 187.729L155.633 182.445L159.535 184.157ZM146.922 199.442V211.699H119.05V199.442H146.922ZM116.597 220.731C116.597 220.731 118.931 213.151 118.952 213.075H147.02C147.039 213.151 149.374 220.731 149.374 220.731H116.597ZM233.193 211.916V199.927C233.193 198.407 231.956 197.173 230.431 197.173H218.368V192.621C218.368 192.024 217.983 191.497 217.414 191.312L195.27 184.15L196.096 181.411C196.173 181.153 196.094 180.875 195.891 180.696C195.69 180.519 195.404 180.476 195.155 180.582L189.142 183.221C188.956 183.304 188.817 183.46 188.759 183.653C188.701 183.846 188.73 184.054 188.84 184.223L192.397 189.728C192.633 190.083 193.042 190.042 193.074 190.038C193.342 190.002 193.561 189.812 193.639 189.553L194.473 186.786L215.606 193.622V197.173H203.543C202.018 197.173 200.781 198.407 200.781 199.927V211.916L198.159 219.33C197.861 220.173 197.992 221.107 198.51 221.835C199.028 222.565 199.868 222.999 200.764 222.999H233.21C233.22 222.997 233.228 222.997 233.238 222.999C234.762 222.999 236 221.765 236 220.246C236 219.789 235.888 219.358 235.691 218.979L233.193 211.916ZM192.746 187.729L190.438 184.157L194.342 182.445L192.746 187.729ZM230.922 199.442V211.699H203.05V199.442H230.922ZM200.599 220.731C200.599 220.731 202.933 213.151 202.954 213.075H231.022C231.041 213.151 233.376 220.731 233.376 220.731H200.599ZM186.726 144.582H163.246C162.101 144.582 161.175 145.507 161.175 146.646V182.246C161.175 183.386 162.101 184.311 163.246 184.311H186.726C187.871 184.311 188.798 183.386 188.798 182.246V146.646C188.798 145.507 187.871 144.582 186.726 144.582ZM186.281 181.801H163.691V147.092H186.281V181.801ZM167.62 152.553C167.62 152.173 167.93 151.865 168.311 151.865H181.663C182.044 151.865 182.353 152.173 182.353 152.553C182.353 152.933 182.044 153.241 181.663 153.241H168.311C167.928 153.241 167.62 152.933 167.62 152.553ZM167.62 156.913C167.62 156.533 167.93 156.224 168.311 156.224H181.663C182.044 156.224 182.353 156.533 182.353 156.913C182.353 157.293 182.044 157.601 181.663 157.601H168.311C167.928 157.601 167.62 157.293 167.62 156.913ZM167.62 161.271C167.62 160.891 167.93 160.582 168.311 160.582H181.663C182.044 160.582 182.353 160.891 182.353 161.271C182.353 161.651 182.044 161.959 181.663 161.959H174.987H168.311C167.928 161.959 167.62 161.651 167.62 161.271ZM194.473 142.694L193.639 139.928C193.561 139.669 193.34 139.482 193.074 139.443C192.806 139.411 192.542 139.527 192.397 139.753L188.84 145.257C188.731 145.427 188.701 145.635 188.759 145.827C188.817 146.021 188.958 146.178 189.142 146.26L195.155 148.898C195.245 148.937 195.654 149.002 195.891 148.784C196.09 148.602 196.173 148.327 196.096 148.07L195.27 145.33L217.414 138.168C217.983 137.984 218.368 137.455 218.368 136.859V129.825H233.21C233.22 129.825 233.228 129.824 233.238 129.825C234.762 129.825 236 128.592 236 127.072C236 126.615 235.888 126.184 235.691 125.806L233.193 118.744V106.753C233.193 105.233 231.956 104 230.431 104H203.541C202.017 104 200.779 105.233 200.779 106.753V118.744L198.158 126.157C197.859 126.999 197.991 127.934 198.509 128.662C199.026 129.392 199.866 129.825 200.763 129.825H215.606V135.86L194.473 142.694ZM190.438 145.325L192.746 141.753L194.34 147.037L190.438 145.325ZM230.922 106.268V118.527H203.05V106.268H230.922ZM202.952 119.903H231.02C231.04 119.979 233.374 127.557 233.374 127.557H200.599C200.599 127.557 202.933 119.979 202.952 119.903Z" fill="white"/>
<path d="M168.087 152.572H181.913" stroke="#D03F4C" stroke-width="2" stroke-linecap="round" stroke-linejoin="round"/>
<path d="M168.087 157.024H181.913" stroke="#D03F4C" stroke-width="2" stroke-linecap="round" stroke-linejoin="round"/>
<path d="M168.087 161.233H181.913" stroke="#D03F4C" stroke-width="2" stroke-linecap="round" stroke-linejoin="round"/>
<ellipse cx="175" cy="168.762" rx="3.25333" ry="3.2381" fill="#D03F4C"/>
<ellipse cx="175" cy="176.048" rx="1.62667" ry="1.61905" fill="#D03F4C"/>
<path d="M68.9366 263.936H65.0846L64.3166 266H63.4166L66.5366 257.732H67.4846L70.6046 266H69.6926L68.9366 263.936ZM68.6846 263.264L67.0166 258.704L65.3246 263.264H68.6846ZM75.0513 259.328C75.8113 259.328 76.4273 259.572 76.8993 260.06C77.3793 260.54 77.6193 261.248 77.6193 262.184V266H76.7913V262.244C76.7913 261.532 76.6113 260.988 76.2513 260.612C75.8913 260.228 75.3993 260.036 74.7753 260.036C74.1193 260.036 73.5953 260.248 73.2033 260.672C72.8193 261.088 72.6273 261.704 72.6273 262.52V266H71.7753V259.448H72.6273V261.056C72.7953 260.496 73.0993 260.068 73.5393 259.772C73.9793 259.476 74.4833 259.328 75.0513 259.328ZM82.1525 259.364C82.8165 259.364 83.3805 259.536 83.8445 259.88C84.3165 260.224 84.6405 260.68 84.8165 261.248V259.448H85.6445V266H84.8165V264.2C84.6405 264.768 84.3165 265.224 83.8445 265.568C83.3805 265.912 82.8165 266.084 82.1525 266.084C81.5605 266.084 81.0285 265.948 80.5565 265.676C80.0925 265.404 79.7285 265.016 79.4645 264.512C79.2085 264 79.0805 263.404 79.0805 262.724C79.0805 262.036 79.2085 261.44 79.4645 260.936C79.7285 260.424 80.0925 260.036 80.5565 259.772C81.0205 259.5 81.5525 259.364 82.1525 259.364ZM82.3685 260.108C81.6325 260.108 81.0405 260.344 80.5925 260.816C80.1525 261.28 79.9325 261.916 79.9325 262.724C79.9325 263.532 80.1525 264.172 80.5925 264.644C81.0405 265.108 81.6325 265.34 82.3685 265.34C82.8325 265.34 83.2485 265.232 83.6165 265.016C83.9925 264.8 84.2845 264.496 84.4925 264.104C84.7085 263.704 84.8165 263.244 84.8165 262.724C84.8165 262.204 84.7085 261.748 84.4925 261.356C84.2845 260.956 83.9925 260.648 83.6165 260.432C83.2485 260.216 82.8325 260.108 82.3685 260.108ZM88.3187 257.12V266H87.4667V257.12H88.3187ZM90.3186 259.448L92.5986 264.908L94.6986 259.448H95.6346L91.7826 269.096H90.8226L92.1426 265.928L89.3826 259.448H90.3186ZM97.0371 265.28H100.673V266H96.1251V265.316L99.6051 260.156H96.2211V259.448H100.553V260.132L97.0371 265.28ZM104.772 265.388C105.364 265.388 105.86 265.24 106.26 264.944C106.66 264.648 106.9 264.248 106.98 263.744H107.868C107.748 264.44 107.416 265.004 106.872 265.436C106.328 265.868 105.64 266.084 104.808 266.084C104.184 266.084 103.628 265.952 103.14 265.688C102.66 265.416 102.284 265.028 102.012 264.524C101.74 264.012 101.604 263.412 101.604 262.724C101.604 262.036 101.74 261.44 102.012 260.936C102.284 260.424 102.66 260.036 103.14 259.772C103.628 259.5 104.184 259.364 104.808 259.364C105.448 259.364 106 259.5 106.464 259.772C106.936 260.036 107.292 260.392 107.532 260.84C107.78 261.288 107.904 261.776 107.904 262.304C107.904 262.528 107.888 262.732 107.856 262.916H102.432C102.44 263.468 102.552 263.932 102.768 264.308C102.992 264.676 103.28 264.948 103.632 265.124C103.984 265.3 104.364 265.388 104.772 265.388ZM104.808 260.048C104.384 260.048 103.996 260.136 103.644 260.312C103.292 260.488 103.004 260.76 102.78 261.128C102.564 261.488 102.448 261.94 102.432 262.484H107.064C107.096 261.948 107.008 261.496 106.8 261.128C106.592 260.76 106.312 260.488 105.96 260.312C105.608 260.136 105.224 260.048 104.808 260.048ZM115.509 265.256V266H114.729C114.097 266 113.625 265.852 113.313 265.556C113.001 265.252 112.845 264.744 112.845 264.032V260.18H111.849V259.448H112.845V257.792H113.697V259.448H115.497V260.18H113.697V264.044C113.697 264.508 113.781 264.828 113.949 265.004C114.117 265.172 114.413 265.256 114.837 265.256H115.509ZM120.168 259.328C120.928 259.328 121.544 259.572 122.016 260.06C122.496 260.54 122.736 261.248 122.736 262.184V266H121.908V262.244C121.908 261.532 121.728 260.988 121.368 260.612C121.008 260.228 120.516 260.036 119.892 260.036C119.236 260.036 118.712 260.248 118.32 260.672C117.936 261.088 117.744 261.704 117.744 262.52V266H116.892V257.12H117.744V261.056C117.912 260.496 118.216 260.068 118.656 259.772C119.096 259.476 119.6 259.328 120.168 259.328ZM127.366 265.388C127.958 265.388 128.454 265.24 128.854 264.944C129.254 264.648 129.494 264.248 129.574 263.744H130.462C130.342 264.44 130.01 265.004 129.466 265.436C128.922 265.868 128.234 266.084 127.402 266.084C126.778 266.084 126.222 265.952 125.734 265.688C125.254 265.416 124.878 265.028 124.606 264.524C124.334 264.012 124.198 263.412 124.198 262.724C124.198 262.036 124.334 261.44 124.606 260.936C124.878 260.424 125.254 260.036 125.734 259.772C126.222 259.5 126.778 259.364 127.402 259.364C128.042 259.364 128.594 259.5 129.058 259.772C129.53 260.036 129.886 260.392 130.126 260.84C130.374 261.288 130.498 261.776 130.498 262.304C130.498 262.528 130.482 262.732 130.45 262.916H125.026C125.034 263.468 125.146 263.932 125.362 264.308C125.586 264.676 125.874 264.948 126.226 265.124C126.578 265.3 126.958 265.388 127.366 265.388ZM127.402 260.048C126.978 260.048 126.59 260.136 126.238 260.312C125.886 260.488 125.598 260.76 125.374 261.128C125.158 261.488 125.042 261.94 125.026 262.484H129.658C129.69 261.948 129.602 261.496 129.394 261.128C129.186 260.76 128.906 260.488 128.554 260.312C128.202 260.136 127.818 260.048 127.402 260.048ZM138.019 259.364C138.851 259.364 139.539 259.584 140.083 260.024C140.635 260.464 140.971 261.048 141.091 261.776H140.215C140.127 261.256 139.883 260.848 139.483 260.552C139.083 260.248 138.591 260.096 138.007 260.096C137.583 260.096 137.191 260.192 136.831 260.384C136.479 260.576 136.195 260.872 135.979 261.272C135.771 261.664 135.667 262.148 135.667 262.724C135.667 263.3 135.771 263.788 135.979 264.188C136.195 264.58 136.479 264.872 136.831 265.064C137.191 265.256 137.583 265.352 138.007 265.352C138.591 265.352 139.083 265.204 139.483 264.908C139.883 264.604 140.127 264.192 140.215 263.672H141.091C140.971 264.4 140.635 264.984 140.083 265.424C139.539 265.864 138.851 266.084 138.019 266.084C137.395 266.084 136.839 265.952 136.351 265.688C135.871 265.416 135.495 265.028 135.223 264.524C134.951 264.012 134.815 263.412 134.815 262.724C134.815 262.036 134.951 261.44 135.223 260.936C135.495 260.424 135.871 260.036 136.351 259.772C136.839 259.5 137.395 259.364 138.019 259.364ZM145.567 259.364C146.191 259.364 146.747 259.5 147.235 259.772C147.731 260.036 148.119 260.424 148.399 260.936C148.679 261.44 148.819 262.036 148.819 262.724C148.819 263.412 148.679 264.008 148.399 264.512C148.119 265.016 147.731 265.404 147.235 265.676C146.747 265.948 146.191 266.084 145.567 266.084C144.943 266.084 144.383 265.948 143.887 265.676C143.391 265.404 142.999 265.016 142.711 264.512C142.431 264 142.291 263.404 142.291 262.724C142.291 262.036 142.431 261.44 142.711 260.936C142.999 260.424 143.391 260.036 143.887 259.772C144.383 259.5 144.943 259.364 145.567 259.364ZM145.567 260.096C145.135 260.096 144.735 260.192 144.367 260.384C143.999 260.576 143.703 260.872 143.479 261.272C143.255 261.664 143.143 262.148 143.143 262.724C143.143 263.3 143.255 263.784 143.479 264.176C143.703 264.568 143.999 264.86 144.367 265.052C144.735 265.244 145.135 265.34 145.567 265.34C145.991 265.34 146.383 265.244 146.743 265.052C147.111 264.86 147.407 264.568 147.631 264.176C147.855 263.784 147.967 263.3 147.967 262.724C147.967 262.148 147.855 261.664 147.631 261.272C147.407 260.872 147.111 260.576 146.743 260.384C146.383 260.192 145.991 260.096 145.567 260.096ZM155.978 259.448V266H155.138V264.38C154.97 264.948 154.666 265.38 154.226 265.676C153.786 265.972 153.282 266.12 152.714 266.12C151.946 266.12 151.322 265.88 150.842 265.4C150.37 264.912 150.134 264.2 150.134 263.264V259.448H150.974V263.192C150.974 263.912 151.154 264.464 151.514 264.848C151.874 265.224 152.366 265.412 152.99 265.412C153.646 265.412 154.166 265.204 154.55 264.788C154.942 264.364 155.138 263.744 155.138 262.928V259.448H155.978ZM158.666 260.804C158.858 260.332 159.166 259.968 159.59 259.712C160.014 259.456 160.53 259.328 161.138 259.328V260.24H160.862C160.23 260.24 159.706 260.412 159.29 260.756C158.874 261.092 158.666 261.644 158.666 262.412V266H157.814V259.448H158.666V260.804ZM164.236 259.364C164.948 259.364 165.52 259.552 165.952 259.928C166.384 260.304 166.648 260.812 166.744 261.452H165.94C165.892 261.028 165.716 260.68 165.412 260.408C165.116 260.128 164.716 259.988 164.212 259.988C163.78 259.988 163.44 260.096 163.192 260.312C162.952 260.52 162.832 260.8 162.832 261.152C162.832 261.416 162.908 261.628 163.06 261.788C163.22 261.948 163.416 262.072 163.648 262.16C163.88 262.24 164.192 262.324 164.584 262.412C165.064 262.524 165.448 262.64 165.736 262.76C166.032 262.872 166.284 263.052 166.492 263.3C166.7 263.548 166.804 263.884 166.804 264.308C166.804 264.828 166.608 265.256 166.216 265.592C165.832 265.92 165.32 266.084 164.68 266.084C163.928 266.084 163.312 265.9 162.832 265.532C162.352 265.156 162.068 264.644 161.98 263.996H162.796C162.844 264.428 163.032 264.78 163.36 265.052C163.688 265.324 164.132 265.46 164.692 265.46C165.108 265.46 165.432 265.352 165.664 265.136C165.896 264.92 166.012 264.64 166.012 264.296C166.012 264.016 165.932 263.792 165.772 263.624C165.612 263.456 165.412 263.332 165.172 263.252C164.94 263.164 164.62 263.072 164.212 262.976C163.74 262.864 163.36 262.752 163.072 262.64C162.792 262.528 162.552 262.356 162.352 262.124C162.152 261.884 162.052 261.56 162.052 261.152C162.052 260.616 162.248 260.184 162.64 259.856C163.032 259.528 163.564 259.364 164.236 259.364ZM171.194 265.388C171.786 265.388 172.282 265.24 172.682 264.944C173.082 264.648 173.322 264.248 173.402 263.744H174.29C174.17 264.44 173.838 265.004 173.294 265.436C172.75 265.868 172.062 266.084 171.23 266.084C170.606 266.084 170.05 265.952 169.562 265.688C169.082 265.416 168.706 265.028 168.434 264.524C168.162 264.012 168.026 263.412 168.026 262.724C168.026 262.036 168.162 261.44 168.434 260.936C168.706 260.424 169.082 260.036 169.562 259.772C170.05 259.5 170.606 259.364 171.23 259.364C171.87 259.364 172.422 259.5 172.886 259.772C173.358 260.036 173.714 260.392 173.954 260.84C174.202 261.288 174.326 261.776 174.326 262.304C174.326 262.528 174.31 262.732 174.278 262.916H168.854C168.862 263.468 168.974 263.932 169.19 264.308C169.414 264.676 169.702 264.948 170.054 265.124C170.406 265.3 170.786 265.388 171.194 265.388ZM171.23 260.048C170.806 260.048 170.418 260.136 170.066 260.312C169.714 260.488 169.426 260.76 169.202 261.128C168.986 261.488 168.87 261.94 168.854 262.484H173.486C173.518 261.948 173.43 261.496 173.222 261.128C173.014 260.76 172.734 260.488 172.382 260.312C172.03 260.136 171.646 260.048 171.23 260.048ZM181.715 259.364C182.379 259.364 182.943 259.536 183.407 259.88C183.879 260.224 184.203 260.68 184.379 261.248V259.448H185.207V266H184.379V264.2C184.203 264.768 183.879 265.224 183.407 265.568C182.943 265.912 182.379 266.084 181.715 266.084C181.123 266.084 180.591 265.948 180.119 265.676C179.655 265.404 179.291 265.016 179.027 264.512C178.771 264 178.643 263.404 178.643 262.724C178.643 262.036 178.771 261.44 179.027 260.936C179.291 260.424 179.655 260.036 180.119 259.772C180.583 259.5 181.115 259.364 181.715 259.364ZM181.931 260.108C181.195 260.108 180.603 260.344 180.155 260.816C179.715 261.28 179.495 261.916 179.495 262.724C179.495 263.532 179.715 264.172 180.155 264.644C180.603 265.108 181.195 265.34 181.931 265.34C182.395 265.34 182.811 265.232 183.179 265.016C183.555 264.8 183.847 264.496 184.055 264.104C184.271 263.704 184.379 263.244 184.379 262.724C184.379 262.204 184.271 261.748 184.055 261.356C183.847 260.956 183.555 260.648 183.179 260.432C182.811 260.216 182.395 260.108 181.931 260.108ZM190.305 259.328C191.065 259.328 191.681 259.572 192.153 260.06C192.633 260.54 192.873 261.248 192.873 262.184V266H192.045V262.244C192.045 261.532 191.865 260.988 191.505 260.612C191.145 260.228 190.653 260.036 190.029 260.036C189.373 260.036 188.849 260.248 188.457 260.672C188.073 261.088 187.881 261.704 187.881 262.52V266H187.029V259.448H187.881V261.056C188.049 260.496 188.353 260.068 188.793 259.772C189.233 259.476 189.737 259.328 190.305 259.328ZM197.406 259.364C198.07 259.364 198.634 259.536 199.098 259.88C199.57 260.224 199.89 260.68 200.058 261.248V257.12H200.898V266H200.058V264.2C199.89 264.768 199.57 265.224 199.098 265.568C198.634 265.912 198.07 266.084 197.406 266.084C196.814 266.084 196.282 265.948 195.81 265.676C195.346 265.404 194.982 265.016 194.718 264.512C194.462 264 194.334 263.404 194.334 262.724C194.334 262.036 194.462 261.44 194.718 260.936C194.982 260.424 195.346 260.036 195.81 259.772C196.274 259.5 196.806 259.364 197.406 259.364ZM197.622 260.108C196.886 260.108 196.294 260.344 195.846 260.816C195.406 261.28 195.186 261.916 195.186 262.724C195.186 263.532 195.406 264.172 195.846 264.644C196.294 265.108 196.886 265.34 197.622 265.34C198.086 265.34 198.502 265.232 198.87 265.016C199.246 264.8 199.538 264.496 199.746 264.104C199.962 263.704 200.07 263.244 200.07 262.724C200.07 262.204 199.962 261.748 199.746 261.356C199.538 260.956 199.246 260.648 198.87 260.432C198.502 260.216 198.086 260.108 197.622 260.108ZM208.73 259.364C209.562 259.364 210.25 259.584 210.794 260.024C211.346 260.464 211.682 261.048 211.802 261.776H210.926C210.838 261.256 210.594 260.848 210.194 260.552C209.794 260.248 209.302 260.096 208.718 260.096C208.294 260.096 207.902 260.192 207.542 260.384C207.19 260.576 206.906 260.872 206.69 261.272C206.482 261.664 206.378 262.148 206.378 262.724C206.378 263.3 206.482 263.788 206.69 264.188C206.906 264.58 207.19 264.872 207.542 265.064C207.902 265.256 208.294 265.352 208.718 265.352C209.302 265.352 209.794 265.204 210.194 264.908C210.594 264.604 210.838 264.192 210.926 263.672H211.802C211.682 264.4 211.346 264.984 210.794 265.424C210.25 265.864 209.562 266.084 208.73 266.084C208.106 266.084 207.55 265.952 207.062 265.688C206.582 265.416 206.206 265.028 205.934 264.524C205.662 264.012 205.526 263.412 205.526 262.724C205.526 262.036 205.662 261.44 205.934 260.936C206.206 260.424 206.582 260.036 207.062 259.772C207.55 259.5 208.106 259.364 208.73 259.364ZM216.59 259.328C217.35 259.328 217.966 259.572 218.438 260.06C218.918 260.54 219.158 261.248 219.158 262.184V266H218.33V262.244C218.33 261.532 218.15 260.988 217.79 260.612C217.43 260.228 216.938 260.036 216.314 260.036C215.658 260.036 215.134 260.248 214.742 260.672C214.358 261.088 214.166 261.704 214.166 262.52V266H213.314V257.12H214.166V261.056C214.334 260.496 214.638 260.068 215.078 259.772C215.518 259.476 216.022 259.328 216.59 259.328ZM223.692 259.364C224.356 259.364 224.92 259.536 225.384 259.88C225.856 260.224 226.18 260.68 226.356 261.248V259.448H227.184V266H226.356V264.2C226.18 264.768 225.856 265.224 225.384 265.568C224.92 265.912 224.356 266.084 223.692 266.084C223.1 266.084 222.568 265.948 222.096 265.676C221.632 265.404 221.268 265.016 221.004 264.512C220.748 264 220.62 263.404 220.62 262.724C220.62 262.036 220.748 261.44 221.004 260.936C221.268 260.424 221.632 260.036 222.096 259.772C222.56 259.5 223.092 259.364 223.692 259.364ZM223.908 260.108C223.172 260.108 222.58 260.344 222.132 260.816C221.692 261.28 221.472 261.916 221.472 262.724C221.472 263.532 221.692 264.172 222.132 264.644C222.58 265.108 223.172 265.34 223.908 265.34C224.372 265.34 224.788 265.232 225.156 265.016C225.532 264.8 225.824 264.496 226.032 264.104C226.248 263.704 226.356 263.244 226.356 262.724C226.356 262.204 226.248 261.748 226.032 261.356C225.824 260.956 225.532 260.648 225.156 260.432C224.788 260.216 224.372 260.108 223.908 260.108ZM232.282 259.328C233.042 259.328 233.658 259.572 234.13 260.06C234.61 260.54 234.85 261.248 234.85 262.184V266H234.022V262.244C234.022 261.532 233.842 260.988 233.482 260.612C233.122 260.228 232.63 260.036 232.006 260.036C231.35 260.036 230.826 260.248 230.434 260.672C230.05 261.088 229.858 261.704 229.858 262.52V266H229.006V259.448H229.858V261.056C230.026 260.496 230.33 260.068 230.77 259.772C231.21 259.476 231.714 259.328 232.282 259.328ZM239.383 259.364C240.047 259.364 240.611 259.536 241.075 259.88C241.547 260.224 241.871 260.68 242.047 261.248V259.448H242.875V266.156C242.875 266.764 242.747 267.296 242.491 267.752C242.235 268.216 241.879 268.572 241.423 268.82C240.967 269.076 240.447 269.204 239.863 269.204C239.007 269.204 238.303 268.996 237.751 268.58C237.207 268.172 236.851 267.616 236.683 266.912H237.523C237.667 267.392 237.931 267.772 238.315 268.052C238.707 268.332 239.207 268.472 239.815 268.472C240.231 268.472 240.607 268.38 240.943 268.196C241.287 268.02 241.555 267.756 241.747 267.404C241.947 267.052 242.047 266.636 242.047 266.156V264.2C241.871 264.768 241.547 265.224 241.075 265.568C240.611 265.912 240.047 266.084 239.383 266.084C238.791 266.084 238.259 265.948 237.787 265.676C237.323 265.404 236.959 265.016 236.695 264.512C236.439 264 236.311 263.404 236.311 262.724C236.311 262.036 236.439 261.44 236.695 260.936C236.959 260.424 237.323 260.036 237.787 259.772C238.251 259.5 238.783 259.364 239.383 259.364ZM239.599 260.108C238.863 260.108 238.271 260.344 237.823 260.816C237.383 261.28 237.163 261.916 237.163 262.724C237.163 263.532 237.383 264.172 237.823 264.644C238.271 265.108 238.863 265.34 239.599 265.34C240.063 265.34 240.479 265.232 240.847 265.016C241.223 264.8 241.515 264.496 241.723 264.104C241.939 263.704 242.047 263.244 242.047 262.724C242.047 262.204 241.939 261.748 241.723 261.356C241.515 260.956 241.223 260.648 240.847 260.432C240.479 260.216 240.063 260.108 239.599 260.108ZM247.553 265.388C248.145 265.388 248.641 265.24 249.041 264.944C249.441 264.648 249.681 264.248 249.761 263.744H250.649C250.529 264.44 250.197 265.004 249.653 265.436C249.109 265.868 248.421 266.084 247.589 266.084C246.965 266.084 246.409 265.952 245.921 265.688C245.441 265.416 245.065 265.028 244.793 264.524C244.521 264.012 244.385 263.412 244.385 262.724C244.385 262.036 244.521 261.44 244.793 260.936C245.065 260.424 245.441 260.036 245.921 259.772C246.409 259.5 246.965 259.364 247.589 259.364C248.229 259.364 248.781 259.5 249.245 259.772C249.717 260.036 250.073 260.392 250.313 260.84C250.561 261.288 250.685 261.776 250.685 262.304C250.685 262.528 250.669 262.732 250.637 262.916H245.213C245.221 263.468 245.333 263.932 245.549 264.308C245.773 264.676 246.061 264.948 246.413 265.124C246.765 265.3 247.145 265.388 247.553 265.388ZM247.589 260.048C247.165 260.048 246.777 260.136 246.425 260.312C246.073 260.488 245.785 260.76 245.561 261.128C245.345 261.488 245.229 261.94 245.213 262.484H249.845C249.877 261.948 249.789 261.496 249.581 261.128C249.373 260.76 249.093 260.488 248.741 260.312C248.389 260.136 248.005 260.048 247.589 260.048ZM256.166 260.804C256.358 260.332 256.666 259.968 257.09 259.712C257.514 259.456 258.03 259.328 258.638 259.328V260.24H258.362C257.73 260.24 257.206 260.412 256.79 260.756C256.374 261.092 256.166 261.644 256.166 262.412V266H255.314V259.448H256.166V260.804ZM262.516 259.364C263.18 259.364 263.744 259.536 264.208 259.88C264.68 260.224 265.004 260.68 265.18 261.248V259.448H266.008V266H265.18V264.2C265.004 264.768 264.68 265.224 264.208 265.568C263.744 265.912 263.18 266.084 262.516 266.084C261.924 266.084 261.392 265.948 260.92 265.676C260.456 265.404 260.092 265.016 259.828 264.512C259.572 264 259.444 263.404 259.444 262.724C259.444 262.036 259.572 261.44 259.828 260.936C260.092 260.424 260.456 260.036 260.92 259.772C261.384 259.5 261.916 259.364 262.516 259.364ZM262.732 260.108C261.996 260.108 261.404 260.344 260.956 260.816C260.516 261.28 260.296 261.916 260.296 262.724C260.296 263.532 260.516 264.172 260.956 264.644C261.404 265.108 261.996 265.34 262.732 265.34C263.196 265.34 263.612 265.232 263.98 265.016C264.356 264.8 264.648 264.496 264.856 264.104C265.072 263.704 265.18 263.244 265.18 262.724C265.18 262.204 265.072 261.748 264.856 261.356C264.648 260.956 264.356 260.648 263.98 260.432C263.612 260.216 263.196 260.108 262.732 260.108ZM270.806 265.256V266H270.026C269.394 266 268.922 265.852 268.61 265.556C268.298 265.252 268.142 264.744 268.142 264.032V260.18H267.146V259.448H268.142V257.792H268.994V259.448H270.794V260.18H268.994V264.044C268.994 264.508 269.078 264.828 269.246 265.004C269.414 265.172 269.71 265.256 270.134 265.256H270.806ZM275.045 265.388C275.637 265.388 276.133 265.24 276.533 264.944C276.933 264.648 277.173 264.248 277.253 263.744H278.141C278.021 264.44 277.689 265.004 277.145 265.436C276.601 265.868 275.913 266.084 275.081 266.084C274.457 266.084 273.901 265.952 273.413 265.688C272.933 265.416 272.557 265.028 272.285 264.524C272.013 264.012 271.877 263.412 271.877 262.724C271.877 262.036 272.013 261.44 272.285 260.936C272.557 260.424 272.933 260.036 273.413 259.772C273.901 259.5 274.457 259.364 275.081 259.364C275.721 259.364 276.273 259.5 276.737 259.772C277.209 260.036 277.565 260.392 277.805 260.84C278.053 261.288 278.177 261.776 278.177 262.304C278.177 262.528 278.161 262.732 278.129 262.916H272.705C272.713 263.468 272.825 263.932 273.041 264.308C273.265 264.676 273.553 264.948 273.905 265.124C274.257 265.3 274.637 265.388 275.045 265.388ZM275.081 260.048C274.657 260.048 274.269 260.136 273.917 260.312C273.565 260.488 273.277 260.76 273.053 261.128C272.837 261.488 272.721 261.94 272.705 262.484H277.337C277.369 261.948 277.281 261.496 277.073 261.128C276.865 260.76 276.585 260.488 276.233 260.312C275.881 260.136 275.497 260.048 275.081 260.048ZM281.669 259.364C282.381 259.364 282.953 259.552 283.385 259.928C283.817 260.304 284.081 260.812 284.177 261.452H283.373C283.325 261.028 283.149 260.68 282.845 260.408C282.549 260.128 282.149 259.988 281.645 259.988C281.213 259.988 280.873 260.096 280.625 260.312C280.385 260.52 280.265 260.8 280.265 261.152C280.265 261.416 280.341 261.628 280.493 261.788C280.653 261.948 280.849 262.072 281.081 262.16C281.313 262.24 281.625 262.324 282.017 262.412C282.497 262.524 282.881 262.64 283.169 262.76C283.465 262.872 283.717 263.052 283.925 263.3C284.133 263.548 284.237 263.884 284.237 264.308C284.237 264.828 284.041 265.256 283.649 265.592C283.265 265.92 282.753 266.084 282.113 266.084C281.361 266.084 280.745 265.9 280.265 265.532C279.785 265.156 279.501 264.644 279.413 263.996H280.229C280.277 264.428 280.465 264.78 280.793 265.052C281.121 265.324 281.565 265.46 282.125 265.46C282.541 265.46 282.865 265.352 283.097 265.136C283.329 264.92 283.445 264.64 283.445 264.296C283.445 264.016 283.365 263.792 283.205 263.624C283.045 263.456 282.845 263.332 282.605 263.252C282.373 263.164 282.053 263.072 281.645 262.976C281.173 262.864 280.793 262.752 280.505 262.64C280.225 262.528 279.985 262.356 279.785 262.124C279.585 261.884 279.485 261.56 279.485 261.152C279.485 260.616 279.681 260.184 280.073 259.856C280.465 259.528 280.997 259.364 281.669 259.364Z" fill="white"/>
<path d="M109.088 54.764C109.088 55.636 108.916 56.392 108.572 57.032C108.228 57.664 107.72 58.152 107.048 58.496C106.384 58.832 105.58 59 104.636 59H102.08V50.54H104.636C106.06 50.54 107.156 50.916 107.924 51.668C108.7 52.412 109.088 53.444 109.088 54.764ZM104.576 58.244C105.768 58.244 106.676 57.94 107.3 57.332C107.924 56.716 108.236 55.86 108.236 54.764C108.236 53.668 107.924 52.816 107.3 52.208C106.676 51.592 105.768 51.284 104.576 51.284H102.932V58.244H104.576ZM110.431 50.504C110.431 50.328 110.487 50.188 110.599 50.084C110.719 49.98 110.871 49.928 111.055 49.928C111.239 49.928 111.387 49.98 111.499 50.084C111.611 50.188 111.667 50.328 111.667 50.504C111.667 50.672 111.611 50.808 111.499 50.912C111.387 51.016 111.239 51.068 111.055 51.068C110.871 51.068 110.719 51.016 110.599 50.912C110.487 50.808 110.431 50.672 110.431 50.504ZM111.475 52.448V59H110.623V52.448H111.475ZM115.275 52.364C115.987 52.364 116.559 52.552 116.991 52.928C117.423 53.304 117.687 53.812 117.783 54.452H116.979C116.931 54.028 116.755 53.68 116.451 53.408C116.155 53.128 115.755 52.988 115.251 52.988C114.819 52.988 114.479 53.096 114.231 53.312C113.991 53.52 113.871 53.8 113.871 54.152C113.871 54.416 113.947 54.628 114.099 54.788C114.259 54.948 114.455 55.072 114.687 55.16C114.919 55.24 115.231 55.324 115.623 55.412C116.103 55.524 116.487 55.64 116.775 55.76C117.071 55.872 117.323 56.052 117.531 56.3C117.739 56.548 117.843 56.884 117.843 57.308C117.843 57.828 117.647 58.256 117.255 58.592C116.871 58.92 116.359 59.084 115.719 59.084C114.967 59.084 114.351 58.9 113.871 58.532C113.391 58.156 113.107 57.644 113.019 56.996H113.835C113.883 57.428 114.071 57.78 114.399 58.052C114.727 58.324 115.171 58.46 115.731 58.46C116.147 58.46 116.471 58.352 116.703 58.136C116.935 57.92 117.051 57.64 117.051 57.296C117.051 57.016 116.971 56.792 116.811 56.624C116.651 56.456 116.451 56.332 116.211 56.252C115.979 56.164 115.659 56.072 115.251 55.976C114.779 55.864 114.399 55.752 114.111 55.64C113.831 55.528 113.591 55.356 113.391 55.124C113.191 54.884 113.091 54.56 113.091 54.152C113.091 53.616 113.287 53.184 113.679 52.856C114.071 52.528 114.603 52.364 115.275 52.364ZM122.353 58.256V59H121.573C120.941 59 120.469 58.852 120.157 58.556C119.845 58.252 119.689 57.744 119.689 57.032V53.18H118.693V52.448H119.689V50.792H120.541V52.448H122.341V53.18H120.541V57.044C120.541 57.508 120.625 57.828 120.793 58.004C120.961 58.172 121.257 58.256 121.681 58.256H122.353ZM124.588 53.804C124.78 53.332 125.088 52.968 125.512 52.712C125.936 52.456 126.452 52.328 127.06 52.328V53.24H126.784C126.152 53.24 125.628 53.412 125.212 53.756C124.796 54.092 124.588 54.644 124.588 55.412V59H123.736V52.448H124.588V53.804ZM127.986 50.504C127.986 50.328 128.042 50.188 128.154 50.084C128.274 49.98 128.426 49.928 128.61 49.928C128.794 49.928 128.942 49.98 129.054 50.084C129.166 50.188 129.222 50.328 129.222 50.504C129.222 50.672 129.166 50.808 129.054 50.912C128.942 51.016 128.794 51.068 128.61 51.068C128.426 51.068 128.274 51.016 128.154 50.912C128.042 50.808 127.986 50.672 127.986 50.504ZM129.03 52.448V59H128.178V52.448H129.03ZM134.354 52.364C134.954 52.364 135.482 52.5 135.938 52.772C136.402 53.036 136.762 53.424 137.018 53.936C137.282 54.44 137.414 55.036 137.414 55.724C137.414 56.404 137.282 57 137.018 57.512C136.762 58.016 136.402 58.404 135.938 58.676C135.474 58.948 134.946 59.084 134.354 59.084C133.682 59.084 133.114 58.912 132.65 58.568C132.186 58.224 131.866 57.768 131.69 57.2V59H130.85V50.12H131.69V54.248C131.866 53.68 132.186 53.224 132.65 52.88C133.114 52.536 133.682 52.364 134.354 52.364ZM134.126 53.108C133.662 53.108 133.242 53.216 132.866 53.432C132.498 53.648 132.21 53.956 132.002 54.356C131.794 54.748 131.69 55.204 131.69 55.724C131.69 56.244 131.794 56.704 132.002 57.104C132.21 57.496 132.498 57.8 132.866 58.016C133.242 58.232 133.662 58.34 134.126 58.34C134.87 58.34 135.462 58.108 135.902 57.644C136.342 57.172 136.562 56.532 136.562 55.724C136.562 54.916 136.342 54.28 135.902 53.816C135.462 53.344 134.87 53.108 134.126 53.108ZM144.576 52.448V59H143.736V57.38C143.568 57.948 143.264 58.38 142.824 58.676C142.384 58.972 141.88 59.12 141.312 59.12C140.544 59.12 139.92 58.88 139.44 58.4C138.968 57.912 138.732 57.2 138.732 56.264V52.448H139.572V56.192C139.572 56.912 139.752 57.464 140.112 57.848C140.472 58.224 140.964 58.412 141.588 58.412C142.244 58.412 142.764 58.204 143.148 57.788C143.54 57.364 143.736 56.744 143.736 55.928V52.448H144.576ZM149.388 58.256V59H148.608C147.976 59 147.504 58.852 147.192 58.556C146.88 58.252 146.724 57.744 146.724 57.032V53.18H145.728V52.448H146.724V50.792H147.576V52.448H149.376V53.18H147.576V57.044C147.576 57.508 147.66 57.828 147.828 58.004C147.996 58.172 148.292 58.256 148.716 58.256H149.388ZM153.627 58.388C154.219 58.388 154.715 58.24 155.115 57.944C155.515 57.648 155.755 57.248 155.835 56.744H156.723C156.603 57.44 156.271 58.004 155.727 58.436C155.183 58.868 154.495 59.084 153.663 59.084C153.039 59.084 152.483 58.952 151.995 58.688C151.515 58.416 151.139 58.028 150.867 57.524C150.595 57.012 150.459 56.412 150.459 55.724C150.459 55.036 150.595 54.44 150.867 53.936C151.139 53.424 151.515 53.036 151.995 52.772C152.483 52.5 153.039 52.364 153.663 52.364C154.303 52.364 154.855 52.5 155.319 52.772C155.791 53.036 156.147 53.392 156.387 53.84C156.635 54.288 156.759 54.776 156.759 55.304C156.759 55.528 156.743 55.732 156.711 55.916H151.287C151.295 56.468 151.407 56.932 151.623 57.308C151.847 57.676 152.135 57.948 152.487 58.124C152.839 58.3 153.219 58.388 153.627 58.388ZM153.663 53.048C153.239 53.048 152.851 53.136 152.499 53.312C152.147 53.488 151.859 53.76 151.635 54.128C151.419 54.488 151.303 54.94 151.287 55.484H155.919C155.951 54.948 155.863 54.496 155.655 54.128C155.447 53.76 155.167 53.488 154.815 53.312C154.463 53.136 154.079 53.048 153.663 53.048ZM161.031 52.364C161.695 52.364 162.259 52.536 162.723 52.88C163.195 53.224 163.515 53.68 163.683 54.248V50.12H164.523V59H163.683V57.2C163.515 57.768 163.195 58.224 162.723 58.568C162.259 58.912 161.695 59.084 161.031 59.084C160.439 59.084 159.907 58.948 159.435 58.676C158.971 58.404 158.607 58.016 158.343 57.512C158.087 57 157.959 56.404 157.959 55.724C157.959 55.036 158.087 54.44 158.343 53.936C158.607 53.424 158.971 53.036 159.435 52.772C159.899 52.5 160.431 52.364 161.031 52.364ZM161.247 53.108C160.511 53.108 159.919 53.344 159.471 53.816C159.031 54.28 158.811 54.916 158.811 55.724C158.811 56.532 159.031 57.172 159.471 57.644C159.919 58.108 160.511 58.34 161.247 58.34C161.711 58.34 162.127 58.232 162.495 58.016C162.871 57.8 163.163 57.496 163.371 57.104C163.587 56.704 163.695 56.244 163.695 55.724C163.695 55.204 163.587 54.748 163.371 54.356C163.163 53.956 162.871 53.648 162.495 53.432C162.127 53.216 161.711 53.108 161.247 53.108ZM173.999 59L171.683 55.472H170.315V59H169.463V50.54H172.055C173.007 50.54 173.715 50.764 174.179 51.212C174.651 51.66 174.887 52.264 174.887 53.024C174.887 53.728 174.687 54.288 174.287 54.704C173.895 55.12 173.323 55.368 172.571 55.448L174.959 59H173.999ZM170.315 54.836H171.995C173.355 54.836 174.035 54.248 174.035 53.072C174.035 51.872 173.355 51.272 171.995 51.272H170.315V54.836ZM179.259 52.364C179.883 52.364 180.439 52.5 180.927 52.772C181.423 53.036 181.811 53.424 182.091 53.936C182.371 54.44 182.511 55.036 182.511 55.724C182.511 56.412 182.371 57.008 182.091 57.512C181.811 58.016 181.423 58.404 180.927 58.676C180.439 58.948 179.883 59.084 179.259 59.084C178.635 59.084 178.075 58.948 177.579 58.676C177.083 58.404 176.691 58.016 176.403 57.512C176.123 57 175.983 56.404 175.983 55.724C175.983 55.036 176.123 54.44 176.403 53.936C176.691 53.424 177.083 53.036 177.579 52.772C178.075 52.5 178.635 52.364 179.259 52.364ZM179.259 53.096C178.827 53.096 178.427 53.192 178.059 53.384C177.691 53.576 177.395 53.872 177.171 54.272C176.947 54.664 176.835 55.148 176.835 55.724C176.835 56.3 176.947 56.784 177.171 57.176C177.395 57.568 177.691 57.86 178.059 58.052C178.427 58.244 178.827 58.34 179.259 58.34C179.683 58.34 180.075 58.244 180.435 58.052C180.803 57.86 181.099 57.568 181.323 57.176C181.547 56.784 181.659 56.3 181.659 55.724C181.659 55.148 181.547 54.664 181.323 54.272C181.099 53.872 180.803 53.576 180.435 53.384C180.075 53.192 179.683 53.096 179.259 53.096ZM187.521 52.364C188.121 52.364 188.649 52.5 189.105 52.772C189.569 53.036 189.929 53.424 190.185 53.936C190.449 54.44 190.581 55.036 190.581 55.724C190.581 56.404 190.449 57 190.185 57.512C189.929 58.016 189.569 58.404 189.105 58.676C188.641 58.948 188.113 59.084 187.521 59.084C186.849 59.084 186.281 58.912 185.817 58.568C185.353 58.224 185.033 57.768 184.857 57.2V59H184.017V50.12H184.857V54.248C185.033 53.68 185.353 53.224 185.817 52.88C186.281 52.536 186.849 52.364 187.521 52.364ZM187.293 53.108C186.829 53.108 186.409 53.216 186.033 53.432C185.665 53.648 185.377 53.956 185.169 54.356C184.961 54.748 184.857 55.204 184.857 55.724C184.857 56.244 184.961 56.704 185.169 57.104C185.377 57.496 185.665 57.8 186.033 58.016C186.409 58.232 186.829 58.34 187.293 58.34C188.037 58.34 188.629 58.108 189.069 57.644C189.509 57.172 189.729 56.532 189.729 55.724C189.729 54.916 189.509 54.28 189.069 53.816C188.629 53.344 188.037 53.108 187.293 53.108ZM195.056 52.364C195.68 52.364 196.236 52.5 196.724 52.772C197.22 53.036 197.608 53.424 197.888 53.936C198.168 54.44 198.308 55.036 198.308 55.724C198.308 56.412 198.168 57.008 197.888 57.512C197.608 58.016 197.22 58.404 196.724 58.676C196.236 58.948 195.68 59.084 195.056 59.084C194.432 59.084 193.872 58.948 193.376 58.676C192.88 58.404 192.488 58.016 192.2 57.512C191.92 57 191.78 56.404 191.78 55.724C191.78 55.036 191.92 54.44 192.2 53.936C192.488 53.424 192.88 53.036 193.376 52.772C193.872 52.5 194.432 52.364 195.056 52.364ZM195.056 53.096C194.624 53.096 194.224 53.192 193.856 53.384C193.488 53.576 193.192 53.872 192.968 54.272C192.744 54.664 192.632 55.148 192.632 55.724C192.632 56.3 192.744 56.784 192.968 57.176C193.192 57.568 193.488 57.86 193.856 58.052C194.224 58.244 194.624 58.34 195.056 58.34C195.48 58.34 195.872 58.244 196.232 58.052C196.6 57.86 196.896 57.568 197.12 57.176C197.344 56.784 197.456 56.3 197.456 55.724C197.456 55.148 197.344 54.664 197.12 54.272C196.896 53.872 196.6 53.576 196.232 53.384C195.872 53.192 195.48 53.096 195.056 53.096ZM202.79 58.256V59H202.01C201.378 59 200.906 58.852 200.594 58.556C200.282 58.252 200.126 57.744 200.126 57.032V53.18H199.13V52.448H200.126V50.792H200.978V52.448H202.778V53.18H200.978V57.044C200.978 57.508 201.062 57.828 201.23 58.004C201.398 58.172 201.694 58.256 202.118 58.256H202.79ZM212.451 56.852C212.451 57.236 212.359 57.6 212.175 57.944C211.999 58.28 211.723 58.556 211.347 58.772C210.971 58.98 210.503 59.084 209.943 59.084C209.399 59.084 208.915 58.984 208.491 58.784C208.067 58.584 207.727 58.312 207.471 57.968C207.223 57.616 207.079 57.224 207.039 56.792H207.927C207.959 57.04 208.051 57.288 208.203 57.536C208.355 57.784 208.575 57.992 208.863 58.16C209.151 58.32 209.499 58.4 209.907 58.4C210.443 58.4 210.851 58.256 211.131 57.968C211.419 57.68 211.563 57.316 211.563 56.876C211.563 56.5 211.467 56.196 211.275 55.964C211.091 55.724 210.859 55.54 210.579 55.412C210.307 55.284 209.931 55.144 209.451 54.992C208.923 54.824 208.495 54.664 208.167 54.512C207.847 54.352 207.575 54.12 207.351 53.816C207.127 53.512 207.015 53.108 207.015 52.604C207.015 51.964 207.239 51.444 207.687 51.044C208.135 50.644 208.751 50.444 209.535 50.444C210.335 50.444 210.967 50.64 211.431 51.032C211.903 51.424 212.183 51.912 212.271 52.496H211.371C211.299 52.136 211.107 51.816 210.795 51.536C210.491 51.256 210.071 51.116 209.535 51.116C209.039 51.116 208.643 51.244 208.347 51.5C208.051 51.756 207.903 52.112 207.903 52.568C207.903 52.928 207.995 53.22 208.179 53.444C208.363 53.668 208.587 53.84 208.851 53.96C209.123 54.08 209.491 54.216 209.955 54.368C210.491 54.536 210.923 54.7 211.251 54.86C211.587 55.02 211.871 55.26 212.103 55.58C212.335 55.9 212.451 56.324 212.451 56.852ZM214.162 52.448L216.442 57.908L218.542 52.448H219.478L215.626 62.096H214.666L215.986 58.928L213.226 52.448H214.162ZM222.525 52.364C223.237 52.364 223.809 52.552 224.241 52.928C224.673 53.304 224.937 53.812 225.033 54.452H224.229C224.181 54.028 224.005 53.68 223.701 53.408C223.405 53.128 223.005 52.988 222.501 52.988C222.069 52.988 221.729 53.096 221.481 53.312C221.241 53.52 221.121 53.8 221.121 54.152C221.121 54.416 221.197 54.628 221.349 54.788C221.509 54.948 221.705 55.072 221.937 55.16C222.169 55.24 222.481 55.324 222.873 55.412C223.353 55.524 223.737 55.64 224.025 55.76C224.321 55.872 224.573 56.052 224.781 56.3C224.989 56.548 225.093 56.884 225.093 57.308C225.093 57.828 224.897 58.256 224.505 58.592C224.121 58.92 223.609 59.084 222.969 59.084C222.217 59.084 221.601 58.9 221.121 58.532C220.641 58.156 220.357 57.644 220.269 56.996H221.085C221.133 57.428 221.321 57.78 221.649 58.052C221.977 58.324 222.421 58.46 222.981 58.46C223.397 58.46 223.721 58.352 223.953 58.136C224.185 57.92 224.301 57.64 224.301 57.296C224.301 57.016 224.221 56.792 224.061 56.624C223.901 56.456 223.701 56.332 223.461 56.252C223.229 56.164 222.909 56.072 222.501 55.976C222.029 55.864 221.649 55.752 221.361 55.64C221.081 55.528 220.841 55.356 220.641 55.124C220.441 54.884 220.341 54.56 220.341 54.152C220.341 53.616 220.537 53.184 220.929 52.856C221.321 52.528 221.853 52.364 222.525 52.364ZM229.603 58.256V59H228.823C228.191 59 227.719 58.852 227.407 58.556C227.095 58.252 226.939 57.744 226.939 57.032V53.18H225.943V52.448H226.939V50.792H227.791V52.448H229.591V53.18H227.791V57.044C227.791 57.508 227.875 57.828 228.043 58.004C228.211 58.172 228.507 58.256 228.931 58.256H229.603ZM233.842 58.388C234.434 58.388 234.93 58.24 235.33 57.944C235.73 57.648 235.97 57.248 236.05 56.744H236.938C236.818 57.44 236.486 58.004 235.942 58.436C235.398 58.868 234.71 59.084 233.878 59.084C233.254 59.084 232.698 58.952 232.21 58.688C231.73 58.416 231.354 58.028 231.082 57.524C230.81 57.012 230.674 56.412 230.674 55.724C230.674 55.036 230.81 54.44 231.082 53.936C231.354 53.424 231.73 53.036 232.21 52.772C232.698 52.5 233.254 52.364 233.878 52.364C234.518 52.364 235.07 52.5 235.534 52.772C236.006 53.036 236.362 53.392 236.602 53.84C236.85 54.288 236.974 54.776 236.974 55.304C236.974 55.528 236.958 55.732 236.926 55.916H231.502C231.51 56.468 231.622 56.932 231.838 57.308C232.062 57.676 232.35 57.948 232.702 58.124C233.054 58.3 233.434 58.388 233.842 58.388ZM233.878 53.048C233.454 53.048 233.066 53.136 232.714 53.312C232.362 53.488 232.074 53.76 231.85 54.128C231.634 54.488 231.518 54.94 231.502 55.484H236.134C236.166 54.948 236.078 54.496 235.87 54.128C235.662 53.76 235.382 53.488 235.03 53.312C234.678 53.136 234.294 53.048 233.878 53.048ZM246.442 52.328C247.194 52.328 247.802 52.572 248.266 53.06C248.738 53.54 248.974 54.248 248.974 55.184V59H248.134V55.244C248.134 54.54 247.962 54 247.618 53.624C247.282 53.248 246.818 53.06 246.226 53.06C245.594 53.06 245.09 53.268 244.714 53.684C244.338 54.1 244.15 54.712 244.15 55.52V59H243.322V55.244C243.322 54.54 243.15 54 242.806 53.624C242.47 53.248 242.006 53.06 241.414 53.06C240.782 53.06 240.278 53.268 239.902 53.684C239.526 54.1 239.338 54.712 239.338 55.52V59H238.486V52.448H239.338V54.008C239.498 53.456 239.786 53.04 240.202 52.76C240.626 52.472 241.114 52.328 241.666 52.328C242.242 52.328 242.738 52.48 243.154 52.784C243.57 53.088 243.858 53.536 244.018 54.128C244.194 53.544 244.502 53.1 244.942 52.796C245.382 52.484 245.882 52.328 246.442 52.328Z" fill="white"/>
</svg>
