<svg width="61" height="62" viewBox="0 0 61 62" fill="none" xmlns="http://www.w3.org/2000/svg">
<path fill-rule="evenodd" clip-rule="evenodd" d="M30.4291 60.9102C47.2346 60.9102 60.8582 47.275 60.8582 30.4551C60.8582 13.6352 47.2346 0 30.4291 0C13.6236 0 0 13.6352 0 30.4551C0 47.275 13.6236 60.9102 30.4291 60.9102Z" transform="translate(0 0.479004)" fill="#F4F4F4"/>
<mask id="mask0" mask-type="alpha" maskUnits="userSpaceOnUse" x="0" y="0" width="61" height="62">
<path fill-rule="evenodd" clip-rule="evenodd" d="M30.4291 60.9102C47.2346 60.9102 60.8582 47.275 60.8582 30.4551C60.8582 13.6352 47.2346 0 30.4291 0C13.6236 0 0 13.6352 0 30.4551C0 47.275 13.6236 60.9102 30.4291 60.9102Z" transform="translate(0 0.479004)" fill="white"/>
</mask>
<g mask="url(#mask0)">
<path d="M51.9595 2.93578C51.6379 2.61493 51.2037 2.43846 50.7534 2.43846C49.8046 2.43846 49.0488 3.20851 49.0488 4.13897L35.1383 13.6201C34.6237 13.2672 33.9483 13.2351 33.4015 13.5238L15.1329 1.81281C15.1329 1.76468 15.1329 1.73259 15.1329 1.68447C15.1329 1.23527 14.956 0.818169 14.6344 0.497318C14.3128 0.176468 13.8947 0 13.4444 0C12.5117 0 11.7558 0.753999 11.7397 1.68447L2.41248 7.6202C2.18733 7.5079 1.94611 7.45977 1.68881 7.45977C0.74 7.47582 -0.0158296 8.24586 0.000251931 9.19237C0.000251931 9.62552 0.177148 10.0426 0.482697 10.3635L0.498778 10.3795L0.51486 10.3956C0.836489 10.7004 1.27069 10.8768 1.70489 10.8768C2.6537 10.8768 3.40953 10.1228 3.40953 9.17632C3.40953 9.16028 3.40953 9.14424 3.40953 9.11215L12.6564 3.22455C13.1227 3.46519 13.6695 3.49727 14.1359 3.28872L32.5009 15.0639C32.5009 15.5131 32.6778 15.9302 32.9995 16.235L33.0155 16.2511L33.0316 16.2671C33.3533 16.5719 33.7875 16.7484 34.2217 16.7484C35.074 16.7484 35.7976 16.1227 35.9102 15.2725L49.9976 5.66301C50.8338 6.09616 51.8631 5.75927 52.2973 4.92506C52.4259 4.68442 52.4902 4.4117 52.4902 4.13897C52.4581 3.67374 52.2812 3.25663 51.9595 2.93578ZM2.20342 9.68969C2.05868 9.83407 1.88179 9.89824 1.68881 9.89824C1.49583 9.89824 1.30285 9.81803 1.15812 9.68969C0.868652 9.40092 0.868652 8.93569 1.1742 8.64692C1.31893 8.51858 1.49583 8.43837 1.68881 8.43837C1.88179 8.43837 2.07476 8.51858 2.20342 8.66296C2.49288 8.93569 2.49288 9.40092 2.2195 9.68969C2.2195 9.67364 2.2195 9.68969 2.20342 9.68969ZM12.9137 2.24595C12.6242 1.95719 12.6242 1.49195 12.9298 1.20319C13.0745 1.07485 13.2514 0.994637 13.4444 0.994637C13.6374 0.994637 13.8303 1.07485 13.959 1.21923C14.2485 1.508 14.2485 1.97323 13.959 2.262C13.8143 2.40638 13.6374 2.47055 13.4444 2.47055C13.2514 2.45451 13.0584 2.37429 12.9137 2.24595ZM34.7202 15.5613C34.5755 15.7056 34.3986 15.7698 34.2056 15.7698C34.0126 15.7698 33.8196 15.6896 33.6749 15.5613C33.3854 15.2725 33.3854 14.8073 33.6749 14.5185C33.8196 14.3741 34.0126 14.2939 34.2056 14.2939C34.6237 14.2939 34.9453 14.6308 34.9453 15.0479C34.9453 15.2404 34.8649 15.4169 34.7202 15.5613ZM51.2841 4.66838C51.1394 4.81276 50.9625 4.87693 50.7695 4.87693C50.5765 4.87693 50.3836 4.79672 50.2388 4.66838C49.9494 4.37961 49.9494 3.91438 50.2549 3.62561C50.3996 3.49727 50.5765 3.41706 50.7695 3.41706C51.1876 3.41706 51.5093 3.75395 51.5093 4.17106C51.4932 4.34752 51.4128 4.52399 51.2841 4.66838Z" transform="translate(3.80273 22.0771)" fill="#D1D1D1"/>
<path d="M6.52908 1.74864H1.83329V4.86089H6.36827V6.60952H1.83329V11.1175H0V0H6.52908V1.74864Z" transform="translate(8.40234 23.1997)" fill="#8F8F8F"/>
<path d="M0 7.95709V0H1.72072V7.95709H0Z" transform="translate(16.3789 26.377)" fill="#8F8F8F"/>
<path d="M7.25275 3.27268V8.1496H5.53203V3.44914C5.53203 2.262 4.84053 1.60425 3.74699 1.60425C2.54087 1.60425 1.72072 2.35825 1.72072 3.89833V8.16565H0V0.208553H1.72072V1.21923C2.25141 0.417106 3.05548 0 4.19727 0C6.03056 0 7.25275 1.23527 7.25275 3.27268Z" transform="translate(19.9336 26.1685)" fill="#8F8F8F"/>
<path d="M5.16216 3.88229H3.18413V7.70041C3.18413 8.71109 3.85956 8.69505 5.16216 8.64692V10.187C2.52479 10.5079 1.46341 9.78594 1.46341 7.70041V3.88229H0V2.22991H1.46341V0.513361L3.18413 0V2.22991H5.16216V3.88229Z" transform="translate(28.167 24.1465)" fill="#8F8F8F"/>
<path d="M6.73987 0.176898H8.46059V8.13399H6.73987V6.99497C6.08053 7.9094 5.16389 8.34254 3.95778 8.34254C2.8964 8.35859 1.86718 7.9094 1.15959 7.13935C0.387683 6.33723 -0.0304355 5.27842 0.00172744 4.17149C-0.0304355 3.06455 0.387683 2.00575 1.15959 1.20362C1.88326 0.417536 2.8964 -0.0156123 3.95778 0.00043026C5.16389 0.00043026 6.09661 0.449621 6.73987 1.33196V0.176898ZM4.23116 6.69016C4.90658 6.70621 5.54984 6.44953 6.03229 5.96825C6.51473 5.48697 6.77203 4.81319 6.75595 4.1394C6.77203 3.46562 6.51473 2.80787 6.03229 2.3266C5.03523 1.348 3.42709 1.348 2.43003 2.3266C1.94759 2.80787 1.69028 3.46562 1.70637 4.1394C1.69028 4.81319 1.94759 5.48697 2.43003 5.96825C2.91248 6.46557 3.55574 6.72225 4.23116 6.69016Z" transform="translate(33.9707 26.1997)" fill="#8F8F8F"/>
<path d="M7.301 4.1871C8.07291 4.98923 8.49103 6.04803 8.45887 7.15497C8.47495 8.2619 8.05683 9.32071 7.301 10.1228C6.57733 10.9089 5.5642 11.3421 4.50282 11.326C3.29671 11.326 2.36398 10.8768 1.72072 9.97845V11.1175H0V0H1.72072V4.31544C2.38006 3.4331 3.29671 2.98391 4.50282 2.98391C5.5642 2.95182 6.59341 3.40102 7.301 4.1871ZM4.22943 9.68969C4.90486 9.70573 5.54811 9.44905 6.03056 8.96777C6.513 8.4865 6.77031 7.81271 6.75423 7.13892C6.77031 6.46514 6.513 5.80739 6.03056 5.32612C5.03351 4.34752 3.42536 4.34752 2.42831 5.32612C1.94586 5.80739 1.68856 6.46514 1.70464 7.13892C1.68856 7.81271 1.94586 8.4865 2.42831 8.96777C2.91075 9.46509 3.55401 9.72177 4.22943 9.68969Z" transform="translate(44.2979 23.1997)" fill="#8F8F8F"/>
</g>
</svg>
