<svg width="61" height="62" viewBox="0 0 61 62" fill="none" xmlns="http://www.w3.org/2000/svg">
<path fill-rule="evenodd" clip-rule="evenodd" d="M30.4291 60.9102C47.2347 60.9102 60.8583 47.275 60.8583 30.4551C60.8583 13.6352 47.2347 0 30.4291 0C13.6236 0 0 13.6352 0 30.4551C0 47.275 13.6236 60.9102 30.4291 60.9102Z" transform="translate(0 0.70459)" fill="#F4F4F4"/>
<mask id="mask0" mask-type="alpha" maskUnits="userSpaceOnUse" x="0" y="0" width="61" height="62">
<path fill-rule="evenodd" clip-rule="evenodd" d="M30.4291 60.9102C47.2347 60.9102 60.8583 47.275 60.8583 30.4551C60.8583 13.6352 47.2347 0 30.4291 0C13.6236 0 0 13.6352 0 30.4551C0 47.275 13.6236 60.9102 30.4291 60.9102Z" transform="translate(0 0.70459)" fill="white"/>
</mask>
<g mask="url(#mask0)">
<path fill-rule="evenodd" clip-rule="evenodd" d="M4.09391 0.0117339L4.09008 0L0 12.3535H2.62315L4.09391 8.00451L4.10042 7.98613L5.47464 12.3535H8.0545L4.09391 0.0117339Z" transform="translate(26.7842 13.167)" fill="#AEAEAE"/>
<path fill-rule="evenodd" clip-rule="evenodd" d="M3.32271 2.35657H8.47592L4.31075 5.49579L3.32271 2.35657ZM16.1308 0.00156438H2.58599L2.58523 0H0L0.742084 2.35657L2.81739 8.99173L4.58161 14.7863L4.55862 14.7687L5.88035 19.1678L9.28122 21.7262L5.17888 8.25523L16.1308 0.00156438Z" transform="translate(32.5547 26.46)" fill="#AEAEAE"/>
<path fill-rule="evenodd" clip-rule="evenodd" d="M21.0285 7.61612L18.8478 9.27687L16.9917 10.69L16.9741 10.7037L11.5458 14.7864L12.8349 10.5527L15.3447 2.3554L16.0374 0.0930896L13.5418 0H0L4.94403 3.72749L9.45093 3.71067L7.65377 2.3554H12.8116L12.3947 3.69933L11.8343 5.50675L9.52104 12.9668L9.51568 12.9605L6.84655 21.725L17.82 13.4725L17.8196 13.471L20.1642 11.7457L21.8587 10.4988L21.9422 10.4377L21.0285 7.61612Z" transform="translate(12.9316 26.4619)" fill="#AEAEAE"/>
</g>
</svg>
