<svg width="170" height="39" viewBox="0 0 170 39" fill="none" xmlns="http://www.w3.org/2000/svg">
<rect width="169.702" height="38.4" fill="black" fill-opacity="0"/>
<path d="M7.30406 35.436C7.37606 35.388 7.38806 35.328 7.32806 35.244L6.98006 34.752C6.92006 34.668 6.86006 34.668 6.78806 34.728C6.27206 35.076 5.73206 35.256 5.18006 35.256C4.18406 35.256 3.59606 34.692 3.59606 33.816V31.992C3.59606 31.128 4.18406 30.552 5.19206 30.552C5.70806 30.552 6.20006 30.696 6.65606 30.996C6.72806 31.044 6.78806 31.032 6.84806 30.96L7.16006 30.468C7.22006 30.384 7.20806 30.324 7.12406 30.264C6.51206 29.868 5.86406 29.664 5.16806 29.664C4.38806 29.664 3.77606 29.88 3.30806 30.312C2.84006 30.744 2.61206 31.308 2.61206 31.992V33.816C2.61206 34.5 2.84006 35.064 3.30806 35.496C3.77606 35.916 4.40006 36.132 5.18006 36.132C5.96006 36.132 6.66806 35.904 7.30406 35.436Z" fill="black"/>
<path d="M10.7328 36C10.8288 36 10.8768 35.952 10.8768 35.868V30.78C11.2728 30.624 11.7048 30.54 12.1728 30.54C12.4968 30.54 12.8568 30.564 13.2528 30.624C13.3488 30.648 13.3968 30.612 13.3968 30.504V29.916C13.3968 29.82 13.3608 29.772 13.2768 29.76C12.8088 29.7 12.4008 29.664 12.0408 29.664C11.2848 29.664 10.6008 29.808 9.98878 30.108C9.92878 30.132 9.89278 30.18 9.89278 30.264V35.868C9.89278 35.952 9.94078 36 10.0248 36H10.7328Z" fill="black"/>
<path d="M19.8402 34.572C19.4562 34.788 19.0002 34.896 18.4722 34.896C17.4642 34.896 16.7922 34.416 16.7922 33.372V29.94C16.7922 29.844 16.7442 29.796 16.6482 29.796H15.9402C15.8562 29.796 15.8082 29.844 15.8082 29.94V33.42C15.8082 34.188 16.0602 34.776 16.5522 35.196C17.0442 35.604 17.6442 35.808 18.3522 35.808C18.8442 35.808 19.3482 35.7 19.8402 35.496V35.772C19.8762 36.972 19.3482 37.5 18.2922 37.512C17.6802 37.5 17.0922 37.284 16.5162 36.84C16.4442 36.78 16.3842 36.792 16.3242 36.876L15.9642 37.368C15.9162 37.452 15.9162 37.512 15.9762 37.572C16.6362 38.124 17.4042 38.4 18.2922 38.4C19.9842 38.388 20.8242 37.536 20.8242 35.832V29.94C20.8242 29.844 20.7762 29.796 20.6802 29.796H19.9722C19.8882 29.796 19.8402 29.844 19.8402 29.94V34.572Z" fill="black"/>
<path d="M24.0016 30.096C23.9416 30.12 23.9056 30.168 23.9056 30.252V38.148C23.9056 38.232 23.9536 38.28 24.0376 38.28H24.7456C24.8416 38.28 24.8896 38.232 24.8896 38.148V35.76C25.3336 36.012 25.8256 36.132 26.3776 36.132C27.9616 36.132 29.0056 35.172 29.0056 33.588V32.268C29.0056 30.504 27.9736 29.664 26.3296 29.664C25.5256 29.664 24.7456 29.808 24.0016 30.096ZM26.3176 35.256C25.7776 35.256 25.3096 35.112 24.8896 34.824V30.768C25.2736 30.612 25.7416 30.528 26.3056 30.528C27.4456 30.528 28.0096 31.104 28.0096 32.268V33.588C28.0096 34.704 27.4456 35.256 26.3176 35.256Z" fill="black"/>
<path d="M32.8212 30.732H34.3812C34.4652 30.732 34.5132 30.684 34.5132 30.588V29.988C34.5132 29.904 34.4652 29.856 34.3812 29.856H32.8212L32.7372 28.404C32.7252 28.32 32.6772 28.272 32.6052 28.272H31.9812C31.8852 28.272 31.8372 28.32 31.8372 28.416V34.008C31.8372 35.436 32.6652 36.132 33.9252 36.132C34.0692 36.132 34.2852 36.12 34.5732 36.108C34.6572 36.096 34.6932 36.048 34.6932 35.964V35.328C34.6932 35.244 34.6452 35.196 34.5492 35.196C34.2612 35.208 34.0692 35.22 33.9732 35.22C33.2412 35.22 32.8212 34.764 32.8212 33.96V30.732Z" fill="black"/>
<path d="M42.1621 32.052C42.1621 31.344 41.9221 30.768 41.4421 30.324C40.9741 29.88 40.3261 29.664 39.5221 29.664C38.7181 29.664 38.0821 29.88 37.6021 30.324C37.1221 30.768 36.8821 31.344 36.8821 32.052V33.78C36.8821 34.488 37.1221 35.052 37.5901 35.484C38.0701 35.916 38.7181 36.132 39.5221 36.132C41.1421 36.132 42.1621 35.208 42.1621 33.78V32.052ZM37.8781 32.052C37.8781 31.128 38.4661 30.552 39.5221 30.552C40.5781 30.552 41.1781 31.128 41.1781 32.052V33.78C41.1781 34.692 40.5781 35.256 39.5221 35.256C38.4661 35.256 37.8781 34.692 37.8781 33.78V32.052Z" fill="black"/>
<path d="M49.9939 36C50.0899 36 50.1379 35.952 50.1379 35.868V30.768C50.5819 30.624 51.0619 30.552 51.5539 30.552C52.6939 30.552 53.2699 31.128 53.2699 32.28V35.868C53.2699 35.952 53.3179 36 53.4019 36H54.1099C54.2059 36 54.2539 35.952 54.2539 35.868V32.256C54.2539 30.492 53.2339 29.664 51.5539 29.664C50.7619 29.664 49.9939 29.82 49.2499 30.132C49.1899 30.168 49.1539 30.216 49.1539 30.3V35.868C49.1539 35.952 49.2019 36 49.2859 36H49.9939Z" fill="black"/>
<path d="M62.1216 32.052C62.1216 31.272 61.8816 30.684 61.3896 30.276C60.9096 29.868 60.3216 29.664 59.6136 29.664C58.9056 29.664 58.2936 29.868 57.8016 30.276C57.3096 30.684 57.0696 31.272 57.0696 32.052V33.876C57.0696 34.584 57.3216 35.148 57.8136 35.544C58.3056 35.94 58.9056 36.132 59.6016 36.132C60.5016 36.132 61.2936 35.844 61.9776 35.268C62.0496 35.208 62.0616 35.136 62.0016 35.076L61.6536 34.62C61.6056 34.548 61.5456 34.536 61.4616 34.584C60.8976 35.028 60.2856 35.256 59.6256 35.256C58.7016 35.256 58.0656 34.752 58.0656 33.876V33.372H61.9896C62.0736 33.372 62.1216 33.324 62.1216 33.228V32.052ZM61.1616 32.556H58.0656V32.052C58.0656 31.056 58.6656 30.552 59.6136 30.552C60.5376 30.552 61.1616 31.08 61.1616 32.052V32.556Z" fill="black"/>
<path d="M67.0262 36C67.1102 36 67.1582 35.964 67.1702 35.88L68.1782 32.616C68.2982 32.172 68.4302 31.668 68.5622 31.116H68.5982C68.7182 31.68 68.8382 32.184 68.9702 32.616L69.9782 35.88C69.9902 35.964 70.0382 36 70.1222 36H70.9622C71.0462 36 71.0942 35.964 71.1182 35.88L72.8942 29.964C72.9302 29.856 72.8942 29.796 72.7862 29.796H72.0422C71.9582 29.796 71.9102 29.832 71.8982 29.916L71.0942 32.76L70.5542 34.884H70.5422C70.3502 34.08 70.1822 33.432 70.0262 32.94L69.1142 30.024C69.0902 29.94 69.0422 29.904 68.9702 29.904H68.1782C68.1062 29.904 68.0582 29.94 68.0342 30.024L67.1222 32.94C67.0142 33.312 66.8462 33.96 66.6182 34.884H66.5942L66.0542 32.76L65.2622 29.916C65.2382 29.832 65.1902 29.796 65.1062 29.796H64.3622C64.2542 29.796 64.2182 29.856 64.2542 29.964L66.0422 35.88C66.0542 35.964 66.1022 36 66.1862 36H67.0262Z" fill="black"/>
<path d="M79.7819 34.248C79.7219 33.444 79.3859 33.036 78.7499 32.772C78.2819 32.58 78.0779 32.532 77.5619 32.436C76.5179 32.232 76.0019 32.016 76.0019 31.428C76.0019 30.888 76.5179 30.552 77.3459 30.552C77.9099 30.552 78.4739 30.696 79.0259 30.996C79.1099 31.056 79.1699 31.032 79.2059 30.948L79.5299 30.408C79.5899 30.324 79.5659 30.264 79.4819 30.228C78.8219 29.856 78.1259 29.664 77.3939 29.664C76.7339 29.664 76.1819 29.82 75.7139 30.12C75.2579 30.42 75.0299 30.852 75.0299 31.428C75.0659 32.268 75.5099 32.712 76.1819 32.988C76.6739 33.192 76.9019 33.24 77.3699 33.336C77.9579 33.444 78.2219 33.492 78.5459 33.78C78.7019 33.912 78.7859 34.092 78.7859 34.296C78.7859 34.908 78.1979 35.256 77.3699 35.256C76.6859 35.256 76.0499 35.028 75.4499 34.584C75.3659 34.524 75.3059 34.536 75.2579 34.62L74.9339 35.172C74.8979 35.256 74.9099 35.328 74.9699 35.364C75.6659 35.88 76.4579 36.132 77.3459 36.132C78.7979 36.132 79.7819 35.436 79.7819 34.248Z" fill="black"/>
<path d="M89.3365 28.188C89.4205 28.188 89.4565 28.14 89.4565 28.056V27.48C89.4565 27.384 89.4085 27.336 89.3245 27.324C89.1085 27.3 88.8685 27.288 88.6045 27.288C87.4165 27.288 86.5885 28.08 86.5885 29.472V35.868C86.5885 35.952 86.6365 36 86.7205 36H87.4285C87.5245 36 87.5725 35.952 87.5725 35.868V30.732H89.2285C89.3125 30.732 89.3605 30.684 89.3605 30.588V29.988C89.3605 29.904 89.3125 29.856 89.2285 29.856H87.5725V29.46C87.5725 28.632 87.9805 28.152 88.7365 28.152C88.9645 28.152 89.1565 28.164 89.3365 28.188Z" fill="black"/>
<path d="M96.7837 32.052C96.7837 31.344 96.5437 30.768 96.0637 30.324C95.5957 29.88 94.9477 29.664 94.1437 29.664C93.3397 29.664 92.7037 29.88 92.2237 30.324C91.7437 30.768 91.5037 31.344 91.5037 32.052V33.78C91.5037 34.488 91.7437 35.052 92.2117 35.484C92.6917 35.916 93.3397 36.132 94.1437 36.132C95.7637 36.132 96.7837 35.208 96.7837 33.78V32.052ZM92.4997 32.052C92.4997 31.128 93.0877 30.552 94.1437 30.552C95.1997 30.552 95.7997 31.128 95.7997 32.052V33.78C95.7997 34.692 95.1997 35.256 94.1437 35.256C93.0877 35.256 92.4997 34.692 92.4997 33.78V32.052Z" fill="black"/>
<path d="M100.48 36C100.576 36 100.624 35.952 100.624 35.868V30.78C101.02 30.624 101.452 30.54 101.92 30.54C102.244 30.54 102.604 30.564 103 30.624C103.096 30.648 103.144 30.612 103.144 30.504V29.916C103.144 29.82 103.108 29.772 103.024 29.76C102.556 29.7 102.148 29.664 101.788 29.664C101.032 29.664 100.348 29.808 99.7361 30.108C99.6761 30.132 99.6401 30.18 99.6401 30.264V35.868C99.6401 35.952 99.6881 36 99.7721 36H100.48Z" fill="black"/>
<path d="M114.317 32.052C114.317 31.272 114.077 30.684 113.585 30.276C113.105 29.868 112.517 29.664 111.809 29.664C111.101 29.664 110.489 29.868 109.997 30.276C109.505 30.684 109.265 31.272 109.265 32.052V33.876C109.265 34.584 109.517 35.148 110.009 35.544C110.501 35.94 111.101 36.132 111.797 36.132C112.697 36.132 113.489 35.844 114.173 35.268C114.245 35.208 114.257 35.136 114.197 35.076L113.849 34.62C113.801 34.548 113.741 34.536 113.657 34.584C113.093 35.028 112.481 35.256 111.821 35.256C110.897 35.256 110.261 34.752 110.261 33.876V33.372H114.185C114.269 33.372 114.317 33.324 114.317 33.228V32.052ZM113.357 32.556H110.261V32.052C110.261 31.056 110.861 30.552 111.809 30.552C112.733 30.552 113.357 31.08 113.357 32.052V32.556Z" fill="black"/>
<path d="M119.607 36C119.679 36 119.739 35.964 119.775 35.892L121.983 29.964C122.007 29.856 121.971 29.796 121.875 29.796H121.107C121.023 29.796 120.963 29.832 120.951 29.904L119.751 33.324L119.187 34.956H119.175C119.091 34.752 118.983 34.44 118.839 34.044L118.599 33.324L117.411 29.904C117.375 29.832 117.327 29.796 117.255 29.796H116.487C116.379 29.796 116.343 29.856 116.379 29.964L118.575 35.892C118.611 35.964 118.671 36 118.731 36H119.607Z" fill="black"/>
<path d="M129.174 32.052C129.174 31.272 128.934 30.684 128.442 30.276C127.962 29.868 127.374 29.664 126.666 29.664C125.958 29.664 125.346 29.868 124.854 30.276C124.362 30.684 124.122 31.272 124.122 32.052V33.876C124.122 34.584 124.374 35.148 124.866 35.544C125.358 35.94 125.958 36.132 126.654 36.132C127.554 36.132 128.346 35.844 129.03 35.268C129.102 35.208 129.114 35.136 129.054 35.076L128.706 34.62C128.658 34.548 128.598 34.536 128.514 34.584C127.95 35.028 127.338 35.256 126.678 35.256C125.754 35.256 125.118 34.752 125.118 33.876V33.372H129.042C129.126 33.372 129.174 33.324 129.174 33.228V32.052ZM128.214 32.556H125.118V32.052C125.118 31.056 125.718 30.552 126.666 30.552C127.59 30.552 128.214 31.08 128.214 32.052V32.556Z" fill="black"/>
<path d="M132.817 36C132.913 36 132.961 35.952 132.961 35.868V30.78C133.357 30.624 133.789 30.54 134.257 30.54C134.581 30.54 134.941 30.564 135.337 30.624C135.433 30.648 135.481 30.612 135.481 30.504V29.916C135.481 29.82 135.445 29.772 135.361 29.76C134.893 29.7 134.485 29.664 134.125 29.664C133.369 29.664 132.685 29.808 132.073 30.108C132.013 30.132 131.977 30.18 131.977 30.264V35.868C131.977 35.952 132.025 36 132.109 36H132.817Z" fill="black"/>
<path d="M141.924 34.572C141.54 34.788 141.084 34.896 140.556 34.896C139.548 34.896 138.876 34.416 138.876 33.372V29.94C138.876 29.844 138.828 29.796 138.732 29.796H138.024C137.94 29.796 137.892 29.844 137.892 29.94V33.42C137.892 34.188 138.144 34.776 138.636 35.196C139.128 35.604 139.728 35.808 140.436 35.808C140.928 35.808 141.432 35.7 141.924 35.496V35.772C141.96 36.972 141.432 37.5 140.376 37.512C139.764 37.5 139.176 37.284 138.6 36.84C138.528 36.78 138.468 36.792 138.408 36.876L138.048 37.368C138 37.452 138 37.512 138.06 37.572C138.72 38.124 139.488 38.4 140.376 38.4C142.068 38.388 142.908 37.536 142.908 35.832V29.94C142.908 29.844 142.86 29.796 142.764 29.796H142.056C141.972 29.796 141.924 29.844 141.924 29.94V34.572Z" fill="black"/>
<path d="M151.054 32.052C151.054 31.344 150.814 30.768 150.334 30.324C149.866 29.88 149.218 29.664 148.414 29.664C147.61 29.664 146.974 29.88 146.494 30.324C146.014 30.768 145.774 31.344 145.774 32.052V33.78C145.774 34.488 146.014 35.052 146.482 35.484C146.962 35.916 147.61 36.132 148.414 36.132C150.034 36.132 151.054 35.208 151.054 33.78V32.052ZM146.77 32.052C146.77 31.128 147.358 30.552 148.414 30.552C149.47 30.552 150.07 31.128 150.07 32.052V33.78C150.07 34.692 149.47 35.256 148.414 35.256C147.358 35.256 146.77 34.692 146.77 33.78V32.052Z" fill="black"/>
<path d="M154.75 36C154.846 36 154.894 35.952 154.894 35.868V30.768C155.338 30.624 155.818 30.552 156.31 30.552C157.45 30.552 158.026 31.128 158.026 32.28V35.868C158.026 35.952 158.074 36 158.158 36H158.866C158.962 36 159.01 35.952 159.01 35.868V32.256C159.01 30.492 157.99 29.664 156.31 29.664C155.518 29.664 154.75 29.82 154.006 30.132C153.946 30.168 153.91 30.216 153.91 30.3V35.868C153.91 35.952 153.958 36 154.042 36H154.75Z" fill="black"/>
<path d="M166.878 32.052C166.878 31.272 166.638 30.684 166.146 30.276C165.666 29.868 165.078 29.664 164.37 29.664C163.662 29.664 163.05 29.868 162.558 30.276C162.066 30.684 161.826 31.272 161.826 32.052V33.876C161.826 34.584 162.078 35.148 162.57 35.544C163.062 35.94 163.662 36.132 164.358 36.132C165.258 36.132 166.05 35.844 166.734 35.268C166.806 35.208 166.818 35.136 166.758 35.076L166.41 34.62C166.362 34.548 166.302 34.536 166.218 34.584C165.654 35.028 165.042 35.256 164.382 35.256C163.458 35.256 162.822 34.752 162.822 33.876V33.372H166.746C166.83 33.372 166.878 33.324 166.878 33.228V32.052ZM165.918 32.556H162.822V32.052C162.822 31.056 163.422 30.552 164.37 30.552C165.294 30.552 165.918 31.08 165.918 32.052V32.556Z" fill="black"/>
<path d="M1.82 13.188C1.82 17.5 4.844 20.44 9.38 20.44C13.86 20.44 16.884 17.5 16.884 13.188V3.36C16.884 2.94 17.108 2.744 17.5 2.744H18.704V0.336001H15.876C14.616 0.336001 14.084 0.868 14.084 2.128V13.048C14.084 16.044 12.208 17.808 9.352 17.808C6.468 17.808 4.62 16.044 4.62 13.076V2.128C4.62 0.868 4.06 0.336001 2.8 0.336001H0V2.744H1.204C1.596 2.744 1.82 2.94 1.82 3.36V13.188Z" fill="#242424"/>
<path d="M21.3763 20.104H24.2043C25.4643 20.104 25.9963 19.572 25.9963 18.312V7.588C25.9963 6.496 25.8283 4.9 25.8283 4.9H25.8843C25.8843 4.9 26.7803 6.524 27.5083 7.588L36.3283 20.104H38.8483V3.36C38.8483 2.94 39.0723 2.744 39.4643 2.744H40.6683V0.336001H37.8683C36.5803 0.336001 36.0483 0.868 36.0483 2.128V12.852C36.0483 13.944 36.2443 15.54 36.2443 15.54H36.1883C36.1883 15.54 35.2643 13.916 34.5363 12.852L25.7443 0.336001H23.1963V17.08C23.1963 17.472 22.9723 17.696 22.5803 17.696H21.3763V20.104Z" fill="#242424"/>
<path d="M43.7917 20.104H50.3158V17.696H48.4118V2.744H50.3158V0.336001H43.7917V2.744H45.7238V17.696H43.7917V20.104Z" fill="#242424"/>
<path d="M53.3457 10.052C53.3457 15.876 57.4617 20.44 63.3697 20.44C68.3537 20.44 71.1538 17.136 71.1538 17.136L69.6418 15.12C69.6418 15.12 67.3177 17.808 63.3977 17.808C59.3657 17.808 56.2578 14.364 56.2578 10.052C56.2578 5.6 59.3377 2.604 63.3137 2.604C65.3017 2.604 68.1018 3.444 68.1018 5.096V6.216H70.6778V4.284C70.6778 1.092 65.9178 0 63.2578 0C57.6018 0 53.3457 4.34 53.3457 10.052Z" fill="#242424"/>
<path d="M73.6771 10.08C73.6771 15.904 78.1011 20.44 83.8131 20.44C89.5251 20.44 93.9771 15.904 93.9771 10.08C93.9771 4.396 89.5251 0 83.8131 0C78.1011 0 73.6771 4.396 73.6771 10.08ZM76.5891 10.08C76.5891 5.852 79.8091 2.604 83.8131 2.604C87.8171 2.604 91.0651 5.852 91.0651 10.08C91.0651 14.448 87.8171 17.808 83.8131 17.808C79.8091 17.808 76.5891 14.448 76.5891 10.08Z" fill="#242424"/>
<path d="M96.9402 20.104H103.464V17.696H101.56V2.744H103.464V0.336001H96.9402V2.744H98.8722V17.696H96.9402V20.104Z" fill="#242424"/>
<path d="M106.63 20.104H109.458C110.718 20.104 111.25 19.572 111.25 18.312V7.588C111.25 6.496 111.082 4.9 111.082 4.9H111.138C111.138 4.9 112.034 6.524 112.762 7.588L121.582 20.104H124.102V3.36C124.102 2.94 124.326 2.744 124.718 2.744H125.922V0.336001H123.122C121.834 0.336001 121.302 0.868 121.302 2.128V12.852C121.302 13.944 121.498 15.54 121.498 15.54H121.442C121.442 15.54 120.518 13.916 119.79 12.852L110.998 0.336001H108.45V17.08C108.45 17.472 108.226 17.696 107.834 17.696H106.63V20.104Z" fill="#242424"/>
<path d="M129.303 20.104H132.075V17.22H129.303V20.104Z" fill="#242424"/>
<path d="M140.091 20.104H142.891V2.744H146.867C147.259 2.744 147.483 2.94 147.483 3.36V4.62H149.975V2.016C149.975 0.756 149.555 0.336001 148.295 0.336001H134.687C133.427 0.336001 133.007 0.756 133.007 2.016V4.62H135.527V3.36C135.527 2.94 135.723 2.744 136.143 2.744H140.091V20.104Z" fill="#242424"/>
<path d="M159.174 20.104H162.143L168.359 3.36C168.555 2.856 168.807 2.744 169.311 2.744H169.702V0.336001H168.107C166.707 0.336001 166.259 0.644 165.783 1.96L161.443 14.14C161.079 15.204 160.687 16.856 160.687 16.856H160.631C160.631 16.856 160.238 15.204 159.874 14.14L155.535 1.96C155.087 0.644 154.639 0.336001 153.239 0.336001H151.643V2.744H152.035C152.539 2.744 152.79 2.856 152.986 3.36L159.174 20.104Z" fill="#242424"/>
</svg>
