<svg width="61" height="62" viewBox="0 0 61 62" fill="none" xmlns="http://www.w3.org/2000/svg">
<path fill-rule="evenodd" clip-rule="evenodd" d="M30.4291 60.9102C47.2347 60.9102 60.8582 47.275 60.8582 30.4551C60.8582 13.6352 47.2347 0 30.4291 0C13.6236 0 0 13.6352 0 30.4551C0 47.275 13.6236 60.9102 30.4291 60.9102Z" transform="translate(0 0.240234)" fill="#EFEFEF"/>
<mask id="mask0" mask-type="alpha" maskUnits="userSpaceOnUse" x="0" y="0" width="61" height="62">
<path fill-rule="evenodd" clip-rule="evenodd" d="M30.4291 60.9102C47.2347 60.9102 60.8582 47.275 60.8582 30.4551C60.8582 13.6352 47.2347 0 30.4291 0C13.6236 0 0 13.6352 0 30.4551C0 47.275 13.6236 60.9102 30.4291 60.9102Z" transform="translate(0 0.240234)" fill="white"/>
</mask>
<g mask="url(#mask0)">
<path d="M9.96959 32.4096L25.1902 22.1036L17.3481 16.5825L35.5239 6.33469C37.977 4.95927 40.3914 3.66133 42.5741 2.65398C42.4195 2.55712 42.265 2.46026 42.1298 2.3634C42.1105 2.3634 42.0912 2.3634 42.0912 2.34403C39.8892 0.891118 37.2623 0 34.4616 0C30.2122 0 26.4264 1.99533 23.954 5.09487C21.4816 1.99533 17.6958 0 13.4657 0C6.02925 0 -0.151687 6.06348 0.00283593 13.5411C0.118728 18.6554 2.16616 23.5565 7.69037 29.9687C8.38573 30.7823 9.15834 31.5959 9.96959 32.4096Z" transform="translate(6.84766 11.1807)" fill="#CDCDCD"/>
<path d="M17.0362 9.99602L16.3408 10.461C15.0853 11.294 13.8298 12.127 12.5743 12.9406C12.6902 13.0374 12.8061 13.1149 12.9027 13.2118L20.6289 18.4423L4.32665 27.8571C2.83936 28.7289 1.39071 29.5425 0 30.2399C3.99829 33.9206 8.63399 37.3107 12.0914 39.4029V39.4223H12.1108H12.1301V39.4029C12.7868 38.9961 22.0582 33.3394 28.3743 25.9974C33.8792 19.5852 35.946 14.6841 36.0619 9.56983C36.1391 5.73415 34.3428 2.15031 32.2567 0L17.0362 9.99602Z" transform="translate(18.708 15.1519)" fill="#A0A0A0"/>
</g>
</svg>
