<svg width="30" height="36" viewBox="0 0 30 36" fill="none" xmlns="http://www.w3.org/2000/svg">
<path d="M10.3458 9.96747L9.8952 15.4607L17.4417 16.1232C18.787 16.2413 19.9757 15.2483 20.0724 13.9061L20.1073 13.5082C20.225 12.1679 19.2064 10.9811 17.8821 10.8649L11.3657 10.2928L10.3356 10.2023M23.0441 18.6621C24.4363 20.1771 25.2094 22.2288 25.0182 24.4067L24.9814 24.8256C24.6366 28.9949 20.9544 32.0905 16.7712 31.7232L16.582 31.7066L16.4082 33.9283L11.5523 33.502L11.7262 31.2803L9.72921 31.105L9.55535 33.3267L4.67851 32.8986L4.87339 30.6787L3.73826 30.5791L1.32086 30.3668L1.72638 25.5064L4.14378 25.7186L4.63386 19.8948L5.03938 15.0344L5.47798 9.797L3.03956 9.58293L3.44508 4.72249L5.86248 4.93471L6.9976 5.03436L7.21559 2.31003L12.0924 2.73817L11.8744 5.4625L13.8504 5.63597L14.0894 2.91348L18.9663 3.34162L18.7464 6.0869C22.552 6.65313 25.3224 10.083 25.0052 13.9382L24.9702 14.3361C24.8021 16.0096 24.0985 17.5095 23.0441 18.6621ZM20.1256 24.3993L20.1623 23.9805C20.2929 22.4936 19.1593 21.17 17.6668 21.039L17.0362 20.9836L9.48968 20.3211L8.9996 26.1449L10.0296 26.2353L17.1767 26.8628C18.6902 26.9957 19.995 25.8862 20.1256 24.3993Z" stroke="#FF6932" stroke-miterlimit="10"/>
</svg>
