<svg width="36" height="35" viewBox="0 0 36 35" fill="none" xmlns="http://www.w3.org/2000/svg">
<path d="M30.2604 1.02197L26.4931 2.24556L27.5732 3.32908L19.7094 11.0136L13.0051 9.4444L3.58398 20.4592L4.54017 21.2302L13.4164 10.6018L20.0587 12.3079L28.133 3.88997L29.1034 4.86391L30.2604 1.02197Z" stroke="#FF6932" stroke-miterlimit="10"/>
<path d="M32.6764 31.7504V8.41285C32.6764 8.09253 32.4155 7.83057 32.0966 7.83057H26.4454C26.1264 7.83057 25.8656 8.09253 25.8656 8.41285V31.7504H25.1328V14.9477C25.1328 14.6274 24.8719 14.3654 24.553 14.3654H18.9017C18.5828 14.3654 18.322 14.6274 18.322 14.9477V31.7504H17.5898V19.595C17.5898 19.2747 17.329 19.0127 17.01 19.0127H11.3588C11.0398 19.0127 10.779 19.2747 10.779 19.595V31.7504H10.0469V25.1144C10.0469 24.7941 9.78602 24.5321 9.46707 24.5321H3.81389C3.49494 24.5321 3.23411 24.7941 3.23411 25.1144V31.7504H1.00537V33.9953H34.9949V31.7504H32.6764V31.7504Z" stroke="#FF6932" stroke-miterlimit="10"/>
</svg>
