<svg width="32" height="36" viewBox="0 0 32 36" fill="none" xmlns="http://www.w3.org/2000/svg">
<path d="M29.4577 4.36984L29.3013 3.8279L28.6832 3.75564C27.5102 3.61988 26.3597 2.0477 26.0512 1.50576L25.7909 1.05469H6.22549L5.9684 1.50685C5.6599 2.0477 4.51907 3.61988 3.3354 3.75564L2.71624 3.8279L2.55985 4.36984C-4.50043 28.7605 15.5417 34.8171 15.7474 34.8718L16.0141 34.9419L16.2819 34.8697C16.4844 34.8138 36.4644 28.5766 29.4577 4.36984ZM16.0098 33.1946C13.5932 32.3548 -1.58141 26.1701 4.21164 5.2676C5.72953 4.80558 6.82751 3.4447 7.32776 2.71336H24.6897C25.19 3.4447 26.2869 4.80668 27.8059 5.2676C33.6 26.1712 18.4232 32.3548 16.0098 33.1946Z" stroke="#FF6932" stroke-miterlimit="10"/>
<path d="M20.4091 13.3529H19.8061C19.8061 10.6159 18.2003 9.03931 15.9872 9.03931C13.7741 9.03931 12.1695 10.6159 12.1695 13.3529H11.5664C10.6784 13.3529 10.3838 13.6902 10.3838 14.5978V20.3489C10.3838 21.2565 10.6784 22.1116 11.5664 22.1116H20.4091C21.2972 22.1116 21.8467 21.2565 21.8467 20.3489V14.5978C21.8456 13.6902 21.2972 13.3529 20.4091 13.3529ZM16.9931 20.3599H14.9835L15.3691 17.4903C14.9739 17.2637 14.7071 16.7787 14.7071 16.2827C14.7071 15.5525 15.2856 14.9339 16.0012 14.9339C16.7156 14.9339 17.2952 15.513 17.2952 16.2433C17.2952 16.7491 17.0177 17.2889 16.6096 17.5111L16.9931 20.3599ZM13.3756 13.3529C13.3756 10.8348 14.6879 10.2721 15.9883 10.2721C17.2887 10.2721 18.601 10.8348 18.601 13.3529H13.3756Z" stroke="#FF6932" stroke-miterlimit="10"/>
</svg>
