<svg width="27" height="39" viewBox="0 0 27 39" fill="none" xmlns="http://www.w3.org/2000/svg">
<g clip-path="url(#clip0)">
<path d="M21.9448 37.0606L17.3128 38.5494C13.2027 39.2496 7.52688 32.6745 4.15073 22.5825C0.766431 12.4824 1.55746 3.74239 5.25165 2.21329L9.48407 0.563477" stroke="#FF6932" stroke-miterlimit="10"/>
<path d="M9.4844 0.56337C5.41509 1.89127 4.85239 11.1544 8.2367 21.2464C11.6128 31.3465 17.6475 38.4608 21.725 37.1329C25.7943 35.805 26.357 26.5419 22.9727 16.4418C19.5965 6.34174 13.5537 -0.764529 9.4844 0.56337Z" stroke="#FF6932" stroke-miterlimit="10"/>
<path d="M11.262 3.52505C8.45666 4.44251 8.4485 11.927 11.2375 20.2566C14.0265 28.5861 18.5525 34.5979 21.3578 33.6885C24.1549 32.771 24.1712 25.2865 21.3822 16.957C18.5933 8.6274 14.0591 2.61564 11.262 3.52505Z" stroke="#FF6932" stroke-miterlimit="10"/>
<path d="M20.6728 17.1984C17.9898 9.18271 13.7003 3.3319 10.8787 3.7182C11.001 3.64577 11.1233 3.57334 11.262 3.52505C14.0591 2.61564 18.5933 8.62741 21.3822 16.9489C24.1712 25.2785 24.1549 32.771 21.3578 33.6804C21.2518 33.7126 21.1376 33.7207 21.0316 33.7368C23.4373 32.2801 23.3231 25.1256 20.6728 17.1984Z" stroke="#FF6932" stroke-miterlimit="10"/>
<path d="M11.5957 9.07763L12.5482 11.8695C12.4749 11.9092 12.4016 11.949 12.3334 11.995C11.552 12.5156 10.7495 13.6138 11.3837 15.9424C12.1346 18.745 13.5379 19.277 14.8908 19.7987C15.0327 19.8579 15.176 19.9055 15.3229 19.9709L17.5039 26.3327C17.251 26.2926 16.9858 26.2107 16.6996 26.0633C16.3382 25.8743 15.8852 26.0305 15.694 26.3957C15.4966 26.7661 15.6386 27.2193 15.9951 27.4021C16.6868 27.7541 17.3747 27.8914 18.0109 27.8328L18.6654 29.7402C18.794 30.1111 19.2172 30.3114 19.6059 30.1668C19.9946 30.0222 20.205 29.5892 20.0726 29.2006L19.4095 27.2693C19.5664 27.1501 19.702 27.0175 19.8352 26.8556C20.8209 25.6581 20.9871 23.3842 19.142 20.9871C18.2463 19.8287 17.3484 19.2321 16.5248 18.8334L14.5109 12.956C15.4336 12.9928 16.4051 13.3005 16.6356 13.4835C16.9488 13.7435 17.4175 13.6988 17.6839 13.3751C17.8691 13.16 17.9073 12.8795 17.827 12.6347C17.7836 12.5149 17.7163 12.4045 17.6124 12.3141C17.0962 11.8793 15.4865 11.3519 14.0088 11.4621L13.008 8.54428C12.8756 8.15571 12.4575 7.9616 12.0688 8.10621C11.6674 8.26127 11.4634 8.68906 11.5957 9.07763ZM12.8143 15.4976C12.5175 14.4047 12.6026 13.6706 13.0343 13.3039L14.6585 18.0511C13.8449 17.6649 13.2565 17.1135 12.8143 15.4976ZM17.9514 21.9287C19.1557 23.4858 19.2567 24.8856 18.8515 25.6661L17.3386 21.2419C17.5439 21.4458 17.7478 21.6612 17.9514 21.9287Z" stroke="#FF6932" stroke-miterlimit="10"/>
</g>
<defs>
<clipPath id="clip0">
<rect width="27" height="39" fill="white" transform="matrix(-1 0 0 1 27 0)"/>
</clipPath>
</defs>
</svg>
