<svg width="30" height="30" viewBox="0 0 30 30" fill="none" xmlns="http://www.w3.org/2000/svg">
<path d="M15.0005 28.873C22.6308 28.873 28.8164 22.6874 28.8164 15.0571C28.8164 7.4268 22.6308 1.24121 15.0005 1.24121C7.37016 1.24121 1.18457 7.4268 1.18457 15.0571C1.18457 22.6874 7.37016 28.873 15.0005 28.873Z" stroke="#FF6A32" stroke-miterlimit="10"/>
<path d="M14.9168 28.7595H14.9136C14.828 28.7595 14.7578 28.6899 14.7578 28.6037V27.823C14.7578 27.7375 14.8274 27.6672 14.9136 27.6672H14.9168C15.0023 27.6672 15.0725 27.7368 15.0725 27.823V28.6037C15.0725 28.6899 15.0029 28.7595 14.9168 28.7595Z" stroke="#FF6A32" stroke-miterlimit="10"/>
<path d="M14.9168 2.21927H14.9136C14.828 2.21927 14.7578 2.14969 14.7578 2.06351V1.28344C14.7578 1.1979 14.8274 1.12769 14.9136 1.12769H14.9168C15.0023 1.12769 15.0725 1.19727 15.0725 1.28344V2.06415C15.0725 2.14969 15.0029 2.21927 14.9168 2.21927Z" stroke="#FF6A32" stroke-miterlimit="10"/>
<path d="M28.8157 15.0335V15.0367C28.8157 15.1229 28.7461 15.1925 28.6606 15.1925L27.8799 15.1938C27.7943 15.1938 27.7241 15.1242 27.7241 15.0386V15.0354C27.7241 14.9499 27.7937 14.8797 27.8792 14.8797L28.6599 14.8784C28.7461 14.8784 28.8157 14.9474 28.8157 15.0335Z" stroke="#FF6A32" stroke-miterlimit="10"/>
<path d="M2.27616 15.0758V15.079C2.27616 15.1652 2.20657 15.2347 2.12104 15.2347L1.34033 15.236C1.25479 15.236 1.18457 15.1664 1.18457 15.0809V15.0777C1.18457 14.9922 1.25415 14.9219 1.33969 14.9219L2.1204 14.9207C2.20657 14.92 2.27616 14.9896 2.27616 15.0758Z" stroke="#FF6A32" stroke-miterlimit="10"/>
<path d="M25.144 24.5432L25.1421 24.5451C25.0814 24.6058 24.9831 24.6058 24.9225 24.5445L24.3716 23.991C24.3109 23.9304 24.3109 23.8321 24.3722 23.7714L24.3741 23.7695C24.4348 23.7089 24.5331 23.7089 24.5937 23.7702L25.1446 24.3236C25.2053 24.3843 25.2053 24.4826 25.144 24.5432Z" stroke="#FF6A32" stroke-miterlimit="10"/>
<path d="M6.41205 5.74243L6.41013 5.74434C6.34949 5.80499 6.25118 5.80499 6.19054 5.7437L5.63964 5.19025C5.579 5.12961 5.579 5.0313 5.64028 4.97066L5.64219 4.96874C5.70284 4.9081 5.80114 4.9081 5.86179 4.96938L6.41269 5.52283C6.47333 5.58348 6.47333 5.68178 6.41205 5.74243Z" stroke="#FF6A32" stroke-miterlimit="10"/>
<path d="M24.731 5.21878L24.7335 5.22069C24.7948 5.2807 24.7961 5.379 24.7361 5.44029L24.1903 5.99885C24.1303 6.06013 24.032 6.06141 23.9707 6.0014L23.9682 5.99949C23.9069 5.93948 23.9056 5.84117 23.9656 5.77989L24.5114 5.22133C24.5714 5.16005 24.6697 5.15877 24.731 5.21878Z" stroke="#FF6A32" stroke-miterlimit="10"/>
<path d="M6.18119 24.199L6.18374 24.2009C6.24502 24.2609 6.2463 24.3592 6.18629 24.4205L5.6405 24.9791C5.5805 25.0404 5.48219 25.0416 5.42091 24.9816L5.41835 24.9797C5.35707 24.9197 5.35579 24.8214 5.4158 24.7601L5.96159 24.2016C6.0216 24.1403 6.1199 24.139 6.18119 24.199Z" stroke="#FF6A32" stroke-miterlimit="10"/>
<path d="M15.0003 29.1347C11.2244 29.1347 7.67519 27.6646 5.0056 24.995C2.33536 22.3254 0.865234 18.7755 0.865234 15.0003C0.865234 11.2251 2.33536 7.67519 5.00496 5.00496C7.67519 2.33536 11.2244 0.865234 15.0003 0.865234C18.7762 0.865234 22.3254 2.33536 24.995 5.00496C27.6646 7.67455 29.1347 11.2244 29.1347 14.9997C29.1347 18.7749 27.6646 22.3254 24.995 24.995C22.3254 27.6646 18.7755 29.1347 15.0003 29.1347ZM15.0003 1.50359C7.55837 1.50359 1.50359 7.55837 1.50359 15.0003C1.50359 22.4422 7.55837 28.497 15.0003 28.497C22.4422 28.497 28.497 22.4422 28.497 15.0003C28.4964 7.55837 22.4422 1.50359 15.0003 1.50359Z" stroke="#FF6A32" stroke-miterlimit="10"/>
<path d="M14.9125 15.1037H14.9074C14.7765 15.1037 14.6699 14.999 14.6699 14.8694V9.4855C14.6699 9.35591 14.7759 9.25122 14.9074 9.25122H14.9125C15.0434 9.25122 15.15 9.35591 15.15 9.4855V14.8694C15.1493 14.999 15.0434 15.1037 14.9125 15.1037Z" stroke="#FF6A32" stroke-miterlimit="10"/>
<path d="M14.858 15.2491L14.8612 15.2452C14.9487 15.1399 15.1453 15.1591 15.2998 15.288L21.7465 20.6406C21.9016 20.7696 21.9565 20.9592 21.8691 21.0639L21.8659 21.0677C21.7784 21.173 21.5818 21.1539 21.4273 21.0249L14.9806 15.6723C14.8255 15.544 14.7706 15.3544 14.858 15.2491Z" stroke="#FF6A32" stroke-miterlimit="10"/>
<path d="M15.5894 15.2138C15.6503 14.8387 15.3955 14.4852 15.0204 14.4243C14.6452 14.3634 14.2917 14.6182 14.2308 14.9933C14.17 15.3685 14.4247 15.722 14.7999 15.7828C15.175 15.8437 15.5285 15.589 15.5894 15.2138Z" stroke="#FF6A32" stroke-miterlimit="10"/>
<path d="M14.91 15.5475C15.155 15.5475 15.3536 15.3488 15.3536 15.1038C15.3536 14.8588 15.155 14.6602 14.91 14.6602C14.6649 14.6602 14.4663 14.8588 14.4663 15.1038C14.4663 15.3488 14.6649 15.5475 14.91 15.5475Z" stroke="#FF6A32" stroke-miterlimit="10"/>
</svg>
