<svg width="38" height="22" viewBox="0 0 38 22" fill="none" xmlns="http://www.w3.org/2000/svg">
<path d="M18.7429 7.42407C15.899 7.42407 13.5938 9.75182 13.5938 12.6235C13.5938 15.4952 15.899 17.823 18.7429 17.823C21.5868 17.823 23.892 15.4952 23.892 12.6235C23.892 9.75182 21.5868 7.42407 18.7429 7.42407Z" stroke="#FF6932" stroke-miterlimit="10"/>
<path d="M35.9364 8.65073L35.9298 8.64496C35.7526 8.48244 35.4786 8.49576 35.3177 8.67427L33.5556 10.6317C32.9465 10.113 32.3137 9.62899 31.6593 9.17961L33.1479 6.95222C33.2816 6.75195 33.2297 6.47974 33.0314 6.34475L33.0239 6.33986C32.8256 6.20443 32.556 6.25727 32.4223 6.45754L30.9254 8.69692C30.2556 8.27462 29.5639 7.88784 28.8519 7.5366L30.0274 5.06897C30.1312 4.85138 30.0406 4.58983 29.8246 4.48504L29.8167 4.48104C29.6012 4.37624 29.3422 4.46772 29.2384 4.68575L28.0581 7.16403C27.8422 7.06767 27.625 6.97442 27.406 6.88472C26.8923 6.67424 26.373 6.48329 25.8488 6.31144L26.6694 3.66264C26.7406 3.43218 26.6135 3.18661 26.3853 3.11423L26.3769 3.11157C26.1487 3.03963 25.9055 3.16796 25.8338 3.39843L25.011 6.05433C24.2529 5.83808 23.4846 5.66179 22.7089 5.52546L23.1474 2.76032C23.1852 2.52186 23.0242 2.29717 22.7881 2.25898L22.7793 2.25765C22.5431 2.21946 22.3206 2.38198 22.2828 2.62044L21.8435 5.39047C21.0664 5.28478 20.2823 5.21951 19.4921 5.19375L19.5343 2.37843C19.5378 2.13686 19.347 1.93793 19.1077 1.93437H19.0989C18.8597 1.93082 18.6627 2.12354 18.6592 2.36511L18.617 5.18221C17.8263 5.18665 17.0409 5.23061 16.2625 5.31498L15.9054 2.52231C15.8746 2.28252 15.6574 2.11333 15.4199 2.14441L15.4111 2.14575C15.1737 2.17683 15.0061 2.39619 15.0369 2.63598L15.3935 5.42599C14.6147 5.54056 13.8429 5.69598 13.0804 5.89092L12.3333 3.19061C12.2691 2.95793 12.0298 2.82204 11.7994 2.88688L11.7902 2.88998C11.5597 2.95482 11.4252 3.19638 11.4894 3.42907L12.2352 6.12494C11.5074 6.34119 10.7884 6.59431 10.0799 6.88472C10.0558 6.89449 10.032 6.9047 10.0078 6.91492L8.89083 4.3718C8.79364 4.15111 8.5377 4.05119 8.31915 4.14933L8.31123 4.15288C8.09223 4.25102 7.99372 4.50946 8.09091 4.73016L9.20438 7.26528C8.48361 7.5961 7.78308 7.96289 7.10409 8.36476L5.65333 6.04456C5.5258 5.8403 5.25799 5.77902 5.0557 5.90824L5.04822 5.91312C4.84593 6.0419 4.78525 6.31233 4.91322 6.5166L6.35738 8.82702C5.69203 9.25643 5.04822 9.72091 4.42772 10.22L2.69156 8.17026C2.53588 7.98643 2.26235 7.96511 2.08073 8.12186L2.07414 8.12764C1.89208 8.28483 1.87097 8.56103 2.0262 8.74443L3.75314 10.7835C3.31074 11.1676 2.88109 11.5704 2.46464 11.9909L2.30501 12.1521C2.18144 12.2769 2.11196 12.4465 2.11196 12.6233C2.11196 12.8 2.18144 12.9692 2.30501 13.0944L2.46464 13.2556C4.66212 15.4746 7.22459 17.1926 10.0804 18.3623C12.839 19.4919 15.7533 20.0643 18.7432 20.0643C21.7327 20.0643 24.6474 19.4915 27.406 18.3623C30.2622 17.1926 32.8247 15.4746 35.0217 13.2556L35.1813 13.0944C35.439 12.8342 35.439 12.4128 35.1813 12.1526L35.0217 11.9914C34.7578 11.7249 34.4887 11.4661 34.2143 11.2143L35.9659 9.26886C36.1264 9.08991 36.1132 8.81326 35.9364 8.65073ZM26.9095 17.1278C24.3092 18.1926 21.5616 18.7326 18.7427 18.7326C15.9239 18.7326 13.1758 18.1926 10.576 17.1282C8.01835 16.0807 5.7105 14.5665 3.7096 12.6237C5.7105 10.681 8.01835 9.16673 10.5755 8.11964C13.1758 7.05479 15.9234 6.51526 18.7423 6.51526C21.5611 6.51526 24.3088 7.05524 26.909 8.11964C29.4662 9.16673 31.7741 10.681 33.775 12.6237C31.7745 14.5665 29.4667 16.0807 26.9095 17.1278Z" stroke="#FF6932" stroke-miterlimit="10"/>
</svg>
