<svg width="29" height="30" viewBox="0 0 29 30" fill="none" xmlns="http://www.w3.org/2000/svg">
<path d="M20.2067 28.0229C20.0599 27.9619 19.851 27.8633 19.6121 27.7053C19.6326 27.7837 19.6254 27.8418 19.6023 27.8855C19.4188 28.2344 18.1234 27.8933 17.4846 27.7053C17.4582 27.7259 17.4168 27.7634 17.3857 27.8231C17.3361 27.9185 17.3446 28.0089 17.3495 28.0431C17.594 28.1939 17.8535 28.346 18.128 28.4968C18.394 28.643 18.6531 28.7769 18.9038 28.8993C19.4818 29.0778 20.2851 29.2041 21.0805 28.8908C21.1435 28.866 21.2045 28.8392 21.2633 28.8108C21.2554 28.7256 21.2313 28.599 21.149 28.4795C20.9708 28.2217 20.6702 28.2158 20.2067 28.0229Z" fill="#D5505B"/>
<path d="M8.67984 24.0425C8.15631 24.5265 7.83318 24.7253 7.71046 24.6391C7.65595 24.6009 7.64127 24.5063 7.66574 24.3558C7.64486 24.4325 7.60602 24.5402 7.5316 24.6541C7.44543 24.786 7.34654 24.8718 7.27799 24.9224C7.20292 24.9201 7.06192 24.926 6.90526 24.9972C6.76295 25.0615 6.67058 25.1512 6.62195 25.2061C6.60106 25.2524 6.60335 25.2877 6.60661 25.3072C6.62326 25.4003 6.73096 25.4776 6.87523 25.4894C7.08738 25.5057 7.36449 25.505 7.68076 25.4447C7.88214 25.4061 8.05741 25.3516 8.20266 25.2955C8.36128 25.1094 8.52187 24.9061 8.67984 24.6838C8.73696 24.6035 8.79146 24.5239 8.84401 24.4452C8.85185 24.4182 8.87796 24.318 8.829 24.2067C8.78461 24.1055 8.70595 24.0572 8.67984 24.0425Z" fill="#D5505B"/>
<path d="M27.326 0.00532682C25.1493 -0.0243747 22.6984 0.0663617 20.0318 0.372842C17.6208 0.649947 15.415 1.06087 13.4303 1.52957C12.4335 0.875156 11.3724 0.927378 11.2297 0.936844C11.0169 0.927705 9.46691 0.887885 8.32389 2.14547C8.14894 2.33804 8.00794 2.53713 7.89012 2.73688L6.32997 3.22125C6.33552 3.13018 6.3427 3.0463 6.35053 2.97091C6.20235 2.90497 5.69057 2.69968 5.08447 2.8805C4.7052 2.99375 4.45519 3.20852 4.33083 3.33255C4.31451 3.38216 4.29721 3.44515 4.28514 3.51826C4.27992 3.5088 4.27469 3.499 4.26947 3.48954C4.16633 3.49476 4.02403 3.51434 3.86671 3.57603C3.59841 3.68146 3.43032 3.85314 3.34807 3.9504C3.34057 4.00393 3.33502 4.07214 3.33632 4.15015L1.8408 4.61428L2.07515 5.09146L3.54195 4.79281C3.6415 4.94197 3.75051 5.04479 3.80861 5.09146C3.50898 5.23344 3.24754 5.36465 3.03115 5.47725C1.45044 6.29812 1.16191 6.67739 1.01439 6.97538C0.911246 7.18395 0.864572 7.37815 0.841398 7.52274C0.814634 7.59944 0.788197 7.7127 0.812676 7.83966C0.899496 8.28878 1.55097 8.50746 2.05328 8.66935C3.56447 9.15665 4.32006 9.40013 4.42516 9.4207C5.00907 9.53526 5.75585 9.70335 6.64396 9.95173C6.91192 10.3522 7.23962 10.7778 7.64663 11.2292C7.92373 11.2919 8.23087 11.3523 8.55856 11.4084C8.69238 11.9819 8.80335 12.7228 8.77561 13.589C8.73677 14.8009 8.44335 15.768 8.19986 16.3898C7.19034 16.9048 5.83843 17.7593 4.58052 19.1523C4.04067 19.7503 3.6131 20.3417 3.27529 20.8822C3.23612 20.9909 3.19598 21.1508 3.21458 21.3375C3.26713 21.8637 3.74757 22.208 4.12521 22.4606C5.07011 23.0928 6.03589 23.5968 6.76733 23.9467C7.01049 24.0609 7.59963 24.293 8.25306 24.0994C8.3908 24.0586 8.51189 24.0048 8.61699 23.9467C8.63951 23.914 8.66856 23.8625 8.67802 23.7962C8.71197 23.556 8.45477 23.3713 8.25306 23.1588C8.2139 23.1176 7.63912 22.4972 7.64598 21.7928C7.64826 21.5585 7.71223 21.5954 7.76739 21.1857C7.79024 21.0154 7.80068 20.8427 7.80264 20.6841C8.53572 20.4664 9.99925 20 11.2565 19.3929C11.9961 20.2252 13.4345 20.7102 14.0145 21.818C14.3252 22.4113 14.443 22.7195 14.443 22.7195C14.7446 23.46 14.727 23.7417 15.2587 24.3674C15.5831 24.7489 16.2196 25.3172 16.8068 26.0366C16.9079 26.1606 17.4475 26.8294 17.4227 27.173C17.42 27.2096 17.3982 27.4218 17.4954 27.4746C17.516 27.4857 17.5369 27.4874 17.5513 27.4867C18.032 27.5925 18.6143 27.6453 19.2531 27.537C19.3389 27.5223 19.4221 27.5056 19.5027 27.4867C19.5243 27.4776 19.553 27.4619 19.5755 27.4329C19.6738 27.3062 19.5484 27.0588 19.5132 26.9857C19.2527 26.4458 19.209 25.826 19.0527 25.2473C18.9068 24.7065 18.9469 24.5835 18.8098 23.9421C18.5905 22.9156 18.4103 22.5422 18.0813 21.4534C17.5225 19.6031 17.6759 19.4657 17.2617 18.4183C16.8975 17.4972 16.4647 16.8085 16.1736 16.3894C16.0704 15.1423 16.3025 14.2702 16.5434 13.6944C16.7862 13.1141 17.1997 12.4496 17.4282 11.3095C17.4857 11.0233 17.5157 10.7847 17.5323 10.6257C17.5506 10.4935 17.6727 9.48957 16.9295 8.69676C16.0799 7.79071 14.8752 7.98784 14.7893 8.00351C14.6989 8.0244 14.6085 8.04529 14.5181 8.06585C14.5534 7.99503 14.5916 7.92518 14.6363 7.85762C14.6859 7.78255 14.8406 7.56027 14.884 7.2378C14.9036 7.09256 14.8948 6.96951 14.884 6.88661C14.8886 6.6973 14.8931 6.50799 14.8977 6.31869C14.0481 6.3399 13.3562 6.35198 12.8601 6.36732C12.2291 6.38658 11.9383 6.41008 11.673 6.24101C11.6061 6.19825 11.453 6.0876 11.2438 6.08956C11.0532 6.09119 10.9141 6.18519 10.8648 6.21587C10.5805 6.39212 10.1696 6.38299 9.45059 6.36732C8.63853 6.34969 7.82843 6.22044 7.33199 6.12677C7.3222 6.31803 7.31273 6.5093 7.30294 6.70089C7.33852 6.76976 7.39107 6.88334 7.42697 7.03152C7.46091 7.17089 7.46711 7.28709 7.46809 7.35236C6.84208 6.17899 6.46085 5.31798 6.34956 4.23599C6.3489 4.23077 6.3489 4.22587 6.34858 4.22065L7.42566 4.00132C7.41424 4.06725 7.40477 4.1309 7.39694 4.19291C7.9345 4.11392 8.94762 4.48666 10.5613 4.61395C11.5245 4.69 12.2693 4.64333 12.7155 4.61395C13.6081 4.55488 14.3742 4.4253 14.9803 4.29213C14.9486 3.69745 14.7707 2.89714 14.1591 2.17549C15.9624 1.8318 17.9057 1.53414 19.9789 1.31676C22.9057 1.00963 25.6085 0.911712 28.0326 0.936517C27.7973 0.626447 27.5616 0.31605 27.326 0.00532682ZM4.41374 6.88922C4.21921 6.8569 4.02696 6.82818 3.83766 6.80272C4.0769 6.40583 4.35335 5.98936 4.67322 5.56375C4.80279 5.39141 4.93204 5.22952 5.06129 5.0722C5.45264 5.65057 5.45492 6.41138 5.53358 7.11443C5.17063 7.03087 4.80018 6.95319 4.41374 6.88922Z" fill="#D5505B"/>
<path d="M12.9988 5.16662C12.7386 5.24757 12.5621 5.29522 12.4201 5.46592C12.2774 5.6376 12.2477 5.83442 12.2402 5.93788C12.69 5.94082 13.0356 5.96334 13.2782 5.98488C13.4028 5.99598 13.5455 5.94996 13.7371 5.94115C13.9584 5.93103 14.1349 5.74662 14.1362 5.52598C14.1372 5.30371 13.96 5.11734 13.7371 5.10689C13.5579 5.08437 13.2925 5.07523 12.9988 5.16662Z" fill="#D5505B"/>
<path d="M8.71949 5.10642C8.49657 5.11686 8.31934 5.30323 8.32032 5.5255C8.3213 5.74614 8.49787 5.93055 8.71949 5.94067C8.91108 5.94948 9.05372 5.9955 9.1784 5.98441C9.4209 5.96287 9.76622 5.94034 10.216 5.93741C10.2088 5.83427 10.1791 5.63713 10.0361 5.46545C9.89417 5.29475 9.71759 5.24709 9.45746 5.16615C9.16403 5.07509 8.89835 5.08422 8.71949 5.10642Z" fill="#D5505B"/>
</svg>
