<svg width="29" height="31" viewBox="0 0 29 31" fill="none" xmlns="http://www.w3.org/2000/svg">
<path d="M20.2067 28.9667C20.0599 28.9057 19.851 28.8071 19.6121 28.6492C19.6326 28.7275 19.6254 28.7856 19.6023 28.8293C19.4188 29.1782 18.1234 28.8372 17.4846 28.6492C17.4582 28.6697 17.4168 28.7073 17.3857 28.767C17.3361 28.8623 17.3446 28.9527 17.3495 28.987C17.594 29.1378 17.8535 29.2899 18.128 29.4407C18.394 29.5869 18.6531 29.7207 18.9038 29.8431C19.4818 30.0216 20.2851 30.148 21.0805 29.8346C21.1435 29.8098 21.2045 29.783 21.2633 29.7547C21.2554 29.6695 21.2313 29.5428 21.149 29.4234C20.9708 29.1655 20.6702 29.1596 20.2067 28.9667Z" fill="white"/>
<path d="M8.67984 24.9863C8.15631 25.4704 7.83318 25.6691 7.71046 25.583C7.65595 25.5448 7.64127 25.4501 7.66574 25.2997C7.64486 25.3764 7.60602 25.4841 7.5316 25.598C7.44543 25.7298 7.34654 25.8157 7.27799 25.8663C7.20292 25.864 7.06192 25.8699 6.90526 25.941C6.76295 26.0053 6.67058 26.0951 6.62195 26.1499C6.60106 26.1963 6.60335 26.2315 6.60661 26.2511C6.62326 26.3441 6.73096 26.4215 6.87523 26.4332C7.08738 26.4495 7.36449 26.4489 7.68076 26.3885C7.88214 26.35 8.05741 26.2955 8.20266 26.2393C8.36128 26.0533 8.52187 25.85 8.67984 25.6277C8.73696 25.5474 8.79146 25.4678 8.84401 25.3891C8.85185 25.362 8.87796 25.2618 8.829 25.1505C8.78461 25.0493 8.70595 25.001 8.67984 24.9863Z" fill="white"/>
<path d="M27.326 0.949174C25.1493 0.919473 22.6984 1.01021 20.0318 1.31669C17.6208 1.59379 15.415 2.00472 13.4303 2.47342C12.4335 1.819 11.3724 1.87123 11.2297 1.88069C11.0169 1.87155 9.46691 1.83173 8.32389 3.08931C8.14894 3.28188 8.00794 3.48098 7.89012 3.68073L6.32997 4.16509C6.33552 4.07403 6.3427 3.99015 6.35053 3.91475C6.20235 3.84882 5.69057 3.64352 5.08447 3.82434C4.7052 3.9376 4.45519 4.15236 4.33083 4.27639C4.31451 4.326 4.29721 4.389 4.28514 4.46211C4.27992 4.45264 4.27469 4.44285 4.26947 4.43339C4.16633 4.43861 4.02403 4.45819 3.86671 4.51988C3.59841 4.6253 3.43032 4.79698 3.34807 4.89425C3.34057 4.94778 3.33502 5.01599 3.33632 5.094L1.8408 5.55813L2.07515 6.03531L3.54195 5.73666C3.6415 5.88582 3.75051 5.98863 3.80861 6.03531C3.50898 6.17729 3.24754 6.3085 3.03115 6.4211C1.45044 7.24197 1.16191 7.62124 1.01439 7.91923C0.911246 8.12779 0.864572 8.322 0.841398 8.46659C0.814634 8.54329 0.788197 8.65655 0.812676 8.78351C0.899496 9.23262 1.55097 9.4513 2.05328 9.61319C3.56447 10.1005 4.32006 10.344 4.42516 10.3645C5.00907 10.4791 5.75585 10.6472 6.64396 10.8956C6.91192 11.2961 7.23962 11.7217 7.64663 12.1731C7.92373 12.2357 8.23087 12.2961 8.55856 12.3523C8.69238 12.9257 8.80335 13.6666 8.77561 14.5329C8.73677 15.7448 8.44335 16.7118 8.19986 17.3336C7.19034 17.8487 5.83843 18.7032 4.58052 20.0962C4.04067 20.6941 3.6131 21.2856 3.27529 21.8261C3.23612 21.9347 3.19598 22.0947 3.21458 22.2814C3.26713 22.8075 3.74757 23.1518 4.12521 23.4045C5.07011 24.0367 6.03589 24.5406 6.76733 24.8905C7.01049 25.0048 7.59963 25.2368 8.25306 25.0433C8.3908 25.0025 8.51189 24.9486 8.61699 24.8905C8.63951 24.8579 8.66856 24.8063 8.67802 24.7401C8.71197 24.4998 8.45477 24.3151 8.25306 24.1026C8.2139 24.0615 7.63912 23.441 7.64598 22.7367C7.64826 22.5023 7.71223 22.5392 7.76739 22.1296C7.79024 21.9592 7.80068 21.7866 7.80264 21.6279C8.53572 21.4102 9.99925 20.9438 11.2565 20.3367C11.9961 21.169 13.4345 21.654 14.0145 22.7618C14.3252 23.3552 14.443 23.6633 14.443 23.6633C14.7446 24.4039 14.727 24.6856 15.2587 25.3112C15.5831 25.6928 16.2196 26.261 16.8068 26.9804C16.9079 27.1044 17.4475 27.7732 17.4227 28.1169C17.42 28.1534 17.3982 28.3656 17.4954 28.4185C17.516 28.4296 17.5369 28.4312 17.5513 28.4306C18.032 28.5363 18.6143 28.5892 19.2531 28.4808C19.3389 28.4661 19.4221 28.4495 19.5027 28.4306C19.5243 28.4214 19.553 28.4057 19.5755 28.3767C19.6738 28.2501 19.5484 28.0027 19.5132 27.9295C19.2527 27.3897 19.209 26.7699 19.0527 26.1912C18.9068 25.6504 18.9469 25.5273 18.8098 24.886C18.5905 23.8595 18.4103 23.4861 18.0813 22.3972C17.5225 20.5469 17.6759 20.4095 17.2617 19.3621C16.8975 18.4411 16.4647 17.7524 16.1736 17.3333C16.0704 16.0862 16.3025 15.214 16.5434 14.6383C16.7862 14.058 17.1997 13.3934 17.4282 12.2534C17.4857 11.9671 17.5157 11.7285 17.5323 11.5696C17.5506 11.4374 17.6727 10.4334 16.9295 9.64061C16.0799 8.73455 14.8752 8.93169 14.7893 8.94736C14.6989 8.96825 14.6085 8.98914 14.5181 9.0097C14.5534 8.93887 14.5916 8.86903 14.6363 8.80146C14.6859 8.72639 14.8406 8.50412 14.884 8.18165C14.9036 8.03641 14.8948 7.91336 14.884 7.83045C14.8886 7.64115 14.8931 7.45184 14.8977 7.26254C14.0481 7.28375 13.3562 7.29583 12.8601 7.31117C12.2291 7.33042 11.9383 7.35392 11.673 7.18485C11.6061 7.1421 11.453 7.03145 11.2438 7.03341C11.0532 7.03504 10.9141 7.12904 10.8648 7.15972C10.5805 7.33597 10.1696 7.32683 9.45059 7.31117C8.63853 7.29354 7.82843 7.16429 7.33199 7.07062C7.3222 7.26188 7.31273 7.45315 7.30294 7.64474C7.33852 7.71361 7.39107 7.82719 7.42697 7.97537C7.46091 8.11474 7.46711 8.23093 7.46809 8.29621C6.84208 7.12284 6.46085 6.26182 6.34956 5.17984C6.3489 5.17462 6.3489 5.16972 6.34858 5.1645L7.42566 4.94517C7.41424 5.0111 7.40477 5.07474 7.39694 5.13676C7.9345 5.05777 8.94762 5.43051 10.5613 5.5578C11.5245 5.63385 12.2693 5.58717 12.7155 5.5578C13.6081 5.49872 14.3742 5.36915 14.9803 5.23598C14.9486 4.6413 14.7707 3.84099 14.1591 3.11934C15.9624 2.77565 17.9057 2.47798 19.9789 2.26061C22.9057 1.95348 25.6085 1.85556 28.0326 1.88036C27.7973 1.57029 27.5616 1.2599 27.326 0.949174ZM4.41374 7.83306C4.21921 7.80075 4.02696 7.77203 3.83766 7.74657C4.0769 7.34968 4.35335 6.93321 4.67322 6.5076C4.80279 6.33526 4.93204 6.17337 5.06129 6.01605C5.45264 6.59441 5.45492 7.35523 5.53358 8.05827C5.17063 7.97472 4.80018 7.89704 4.41374 7.83306Z" fill="white" fill-opacity="0.4"/>
<path d="M12.9988 6.11047C12.7386 6.19141 12.5621 6.23907 12.4201 6.40977C12.2774 6.58145 12.2477 6.77826 12.2402 6.88173C12.69 6.88467 13.0356 6.90719 13.2782 6.92873C13.4028 6.93983 13.5455 6.89381 13.7371 6.88499C13.9584 6.87487 14.1349 6.69046 14.1362 6.46983C14.1372 6.24755 13.96 6.06118 13.7371 6.05074C13.5579 6.02822 13.2925 6.01908 12.9988 6.11047Z" fill="white"/>
<path d="M8.71949 6.05027C8.49657 6.06071 8.31934 6.24708 8.32032 6.46935C8.3213 6.68999 8.49787 6.8744 8.71949 6.88452C8.91108 6.89333 9.05372 6.93935 9.1784 6.92826C9.4209 6.90671 9.76622 6.88419 10.216 6.88125C10.2088 6.77812 10.1791 6.58098 10.0361 6.4093C9.89417 6.23859 9.71759 6.19094 9.45746 6.11C9.16403 6.01893 8.89835 6.02807 8.71949 6.05027Z" fill="white"/>
</svg>
