<svg width="122" height="14" viewBox="0 0 122 14" fill="none" xmlns="http://www.w3.org/2000/svg">
<rect width="121.199" height="13.1501" fill="black" fill-opacity="0" transform="translate(0.513672 0.324463)"/>
<path fill-rule="evenodd" clip-rule="evenodd" d="M111.093 2.83518C116.259 -0.291409 121.485 0.378147 121.534 0.397434C121.364 0.62009 115.117 8.72214 107.607 9.51181C107.46 7.61838 107.885 4.77671 111.093 2.83518ZM121.534 0.397434C121.925 2.34507 122.026 8.78928 117.965 11.7617C112.347 15.3681 108.768 12.2607 108.117 11.6123C116.681 10.3906 121.399 0.682224 121.534 0.397434Z" fill="#97C554"/>
<path d="M121.534 0.397432C121.485 0.37812 116.259 -0.291356 111.092 2.83524C107.884 4.77676 107.46 7.61837 107.607 9.51186C115.117 8.72217 121.364 0.620071 121.534 0.397432Z" fill="#709B30"/>
<path fill-rule="evenodd" clip-rule="evenodd" d="M10.1951 7.48401C12.6592 7.4093 13.5493 6.25916 13.5493 5.00439C13.5493 3.63013 12.3889 2.49487 9.55908 2.49487H0.513672V12.9811H9.82935C12.1504 12.9811 13.8833 12.0699 13.8833 10.113C13.8833 8.72388 12.9136 7.54382 10.1951 7.48401ZM3.04126 6.73718H8.70068C10.1472 6.73718 10.8467 6.12476 10.8467 5.48242C10.8467 4.7804 10.2427 4.27246 8.70068 4.27246H3.04126V6.73718ZM3.04126 11.2334H8.89136C10.3699 11.2334 11.1011 10.636 11.1011 9.81433C11.1011 8.96289 10.354 8.30566 8.89136 8.30566H3.04126V11.2334ZM16.8687 12.9811V2.49487H19.3962V12.9811H16.8687ZM29.6467 4.48157H35.2107V2.49487H21.5549V4.48157H27.1189V12.9811H29.6467V4.48157ZM37.3694 12.9811V2.49487H49.5308V4.30237H39.897V7.17029H45.8267V8.88818H39.897V12.9811H37.3694ZM51.5784 2.49487V12.9811H54.106V2.49487H51.5784ZM68.4102 12.9811L60.0322 5.04919V12.9811H57.5205V2.49487H60.7317L68.7756 10.0533V2.49487H71.2717V12.9811H68.4102ZM74.6863 2.49487V12.9811H87.0544V11.2184H77.2139V8.33545H83.1118V6.70728H77.2139V4.30237H87.0544V2.49487H74.6863ZM100.643 2.49487H103.982L98.0203 7.64832L104.204 12.9811H100.802L96.3511 9.11218L91.8838 12.9811H88.5454L94.7136 7.66333L88.7681 2.49487H92.1541L96.3828 6.18445L100.643 2.49487Z" fill="#B8B8B8"/>
</svg>
