<svg width="69" height="17" viewBox="0 0 69 17" fill="none" xmlns="http://www.w3.org/2000/svg">
<rect width="67.9339" height="15.8609" fill="black" fill-opacity="0" transform="translate(0.152832 0.880371)"/>
<rect width="67.9339" height="15.8609" fill="black" fill-opacity="0" transform="translate(0.152832 0.880371)"/>
<rect width="42.4919" height="15.7193" fill="black" fill-opacity="0" transform="translate(0.152832 0.951172)"/>
<path d="M14.4558 14.3692C12.8374 15.8915 10.6546 16.6704 8.50936 16.6704C3.01458 16.6704 0.15428 13.0592 0.15428 8.91701C0.079009 4.81018 2.93931 0.951172 8.50936 0.951172C10.6546 0.951172 12.8374 1.73005 14.4558 3.25241L13.5901 3.96049C12.1976 2.65055 10.3535 2.01328 8.50936 2.01328C3.76729 2.01328 1.32098 5.16422 1.32098 8.8462C1.35862 12.4574 3.80492 15.5729 8.50936 15.5729C10.3535 15.5729 12.1976 14.9002 13.6278 13.6257L14.4558 14.3692Z" fill="#06B0A2"/>
<path d="M17.6922 8.24432H27.2516V9.30643H17.6922V15.3251H28.0043V16.458H16.4126V1.12817H28.2301V2.26109H17.6922V8.24432Z" fill="#06B0A2"/>
<path d="M40.8382 1.12817H42.1931V1.16358L36.6607 8.59836L42.6447 16.458H41.1393L35.8703 9.44805L30.6014 16.458H29.0959L35.08 8.59836L29.5476 1.16358V1.12817H30.9025L35.8327 7.67786L40.8382 1.12817Z" fill="#06B0A2"/>
<rect width="25.4043" height="15.8609" fill="black" fill-opacity="0" transform="translate(42.6824 0.880371)"/>
<path d="M48.1394 16.4934V1.12817H49.3437V16.458L48.1394 16.4934Z" fill="#06B0A2"/>
<path fill-rule="evenodd" clip-rule="evenodd" d="M59.8818 16.7412C65.3389 16.7412 68.0486 12.8468 68.0864 8.81079C68.124 4.66858 65.3765 0.880371 59.8818 0.880371C54.387 0.880371 51.6772 4.66858 51.6772 8.77539C51.6772 12.8468 54.4246 16.7412 59.8818 16.7412ZM59.8818 15.6437C55.2148 15.6437 52.9192 12.2804 52.8816 8.81085C52.844 5.19965 55.1772 1.97791 59.8818 1.97791C64.5486 1.97791 66.8818 5.27045 66.8818 8.81085C66.8818 12.2804 64.5486 15.6437 59.8818 15.6437Z" fill="#06B0A2"/>
<path d="M43.5856 9.66044C44.0845 9.66044 44.4889 9.28002 44.4889 8.81075C44.4889 8.34148 44.0845 7.96106 43.5856 7.96106C43.0868 7.96106 42.6824 8.34148 42.6824 8.81075C42.6824 9.28002 43.0868 9.66044 43.5856 9.66044Z" fill="#06B0A2"/>
</svg>
