<svg width="103" height="18" viewBox="0 0 103 18" fill="none" xmlns="http://www.w3.org/2000/svg">
<rect width="102.667" height="17.1905" fill="black" fill-opacity="0" transform="translate(0.155518 0.80957)"/>
<path fill-rule="evenodd" clip-rule="evenodd" d="M29.6519 2.82468L23.8974 17.6276L23.8615 17.7183L22.804 15.7032L20.5967 16.6582L26.3871 1.7646L28.5944 0.80957L29.6519 2.82468ZM44.061 3.17326L38.3065 18L37.2491 15.9802L35.0417 16.9352L35.1752 16.5866L40.9297 1.7646L43.137 0.80957L44.1893 2.82468L44.061 3.17326ZM31.7409 15.9946L35.1289 7.27994L32.9164 8.23497L31.8641 6.21509L28.4658 14.9297L29.5182 16.9496L31.7409 15.9946ZM13.4049 7.39929H3.28198L5.00678 8.92733L3.28198 10.4793H13.3946L15.1143 8.92733L13.4049 7.39929ZM1.88032 13.86H18.2454L16.5257 15.4024L18.2454 16.9399H1.88032L0.155518 15.4024L1.88032 13.86ZM6.90083 0.933716H23.2556L21.5411 2.47608L23.2556 4.01368H6.90083L5.17603 2.47608L6.90083 0.933716Z" fill="#1F5EEC"/>
<path fill-rule="evenodd" clip-rule="evenodd" d="M89.5632 9.88229C89.5422 7.45871 91.1187 5.27036 93.5364 4.36704C94.3833 4.04489 95.2908 3.88254 96.2058 3.8895C97.1204 3.88571 98.0271 4.04794 98.875 4.36704C99.6594 4.66159 100.373 5.09824 100.975 5.65146C101.555 6.1998 102.013 6.84873 102.325 7.56149C103.326 9.7999 102.79 12.3781 100.964 14.1082C100.356 14.667 99.636 15.1084 98.8442 15.4071C97.9954 15.7289 97.0864 15.8912 96.1697 15.8846C94.9712 15.9011 93.7896 15.6209 92.7458 15.0728C91.7615 14.5622 90.948 13.8087 90.3948 12.8954C89.8369 11.9785 89.55 10.9405 89.5632 9.88706V9.88229ZM53.0291 8.81259H59.7024V10.8373H53.0291V13.6402H60.0513V15.6649H50.5496V4.07089H59.9436V6.09555H53.0291V8.81259ZM65.6675 9.76767L61.2424 15.6649H64.0042L67.2485 11.3196L70.4824 15.6649H73.3469L68.9424 9.73898L73.2236 4.07089H70.426L67.3459 8.18222L64.2659 4.07089H61.4016L65.6675 9.76767ZM74.887 15.6649V4.07089H77.51L81.3652 9.24716L85.2205 4.07089H87.8333V15.6649H85.3691V7.66184L81.3704 12.69H81.2625L77.2893 7.69516V15.6696L74.887 15.6649ZM92.5559 11.8927C92.2083 11.2726 92.0317 10.5816 92.0425 9.88229C92.0305 9.18039 92.2051 8.48642 92.5508 7.8624C92.8923 7.26889 93.4016 6.77353 94.0242 6.4299C94.9985 5.89707 96.1628 5.75229 97.2534 6.02817C98.3442 6.30405 99.2693 6.97739 99.8196 7.89584C100.169 8.51352 100.346 9.20334 100.333 9.90146C100.346 10.6056 100.169 11.3015 99.8196 11.9261C99.4778 12.521 98.9663 13.0167 98.3411 13.3586C97.3677 13.8883 96.2058 14.0313 95.1177 13.7556C94.0295 13.4798 93.1062 12.8084 92.5559 11.8927Z" fill="#1F5EEC"/>
</svg>
