<svg width="104" height="26" viewBox="0 0 104 26" fill="none" xmlns="http://www.w3.org/2000/svg">
<rect width="103.153" height="25.3333" fill="black" fill-opacity="0" transform="translate(0.366699 0.285767)"/>
<path d="M11.154 12.7528L10.9156 12.532C10.735 12.3661 10.4249 12.4836 10.4249 12.7188V15.8726C10.4249 16.0183 10.5548 16.1368 10.7135 16.1368H14.1423C14.398 16.1368 14.5267 15.8519 14.3449 15.6863C14.2328 15.5831 14.2328 15.4161 14.3449 15.3132L17.9919 11.9476C18.1042 11.8451 18.1042 11.6781 17.9919 11.5745L17.6596 11.27C17.4791 11.1041 17.6077 10.8191 17.8627 10.8191H21.2894C21.4479 10.8191 21.5776 10.9375 21.5776 11.0833V14.2369C21.5776 14.4721 21.2668 14.5898 21.0859 14.4237L20.8549 14.2113C20.7421 14.1052 20.5606 14.1052 20.4502 14.2113L14.3014 19.8655C14.1898 19.9684 14.0086 19.9684 13.8955 19.8655L6.37298 12.9446C6.2599 12.8405 6.2599 12.6733 6.37298 12.57L16.7867 2.98951C16.8986 2.88638 16.8986 2.71811 16.7867 2.61543L14.338 0.362777C14.2259 0.260096 14.0444 0.260096 13.9318 0.362777L0.450405 12.7664C0.338797 12.8695 0.338797 13.0378 0.450405 13.1404L13.9304 25.5422C14.0425 25.6447 14.2255 25.6447 14.3371 25.5422L27.8165 13.1404C27.9279 13.0373 27.9279 12.8699 27.8165 12.7672L19.886 5.47095C19.7751 5.36827 19.5927 5.36827 19.4803 5.47095L11.5621 12.7529C11.449 12.8569 11.2671 12.8569 11.154 12.7529V12.7528Z" fill="#DE5959"/>
<rect width="70.3755" height="22.8788" fill="black" fill-opacity="0" transform="translate(33.1443 1.51514)"/>
<path fill-rule="evenodd" clip-rule="evenodd" d="M86.7554 1.51672C86.2214 1.51672 85.7622 1.69434 85.3782 2.04871C84.9961 2.40112 84.802 2.8208 84.802 3.30408C84.802 3.81409 84.9941 4.24158 85.3782 4.59778C85.7622 4.9502 86.2271 5.1261 86.7708 5.1261C87.3152 5.1261 87.7742 4.95032 88.1458 4.59595C88.5298 4.23987 88.7239 3.81763 88.7239 3.31567C88.7239 2.81567 88.5317 2.3916 88.1467 2.04871C87.7607 1.69263 87.2969 1.51514 86.7534 1.51514L86.7554 1.51672ZM71.3926 5.85327L71.3909 5.86218C70.5208 6.14661 69.7642 6.6095 69.1245 7.25281C68.7734 7.61414 68.478 8.00916 68.2341 8.43774H65.147V17.5497C65.147 18.2089 64.5708 18.739 63.8547 18.739H62.1379V8.43591H60.8535V5.85327H62.1396V2.34546C62.1396 1.88782 62.543 1.51672 63.0396 1.51672H64.2585C64.7512 1.51672 65.1487 1.88257 65.1487 2.33484V5.85327H71.3926ZM46.365 6.69263V7.87756C45.5203 8.97571 45.0974 10.2825 45.0974 11.8119C45.0974 13.3677 45.5212 14.7029 46.364 15.8196V17.5623C46.364 18.1294 46.3442 18.6278 46.3049 19.0571C46.2656 19.4893 46.2092 19.8718 46.1377 20.197C45.9231 21.1 45.5054 21.8757 44.8813 22.5243C43.7031 23.77 42.0835 24.3939 40.0232 24.3939C38.2852 24.3939 36.8523 23.9626 35.7283 23.1003C34.8313 22.4147 34.2288 21.5276 33.9165 20.4355C33.7712 19.9231 34.199 19.4196 34.7742 19.4196H35.915C36.3682 19.4196 36.7783 19.6827 36.9258 20.0796C37.031 20.363 37.1631 20.5981 37.3223 20.7872C37.9465 21.5348 38.855 21.9093 40.051 21.9093C42.2537 21.9093 43.355 20.6653 43.355 18.1771V16.5028C42.1594 17.6277 40.7803 18.1877 39.2209 18.1877C37.4453 18.1877 35.9919 17.6002 34.8589 16.4153C33.7161 15.2181 33.1443 13.7179 33.1443 11.9215C33.1443 10.1721 33.6748 8.68591 34.7368 7.46484C35.8777 6.17041 37.3872 5.51929 39.2605 5.51929C40.9016 5.51929 42.2664 6.08301 43.355 7.20691V6.69092C43.355 6.2262 43.7632 5.8551 44.2644 5.8551H45.4546C45.958 5.8551 46.365 6.22791 46.365 6.69263ZM42.5515 14.5598C41.8831 15.3295 40.9744 15.7129 39.822 15.7129C38.6711 15.7129 37.7705 15.3329 37.1179 14.5669C36.5217 13.8707 36.2229 12.9747 36.2229 11.8845C36.2229 10.7747 36.5215 9.8717 37.1179 9.17566C37.7798 8.39709 38.6794 8.00757 39.822 8.00757C40.8918 8.00757 41.771 8.36438 42.457 9.07739C43.1355 9.77466 43.4758 10.7061 43.4758 11.8732C43.4758 12.9644 43.167 13.8584 42.5515 14.5598ZM86.2729 7.21216H87.365L87.364 7.21057C87.8635 7.21057 88.2686 7.58154 88.2686 8.03931V18.2142C88.2686 18.7605 87.7886 19.2041 87.1951 19.2041H85.2571V18.7092C85.4895 18.4591 85.5979 18.1622 85.5979 17.8229C85.5979 17.4836 85.4875 17.1893 85.2571 16.9402V8.14697C85.2571 7.62744 85.7131 7.21216 86.2729 7.21216ZM101.515 8.90857C100.159 7.6875 98.5081 7.07605 96.5635 7.07605C94.6274 7.07605 92.9854 7.68225 91.6392 8.89978C90.293 10.1119 89.6187 11.5858 89.6187 13.3175C89.6187 15.1545 90.2776 16.6838 91.5989 17.8988C92.9202 19.1296 94.5583 19.7445 96.5095 19.7445C98.4802 19.7445 100.143 19.142 101.5 17.9351C102.844 16.7174 103.52 15.2146 103.52 13.4166C103.52 11.6344 102.852 10.1323 101.515 8.90857ZM96.5618 17.2671C97.7407 17.2671 98.6819 16.9216 99.3848 16.2245V16.2208C100.088 15.5238 100.443 14.5935 100.443 13.4254C100.443 12.2609 100.09 11.3296 99.3848 10.6333C98.6724 9.92639 97.7302 9.57385 96.5635 9.57385C95.4111 9.57385 94.4797 9.92639 93.7651 10.6333C93.0527 11.3384 92.6936 12.2502 92.6936 13.3652C92.6936 14.5616 93.0432 15.5123 93.7383 16.2085C94.4529 16.9163 95.3921 17.2671 96.5618 17.2671Z" fill="#DE5959"/>
<path fill-rule="evenodd" clip-rule="evenodd" d="M71.4673 13.3865C71.5471 14.3724 71.8936 15.1606 72.5142 15.7385C73.127 16.3173 73.9165 16.6027 74.8767 16.6027C75.04 16.6027 79.1384 16.6398 80.8284 16.6786L80.8264 17.0294C80.5586 17.2963 80.4214 17.6046 80.4214 17.9633C80.4214 18.3309 80.553 18.6481 80.8149 18.9104L80.8113 19.2002C79.7517 19.1801 78.76 19.1599 77.769 19.1399C76.7559 19.1193 75.7434 19.0988 74.6597 19.0782C74.1343 19.0853 73.6147 19.0277 73.1135 18.9192C71.918 18.6771 70.9106 18.1566 70.0886 17.3518C68.9141 16.1952 68.324 14.6595 68.324 12.7484C68.324 10.8514 68.8943 9.31848 70.0366 8.14343C71.187 6.98596 72.7139 6.40723 74.6113 6.40723C76.5261 6.40723 78.0454 6.96924 79.1621 8.09387C80.2673 9.21082 80.8206 10.7535 80.8206 12.7354C80.8149 13.0967 80.4902 13.3865 80.0964 13.3865H71.4673ZM72.7727 9.50586C72.5088 9.69849 72.2849 9.9281 72.0957 10.2004V10.1986C71.9094 10.4708 71.7673 10.7782 71.6685 11.1229H77.7212C77.2986 9.64563 76.2847 8.90857 74.6829 8.90857C74.314 8.90857 73.9702 8.95984 73.6494 9.06238C73.3269 9.16479 73.0388 9.30969 72.7727 9.50586Z" fill="#DE5959"/>
</svg>
