<svg width="400px" height="75px" class="logo-gatecoin ng-scope" version="1.1" xmlns="http://www.w3.org/2000/svg" xmlns:xlink="http://www.w3.org/1999/xlink" x="0px" y="0px" viewBox="0 0 1531.4 405" enable-background="new 0 0 1531.4 405" xml:space="preserve">
<g id="icon">
	<g>
		<g>
			<path d="M202.5,405C90.8,405,0,314.2,0,202.5C0,90.8,90.8,0,202.5,0S405,90.8,405,202.5
				C405,314.2,314.2,405,202.5,405z M202.5,19.6c-100.8,0-182.9,82-182.9,182.9s82,182.9,182.9,182.9s182.9-82,182.9-182.9
				S303.4,19.6,202.5,19.6z"></path>
		</g>
		<path d="M235.1,56.9c-8.1-1.8-15.8,4.4-15.8,12.7v4.5l0,0v59.6v19.7v39.2v7.3v0c0,6.9,5.6,12.4,12.4,12.4h99.9
			c-3.7,49.4-35.3,91.1-79,109.5c-6.5,2.7-13.6-2.1-13.6-9.1v-23c0-5.4-4.4-9.9-9.9-9.9h0c-5.4,0-9.9,4.4-9.9,9.9v41.2v6.7v1.6
			c0,6.1,5.5,10.9,11.6,9.7c68.7-13.3,120.8-73.9,120.8-146.5C351.7,131.4,301.8,71.9,235.1,56.9z M257.7,85.4
			c22.5,10.6,41.4,27.5,54.6,48.4h-73.2V97.1C239.1,87.5,249,81.3,257.7,85.4z M239.1,153.4h83.3c5,12.3,8.2,25.4,9.3,39.2h-80.2
			c-6.9,0-12.4-5.6-12.4-12.4V153.4z"></path>
		<path d="M53.3,202.5c0,72.6,52.1,133.2,120.8,146.5c6,1.2,11.6-3.6,11.6-9.7l0,0c0-4.7-3.3-8.7-7.9-9.6
			c-56.5-11-99.9-58.8-104.4-117.3h99.9c6.9,0,12.4-5.6,12.4-12.4v0v-7.3V74.1l0,0v-4.5c0-8.3-7.7-14.5-15.8-12.7
			C103.3,71.9,53.3,131.4,53.3,202.5z M73.4,192.7c1-13.8,4.3-27,9.3-39.2H166v26.8c0,6.9-5.6,12.4-12.4,12.4H73.4z M166,133.7H92.8
			c13.2-20.9,32.1-37.8,54.6-48.4c8.6-4.1,18.6,2.2,18.6,11.7V133.7z"></path>
	</g>
</g>
	<g id="text">

	<g>
		<path d="M572.1,138.2h17v105.4c0,18.6-1.6,32.1-4.9,40.7c-4.5,12.2-12.2,21.5-23.2,28.1c-11,6.6-24.3,9.9-39.8,9.9
			c-11.4,0-21.5-1.6-30.6-4.8c-9-3.2-16.4-7.5-22.1-12.9c-5.7-5.4-10.9-13.3-15.7-23.7h18.5c5,8.8,11.5,15.2,19.5,19.5
			s17.8,6.3,29.6,6.3c11.6,0,21.4-2.2,29.4-6.5c8-4.3,13.7-9.8,17.1-16.3c3.4-6.5,5.1-17.1,5.1-31.7v-6.8
			c-6.4,8.1-14.2,14.3-23.5,18.7c-9.3,4.3-19.1,6.5-29.5,6.5c-12.2,0-23.6-3-34.3-9.1c-10.7-6-19-14.2-24.8-24.4
			c-5.8-10.2-8.8-21.4-8.8-33.7c0-12.2,3-23.7,9.1-34.2c6.1-10.6,14.5-18.9,25.3-25.1c10.8-6.2,22.1-9.2,34-9.2
			c9.9,0,19.1,2,27.7,6.1c8.6,4.1,16.8,10.8,24.8,20.2V138.2z M521.9,151.2c-9.6,0-18.6,2.3-26.9,7c-8.3,4.7-14.8,11.1-19.5,19.3
			c-4.7,8.2-7.1,17.1-7.1,26.7c0,14.5,4.9,26.5,14.6,36c9.7,9.5,22.3,14.2,37.8,14.2c15.6,0,28.2-4.7,37.8-14.1
			c9.5-9.4,14.3-21.8,14.3-37.1c0-10-2.2-18.9-6.6-26.7c-4.4-7.8-10.6-14-18.6-18.5C539.8,153.5,531.1,151.2,521.9,151.2z"></path>
		<path d="M757.4,138.2v132.3h-16.8v-22.7c-7.1,8.7-15.1,15.2-24,19.6c-8.9,4.4-18.6,6.6-29.1,6.6
			c-18.7,0-34.7-6.8-48-20.4c-13.3-13.6-19.9-30.1-19.9-49.6c0-19.1,6.7-35.3,20.1-48.9c13.4-13.5,29.5-20.3,48.3-20.3
			c10.9,0,20.7,2.3,29.5,6.9c8.8,4.6,16.5,11.6,23.2,20.8v-24.3H757.4z M689.4,151.2c-9.5,0-18.2,2.3-26.2,7
			c-8,4.7-14.4,11.2-19.1,19.6c-4.7,8.4-7.1,17.3-7.1,26.7c0,9.3,2.4,18.2,7.2,26.7c4.8,8.5,11.2,15.1,19.3,19.9
			c8.1,4.7,16.7,7.1,25.9,7.1c9.3,0,18.1-2.3,26.5-7c8.3-4.7,14.8-11.1,19.3-19.1c4.5-8,6.7-17,6.7-27.1c0-15.3-5-28.1-15.1-38.4
			C716.5,156.3,704.1,151.2,689.4,151.2z"></path>
		<path d="M810.6,89.1h17v49.1h27v14.7h-27v117.6h-17V152.9h-23.2v-14.7h23.2V89.1z"></path>
		<path d="M991.5,226.6l14.3,7.5c-4.7,9.2-10.1,16.7-16.3,22.4c-6.2,5.7-13.1,10-20.8,13c-7.7,3-16.4,4.4-26.2,4.4
			c-21.6,0-38.5-7.1-50.6-21.2c-12.2-14.1-18.3-30.1-18.3-48c0-16.8,5.2-31.7,15.5-44.9c13.1-16.7,30.5-25.1,52.5-25.1
			c22.6,0,40.6,8.6,54,25.7c9.6,12.1,14.4,27.2,14.6,45.2h-119c0.3,15.4,5.2,28,14.7,37.8c9.5,9.8,21.2,14.7,35.2,14.7
			c6.7,0,13.3-1.2,19.7-3.5c6.4-2.3,11.8-5.5,16.3-9.3C981.5,241.5,986.3,235.2,991.5,226.6z M991.5,191c-2.3-9.1-5.6-16.3-9.9-21.8
			c-4.3-5.4-10.1-9.8-17.2-13.1c-7.1-3.3-14.7-5-22.5-5c-13,0-24.1,4.2-33.5,12.5c-6.8,6.1-12,15.2-15.5,27.4H991.5z"></path>
		<path d="M1170.4,165.7l-13.5,8.4c-11.7-15.5-27.6-23.2-47.7-23.2c-16.1,0-29.5,5.2-40.1,15.5
			c-10.6,10.4-16,23-16,37.8c0,9.6,2.4,18.7,7.3,27.2c4.9,8.5,11.6,15.1,20.2,19.8c8.5,4.7,18.1,7,28.7,7c19.4,0,35.3-7.7,47.6-23.2
			l13.5,8.9c-6.3,9.5-14.8,16.9-25.5,22.2c-10.7,5.3-22.8,7.9-36.4,7.9c-20.9,0-38.3-6.6-52-19.9c-13.8-13.3-20.7-29.5-20.7-48.5
			c0-12.8,3.2-24.7,9.7-35.7s15.3-19.6,26.6-25.7c11.3-6.2,23.9-9.2,37.8-9.2c8.8,0,17.2,1.3,25.4,4c8.1,2.7,15.1,6.2,20.7,10.5
			C1161.6,153.5,1166.4,159,1170.4,165.7z"></path>
		<path d="M1265.7,134.8c20.4,0,37.3,7.4,50.7,22.1c12.2,13.5,18.3,29.4,18.3,47.8c0,18.5-6.4,34.6-19.3,48.5
			c-12.9,13.8-29.4,20.7-49.6,20.7c-20.3,0-36.9-6.9-49.8-20.7c-12.9-13.8-19.3-30-19.3-48.5c0-18.3,6.1-34.2,18.3-47.7
			C1228.3,142.2,1245.2,134.8,1265.7,134.8z M1265.6,151.4c-14.2,0-26.3,5.2-36.5,15.7c-10.2,10.5-15.3,23.1-15.3,37.9
			c0,9.6,2.3,18.5,7,26.8c4.6,8.3,10.9,14.7,18.8,19.2c7.9,4.5,16.6,6.7,26,6.7c9.4,0,18.1-2.3,26-6.7c7.9-4.5,14.2-10.9,18.8-19.2
			c4.6-8.3,7-17.2,7-26.8c0-14.8-5.1-27.5-15.3-37.9C1291.9,156.7,1279.7,151.4,1265.6,151.4z"></path>
		<path d="M1372,83.7c3.9,0,7.2,1.4,9.9,4.1c2.7,2.8,4.1,6.1,4.1,10c0,3.8-1.4,7.1-4.1,9.9c-2.7,2.8-6.1,4.1-9.9,4.1
			c-3.8,0-7.1-1.4-9.8-4.1c-2.7-2.8-4.1-6-4.1-9.9c0-3.9,1.4-7.2,4.1-10C1365,85.1,1368.3,83.7,1372,83.7z M1363.6,138.2h17v132.3
			h-17V138.2z"></path>
		<path d="M1416,138.2h17v23.7c6.8-9.1,14.3-15.9,22.6-20.4c8.3-4.5,17.3-6.7,27-6.7c9.9,0,18.7,2.5,26.3,7.5
			c7.7,5,13.3,11.8,17,20.3c3.6,8.5,5.5,21.8,5.5,39.8v68.1h-17v-63.1c0-15.2-0.6-25.4-1.9-30.5c-2-8.8-5.8-15.3-11.4-19.8
			c-5.6-4.4-12.9-6.6-21.9-6.6c-10.3,0-19.5,3.4-27.7,10.2c-8.1,6.8-13.5,15.2-16.1,25.3c-1.6,6.6-2.4,18.6-2.4,36v48.5h-17V138.2z"></path>
	</g>
</g>
</svg>