<svg width="84" height="28" viewBox="0 0 84 28" fill="none" xmlns="http://www.w3.org/2000/svg">
<rect width="83.4701" height="26.952" fill="black" fill-opacity="0" transform="translate(0.199951 0.380981)"/>
<path fill-rule="evenodd" clip-rule="evenodd" d="M27.4269 22.0105C25.8866 22.0105 24.5728 21.8832 23.5309 21.65C22.4889 21.4167 21.6282 21.0138 20.9712 20.4625C20.3143 19.9111 19.8613 19.1902 19.5669 18.2995C19.2723 17.4089 19.1365 16.285 19.1365 14.9915V12.7437C19.1365 11.4926 19.2723 10.4323 19.5669 9.52051C19.8613 8.62988 20.3596 7.8877 21.0392 7.31516C21.7188 6.74261 22.6248 6.31851 23.7347 6.06403C24.8446 5.78836 26.2263 5.66113 27.8799 5.66113H30.6886C31.119 5.66113 31.572 5.66113 32.025 5.68234C32.4248 5.68234 32.8772 5.69885 33.3827 5.71732L33.3838 5.71735L33.588 5.72476L32.8859 9.47809C32.5137 9.46841 32.1652 9.46313 31.8424 9.45828L31.8383 9.45822C31.4552 9.45242 31.1086 9.44717 30.8019 9.4357C30.4805 9.4357 30.1927 9.42938 29.9314 9.42365C29.714 9.41885 29.5148 9.41449 29.3296 9.41449H27.608C26.8832 9.41449 26.2943 9.45688 25.8413 9.54172C25.3882 9.62653 25.0258 9.79617 24.7766 10.0294C24.5049 10.2839 24.3236 10.6232 24.233 11.0473C24.1198 11.4714 24.0745 12.0439 24.0745 12.7225V14.9279C24.0745 15.6064 24.1198 16.179 24.233 16.6031C24.3463 17.0272 24.5049 17.3665 24.754 17.6209C25.0032 17.8754 25.3203 18.0239 25.7506 18.1087C26.1583 18.1935 26.702 18.2359 27.3363 18.2359H29.5107V15.9033H27.0192L27.6987 12.5317H34.109V19.4446C34.109 20.3777 33.8824 21.035 33.4294 21.4167C32.9764 21.7984 32.2516 22.0105 31.2096 22.0105H27.4269ZM35.9438 5.72476H43.532C45.0723 5.72476 46.3181 5.8732 47.3374 6.14886C48.3341 6.44574 49.1268 6.86984 49.7384 7.46359C50.3274 8.05734 50.7577 8.79953 50.9843 9.69016C51.2108 10.5808 51.3467 11.6198 51.3467 12.8286V14.8643C51.3467 16.0094 51.2334 17.0272 50.9843 17.9178C50.7351 18.8085 50.3274 19.5507 49.7384 20.1656C49.1495 20.7594 48.3567 21.2259 47.3827 21.5439C46.3861 21.862 45.1628 22.0105 43.6906 22.0105H35.9438V5.72476ZM43.0563 18.2571H40.5873V9.45688H43.0563C43.6906 9.45688 44.2115 9.4993 44.6418 9.60532C45.0723 9.71133 45.412 9.88098 45.6838 10.1354C45.9557 10.3899 46.1368 10.7292 46.2501 11.1745C46.3634 11.6198 46.4313 12.1924 46.4313 12.8709V14.8218C46.4313 15.5004 46.3634 16.0729 46.2501 16.5182C46.1368 16.9848 45.9557 17.3241 45.6838 17.5785C45.412 17.833 45.0723 18.0026 44.6418 18.1087C44.2115 18.2147 43.6906 18.2571 43.0563 18.2571Z" fill="#2B3442"/>
<path fill-rule="evenodd" clip-rule="evenodd" d="M8.73962 0.380981H5.59106V27.333H8.73962V0.380981ZM0.199951 5.72473H3.34851V22.0104H0.199951V5.72473ZM10.9592 5.72473H14.1078V22.0104H10.9592V5.72473Z" fill="#518DCA"/>
<path fill-rule="evenodd" clip-rule="evenodd" d="M66.6815 5.72473H71.3251L76.8519 13.3587L70.6002 22.0104H63.5103L62.3098 18.4479H56.5111L55.3333 22.0104H50.5764L56.6697 5.72473H62.3778L67.6328 19.7415L72.1631 13.3587L66.6815 5.72473ZM82.9905 5.72473L77.8486 12.8922L75.4249 9.52048L77.8259 5.72473H82.9905ZM57.5531 15.0339L59.3878 9.52048L61.2227 15.0339H57.5531ZM75.2664 17.3877L77.8486 13.8252L83.67 22.0104H78.2336L75.2664 17.3877Z" fill="#2B3442"/>
</svg>
