<svg width="95" height="33" viewBox="0 0 95 33" fill="none" xmlns="http://www.w3.org/2000/svg">
<rect width="94.8207" height="32.4923" fill="black" fill-opacity="0" transform="translate(0.0561523 0.366333)"/>
<path d="M29.5134 23.9901C28.1607 23.9901 26.808 23.9901 25.4552 23.9901C25.1132 23.9901 25.0469 24.0371 25.0162 24.3478C24.9039 25.5057 24.8018 26.6588 24.6946 27.8167C24.5721 29.1582 24.4496 30.5043 24.322 31.8458C24.2914 32.2271 24.0872 32.3918 23.6788 32.3918C22.7242 32.3918 21.7748 32.3918 20.8202 32.3918C20.3965 32.3918 20.223 32.2365 20.2587 31.8458C20.3608 30.6503 20.4731 29.4547 20.5803 28.2592C20.6926 27.0495 20.81 25.8399 20.9274 24.6302C21.0908 22.9028 21.2541 21.1801 21.4175 19.4527C21.5604 17.9135 21.7033 16.3744 21.8462 14.8352C21.8871 14.421 21.9177 14.0068 21.9688 13.5926C22.0147 13.249 22.2138 13.0937 22.5813 13.0937C23.5512 13.089 24.5211 13.089 25.491 13.0937C25.8738 13.0937 26.0576 13.2726 26.027 13.6256C25.8993 15.0376 25.7666 16.4544 25.6339 17.8664C25.5471 18.7937 25.4501 19.7257 25.3685 20.6529C25.3429 20.9306 25.3838 20.9636 25.6952 20.9636C28.4364 20.9636 31.1724 20.9636 33.9136 20.9636C34.225 20.9636 34.2761 20.9212 34.3067 20.6247C34.4598 19.0337 34.6079 17.4381 34.761 15.8472C34.8325 15.1129 34.8988 14.3787 34.9754 13.6444C35.0163 13.2443 35.2102 13.0937 35.639 13.089C36.5681 13.089 37.492 13.089 38.4211 13.089C38.8754 13.089 39.0387 13.2678 39.003 13.6962C38.8243 15.593 38.6508 17.4946 38.4721 19.3915C38.2781 21.4389 38.0739 23.4817 37.88 25.5292C37.7319 27.0589 37.5992 28.5934 37.4563 30.1231C37.4001 30.7067 37.3491 31.2951 37.2929 31.8787C37.2572 32.2271 37.053 32.3918 36.6702 32.3918C35.7156 32.3918 34.7661 32.3918 33.8116 32.3918C33.4083 32.3918 33.2347 32.2318 33.2705 31.8505C33.3572 30.8244 33.4542 29.803 33.5512 28.7816C33.6482 27.7414 33.7452 26.7059 33.8422 25.6657C33.883 25.2186 33.929 24.7761 33.9749 24.329C34.0055 24.0465 33.9596 23.9948 33.6533 23.9901C32.2699 23.9901 30.8917 23.9901 29.5134 23.9901Z" fill="#454E72"/>
<path d="M76.0986 31.3657C76.0628 31.5775 76.0322 31.7469 76.0067 31.9164C75.9557 32.227 75.7668 32.3918 75.4248 32.3918C74.5059 32.3965 73.5871 32.3965 72.6683 32.3918C72.3007 32.3918 72.117 32.1847 72.1476 31.8458C72.2803 30.4572 72.4079 29.064 72.5355 27.6755C72.6836 26.1316 72.8316 24.5831 72.9796 23.0392C73.1073 21.679 73.2247 20.3234 73.3523 18.9631C73.5156 17.2545 73.679 15.5459 73.8423 13.8326C73.8627 13.6208 73.8781 13.409 73.9036 13.2019C73.9393 12.9242 74.1231 12.7501 74.4243 12.7501C75.3788 12.7454 76.3283 12.7407 77.2829 12.7501C77.6045 12.7548 77.7627 12.9289 77.7372 13.2537C77.6657 14.1151 77.584 14.9717 77.5024 15.8331C77.4003 16.9439 77.2931 18.05 77.1859 19.1608C77.1757 19.2502 77.1706 19.3397 77.2727 19.3914C77.385 19.4479 77.487 19.4008 77.5789 19.3397C79.0797 18.3371 80.7795 18.0876 82.5713 18.2712C84.1895 18.4359 85.4503 19.2032 86.4049 20.4034C87.6402 21.9614 88.0333 23.7217 87.824 25.6139C87.6402 27.2942 87.0583 28.8381 85.9301 30.1842C84.8071 31.521 83.3931 32.4482 81.5606 32.7448C80.2436 32.9566 78.9368 32.8813 77.6708 32.4482C77.3645 32.3447 77.0889 32.1894 76.8234 32.0246C76.558 31.8411 76.3283 31.6293 76.0986 31.3657Z" fill="#454E72"/>
<path d="M62.6732 32.8343C61.1571 32.8248 59.7176 32.5566 58.4415 31.7564C56.905 30.7962 55.9708 29.4547 55.6543 27.7791C55.2613 25.7128 55.5778 23.7171 56.7569 21.9049C58.3445 19.4668 60.7386 18.2665 63.8167 18.2054C65.0316 18.1818 66.2107 18.3419 67.3134 18.822C69.3654 19.7115 70.5905 21.2224 70.9683 23.2605C71.3664 25.4257 71.004 27.5061 69.7023 29.3747C68.3496 31.3186 66.4098 32.453 63.9137 32.7637C63.6176 32.8013 63.3215 32.8154 63.0254 32.8343C62.908 32.8437 62.7906 32.8343 62.6732 32.8343Z" fill="#454E72"/>
<path d="M43.1736 18.6431C43.6177 18.6431 44.0567 18.6431 44.5008 18.6431C44.9092 18.6431 45.0981 18.8172 45.0674 19.1985C44.9653 20.3799 44.8479 21.5566 44.7407 22.738C44.6182 24.0654 44.4498 25.388 44.3834 26.72C44.3579 27.2613 44.3987 27.8026 44.5621 28.3251C44.9398 29.5206 45.8893 29.9631 47.1501 29.8642C48.5335 29.7559 49.2634 28.9417 49.6616 27.8026C49.9117 27.0825 49.9985 26.3341 50.0649 25.581C50.1925 24.1736 50.3303 22.771 50.463 21.3636C50.5243 20.6858 50.5856 20.0033 50.6417 19.3256C50.6876 18.7749 50.8408 18.6431 51.438 18.6431C52.2548 18.6431 53.0715 18.6431 53.8883 18.6431C54.3885 18.6431 54.5519 18.7937 54.5059 19.2597C54.3936 20.5305 54.2711 21.8061 54.1486 23.0769C54.0057 24.5502 53.9138 26.0328 53.6943 27.5014C53.5156 28.6828 53.0919 29.7842 52.2803 30.7303C51.4023 31.7517 50.2333 32.34 48.8704 32.613C47.2675 32.9331 45.6647 32.9425 44.0771 32.5424C42.0659 32.0341 40.9378 30.7962 40.5855 28.9275C40.4171 28.0474 40.463 27.1625 40.5498 26.2776C40.6672 25.0585 40.7795 23.8394 40.8969 22.6251C41.0092 21.4531 41.1215 20.2858 41.2389 19.1138C41.2696 18.8266 41.484 18.6478 41.8004 18.6478C42.2548 18.6431 42.7142 18.6431 43.1736 18.6431Z" fill="#454E72"/>
<path d="M11.0244 18.0641C11.0346 19.1985 10.5394 20.0975 9.84519 20.9306C9.24794 21.6508 8.53329 22.2674 7.83395 22.8981C5.80741 24.7432 4.42405 26.946 3.51031 29.4171C3.32655 29.9066 3.1683 30.4008 3.05089 30.9091C2.99474 31.1492 2.9488 31.1633 2.74972 30.9986C-0.649979 28.2498 -0.85927 23.5664 2.28009 20.5635C2.68336 20.1775 3.14788 19.8574 3.55115 19.4762C5.26121 17.8759 6.38423 15.9884 6.7875 13.7574C6.95085 12.8395 7.01721 11.9217 6.92533 10.9944C6.91512 10.9191 6.87428 10.825 6.97637 10.7826C7.07336 10.7403 7.13462 10.825 7.19587 10.8721C8.08919 11.5969 8.82426 12.4489 9.44702 13.3808C10.3301 14.6987 10.8049 16.139 11.009 17.6688C11.0244 17.8147 11.0193 17.9653 11.0244 18.0641Z" fill="#454E72"/>
<path d="M7.88495 32.7118C7.03757 32.6977 6.20551 32.5565 5.37856 32.3588C5.26115 32.3306 5.16417 32.3023 5.1999 32.1611C5.22542 32.0482 5.21521 31.9352 5.40408 31.9164C5.84819 31.874 6.13405 31.6387 6.24635 31.2433C6.2974 31.0691 6.34334 30.8903 6.35865 30.7114C6.45564 29.4923 7.07841 28.4898 7.86453 27.5531C8.64043 26.6353 9.58479 25.8586 10.4373 25.0067C11.8513 23.5899 12.9998 22.0226 13.694 20.1916C13.7196 20.121 13.7196 20.0174 13.8268 20.008C13.9442 19.9986 13.9697 20.1069 14.0105 20.1775C14.5976 21.1518 14.9855 22.192 15.205 23.2887C15.3939 24.2254 15.5062 25.1667 15.4143 26.1175C15.2152 28.2356 14.2453 29.9771 12.3872 31.2621C11.06 32.1847 9.56948 32.6977 7.88495 32.7118Z" fill="#24A9E2"/>
<path d="M91.239 32.3917C90.8051 32.3917 90.3712 32.3917 89.9373 32.3917C89.5187 32.3917 89.3401 32.2176 89.3758 31.8128C89.4626 30.829 89.5647 29.8453 89.6565 28.8616C89.8199 27.1106 89.9832 25.3644 90.1466 23.6134C90.2844 22.1355 90.4222 20.6622 90.5652 19.189C90.6009 18.8172 90.8153 18.6477 91.2186 18.6477C92.0966 18.6477 92.9695 18.6477 93.8475 18.6477C94.2763 18.6477 94.4549 18.8172 94.4192 19.2172C94.3018 20.5446 94.1691 21.8719 94.0465 23.1992C93.8628 25.1432 93.6841 27.0871 93.5003 29.031C93.4085 29.9818 93.3166 30.9373 93.2145 31.8881C93.1788 32.2364 92.9899 32.3917 92.6172 32.3917C92.1578 32.3917 91.6984 32.3917 91.239 32.3917Z" fill="#454E72"/>
<path d="M92.6785 17.2828C92.2344 17.2828 91.7954 17.2828 91.3513 17.2828C90.9633 17.2828 90.7795 17.1181 90.8051 16.7651C90.8663 15.9743 90.9429 15.1883 91.0195 14.4022C91.045 14.1339 91.2645 13.9504 91.5759 13.9457C92.51 13.9362 93.4442 13.9362 94.3783 13.9457C94.7203 13.9504 94.9041 14.1622 94.8735 14.4728C94.7969 15.2448 94.7203 16.0167 94.6387 16.7886C94.6029 17.1181 94.4141 17.2781 94.0516 17.2828C93.5973 17.2875 93.1379 17.2828 92.6785 17.2828Z" fill="#454E72"/>
<path d="M83.9291 25.0632C83.8883 26.6165 83.3574 27.9673 82.02 28.9793C80.8612 29.8548 78.9011 29.9583 77.7984 29.1864C76.8796 28.5369 76.3589 27.6708 76.216 26.6212C76.0322 25.2656 76.3385 24.0042 77.2471 22.9122C78.2374 21.7213 79.5442 21.1424 81.1981 21.4154C82.1782 21.5754 82.8469 22.1591 83.3319 22.9263C83.7505 23.5852 83.9496 24.3007 83.9291 25.0632Z" fill="#FEFEFE"/>
<path d="M59.4114 26.061C59.4217 24.7196 59.8096 23.5052 60.8356 22.5121C61.8974 21.4813 63.2042 21.1282 64.6948 21.4483C65.7514 21.6695 66.415 22.3567 66.8132 23.2416C67.5432 24.8796 67.293 26.4517 66.2925 27.9344C65.7616 28.7157 65.0368 29.3276 64.0414 29.5629C62.7499 29.8642 61.5299 29.7418 60.5243 28.8428C59.7943 28.1885 59.4727 27.3601 59.4114 26.4329C59.4063 26.3105 59.4114 26.1834 59.4114 26.061Z" fill="#FEFEFE"/>
</svg>
