<?xml version="1.0" encoding="UTF-8"?>
<svg width="111px" height="21px" viewBox="0 0 111 21" version="1.1" xmlns="http://www.w3.org/2000/svg" xmlns:xlink="http://www.w3.org/1999/xlink">
    <!-- Generator: Sketch 49.1 (51147) - http://www.bohemiancoding.com/sketch -->
    <title>imToken</title>
    <desc>Created with Sketch.</desc>
    <defs></defs>
    <g id="Page-1" stroke="none" stroke-width="1" fill="none" fill-rule="evenodd">
        <g id="Artboard" transform="translate(-38.000000, -269.000000)" fill="#354B8E">
            <path d="M39.366,275.22 L41.862,275.22 L41.862,289 L39.366,289 L39.366,275.22 Z M40.614,272.568 C40.1286642,272.568 39.7256683,272.412002 39.405,272.1 C39.0843317,271.787998 38.924,271.406669 38.924,270.956 C38.924,270.505331 39.0843317,270.119668 39.405,269.799 C39.7256683,269.478332 40.1286642,269.318 40.614,269.318 C41.0993358,269.318 41.5023317,269.469665 41.823,269.773 C42.1436683,270.076335 42.304,270.453331 42.304,270.904 C42.304,271.372002 42.1436683,271.766332 41.823,272.087 C41.5023317,272.407668 41.0993358,272.568 40.614,272.568 Z M63.858,275.09 C65.591342,275.09 66.9649949,275.592662 67.979,276.598 C68.9930051,277.603338 69.5,279.09399 69.5,281.07 L69.5,289 L67.004,289 L67.004,281.356 C67.004,280.021327 66.6963364,279.016003 66.081,278.34 C65.4656636,277.663997 64.5860057,277.326 63.442,277.326 C62.1766603,277.326 61.1713371,277.720329 60.426,278.509 C59.6806629,279.297671 59.308,280.428659 59.308,281.902 L59.308,289 L56.812,289 L56.812,281.356 C56.812,280.021327 56.5043364,279.016003 55.889,278.34 C55.2736636,277.663997 54.3940057,277.326 53.25,277.326 C51.9846603,277.326 50.9793371,277.720329 50.234,278.509 C49.4886629,279.297671 49.116,280.428659 49.116,281.902 L49.116,289 L46.62,289 L46.62,275.22 L49.012,275.22 L49.012,277.274 C49.5146692,276.56333 50.1733293,276.021669 50.988,275.649 C51.8026707,275.276331 52.7299948,275.09 53.77,275.09 C54.844672,275.09 55.7979958,275.306665 56.63,275.74 C57.4620042,276.173336 58.1033311,276.805996 58.554,277.638 C59.0740026,276.840663 59.797662,276.216669 60.725,275.766 C61.652338,275.315331 62.6966609,275.09 63.858,275.09 Z M78.08,273.062 L71.84,273.062 L71.84,270.8 L86.894,270.8 L86.894,273.062 L80.654,273.062 L80.654,289 L78.08,289 L78.08,273.062 Z M93.836,289.156 C92.4666598,289.156 91.2360055,288.85267 90.144,288.246 C89.0519945,287.63933 88.1983364,286.803005 87.583,285.737 C86.9676636,284.670995 86.66,283.462007 86.66,282.11 C86.66,280.757993 86.9676636,279.549005 87.583,278.483 C88.1983364,277.416995 89.0519945,276.585003 90.144,275.987 C91.2360055,275.388997 92.4666598,275.09 93.836,275.09 C95.2053402,275.09 96.4316613,275.388997 97.515,275.987 C98.5983388,276.585003 99.4476636,277.416995 100.063,278.483 C100.678336,279.549005 100.986,280.757993 100.986,282.11 C100.986,283.462007 100.678336,284.670995 100.063,285.737 C99.4476636,286.803005 98.5983388,287.63933 97.515,288.246 C96.4316613,288.85267 95.2053402,289.156 93.836,289.156 Z M93.836,286.972 C94.7200044,286.972 95.5129965,286.768335 96.215,286.361 C96.9170035,285.953665 97.4673313,285.38167 97.866,284.645 C98.2646687,283.90833 98.464,283.063338 98.464,282.11 C98.464,281.156662 98.2646687,280.31167 97.866,279.575 C97.4673313,278.83833 96.9170035,278.270669 96.215,277.872 C95.5129965,277.473331 94.7200044,277.274 93.836,277.274 C92.9519956,277.274 92.1590035,277.473331 91.457,277.872 C90.7549965,278.270669 90.2003354,278.83833 89.793,279.575 C89.3856646,280.31167 89.182,281.156662 89.182,282.11 C89.182,283.063338 89.3856646,283.90833 89.793,284.645 C90.2003354,285.38167 90.7549965,285.953665 91.457,286.361 C92.1590035,286.768335 92.9519956,286.972 93.836,286.972 Z M109.8,282.578 L106.94,285.23 L106.94,289 L104.444,289 L104.444,269.708 L106.94,269.708 L106.94,282.084 L114.454,275.22 L117.47,275.22 L111.672,280.914 L118.042,289 L114.974,289 L109.8,282.578 Z M132.342,282.188 C132.342,282.378668 132.324667,282.629998 132.29,282.942 L121.11,282.942 C121.266001,284.155339 121.798995,285.13033 122.709,285.867 C123.619005,286.60367 124.749993,286.972 126.102,286.972 C127.748675,286.972 129.074662,286.417339 130.08,285.308 L131.458,286.92 C130.833997,287.648004 130.058338,288.202665 129.131,288.584 C128.203662,288.965335 127.168006,289.156 126.024,289.156 C124.567993,289.156 123.276672,288.857003 122.15,288.259 C121.023328,287.660997 120.152336,286.824672 119.537,285.75 C118.921664,284.675328 118.614,283.462007 118.614,282.11 C118.614,280.775327 118.912997,279.570672 119.511,278.496 C120.109003,277.421328 120.932328,276.585003 121.981,275.987 C123.029672,275.388997 124.21266,275.09 125.53,275.09 C126.84734,275.09 128.021662,275.388997 129.053,275.987 C130.084338,276.585003 130.89033,277.421328 131.471,278.496 C132.05167,279.570672 132.342,280.801326 132.342,282.188 Z M125.53,277.196 C124.333994,277.196 123.333004,277.559996 122.527,278.288 C121.720996,279.016004 121.248667,279.969327 121.11,281.148 L129.95,281.148 C129.811333,279.986661 129.339004,279.03767 128.533,278.301 C127.726996,277.56433 126.726006,277.196 125.53,277.196 Z M143.158,275.09 C144.908675,275.09 146.299662,275.596995 147.331,276.611 C148.362338,277.625005 148.878,279.111324 148.878,281.07 L148.878,289 L146.382,289 L146.382,281.356 C146.382,280.021327 146.061337,279.016003 145.42,278.34 C144.778663,277.663997 143.860006,277.326 142.664,277.326 C141.311993,277.326 140.246004,277.720329 139.466,278.509 C138.685996,279.297671 138.296,280.428659 138.296,281.902 L138.296,289 L135.8,289 L135.8,275.22 L138.192,275.22 L138.192,277.3 C138.694669,276.58933 139.374996,276.043335 140.233,275.662 C141.091004,275.280665 142.065995,275.09 143.158,275.09 Z" id="imToken"></path>
        </g>
    </g>
</svg>