<svg width="38" height="27" viewBox="0 0 38 27" fill="none" xmlns="http://www.w3.org/2000/svg">
<rect width="36.3667" height="26.1293" fill="black" fill-opacity="0" transform="translate(0.800049 0.360107)"/>
<path d="M17.841 0.393992C20.9886 0.208236 24.1954 0.788725 27.0299 2.07354C31.2013 3.94658 34.5266 7.33664 36.1003 11.3381C36.7942 13.1028 37.1665 14.9759 37.1665 16.8489V23.8148C37.1665 24.1012 37.1749 24.3875 37.0988 24.6662C36.9295 25.3705 36.3796 25.9897 35.6604 26.2838C35.1611 26.5005 34.5858 26.5237 34.0443 26.4463C32.8851 26.2528 31.9797 25.2544 31.9713 24.1786C31.9628 22.0191 31.9713 19.8597 31.9713 17.6926C31.9882 17.0811 31.9966 16.4232 31.6328 15.8814C31.0405 14.883 29.619 14.4109 28.4683 14.8366C27.4953 15.1539 26.793 16.0517 26.7845 16.996C26.7761 19.1941 26.7845 21.3845 26.7845 23.5748C26.7845 23.9851 26.8099 24.403 26.6745 24.7977C26.4291 25.5717 25.7269 26.1987 24.8807 26.4076C23.7723 26.6863 22.4947 26.2374 21.9362 25.3008C21.5555 24.7358 21.5809 24.0547 21.5893 23.42C21.5809 21.2452 21.5978 19.0625 21.5809 16.8876C21.5555 15.7808 20.5655 14.7824 19.364 14.6431C18.5856 14.5347 17.7648 14.7746 17.1979 15.2777C16.6903 15.7189 16.3941 16.3536 16.3941 16.996V23.3427C16.3857 23.8767 16.4533 24.4262 16.2334 24.9293C15.8864 25.8349 14.888 26.5005 13.8304 26.4773C12.7473 26.5315 11.6981 25.8504 11.3512 24.9216C11.1566 24.4649 11.1989 23.9696 11.1989 23.4897C11.1989 21.2993 11.2074 19.109 11.1989 16.9186C11.1905 15.835 10.2682 14.8443 9.10899 14.6508C8.05133 14.4418 6.88368 14.9294 6.35908 15.7963C6.13063 16.1601 6.01217 16.578 6.01217 16.9882V24.1012C6.02063 24.79 5.67372 25.4788 5.0899 25.92C4.20993 26.6243 2.78844 26.663 1.86617 26.0129C1.19773 25.5949 0.800049 24.8751 0.800049 24.1321V16.9263C0.80851 14.2019 1.56156 11.4852 2.98305 9.08584C4.14224 7.12766 5.74141 5.3862 7.65365 3.99302C10.5305 1.8723 14.1434 0.595229 17.841 0.393992Z" fill="#0DA8FF"/>
</svg>
