<?xml version="1.0" encoding="UTF-8"?>
<svg width="156px" height="21px" viewBox="0 0 156 21" version="1.1" xmlns="http://www.w3.org/2000/svg" xmlns:xlink="http://www.w3.org/1999/xlink">
    <!-- Generator: Sketch 49.1 (51147) - http://www.bohemiancoding.com/sketch -->
    <title>LIVECOIN</title>
    <desc>Created with Sketch.</desc>
    <defs></defs>
    <g id="Page-1" stroke="none" stroke-width="1" fill="none" fill-rule="evenodd">
        <g id="Artboard" transform="translate(-74.000000, -68.000000)" fill="#525252">
            <path d="M74.632,68.4 L78.272,68.4 L78.272,84.92 L88.52,84.92 L88.52,88 L74.632,88 L74.632,68.4 Z M94.404,68.4 L98.044,68.4 L98.044,88 L94.404,88 L94.404,68.4 Z M124.116,68.4 L115.576,88 L111.992,88 L103.424,68.4 L107.372,68.4 L113.896,83.52 L120.476,68.4 L124.116,68.4 Z M143.888,84.948 L143.888,88 L129.188,88 L129.188,68.4 L143.496,68.4 L143.496,71.452 L132.828,71.452 L132.828,76.548 L142.292,76.548 L142.292,79.544 L132.828,79.544 L132.828,84.948 L143.888,84.948 Z M159.936,88.28 C157.957323,88.28 156.170008,87.8460043 154.574,86.978 C152.977992,86.1099957 151.727338,84.9106743 150.822,83.38 C149.916662,81.8493257 149.464,80.1226763 149.464,78.2 C149.464,76.2773237 149.921329,74.5506743 150.836,73.02 C151.750671,71.4893257 153.005992,70.2900043 154.602,69.422 C156.198008,68.5539957 157.985323,68.12 159.964,68.12 C161.569341,68.12 163.03466,68.3999972 164.36,68.96 C165.68534,69.5200028 166.805329,70.3319947 167.72,71.396 L165.368,73.608 C163.949326,72.0773257 162.20401,71.312 160.132,71.312 C158.787993,71.312 157.584005,71.6059971 156.52,72.194 C155.455995,72.7820029 154.625336,73.5986614 154.028,74.644 C153.430664,75.6893386 153.132,76.87466 153.132,78.2 C153.132,79.52534 153.430664,80.7106614 154.028,81.756 C154.625336,82.8013386 155.455995,83.6179971 156.52,84.206 C157.584005,84.7940029 158.787993,85.088 160.132,85.088 C162.20401,85.088 163.949326,84.3133411 165.368,82.764 L167.72,85.004 C166.805329,86.0680053 165.680673,86.8799972 164.346,87.44 C163.011327,88.0000028 161.541341,88.28 159.936,88.28 Z M182.956,88.28 C180.958657,88.28 179.157341,87.8460043 177.552,86.978 C175.946659,86.1099957 174.686671,84.9060077 173.772,83.366 C172.857329,81.8259923 172.4,80.1040095 172.4,78.2 C172.4,76.2959905 172.857329,74.5740077 173.772,73.034 C174.686671,71.4939923 175.946659,70.2900043 177.552,69.422 C179.157341,68.5539957 180.958657,68.12 182.956,68.12 C184.953343,68.12 186.754659,68.5539957 188.36,69.422 C189.965341,70.2900043 191.225329,71.4893257 192.14,73.02 C193.054671,74.5506743 193.512,76.2773237 193.512,78.2 C193.512,80.1226763 193.054671,81.8493257 192.14,83.38 C191.225329,84.9106743 189.965341,86.1099957 188.36,86.978 C186.754659,87.8460043 184.953343,88.28 182.956,88.28 Z M182.956,85.088 C184.262673,85.088 185.438661,84.7940029 186.484,84.206 C187.529339,83.6179971 188.350664,82.7966719 188.948,81.742 C189.545336,80.6873281 189.844,79.5066732 189.844,78.2 C189.844,76.8933268 189.545336,75.7126719 188.948,74.658 C188.350664,73.6033281 187.529339,72.7820029 186.484,72.194 C185.438661,71.6059971 184.262673,71.312 182.956,71.312 C181.649327,71.312 180.473339,71.6059971 179.428,72.194 C178.382661,72.7820029 177.561336,73.6033281 176.964,74.658 C176.366664,75.7126719 176.068,76.8933268 176.068,78.2 C176.068,79.5066732 176.366664,80.6873281 176.964,81.742 C177.561336,82.7966719 178.382661,83.6179971 179.428,84.206 C180.473339,84.7940029 181.649327,85.088 182.956,85.088 Z M200.376,68.4 L204.016,68.4 L204.016,88 L200.376,88 L200.376,68.4 Z M229.724,68.4 L229.724,88 L226.728,88 L215.92,74.728 L215.92,88 L212.308,88 L212.308,68.4 L215.304,68.4 L226.112,81.672 L226.112,68.4 L229.724,68.4 Z" id="LIVECOIN"></path>
        </g>
    </g>
</svg>