<svg width="90" height="30" viewBox="0 0 90 30" fill="none" xmlns="http://www.w3.org/2000/svg">
<rect width="89.2154" height="28.9524" fill="black" fill-opacity="0" transform="translate(0.0222168 0.476196)"/>
<rect width="89.2154" height="28.9524" fill="black" fill-opacity="0" transform="translate(0.0222168 0.476196)"/>
<path fill-rule="evenodd" clip-rule="evenodd" d="M50.1538 14.925C50.1538 15.8947 49.99 16.8097 49.6475 17.6564C49.3049 18.5168 48.8286 19.2543 48.1882 19.8961C47.5481 20.538 46.7739 21.0433 45.8359 21.4257C44.8979 21.808 43.8408 21.9856 42.6497 21.9856C41.4585 21.9856 40.4014 21.7944 39.4634 21.4257C38.5254 21.0433 37.7512 20.538 37.1108 19.8961C36.4707 19.2543 35.9792 18.5031 35.6519 17.6564C35.3242 16.796 35.1604 15.8947 35.1604 14.925C35.1604 13.9691 35.3242 13.0541 35.6519 12.1937C35.9792 11.3333 36.4707 10.5822 37.1108 9.94031C37.7512 9.29846 38.5403 8.79315 39.4634 8.41077C40.4014 8.02838 41.4585 7.85083 42.6497 7.85083C43.8408 7.85083 44.8979 8.04205 45.8359 8.41077C46.7739 8.79315 47.5481 9.29846 48.1882 9.94031C48.8286 10.5822 49.3049 11.3333 49.6475 12.1937C49.99 13.0541 50.1538 13.9691 50.1538 14.925ZM42.6646 19.7458C43.394 19.7458 44.0342 19.623 44.5703 19.3771C45.1211 19.1313 45.5679 18.7899 45.9402 18.3665C46.3123 17.9295 46.5803 17.4242 46.759 16.837C46.9377 16.2498 47.0271 15.6078 47.0271 14.925C47.0271 14.2422 46.9377 13.6003 46.759 13.0131C46.5803 12.4258 46.3123 11.9205 45.9402 11.4835C45.5679 11.0465 45.1211 10.7188 44.5703 10.4729C44.0193 10.2271 43.394 10.1042 42.6646 10.1042C41.9351 10.1042 41.2947 10.2271 40.7588 10.4729C40.2078 10.7188 39.7612 11.0602 39.3889 11.4835C39.0166 11.9205 38.7488 12.4258 38.5701 13.0131C38.3914 13.6003 38.302 14.2422 38.302 14.925C38.302 15.6078 38.3914 16.2498 38.5701 16.837C38.7488 17.4242 39.0166 17.9295 39.3889 18.3665C39.7612 18.8035 40.2078 19.1313 40.7588 19.3771C41.2947 19.623 41.9351 19.7458 42.6646 19.7458ZM55.2456 8.09668H52.1189V21.7535H55.2307V15.048L60.5312 21.7535H64.4023L58.551 14.8431L64.0303 8.09668H60.4121L55.2456 14.6519V8.09668ZM65.668 8.09668H74.6013V10.3774H68.7947V13.6823H74.3335V15.9493H68.7947V19.4728H74.6758V21.7535H65.668V8.09668ZM89.1482 8.09668H85.7537L82.5972 12.7126L79.4407 8.09668H76.0459L80.9443 14.8841L75.9565 21.7535H79.3811L82.5972 17.0965L85.8132 21.7535H89.2375L84.2498 14.8841L89.1482 8.09668Z" fill="#1A1A1A"/>
<rect width="31.5647" height="28.9524" fill="black" fill-opacity="0" transform="translate(0.0222168 0.476196)"/>
<path d="M15.8047 13.5867C19.7518 13.5867 22.9515 10.6518 22.9515 7.03145C22.9515 3.41108 19.7518 0.476196 15.8047 0.476196C11.8577 0.476196 8.65796 3.41108 8.65796 7.03145C8.65796 10.6518 11.8577 13.5867 15.8047 13.5867Z" fill="#88BDF3"/>
<path d="M15.8047 29.4286C19.7518 29.4286 22.9515 26.4937 22.9515 22.8734C22.9515 19.253 19.7518 16.3181 15.8047 16.3181C11.8577 16.3181 8.65796 19.253 8.65796 22.8734C8.65796 26.4937 11.8577 29.4286 15.8047 29.4286Z" fill="#3075EE"/>
<path d="M24.4402 21.5077C28.3873 21.5077 31.587 18.5728 31.587 14.9525C31.587 11.3321 28.3873 8.39722 24.4402 8.39722C20.4932 8.39722 17.2935 11.3321 17.2935 14.9525C17.2935 18.5728 20.4932 21.5077 24.4402 21.5077Z" fill="#5795F1"/>
<path d="M7.16897 21.5076C11.116 21.5076 14.3157 18.5727 14.3157 14.9524C14.3157 11.332 11.116 8.39709 7.16897 8.39709C3.22193 8.39709 0.0222168 11.332 0.0222168 14.9524C0.0222168 18.5727 3.22193 21.5076 7.16897 21.5076Z" fill="#205FEC"/>
<path d="M14.1146 13.4025C11.5249 12.8266 9.48648 10.9569 8.85864 8.58154C11.4483 9.15741 13.4867 11.0271 14.1146 13.4025Z" fill="#134BEF"/>
<path d="M8.85864 21.3234C9.48648 18.948 11.5249 17.0783 14.1146 16.5024C13.4867 18.8778 11.4483 20.7475 8.85864 21.3234Z" fill="#0932E8"/>
<path d="M17.4944 16.5024C20.0841 17.0783 22.1225 18.948 22.7503 21.3234C20.1606 20.7475 18.1222 18.8778 17.4944 16.5024Z" fill="#164BEA"/>
<path d="M22.7503 8.58154C22.1225 10.9569 20.0841 12.8266 17.4944 13.4025C18.1222 11.0271 20.1606 9.15741 22.7503 8.58154Z" fill="#3170F1"/>
</svg>
