<svg xmlns="http://www.w3.org/2000/svg" xmlns:xlink="http://www.w3.org/1999/xlink" width="83" height="30" viewBox="0 0 83 30"><defs><path id="gkvma" d="M569.74 449.92c0 .97-.15 1.89-.47 2.74a6.4 6.4 0 0 1-3.5 3.77c-.87.38-1.84.55-2.94.55-1.1 0-2.07-.19-2.93-.56a6.4 6.4 0 0 1-3.5-3.76 8.16 8.16 0 0 1-.46-2.74c0-.95.15-1.87.45-2.73a6.45 6.45 0 0 1 6.44-4.34c1.1 0 2.07.2 2.94.56a6.4 6.4 0 0 1 3.5 3.78c.32.86.47 1.78.47 2.73zm-6.9 4.83a3.65 3.65 0 0 0 3.02-1.38c.34-.44.6-.95.76-1.53a7.1 7.1 0 0 0 .24-1.92 7.1 7.1 0 0 0-.24-1.9 4.32 4.32 0 0 0-.76-1.54 3.5 3.5 0 0 0-1.26-1 3.95 3.95 0 0 0-1.75-.38 3.65 3.65 0 0 0-3.02 1.38c-.34.44-.59.95-.75 1.53a7.1 7.1 0 0 0-.25 1.91c0 .69.08 1.33.25 1.92.16.58.41 1.09.75 1.53.34.43.76.76 1.26 1 .5.25 1.09.38 1.76.38zm8.71 2V443.1h2.88v6.55l4.75-6.55h3.33l-5.04 6.74 5.39 6.91h-3.57l-4.88-6.7v6.7zm20.7-13.65v2.28h-5.35v3.3h5.1v2.27h-5.1v3.52h5.41v2.28h-8.29V443.1zm10.26 0h3.12l-4.5 6.78 4.59 6.87h-3.16l-2.96-4.65-2.96 4.65h-3.15l4.6-6.87-4.52-6.78h3.13l2.9 4.61z"/><path id="gkvmb" d="M531.55 442.04a6.57 6.57 0 0 1 6.58-6.56 6.57 6.57 0 0 1 6.58 6.55 6.57 6.57 0 0 1-6.58 6.56 6.57 6.57 0 0 1-6.58-6.55z"/><path id="gkvmc" d="M531.55 457.88a6.57 6.57 0 0 1 6.58-6.56 6.57 6.57 0 0 1 6.58 6.55 6.57 6.57 0 0 1-6.58 6.56 6.57 6.57 0 0 1-6.58-6.55z"/><path id="gkvmd" d="M539.5 449.95a6.57 6.57 0 0 1 6.58-6.55 6.57 6.57 0 0 1 6.58 6.55 6.57 6.57 0 0 1-6.58 6.56 6.57 6.57 0 0 1-6.58-6.55z"/><path id="gkvme" d="M523.6 449.95a6.57 6.57 0 0 1 6.58-6.55 6.57 6.57 0 0 1 6.58 6.55 6.57 6.57 0 0 1-6.58 6.56 6.57 6.57 0 0 1-6.58-6.55z"/><path id="gkvmf" d="M536.57 448.4a6.58 6.58 0 0 1-4.84-4.82 6.58 6.58 0 0 1 4.84 4.82z"/><path id="gkvmg" d="M531.73 456.32a6.58 6.58 0 0 1 4.84-4.82 6.58 6.58 0 0 1-4.84 4.82z"/><path id="gkvmh" d="M539.68 451.5a6.58 6.58 0 0 1 4.84 4.82 6.58 6.58 0 0 1-4.84-4.82z"/><path id="gkvmi" d="M544.52 443.58a6.58 6.58 0 0 1-4.84 4.82 6.58 6.58 0 0 1 4.84-4.82z"/></defs><g><g transform="translate(-523 -435)"><g><g><use fill="#1a1a1a" xlink:href="#gkvma"/></g><g><g><use fill="#88bdf3" xlink:href="#gkvmb"/></g><g><use fill="#3075ee" xlink:href="#gkvmc"/></g><g><use fill="#5795f1" xlink:href="#gkvmd"/></g><g><use fill="#205fec" xlink:href="#gkvme"/></g><g><use fill="#134bef" xlink:href="#gkvmf"/></g><g><use fill="#0932e8" xlink:href="#gkvmg"/></g><g><use fill="#164bea" xlink:href="#gkvmh"/></g><g><use fill="#3170f1" xlink:href="#gkvmi"/></g></g></g></g></g></svg>