<svg width="68" height="53" viewBox="0 0 68 53" fill="none" xmlns="http://www.w3.org/2000/svg">
<g clip-path="url(#clip0)">
<path d="M67.4938 7.79779H64.8445C63.8609 7.79779 62.4699 9.21364 62.4699 10.1199V42.971C62.4699 43.8783 63.8609 45.1153 64.8445 45.1153H67.4938V52.9131H43.4907V45.1153H48.5146V10.5825H48.2684L36.5364 52.9131H27.4536L15.8729 10.5825H15.5798V45.1153H20.6038V52.9131H0.508057V45.1153H3.08151C4.14099 45.1153 5.53199 43.8783 5.53199 42.971V10.1196C5.53199 9.21338 4.14099 7.79753 3.08151 7.79753H0.508057V0H25.6366L33.8868 30.6337H34.1145L42.4403 0H67.4938V7.79779Z" fill="#1A1918"/>
</g>
<defs>
<clipPath id="clip0">
<rect width="67" height="53" fill="white" transform="translate(0.5)"/>
</clipPath>
</defs>
</svg>
