<svg width="64" height="46" viewBox="0 0 64 46" fill="none" xmlns="http://www.w3.org/2000/svg">
<g opacity="0.3" clip-path="url(#clip0)">
<path d="M14.8784 0.688748C18.9486 0.688747 22.317 2.20372 25.2644 5.37138C26.6679 6.74863 27.6503 8.53904 28.4924 10.6049C29.3345 12.6708 29.6152 14.7366 29.6152 16.8025C29.6152 21.2097 28.2117 25.6169 25.2644 30.0241C22.317 34.569 18.5275 38.2875 13.6152 41.4552C9.54505 44.072 6.31699 45.4492 3.93102 45.4492C2.94857 45.4492 2.24681 45.1738 1.54506 44.6229C0.983653 44.072 0.562599 43.3834 0.562599 42.4193C0.562599 41.042 1.40471 39.9402 3.22927 38.9762C7.43979 36.7726 10.6679 34.7067 12.6328 32.5031C14.4573 30.575 15.4398 29.06 15.4398 28.0959C15.4398 27.2696 14.738 26.7187 13.3345 26.4432L12.3521 26.3055L11.2293 26.3055C8.14155 25.8923 5.75558 24.5151 3.79067 22.1738C1.82575 19.8325 0.983648 17.078 0.983648 13.7726C0.983648 10.3295 2.10645 7.43725 4.49242 4.95821C7.43979 2.06599 10.8082 0.688748 14.8784 0.688748Z" stroke="white"/>
<path d="M48.562 0.688736C52.6322 0.688736 56.0006 2.20371 58.9479 5.37137C60.3515 6.74862 61.3339 8.53903 62.176 10.6049C63.0181 12.6708 63.2988 14.7366 63.2988 16.8025C63.2988 21.2097 61.8953 25.6169 58.948 30.0241C56.0006 34.569 52.2111 38.2875 47.2988 41.4552C43.2287 44.072 40.0006 45.4492 37.6146 45.4492C36.6322 45.4492 35.9304 45.1738 35.2287 44.6229C34.5269 44.072 34.2462 43.3834 34.2462 42.4193C34.2462 41.042 35.0883 39.9402 36.9129 38.9762C41.1234 36.7726 44.3515 34.7067 46.3164 32.5031C48.1409 30.575 49.1234 29.06 49.1234 28.0959C49.1234 27.2696 48.4216 26.7187 47.0181 26.4432L46.0357 26.3055L44.9129 26.3055C41.8251 25.8923 39.4392 24.5151 37.4743 22.1738C35.5094 19.8325 34.6672 17.078 34.6672 13.7726C34.6672 10.3295 35.7901 7.43724 38.176 4.9582C40.983 2.06598 44.4918 0.688736 48.562 0.688736Z" stroke="white"/>
</g>
<defs>
<clipPath id="clip0">
<rect width="64" height="46" fill="white" transform="translate(64 46) rotate(180)"/>
</clipPath>
</defs>
</svg>
