<svg width="126" height="23" viewBox="0 0 126 23" fill="none" xmlns="http://www.w3.org/2000/svg">
<rect width="124.678" height="22.5498" fill="black" fill-opacity="0" transform="translate(0.65625 0.19043)"/>
<path d="M8.26566 9.66603L13.1089 5.28702L17.9548 9.66834L20.7729 7.12023L13.1089 0.19043L5.44751 7.11791L8.26566 9.66603Z" fill="#F3BA2F"/>
<rect width="3.82026" height="3.77422" transform="translate(3.44043 8.90125) scale(1.04323 0.954818) rotate(45)" fill="#F3BA2F"/>
<path d="M8.26564 13.2646L13.1089 17.6436L17.9545 13.2625L20.7743 15.8091L20.7729 15.8106L13.1089 22.7402L5.4473 15.8129L5.44336 15.8093L8.26564 13.2646Z" fill="#F3BA2F"/>
<rect width="3.82045" height="3.77404" transform="translate(25.562 11.4506) scale(1.04323 0.954818) rotate(135)" fill="#F3BA2F"/>
<path d="M15.9674 11.464H15.9686L13.1089 8.8783L10.9955 10.7892H10.9953L10.7527 11.0088L10.2517 11.4617L10.2478 11.4652L10.2517 11.469L13.1089 14.0524L15.9686 11.4667L15.97 11.4652L15.9674 11.464Z" fill="#F3BA2F"/>
<path fill-rule="evenodd" clip-rule="evenodd" d="M29.9724 5.65442H36.1017C37.623 5.65442 38.7733 6.00742 39.553 6.71342C40.1564 7.26019 40.4579 7.93787 40.4579 8.74628V8.78048C40.4579 9.12208 40.4113 9.42396 40.3173 9.68577C40.2235 9.94794 40.0981 10.1839 39.9417 10.3946C39.7854 10.6055 39.6038 10.7905 39.3973 10.9498C39.1907 11.1093 38.9688 11.2461 38.731 11.3598C39.4956 11.6219 40.0977 11.9776 40.5365 12.4275C40.9751 12.8776 41.1948 13.5011 41.1948 14.2981V14.3321C41.1948 14.8789 41.0786 15.3571 40.8459 15.7673C40.6133 16.1771 40.28 16.5189 39.8461 16.7923C39.4121 17.0656 38.8904 17.2705 38.2805 17.4072C37.6707 17.5438 36.9949 17.6121 36.2532 17.6121H29.9724V5.65442ZM35.4889 10.4887C36.1313 10.4887 36.6416 10.3893 37.0192 10.1898C37.397 9.99051 37.5858 9.66868 37.5858 9.22467V9.19047C37.5858 8.79205 37.422 8.4875 37.0946 8.27663C36.7671 8.06593 36.2947 7.96049 35.6777 7.96049H32.806V10.4887H35.4889ZM37.775 14.9902C38.1401 14.7795 38.323 14.452 38.323 14.0078L37.775 14.9902ZM38.323 14.0078V13.9738V14.0078ZM38.323 13.9738C38.323 13.5752 38.1527 13.2592 37.8127 13.0256L38.323 13.9738ZM37.8127 13.0256C37.4727 12.7924 36.9248 12.6756 36.1691 12.6756L37.8127 13.0256ZM36.1691 12.6756H32.806H36.1691ZM32.806 12.6756V15.3063V12.6756ZM32.806 15.3063L36.2635 15.3062L32.806 15.3063Z" fill="#F3BA2F"/>
<path d="M44.845 5.65442H47.7547V17.6124H44.845V5.65442Z" fill="#F3BA2F"/>
<path d="M52.1616 5.65442H54.8441L61.0411 13.0172V5.65442H63.9129V17.6124H61.4381L55.0331 10.0106V17.6124H52.1616V5.65442Z" fill="#F3BA2F"/>
<path fill-rule="evenodd" clip-rule="evenodd" d="M75.4045 5.56909H72.7219L67.0535 17.6124H70.0201L71.2291 14.9305H76.8215L78.0308 17.6124H81.0728L75.4045 5.56909ZM74.0253 8.72935L75.7826 12.607H72.2687L74.0253 8.72935Z" fill="#F3BA2F"/>
<path d="M84.2134 5.65442H86.8964L93.0931 13.0172V5.65442H95.9648V17.6124H93.49L87.0851 10.0106V17.6124H84.2134V5.65442H84.2134Z" fill="#F3BA2F"/>
<path d="M106.436 17.8173C105.466 17.8173 104.566 17.6577 103.734 17.3391C102.903 17.0204 102.185 16.5846 101.581 16.0321C100.976 15.4799 100.503 14.8278 100.164 14.0762C99.8236 13.3245 99.6536 12.5216 99.6536 11.6674V11.6334C99.6536 10.7792 99.8236 9.97933 100.164 9.23326C100.504 8.48736 100.976 7.83248 101.581 7.26878C102.185 6.70509 102.909 6.26072 103.753 5.93622C104.597 5.61171 105.529 5.44946 106.55 5.44946C107.166 5.44946 107.73 5.49524 108.24 5.58607C108.75 5.67743 109.213 5.80246 109.629 5.96186C110.045 6.12144 110.428 6.31504 110.782 6.54266C111.134 6.77063 111.461 7.02104 111.764 7.29443L109.913 9.22471C109.395 8.80349 108.87 8.47293 108.335 8.23392C107.799 7.99491 107.198 7.87522 106.53 7.87522C105.976 7.87522 105.463 7.97211 104.991 8.16571C104.518 8.35931 104.112 8.62682 103.772 8.96842C103.432 9.31002 103.168 9.70594 102.978 10.1556C102.79 10.6057 102.695 11.0868 102.695 11.5992V11.6332C102.695 12.1456 102.79 12.6299 102.978 13.0851C103.168 13.5408 103.428 13.9393 103.763 14.2809C104.096 14.6225 104.499 14.8932 104.972 15.0925C105.444 15.292 105.964 15.3913 106.53 15.3913C107.286 15.3913 107.925 15.2661 108.448 15.0155C108.971 14.7653 109.49 14.4235 110.007 13.9906L111.858 15.6818C111.518 16.0122 111.165 16.3084 110.8 16.57C110.435 16.8322 110.035 17.057 109.6 17.245C109.166 17.4327 108.69 17.5754 108.174 17.6719C107.657 17.7687 107.078 17.8173 106.436 17.8173Z" fill="#F3BA2F"/>
<path d="M115.282 5.65442H125.239V7.99487H118.154V10.4206H124.389V12.7609H118.154V15.2721H125.334V17.6124H115.282V5.65442Z" fill="#F3BA2F"/>
</svg>
