<svg width="400px" height="90px" viewBox="0 0 197 18" xmlns="http://www.w3.org/2000/svg" fill-rule="evenodd" clip-rule="evenodd" stroke-linejoin="round" stroke-miterlimit="1.414"><path d="M59.03.009a9.255 9.255 0 0 0-.334-.007c-4.756 0-8.67 3.914-8.67 8.67 0 .086.001.171.004.257 0 4.956 4.079 9.035 9.035 9.035S68.1 13.885 68.1 8.929c.002-.083.004-.166.004-.249 0-4.762-3.919-8.68-8.68-8.68a8.6 8.6 0 0 0-.394.009zm0 14.55l-.119.001c-2.919 0-5.32-2.401-5.32-5.32 0-.104.003-.207.009-.311 0-2.99 2.46-5.45 5.45-5.45s5.45 2.46 5.45 5.45c.007.107.01.215.01.323 0 2.913-2.397 5.31-5.31 5.31a4.82 4.82 0 0 1-.17-.003zM89.16 3.299a5.164 5.164 0 0 1 4.44 2.37l2.95-1.8a8.358 8.358 0 0 0-7.37-3.86 8.36 8.36 0 0 0-.354-.007c-4.746 0-8.65 3.904-8.65 8.65 0 .092.001.185.004.277a8.529 8.529 0 0 0-.004.277c0 4.745 3.904 8.65 8.65 8.65.118 0 .236-.002.354-.007a8.549 8.549 0 0 0 7.26-3.64l-2.8-2a5.265 5.265 0 0 1-4.48 2.36 5.55 5.55 0 0 1-.13.002c-2.913 0-5.31-2.398-5.31-5.31 0-.108.004-.215.01-.322a5.734 5.734 0 0 1-.01-.321c0-2.919 2.402-5.32 5.32-5.32l.12.001z" fill-rule="nonzero"></path><path d="M26.83.329h3.43v10.56h-3.43z"></path><path d="M26.83 14.319v3.21h12.51v-3.21H26.83zM124.38.329h-4.3l-5.68 6.97h-1.62V.329h-3.43v13.77h3.43v-3.65h1.58l6.12 7.08h4.44l-7.75-8.81 7.21-8.39z" fill-rule="nonzero"></path><path d="M163.49 7.189h3.43v10.34h-3.43z"></path><path class="dot" d="M163.49.329h3.43v3.43h-3.43z"></path><path d="M147.72 8.749a3.839 3.839 0 0 0 2.49-3.65c0-3.28-2.52-4.77-6.52-4.77h-7v3h6.91c1.7 0 3 .37 3 2s-1.33 2-3 2h-6.94v10.2h3.43v-7.12h3.84c1.9 0 3.09.44 3.09 2.05 0 1.61-1.19 2.09-3.09 2.09h-.41v3h.59c4.12 0 6.47-1.62 6.47-4.93a4.129 4.129 0 0 0-2.86-3.87zM11.06 8.749a3.837 3.837 0 0 0 2.54-3.65c0-3.28-2.52-4.77-6.52-4.77h-7v10.08h7.28c1.89 0 3.08.44 3.08 2.05 0 1.61-1.19 2.09-3.08 2.09H0v3h7.45c4.12 0 6.47-1.62 6.47-4.93a4.129 4.129 0 0 0-2.86-3.87zm-4.12-1.34H3.43v-4h3.5c1.7 0 3.05.37 3.05 2s-1.33 2-3.04 2zM187.73.329h-7.13v3.21h7.05c3.63 0 5.38 2.23 5.38 5.39 0 3.16-1.75 5.39-5.38 5.39h-3.62v-7.36h-3.43v10.57h7.09c5.38 0 8.93-3.42 8.93-8.6s-3.51-8.6-8.89-8.6z" fill-rule="nonzero"></path></svg>