<?xml version="1.0" encoding="UTF-8" standalone="no"?>
<svg
   xmlns:dc="http://purl.org/dc/elements/1.1/"
   xmlns:cc="http://creativecommons.org/ns#"
   xmlns:rdf="http://www.w3.org/1999/02/22-rdf-syntax-ns#"
   xmlns:svg="http://www.w3.org/2000/svg"
   xmlns="http://www.w3.org/2000/svg"
   xmlns:sodipodi="http://sodipodi.sourceforge.net/DTD/sodipodi-0.dtd"
   xmlns:inkscape="http://www.inkscape.org/namespaces/inkscape"
   width="79.974495"
   height="13.952964"
   viewBox="0 0 79.974495 13.952964"
   version="1.1"
   id="svg18"
   sodipodi:docname="btcnext.svg"
   style="fill:none"
   inkscape:version="0.92.4 (33fec40, 2019-01-16)">
  <metadata
     id="metadata22">
    <rdf:RDF>
      <cc:Work
         rdf:about="">
        <dc:format>image/svg+xml</dc:format>
        <dc:type
           rdf:resource="http://purl.org/dc/dcmitype/StillImage" />
        <dc:title></dc:title>
      </cc:Work>
    </rdf:RDF>
  </metadata>
  <sodipodi:namedview
     pagecolor="#ffffff"
     bordercolor="#666666"
     borderopacity="1"
     objecttolerance="10"
     gridtolerance="10"
     guidetolerance="10"
     inkscape:pageopacity="0"
     inkscape:pageshadow="2"
     inkscape:window-width="1573"
     inkscape:window-height="882"
     id="namedview20"
     showgrid="false"
     fit-margin-top="0"
     fit-margin-left="0"
     fit-margin-right="0"
     fit-margin-bottom="0"
     inkscape:zoom="6"
     inkscape:cx="32.742061"
     inkscape:cy="7.2219"
     inkscape:window-x="0"
     inkscape:window-y="27"
     inkscape:window-maximized="0"
     inkscape:current-layer="svg18" />
  <path
     style="clip-rule:evenodd;fill:#000000;fill-rule:evenodd"
     inkscape:connector-curvature="0"
     id="path2"
     d="m 9.548894,3.858064 c 0,0.3465 -0.0514,0.663 -0.1543,0.94953 -0.10291,0.28652 -0.23794,0.54306 -0.40513,0.76961 -0.16718,0.22656 -0.35366,0.42312 -0.55943,0.58971 -0.20577,0.16658 -0.41153,0.30318 -0.6173,0.40979 0.63017,0.18658 1.16387,0.54306 1.60116,1.06947 0.4372,0.5264 0.6559,1.23604 0.6559,2.12889 0,0.5598 -0.0933,1.0795 -0.2798,1.5593 -0.1864,0.4797 -0.47901,0.8962 -0.87769,1.2493 -0.39868,0.3532 -0.90344,0.6297 -1.51432,0.8296 -0.61088,0.1999 -1.3407,0.2999 -2.18949,0.2999 H 0 V 0.239884 h 5.285654 c 1.45324,0 2.52708,0.32983 3.22155,0.9895 0.69446,0.65967 1.04169,1.53589 1.04169,2.62868 z m -4.37899,7.7161 c 0.77164,0 1.37607,-0.1732 1.81333,-0.5197 0.43726,-0.3465 0.65588,-0.8196 0.65588,-1.4193 0,-0.59969 -0.22184,-1.05279 -0.66553,-1.35931 -0.44368,-0.30651 -1.0642,-0.45977 -1.86155,-0.45977 h -2.68141 v 3.75808 z m 0.13504,-5.85703 c 0.54014,0 0.98382,-0.13659 1.33106,-0.40979 0.34723,-0.2732 0.52085,-0.70964 0.52085,-1.30935 0,-0.50641 -0.16719,-0.90288 -0.50156,-1.1894 -0.33438,-0.28652 -0.79092,-0.42978 -1.36964,-0.42978 h -2.85503 v 3.33832 z m 12.59865,7.99603 h -2.5078 V 2.438784 l -3.7231,0.03997 v -2.23887 h 9.954 v 2.23887 l -3.7231,-0.03997 z m 11.1223,0.2398 c -1.0031,0 -1.8937,-0.1765 -2.6717,-0.5297 -0.7781,-0.3531 -1.4307,-0.8429 -1.958,-1.4693 -0.5273,-0.6263 -0.926,-1.3659 -1.196,-2.2188 -0.2701,-0.85295 -0.4052,-1.77248 -0.4052,-2.75866 0,-0.98618 0.1351,-1.9057 0.4052,-2.75862 0.27,-0.85291 0.6687,-1.59253 1.196,-2.21888 0.5273,-0.62636 1.1799,-1.11611 1.958,-1.46927 C 27.132194,0.176577 28.022794,0 29.025894,0 c 0.7074,0 1.3568,0.073296 1.9484,0.21989 0.5916,0.146594 1.1639,0.373144 1.7169,0.679664 l -0.6173,1.97901 c -0.9131,-0.50642 -1.8648,-0.75962 -2.8551,-0.75962 -1.2989,0 -2.2763,0.42644 -2.9321,1.27935 -0.6559,0.85292 -0.9839,2.04564 -0.9839,3.57821 0,1.53258 0.3312,2.72526 0.9935,3.57826 0.6623,0.8529 1.6365,1.2793 2.9225,1.2793 0.3859,0 0.8456,-0.0666 1.3793,-0.1999 0.5337,-0.1333 1.0642,-0.3465 1.5915,-0.6397 l 0.5787,1.999 c -0.5144,0.3065 -1.0899,0.5431 -1.7265,0.7097 -0.6366,0.1666 -1.3085,0.2498 -2.0159,0.2498 z m 14.4892,-13.71308 h 2.5078 v 13.47328 h -2.5078 l -4.4369,-7.63621 c -0.2701,-0.46643 -0.5112,-0.9262 -0.7234,-1.37931 -0.2122,-0.45311 -0.3955,-0.9262 -0.5498,-1.41929 h -0.0579 c 0.1029,0.55973 0.1833,1.10278 0.2412,1.62919 0.0579,0.5264 0.0868,1.00283 0.0868,1.42928 v 7.37634 h -2.5078 V 0.239884 h 2.7007 l 4.244,7.63617 c 0.27,0.46644 0.5112,0.9262 0.7234,1.37931 0.2122,0.4531 0.3954,0.9262 0.5497,1.4193 h 0.0579 c -0.1029,-0.5597 -0.1832,-1.1028 -0.2411,-1.62919 -0.0579,-0.52641 -0.0868,-1.00283 -0.0868,-1.42929 z m 6.0783,0 h 8.4494 v 2.1989 h -6.0187 v 3.29834 2.1989 3.57824 h 6.1344 v 2.1989 h -8.5651 z m 16.59,6.49674 4.5912,6.97654 h -2.7585 l -3.2023,-5.15745 h -0.0386 v -3.65817 h 0.0386 l 2.855,-4.65766 h 2.7972 z m 10.068,6.97654 h -2.5078 V 2.438784 l -2.6792,0.03997 1.4788,-2.23887 h 7.4313 v 2.23887 l -3.7231,-0.03997 z" />
  <path
     style="fill:url(#paint0_linear)"
     inkscape:connector-curvature="0"
     id="path4"
     d="m 53.538894,5.690444 h 9.1338 l -3.5965,-5.45801 h 2.9096 l 4.1665,6.62986 -4.4965,6.87237 h -2.8496 l 3.6925,-5.70052 h -8.9598 z" />
  <defs
     id="defs16">
    <linearGradient
       id="paint0_linear"
       x1="54.213501"
       y1="8.2745705"
       x2="66.826897"
       y2="7.75248"
       gradientUnits="userSpaceOnUse"
       gradientTransform="translate(-0.674606,-0.768936)">
      <stop
         stop-color="#ED9441"
         id="stop8" />
      <stop
         offset="1"
         stop-color="#FFB800"
         id="stop10" />
    </linearGradient>
    <clipPath
       id="clip0">
      <rect
         width="80"
         height="14"
         transform="translate(0.658936,0.752487)"
         id="rect13"
         x="0"
         y="0"
         style="fill:#ffffff" />
    </clipPath>
  </defs>
</svg>
