<svg width="90" height="19" viewBox="0 0 90 19" fill="none" xmlns="http://www.w3.org/2000/svg">
<rect width="89.4833" height="17.8606" fill="black" fill-opacity="0" transform="translate(0.25 0.904785)"/>
<path fill-rule="evenodd" clip-rule="evenodd" d="M84.2213 7.96716C82.1724 7.96716 80.8251 9.40011 80.7805 11.918L87.1499 11.1094C87.1276 9.00093 85.9807 7.96716 84.2213 7.96716ZM89.711 11.8873V11.3142C89.6442 8.16168 87.6287 6.17603 84.277 6.17603C80.5912 6.17603 78.353 8.75533 78.353 12.4503C78.353 16.309 80.6692 18.7552 84.8226 18.7552C86.6266 18.7552 88.3859 18.397 89.4104 17.9057L88.6309 16.0633C87.729 16.5137 86.3148 16.8003 85.0008 16.8003C82.7849 16.8003 81.2482 15.7051 80.981 13.525L89.711 12.3991C89.7222 12.2251 89.7333 12.0511 89.7333 11.8771L89.711 11.8873ZM71.6051 18.7552C70.0684 18.7552 68.4538 18.3765 67.5073 17.9057L68.4093 16.0224C69.0885 16.4011 70.5361 16.8105 71.5272 16.8105C72.9636 16.8105 73.9213 16.1555 73.9213 15.1524C73.9213 14.0572 72.9191 13.6273 71.5828 13.177C69.8235 12.5731 67.8525 11.8362 67.8525 9.56392C67.8525 7.56803 69.534 6.17603 72.4625 6.17603C74.0437 6.17603 75.3689 6.53426 76.2931 7.02556L75.4691 8.73486C74.8789 8.39709 73.7097 8.01838 72.7632 8.01838C71.3713 8.01838 70.5918 8.69392 70.5918 9.56392C70.5918 10.6591 71.5717 11.048 72.8634 11.4882C74.6896 12.1125 76.7162 12.8085 76.7162 15.1626C76.7162 17.3428 74.9123 18.7552 71.6162 18.7552H71.6051ZM63.0642 12.4298C60.3806 12.5629 57.697 12.7676 57.697 14.917C57.697 16.1964 58.766 16.9845 60.7926 16.9845C61.6501 16.9845 62.6522 16.8515 63.0642 16.6672V12.4298ZM60.8707 18.7553C57.0847 18.7553 55.1917 17.3428 55.1917 14.9682C55.1917 11.6008 59.1001 10.9969 63.0754 10.8024V10.045C63.0754 8.51993 61.9731 7.97746 60.2916 7.97746C59.0445 7.97746 57.5301 8.3357 56.6615 8.7144L55.9823 7.03581C57.029 6.60593 58.8106 6.18628 60.57 6.18628C63.7213 6.18628 65.6254 7.31217 65.6254 10.2906V17.916C64.6789 18.3868 62.7414 18.7655 60.8929 18.7655L60.8707 18.7553ZM47.4748 8.15137C46.7399 8.15137 45.8936 8.3049 45.3813 8.55054V16.4932C45.7711 16.6467 46.5283 16.8105 47.2855 16.8105C49.4123 16.8105 50.9713 15.4696 50.9713 12.3683C50.9713 9.71737 49.6016 8.15137 47.4859 8.15137H47.4748ZM47.1297 18.7552C45.426 18.7552 43.7334 18.3765 42.709 17.9057V0.904785H45.3703V6.73892C46.005 6.4728 47.0295 6.24762 47.9314 6.24762C51.3277 6.24762 53.6105 8.48916 53.6105 12.1943C53.6105 16.7491 51.0493 18.7654 47.1186 18.7654L47.1297 18.7552ZM37.3751 18.5096V10.4339C37.3751 9.02145 36.4509 8.15144 34.6136 8.15144C33.6337 8.15144 32.7317 8.30497 32.1972 8.50968V18.5096H29.5359V7.02556C30.8499 6.53426 32.5313 6.17603 34.5802 6.17603C38.266 6.17603 40.0476 7.66015 40.0476 10.2087V18.5096H37.364H37.3751ZM24.1353 18.5095V6.42163H26.8189V18.5095H24.1353ZM25.4713 4.22102C24.5917 4.22102 23.8901 3.59667 23.8901 2.82902C23.8901 2.0716 24.6028 1.43701 25.4713 1.43701C26.351 1.43701 27.0526 2.06137 27.0526 2.82902C27.0526 3.58643 26.3399 4.22102 25.4713 4.22102ZM16.1066 8.13086C14.0354 8.13086 13.011 9.84016 13.011 12.4399C13.011 15.0397 14.0354 16.7695 16.1066 16.7695C18.1778 16.7695 19.2022 15.0397 19.2022 12.4399C19.2022 9.84016 18.1778 8.13086 16.1066 8.13086ZM16.1066 18.7552C12.3763 18.7552 10.3274 16.0429 10.3274 12.4503C10.3274 8.85768 12.3763 6.17603 16.1066 6.17603C19.8369 6.17603 21.8858 8.86792 21.8858 12.4503C21.8858 16.0429 19.8369 18.7552 16.1066 18.7552ZM6.02922 18.7552C3.10064 18.7552 0.25 16.831 0.25 12.4503C0.25 8.0798 3.10064 6.17603 6.02922 6.17603C7.46568 6.17603 8.59034 6.51379 9.39209 7.00509L8.5124 8.7758C7.9779 8.41756 7.17616 8.19238 6.36328 8.19238C4.6039 8.19238 3.00042 9.4718 3.00042 12.4298C3.00042 15.3878 4.65958 16.6877 6.36328 16.6877C7.16502 16.6877 7.9779 16.4625 8.5124 16.1043L9.39209 17.9159C8.56807 18.4277 7.46568 18.745 6.02922 18.745V18.7552Z" fill="#0082BF"/>
</svg>
