<svg xmlns="http://www.w3.org/2000/svg" xmlns:xlink="http://www.w3.org/1999/xlink" width="88" height="32.63" viewBox="0 0 88 32.63"><defs><path id="7j6ka" d="M549.82 539h-3.73c-.32 0-.38.04-.4.35l-.3 3.47-.35 4.03c-.02.38-.21.54-.59.54h-2.63c-.39 0-.55-.15-.52-.54l.3-3.59.32-3.63.45-5.18.4-4.61.1-1.25c.05-.34.23-.5.57-.5h2.68c.35 0 .52.18.5.54l-.37 4.24-.24 2.78c-.03.28.01.31.3.31h7.56c.29 0 .34-.04.36-.33l.42-4.78.2-2.2c.04-.4.22-.56.61-.56h2.56c.42 0 .57.18.54.6l-.5 5.7c-.17 2.05-.36 4.1-.54 6.14l-.39 4.6-.15 1.75c-.03.35-.22.51-.57.51h-2.63c-.37 0-.53-.16-.5-.54l.26-3.07.27-3.11c.03-.45.08-.9.12-1.34.03-.28-.01-.33-.3-.34h-3.8z"/><path id="7j6kb" d="M592.7 546.36l-.08.55c-.05.31-.23.48-.54.48h-2.54c-.34 0-.5-.21-.48-.55l.36-4.17.4-4.64c.13-1.36.23-2.71.35-4.07l.45-5.13.06-.63c.03-.28.2-.45.48-.45h2.63c.3 0 .44.17.42.5l-.22 2.58-.29 3.33c0 .09-.01.18.08.23.1.05.2 0 .28-.05a6.33 6.33 0 0 1 4.6-1.07c1.49.16 2.65.93 3.53 2.13a7.27 7.27 0 0 1 1.3 5.2 8.74 8.74 0 0 1-1.74 4.58 6.4 6.4 0 0 1-4.02 2.56 6.78 6.78 0 0 1-3.58-.3c-.29-.1-.54-.26-.78-.42-.25-.18-.46-.4-.67-.66z"/><path id="7j6kc" d="M580.35 547.83c-1.4 0-2.72-.28-3.9-1.08a5.86 5.86 0 0 1-2.56-3.97 8.34 8.34 0 0 1 1.01-5.88 7.3 7.3 0 0 1 6.5-3.7c1.12-.02 2.2.14 3.22.62a5.74 5.74 0 0 1 3.36 4.44 8.4 8.4 0 0 1-1.16 6.11 7.2 7.2 0 0 1-5.33 3.4c-.27.03-.55.04-.82.06h-.32z"/><path id="7j6kd" d="M562.4 533.64h1.22c.37 0 .55.17.52.56l-.3 3.53c-.11 1.33-.27 2.65-.33 3.99a5 5 0 0 0 .16 1.6c.35 1.2 1.23 1.64 2.39 1.54 1.27-.1 1.94-.92 2.3-2.06.24-.72.32-1.47.38-2.22l.37-4.22.16-2.04c.04-.55.18-.68.73-.68h2.26c.46 0 .61.15.57.62l-.33 3.81c-.13 1.48-.22 2.96-.42 4.43a6.55 6.55 0 0 1-1.3 3.23 5.29 5.29 0 0 1-3.14 1.88 9.15 9.15 0 0 1-4.41-.07 4.2 4.2 0 0 1-3.22-3.62 10 10 0 0 1-.03-2.65l.32-3.65c.1-1.17.2-2.34.32-3.5.02-.3.22-.48.51-.48h1.27z"/><path id="7j6ke" d="M532.8 533.06c.02 1.14-.44 2.04-1.08 2.87-.55.72-1.2 1.34-1.85 1.97a16.42 16.42 0 0 0-4.4 8c-.06.25-.1.26-.28.1a7.17 7.17 0 0 1-.43-10.44c.37-.38.8-.7 1.17-1.08 1.57-1.6 2.6-3.5 2.98-5.72.15-.92.2-1.84.12-2.77 0-.07-.04-.17.05-.2.09-.05.15.03.2.08.82.73 1.5 1.58 2.07 2.51a10.46 10.46 0 0 1 1.44 4.29c.02.14.01.3.02.4z"/><path id="7j6kf" d="M529.92 547.71a9.89 9.89 0 0 1-2.3-.35c-.12-.03-.2-.06-.17-.2.02-.1.01-.22.18-.24.41-.04.68-.28.78-.67.05-.18.09-.36.1-.54a5.84 5.84 0 0 1 1.39-3.15c.71-.92 1.58-1.7 2.37-2.55a13.87 13.87 0 0 0 3-4.82c.02-.07.02-.17.12-.18.1 0 .13.1.17.17.54.97.9 2.01 1.1 3.11.17.94.27 1.88.19 2.83a6.89 6.89 0 0 1-2.79 5.14 6.83 6.83 0 0 1-4.14 1.45z"/><path id="7j6kg" d="M606.64 547.4h-1.2c-.38 0-.55-.18-.52-.58l.26-2.96.45-5.24.39-4.43c.03-.37.23-.54.6-.54h2.42c.4 0 .56.17.53.57l-.35 3.98-.5 5.83-.26 2.86c-.04.35-.2.5-.55.5h-1.27z"/><path id="7j6kh" d="M607.97 532.28h-1.23c-.35 0-.52-.16-.5-.51l.2-2.37c.02-.26.23-.45.51-.45h2.58c.32 0 .49.21.46.52l-.22 2.32c-.03.33-.2.49-.54.5h-1.26z"/><path id="7j6ki" d="M599.92 540.06a4.93 4.93 0 0 1-1.76 3.92c-1.07.88-2.87.98-3.89.2a3.7 3.7 0 0 1-1.45-2.56 4.9 4.9 0 0 1 .95-3.7c.9-1.2 2.11-1.78 3.63-1.5.9.16 1.52.74 1.97 1.5.38.67.57 1.38.55 2.14z"/><path id="7j6kj" d="M577.34 541.06c.01-1.34.37-2.56 1.31-3.55a3.52 3.52 0 0 1 3.56-1.07c.97.23 1.58.91 1.95 1.8a4.93 4.93 0 0 1-.48 4.69 3.47 3.47 0 0 1-2.08 1.63c-1.19.3-2.3.18-3.23-.72a3.52 3.52 0 0 1-1.03-2.41v-.37z"/></defs><g><g transform="translate(-522 -515.37)"><g><use fill="#454e72" xlink:href="#7j6ka"/></g><g><use fill="#454e72" xlink:href="#7j6kb"/></g><g><use fill="#454e72" xlink:href="#7j6kc"/></g><g><use fill="#454e72" xlink:href="#7j6kd"/></g><g><use fill="#454e72" xlink:href="#7j6ke"/></g><g><use fill="#24a9e2" xlink:href="#7j6kf"/></g><g><use fill="#454e72" xlink:href="#7j6kg"/></g><g><use fill="#454e72" xlink:href="#7j6kh"/></g><g><use fill="#fefefe" xlink:href="#7j6ki"/></g><g><use fill="#fefefe" xlink:href="#7j6kj"/></g></g></g></svg>