<svg xmlns="http://www.w3.org/2000/svg" xmlns:xlink="http://www.w3.org/1999/xlink" width="82" height="23" viewBox="0 0 82 23"><defs><path id="mzzwa" d="M1010.24 703.3h10.82l-5.87 22.28h-10.83zm6.15 22.28l5.88-22.28h10.3a12.47 12.47 0 0 1 5.75 7.77 12.36 12.36 0 0 1 8.27-7.77h22.18l1.72 3.3 3.27-3.3h11.75l-10.77 11.42 5.68 10.86h-10.91l-1.8-3.4-3.2 3.4h-22.73a13.03 13.03 0 0 1-3.95-6.79 12.34 12.34 0 0 1-6.35 6.8zm45.38-10.15h5.8l.41-1.6h-4.67l-4.28-8.11-1.04 3.97h-6.1c-1.17 0-1.88.88-2.1 1.32h7.85l-.73 2.82h-27.8l-.41 1.6h27.79l-.7 2.67h-7.14c.17.68 1.22 1.34 1.75 1.32h5.05l-.86 3.28z"/></defs><g><g transform="translate(-1004 -703)"><g><use xlink:href="#mzzwa"/></g></g></g></svg>