<?xml version="1.0" encoding="UTF-8"?>
<svg width="374px" height="146px" viewBox="0 0 374 146" version="1.1" xmlns="http://www.w3.org/2000/svg" xmlns:xlink="http://www.w3.org/1999/xlink">
    <!-- Generator: Sketch 49 (51002) - http://www.bohemiancoding.com/sketch -->
    <title>jaxxLogo</title>
    <desc>Created with Sketch.</desc>
    <defs></defs>
    <g id="Page-1" stroke="none" stroke-width="1" fill="none" fill-rule="evenodd">
        <g id="jaxxLogo" fill="#FF6903" fill-rule="nonzero">
            <path d="M246.29,72.87 L274.83,34.22 L257.23,20.74 L231,54.59 L223,44.26 L216.1,35.35 L204.83,20.74 L196.93,26.79 L187.34,34.13 C188.56,35.84 189.34,37.07 190.28,38.24 L193.13,41.96 L215.78,72.59 C215.794035,72.7830786 215.794035,72.9769214 215.78,73.17 L198.49,96.99 L191.49,106.16 C190.63,107.29 189.94,108.56 188.99,110.07 L197.47,116.51 L198.12,117 L206.39,123.27 L217.14,109.36 L231.02,91.36 L255.74,123.36 L263.34,117.45 L273.3,109.74 L246.29,72.87 Z" id="Shape"></path>
            <path d="M345.25,72.87 L373.79,34.22 L357.72,21.88 L356.19,20.74 L339.85,41.9 L330,54.59 L303.78,20.74 L294.27,28.04 L286.27,34.15 C287.48,35.84 288.27,37.06 289.2,38.22 L291.89,41.74 L314.72,72.6 C314.73335,72.786428 314.73335,72.973572 314.72,73.16 L297.39,97.03 L290.46,106.12 C289.59,107.25 288.91,108.52 287.94,110.03 L292.69,113.63 L305.27,123.26 L316.44,108.8 L330,91.4 L345.46,111.4 L354.69,123.4 L361.34,118.21 L372.26,109.74 L345.25,72.87 Z" id="Shape"></path>
            <path d="M172,122.97 L172,117.67 C172,117.436667 172,117.196667 172,116.95 C172,116.55 172,116.15 172,115.74 L172,87.74 C172,82.14 172,76.55 171.93,70.95 C171.88766,43.408592 149.699969,21.0247467 122.16,20.74 C101.46,20.32 85.72,29.47 75.84,47.43 C65.96,65.39 66.94,83.5 78.42,100.3 C89.12,115.96 103.86,123.3 121.7,122.9 C130.18,123.06 134.63,121.43 134.63,121.43 L134.63,118.96 C134.647118,118.706956 134.647118,118.453044 134.63,118.2 C134.63,117.446667 134.63,116.693333 134.63,115.94 L134.63,98.63 C132.09,99.44 130.39,100.05 128.63,100.51 C117.63,103.42 107.77,101.01 99.63,93.16 C91.49,85.31 88.81,75.66 91.36,64.83 C94.8,50.24 108.9,40.06 122.7,41.66 C139.15,43.57 150.35,55.89 150.39,72.21 C150.39,79.53 150.44,86.85 150.45,94.21 L150.45,95.21 C150.45,102.54 150.45,109.86 150.31,117.21 C150.288354,117.932805 150.33523,118.656036 150.45,119.37 L150.45,122.6 L172,122.97 Z" id="Shape"></path>
            <path d="M51.65,15.5 L51.78,0 L30.25,0 L30.25,4.65 C30.25,5.09 30.2,5.57 30.25,6.08 C30.48,34.57 30.39,63.08 30.35,91.56 C30.35,108.83 21.22,119.93 4.28,122.87 L3.58,123.02 C2.40676595,123.195229 1.22513854,123.308718 0.04,123.36 L0.04,145.24 C0.04,145.24 30.13,143.24 44.39,121.24 C48.9129796,114.125946 51.3582434,105.889632 51.45,97.46 C52.05,70.17 51.69,42.83 51.65,15.5 Z" id="Shape"></path>
        </g>
    </g>
</svg>