<svg width="84" height="24" viewBox="0 0 84 24" fill="none" xmlns="http://www.w3.org/2000/svg">
<rect width="83.4426" height="22.9884" fill="black" fill-opacity="0" transform="translate(0.34082 0.596069)"/>
<path fill-rule="evenodd" clip-rule="evenodd" d="M10.7087 20.4696H0.34082V6.84204H2.93799V18.2892H10.7087V20.4696ZM15.8186 20.4696H13.2637V10.1906H15.8186V20.4696ZM27.5591 23.5845H30.1143V10.1904H27.5591V11.7869C26.7568 10.8329 25.5955 9.97632 23.7583 9.97632C21.0977 9.97632 18.585 11.9037 18.585 15.3105C18.585 18.7563 21.1399 20.6837 23.7583 20.6837C25.5742 20.6837 26.7356 19.8271 27.5591 18.7563V23.5845ZM21.1609 15.3495C21.1609 17.3353 22.6389 18.6396 24.3706 18.6396C26.0808 18.6396 27.6013 17.3158 27.6013 15.3105C27.6013 13.3248 26.0808 12.0205 24.3706 12.0205C22.6179 12.0205 21.1609 13.2665 21.1609 15.3495ZM37.1453 20.6838C38.8767 20.6838 39.9114 19.8467 40.6294 18.8733V20.4696H43.1843V10.1906H40.6294V15.9921C40.6294 17.5884 39.5947 18.5424 38.1167 18.5424C36.5962 18.5424 35.7305 17.6273 35.7305 16.031V10.1906H33.1755V16.7318C33.1755 19.1263 34.6326 20.6838 37.1453 20.6838ZM49.0972 20.4696H46.5422V10.1906H49.0972V20.4696Z" fill="#202020"/>
<path opacity="0.6" d="M66.9397 9.10041L70.146 0.596069L73.3523 9.10041H66.9397Z" fill="#1A78FF"/>
<path opacity="0.6" d="M69.2664 17.6306L74.9852 13.9803L78.162 23.341L69.2664 17.6306Z" fill="#1A78FF"/>
<path d="M62.1303 23.3409L64.9582 14.7232L57.3887 9.11328H83.7834L62.1303 23.3409Z" fill="#1A78FF"/>
<path d="M14.453 9.11332C15.4248 9.11332 16.2127 8.38697 16.2127 7.49098C16.2127 6.595 15.4248 5.86865 14.453 5.86865C13.4812 5.86865 12.6934 6.595 12.6934 7.49098C12.6934 8.38697 13.4812 9.11332 14.453 9.11332Z" fill="#202020"/>
<path d="M47.7106 9.11332C48.6824 9.11332 49.4702 8.38697 49.4702 7.49098C49.4702 6.595 48.6824 5.86865 47.7106 5.86865C46.7387 5.86865 45.9509 6.595 45.9509 7.49098C45.9509 8.38697 46.7387 9.11332 47.7106 9.11332Z" fill="#202020"/>
</svg>
