<svg width="152" height="121" viewBox="0 0 152 121" fill="none" xmlns="http://www.w3.org/2000/svg">
<path d="M122.057 115.986C115.078 115.986 109.401 110.42 109.401 103.579C109.401 96.7375 115.078 91.1719 122.057 91.1719C129.035 91.1719 134.713 96.7375 134.713 103.579C134.713 110.42 129.035 115.986 122.057 115.986ZM122.057 93.6036C116.446 93.6036 111.882 98.0781 111.882 103.578C111.882 109.078 116.446 113.552 122.057 113.552C127.667 113.552 132.231 109.078 132.231 103.578C132.231 98.0781 127.667 93.6036 122.057 93.6036Z" fill="#354158"/>
<path d="M84.9761 22.8783L76.7792 57.1978L79.1566 57.7359L87.3535 23.4164L84.9761 22.8783Z" fill="#354158"/>
<path d="M13.6358 74.7836C7.21947 74.7836 2 69.6668 2 63.3776C2 57.0875 7.21947 51.9707 13.6358 51.9707C20.0521 51.9707 25.2715 57.0875 25.2715 63.3776C25.2715 69.6668 20.0511 74.7836 13.6358 74.7836ZM13.6358 54.4034C8.58797 54.4034 4.48147 58.4291 4.48147 63.3776C4.48147 68.3262 8.58797 72.3519 13.6358 72.3519C18.6835 72.3519 22.7901 68.3262 22.7901 63.3776C22.7901 58.4291 18.6835 54.4034 13.6358 54.4034Z" fill="#354158"/>
<path d="M29.7085 119.001C24.9804 119.001 21.1334 115.23 21.1334 110.594C21.1334 105.959 24.9804 102.188 29.7085 102.188C34.4366 102.188 38.2837 105.959 38.2837 110.594C38.2846 115.23 34.4376 119.001 29.7085 119.001ZM29.7085 104.62C26.348 104.62 23.6149 107.3 23.6149 110.594C23.6149 113.888 26.3489 116.567 29.7085 116.567C33.0691 116.567 35.8022 113.887 35.8022 110.594C35.8032 107.3 33.0691 104.62 29.7085 104.62Z" fill="#354158"/>
<path d="M39.8752 95.2672C37.5487 95.2672 35.6562 93.4119 35.6562 91.1311C35.6562 88.8503 37.5487 86.9951 39.8752 86.9951C42.2018 86.9951 44.0942 88.8503 44.0942 91.1311C44.0942 93.4119 42.2018 95.2672 39.8752 95.2672ZM39.8752 89.4278C38.9172 89.4278 38.1377 90.1919 38.1377 91.1311C38.1377 92.0703 38.9172 92.8345 39.8752 92.8345C40.8333 92.8345 41.6128 92.0703 41.6128 91.1311C41.6128 90.1919 40.8333 89.4278 39.8752 89.4278Z" fill="#354158"/>
<path d="M87.8034 117.649C85.4769 117.649 83.5845 115.794 83.5845 113.513C83.5845 111.233 85.4769 109.377 87.8034 109.377C90.13 109.377 92.0224 111.233 92.0224 113.513C92.0224 115.794 90.129 117.649 87.8034 117.649ZM87.8034 111.81C86.8454 111.81 86.0659 112.574 86.0659 113.513C86.0659 114.453 86.8454 115.217 87.8034 115.217C88.7615 115.217 89.541 114.453 89.541 113.513C89.541 112.574 88.7615 111.81 87.8034 111.81Z" fill="#354158"/>
<path d="M98.4669 88.2336L97.2135 90.333L111.756 98.6772L113.01 96.5778L98.4669 88.2336Z" fill="#354158"/>
<path d="M24.0794 64.6817L23.3662 67.0117L50.0831 74.8708L50.7963 72.5408L24.0794 64.6817Z" fill="#354158"/>
<path d="M50.1785 86.7536L42.1715 88.4487L42.6953 90.8267L50.7024 89.1315L50.1785 86.7536Z" fill="#354158"/>
<path d="M54.8326 95.5778L35.5148 106.021L36.7131 108.151L56.0309 97.7081L54.8326 95.5778Z" fill="#354158"/>
<path d="M84.5173 103.065L82.2644 104.085L85.5687 111.101L87.8216 110.081L84.5173 103.065Z" fill="#354158"/>
<path d="M97.6494 76.5422L100.448 76.3477C99.2666 69.5218 95.3505 63.5963 89.8468 59.6973L88.3787 62.0322C93.1443 65.4689 96.5522 70.6157 97.6494 76.5422Z" fill="#FF6932"/>
<path d="M74.4173 57.5401C79.6368 57.5401 84.4655 59.2096 88.3786 62.0321L89.8468 59.6971C85.5045 56.6193 80.1735 54.8037 74.4173 54.8037C68.745 54.8037 63.4841 56.567 59.1763 59.5626L60.975 61.6684C64.7924 59.0674 69.4258 57.5401 74.4173 57.5401Z" fill="#FF6932"/>
<path d="M60.975 61.6682L59.1764 59.5625C56.3644 61.5173 53.9599 63.9993 52.1099 66.8586L54.5282 68.2301C56.2164 65.6495 58.4097 63.4161 60.975 61.6682Z" fill="#FF6932"/>
<path d="M100.449 76.3472L97.6504 76.5417C97.9 77.8871 98.0303 79.2732 98.0303 80.6883C98.0303 93.4523 87.4374 103.837 74.4174 103.837C61.3973 103.837 50.8045 93.4523 50.8045 80.6883C50.8045 76.1045 52.173 71.8292 54.5272 68.23L52.1088 66.8584C49.5169 70.8619 48.0122 75.6054 48.0122 80.6883C48.0122 94.9613 59.8571 106.573 74.4164 106.573C88.9756 106.573 100.821 94.9613 100.821 80.6883C100.822 79.2094 100.692 77.7595 100.449 76.3472Z" fill="#FF6932"/>
<path d="M97.0863 18.8678C94.1965 23.6049 88.0674 25.1547 83.4226 22.3212C78.7786 19.4882 77.3508 13.3296 80.2412 8.59159C83.1315 3.85363 89.2601 2.30466 93.9049 5.13817C98.5497 7.97167 99.9766 14.1298 97.0863 18.8678ZM82.3187 9.85899C80.1416 13.4278 81.2162 18.0685 84.7157 20.2033C88.2144 22.3376 92.8327 21.1711 95.0104 17.6014C97.188 14.0317 96.1129 9.39189 92.6134 7.25707C89.1139 5.12224 84.4964 6.2893 82.3187 9.85899Z" fill="#354158"/>
</svg>
