<svg width="122" height="122" viewBox="0 0 122 122" fill="none" xmlns="http://www.w3.org/2000/svg">
<g clip-path="url(#clip0)">
<path d="M117.748 57.2325C116.401 57.2325 115.214 57.9417 114.541 58.9966H97.2226V57.2414H92.1998V54.2184H97.2226V52.4631H106.914C107.596 53.5269 108.774 54.2361 110.121 54.2361C112.229 54.2361 113.939 52.5252 113.939 50.4153C113.939 48.3054 112.229 46.5945 110.121 46.5945C108.765 46.5945 107.587 47.3037 106.914 48.3675H97.2226V46.6122H92.1998V44.0768H97.2226V42.0024H102.724L109.332 36.3909C109.589 36.4441 109.855 36.4795 110.129 36.4795C112.238 36.4795 113.948 34.7686 113.948 32.6587C113.948 30.5489 112.238 28.8468 110.129 28.8468C108.021 28.8468 106.32 30.5577 106.32 32.6587C106.32 32.9513 106.356 33.2261 106.418 33.5009L101.227 37.9157H97.2314V36.4795H91.0924C90.0028 34.1303 88.1868 32.1978 85.919 30.9744V24.8132H84.484V20.8151L88.8512 15.6734C89.0107 15.6911 89.1701 15.7266 89.3385 15.7266C91.4468 15.7266 93.1565 14.0157 93.1476 11.9147C93.1476 9.80479 91.4379 8.09385 89.3385 8.09385C87.2301 8.09385 85.5293 9.80479 85.5293 11.9058C85.5293 12.3047 85.609 12.677 85.7153 13.0405L80.3825 19.3169V24.8221H78.3096V29.556H75.2268V24.8221H73.4728V15.1061C74.5358 14.4235 75.2356 13.2444 75.2356 11.8969C75.2356 9.78706 73.5259 8.08498 71.4265 8.08498C69.3181 8.08498 67.6173 9.79592 67.6173 11.9058C67.6173 13.2533 68.326 14.4412 69.3801 15.1149V24.8132H67.6261V29.5471H64.8534V24.8132H63.0994V7.4733C64.1624 6.79956 64.8711 5.61165 64.8711 4.26417C64.8711 2.1543 63.1614 0.452224 61.0531 0.443359C58.9448 0.443359 57.2439 2.1543 57.2439 4.26417C57.2439 5.62051 57.9526 6.79956 59.0068 7.4733V24.8044H57.2528V29.5383H54.232V24.8044H52.478V15.1061C53.541 14.4323 54.2497 13.2444 54.2497 11.8969C54.2497 9.78706 52.54 8.07612 50.4405 8.07612C48.3322 8.07612 46.6225 9.78706 46.6314 11.8881C46.6314 13.2355 47.3401 14.4234 48.3942 15.0972V24.7955H46.6402V29.5294H44.1067V24.7955H42.0249V19.2903L36.4086 12.677C36.4617 12.42 36.4972 12.154 36.4972 11.8792C36.4972 9.76933 34.7875 8.06725 32.6791 8.06725C30.5708 8.06725 28.87 9.77819 28.87 11.8881C28.87 13.9979 30.5797 15.7 32.6791 15.7089C32.9715 15.7089 33.2461 15.6734 33.5207 15.6114L37.9323 20.8062V24.8044H36.4972V30.7794C34.0522 31.985 32.0856 33.9973 30.934 36.4707H24.795V37.9068H20.7998L15.6087 33.492C15.6707 33.2261 15.7062 32.9424 15.7062 32.6587C15.7062 30.5489 13.9965 28.8468 11.8881 28.8468C9.77979 28.8468 8.07894 30.5577 8.07894 32.6587C8.07894 34.7686 9.78864 36.4795 11.8881 36.4795C12.1627 36.4795 12.4285 36.4441 12.6854 36.3909L19.2939 42.0024H24.795V44.0768H29.8178V46.6122H24.795V48.3675H15.0949C14.4128 47.3037 13.2346 46.5945 11.8881 46.5945C9.77979 46.5945 8.07894 48.3054 8.07894 50.4153C8.07894 52.5252 9.78864 54.2361 11.8881 54.2361C13.2435 54.2361 14.4217 53.5269 15.0949 52.4631H24.7862V54.2184H29.809V57.2414H24.7862V58.9966H7.4677C6.7856 57.9328 5.60741 57.2325 4.26091 57.2325C2.15257 57.2325 0.442871 58.9434 0.442871 61.0444C0.442871 63.1543 2.15257 64.8652 4.26091 64.8652C5.60741 64.8652 6.79445 64.156 7.4677 63.0922H24.7862V64.8475H29.809V67.6223H24.7862V69.3775H15.0949C14.4217 68.3137 13.2346 67.6045 11.8881 67.6045C9.77979 67.6045 8.07894 69.3155 8.07894 71.4253C8.07894 73.5352 9.78864 75.2461 11.8881 75.2461C13.2435 75.2461 14.4217 74.5369 15.0949 73.482H24.7862V75.2373H29.809V78.3134H24.7862V80.3878H19.285L13.0132 85.7246C12.65 85.6093 12.2779 85.5384 11.8793 85.5384C9.77093 85.5384 8.07009 87.2493 8.07009 89.3503C8.07009 91.4602 9.77979 93.1712 11.8793 93.1712C13.9876 93.1712 15.6973 91.4602 15.6973 89.3503C15.6973 89.1819 15.6707 89.0223 15.6441 88.8628L20.7821 84.4923H24.7773V85.9285H31.1023C32.2096 88.1004 33.9459 89.8911 36.0897 91.0436V97.2047H37.5248V101.203L33.1575 106.353C32.9981 106.336 32.8386 106.3 32.6703 106.3C30.562 106.3 28.8611 108.011 28.8611 110.112C28.8611 112.222 30.5708 113.933 32.6703 113.933C34.7786 113.933 36.4883 112.222 36.4883 110.121C36.4883 109.722 36.4086 109.35 36.3023 108.995L41.6351 102.719V97.2136H43.708V92.4797H46.782V97.2136H48.536V106.912C47.4729 107.586 46.7731 108.774 46.7731 110.121C46.7731 112.231 48.4828 113.933 50.5823 113.933C52.6906 113.933 54.4003 112.222 54.4003 110.112C54.4003 108.765 53.6916 107.577 52.6375 106.903V97.2047H54.3915V92.4708H57.1642V97.2047H58.9182V114.536C57.8552 115.21 57.1465 116.397 57.1465 117.745C57.1465 119.855 58.8562 121.557 60.9645 121.557C63.0728 121.557 64.7737 119.846 64.7737 117.745C64.7737 116.389 64.065 115.21 63.0108 114.536V97.2047H64.7648V92.4708H67.7856V97.2047H69.5396V106.903C68.4766 107.577 67.7767 108.765 67.7767 110.112C67.7767 112.222 69.4864 113.933 71.5859 113.933C73.6942 113.933 75.404 112.222 75.404 110.121C75.404 108.774 74.6953 107.586 73.6411 106.912V97.2136H75.3951V92.4797H77.9286V97.2136H80.0015V102.719L85.6179 109.332C85.5647 109.589 85.5293 109.855 85.5293 110.13C85.5293 112.24 87.239 113.942 89.3385 113.942C91.4468 113.942 93.1476 112.231 93.1476 110.121C93.1476 108.011 91.4379 106.309 89.3385 106.309C89.0461 106.309 88.7715 106.345 88.4969 106.407L84.0853 101.212V97.2136H85.5204V91.2386C87.8325 90.095 89.7194 88.2334 90.8887 85.9373H97.2137V84.5012H101.209L106.347 88.8716C106.329 89.0312 106.303 89.1908 106.303 89.3592C106.303 91.4691 108.012 93.18 110.112 93.18C112.22 93.18 113.93 91.4691 113.93 89.3592C113.93 87.2493 112.22 85.5473 110.112 85.5473C109.713 85.5473 109.341 85.6271 108.987 85.7334L102.715 80.3967H97.2137V78.3223H92.1909V75.2461H97.2137V73.4909H106.905C107.578 74.5547 108.765 75.255 110.112 75.255C112.22 75.255 113.93 73.5441 113.93 71.4342C113.93 69.3243 112.22 67.6134 110.112 67.6134C108.756 67.6134 107.578 68.3226 106.905 69.3864H97.2137V67.6311H92.1909V64.8564H97.2137V63.1011H114.532C115.214 64.1649 116.392 64.8741 117.739 64.8741C119.847 64.8741 121.557 63.1632 121.557 61.0533C121.557 58.9434 119.856 57.2325 117.748 57.2325Z" stroke="#354158" stroke-width="2" stroke-miterlimit="10"/>
<path d="M80.2585 86.8326C83.7399 86.8326 86.5658 83.9958 86.5658 80.5208V41.4794C86.5658 37.9954 83.7399 35.1675 80.2585 35.1675H41.7415C38.2601 35.1675 35.4342 38.0043 35.4342 41.4794V80.5208C35.4342 84.0047 38.2601 86.8326 41.7415 86.8326H80.2585Z" stroke="#FF6932" stroke-width="2" stroke-miterlimit="10"/>
</g>
<defs>
<clipPath id="clip0">
<rect width="122" height="122" fill="white"/>
</clipPath>
</defs>
</svg>
