<svg width="140" height="124" viewBox="0 0 140 124" fill="none" xmlns="http://www.w3.org/2000/svg">
<g clip-path="url(#clip0)">
<path d="M44.337 77.4531L20.7938 90.0537C20.0713 90.4395 19.1749 90.1661 18.7905 89.4429L18.098 88.1397C17.7136 87.4165 17.9875 86.5183 18.7099 86.1325L42.2531 73.5319C42.9756 73.1462 43.872 73.4195 44.2564 74.1427L44.949 75.4459C45.3315 76.1686 45.0577 77.0668 44.337 77.4531Z" stroke="#354158" stroke-width="2" stroke-miterlimit="10"/>
<path d="M39.4271 88.8035L15.8845 101.402C15.162 101.788 14.2656 101.515 13.8812 100.792L13.1887 99.4884C12.8043 98.7651 13.0782 97.8669 13.8006 97.4812L37.3438 84.8806C38.0663 84.4948 38.9627 84.7681 39.3471 85.4913L40.0396 86.7945C40.4222 87.5172 40.1478 88.4172 39.4271 88.8035Z" stroke="#354158" stroke-width="2" stroke-miterlimit="10"/>
<path d="M31.0269 75.3974L7.48544 87.9985C6.76296 88.3843 5.86654 88.111 5.48218 87.3878L4.78961 86.0846C4.40526 85.3613 4.6791 84.4632 5.40158 84.0774L28.9448 71.4768C29.6672 71.091 30.5637 71.3643 30.948 72.0875L31.6406 73.3907C32.0232 74.1134 31.7493 75.0116 31.0269 75.3974Z" stroke="#354158" stroke-width="2" stroke-miterlimit="10"/>
<path d="M67.9572 40.8882L53.9554 40.5498C53.7886 40.5454 53.6232 40.5937 53.4834 40.6847L40.9331 48.9462C40.7709 49.0536 40.655 49.2119 40.5999 49.3926C40.5762 49.4705 40.5635 49.5499 40.5651 49.6336C40.5656 49.9107 40.7055 50.1682 40.9356 50.3197L52.8067 58.0904C51.8516 60.8236 51.7398 63.4596 52.5041 65.8902L46.8428 69.665C46.4857 69.9047 46.3702 70.3787 46.582 70.755L49.3675 75.6897C49.4753 75.8814 49.6571 76.0201 49.8697 76.0771C50.0823 76.1342 50.3102 76.103 50.4991 75.9902L56.5802 72.3977C57.6087 73.1759 60.2632 74.8198 64.9002 75.3487L65.6634 89.5784C65.6774 89.8557 65.8311 90.1059 66.0709 90.2448C66.3101 90.3855 66.6021 90.3913 66.8505 90.2676L80.2723 83.5207C80.4294 83.4427 80.5549 83.3164 80.6369 83.1614L86.9497 70.8102C90.5354 69.2159 94.2768 67.2315 98.0769 64.9088C119.957 51.5379 126.759 37.9437 128.867 31.031C129.56 28.7564 129.667 27.418 129.672 27.3616C129.699 27.0288 129.519 26.7166 129.223 26.5663C128.455 26.1771 110.054 17.3084 77.2498 34.8244C77.2083 34.8466 72.9137 37.2258 67.9572 40.8882Z" stroke="#354158" stroke-width="2" stroke-miterlimit="10"/>
<path d="M92.7521 40.4134C88.3796 39.0803 83.7539 41.5502 82.4181 45.9313C81.0824 50.3123 83.545 54.9434 87.9158 56.276C92.2883 57.6091 96.914 55.1392 98.2497 50.7581C99.5854 46.3771 97.1246 41.7466 92.7521 40.4134Z" stroke="#FF6932" stroke-width="2" stroke-miterlimit="10"/>
</g>
<defs>
<clipPath id="clip0">
<rect width="138.395" height="123.018" fill="white" transform="translate(0.596558 0.723145) rotate(-0.192163)"/>
</clipPath>
</defs>
</svg>
