<svg width="114" height="106" viewBox="0 0 114 106" fill="none" xmlns="http://www.w3.org/2000/svg">
<path d="M68.9917 82.2036L47.8411 100.93C46.6632 101.972 44.8935 101.972 43.7156 100.93L23.8348 83.3315C22.157 81.8468 20.4275 80.2009 18.744 78.4111C12.4924 71.7757 8.67143 63.2182 7.75783 54.1485L4.42522 21.0636C3.82765 18.6581 5.21816 16.2122 7.58546 15.4929L8.94149 15.5907C20.9504 16.4309 32.8558 12.8284 42.3883 5.46786L43.4857 4.62189C44.9739 4.17301 46.5655 4.19028 48.0479 4.67944L50.0648 6.38864C57.678 12.8399 67.3254 16.3849 77.3002 16.3906L83.4828 16.3964C86.5798 17.4208 88.3496 20.6838 87.5164 23.8432L83.5115 55.4261C82.3049 64.9562 77.8921 73.8072 70.9453 80.431C70.3132 81.018 69.6697 81.6108 68.9917 82.2036Z" stroke="#354158" stroke-width="2" stroke-miterlimit="10"/>
<path d="M65.7797 78.123L47.5825 94.2309C46.5712 95.1286 45.0485 95.1286 44.0373 94.2309L26.9375 79.0898C25.4953 77.8122 24.0071 76.3965 22.5534 74.8599C17.1753 69.1511 13.8886 61.7906 13.1014 53.987L10.2342 25.5233C9.72286 23.4573 10.918 21.351 12.952 20.7295L14.1185 20.81C24.4496 21.5351 34.6887 18.4333 42.8938 12.1029L43.8362 11.372C45.1175 10.9864 46.4907 11.0037 47.7606 11.4238L49.4958 12.897C56.0461 18.4448 64.3432 21.4949 72.9218 21.5006L78.2367 21.5064C80.9028 22.3869 82.4197 25.1952 81.7073 27.9116L78.2597 55.0804C77.2197 63.2811 73.4217 70.8891 67.446 76.5922C66.9174 77.1043 66.36 77.6108 65.7797 78.123Z" stroke="#354158" stroke-width="2" stroke-miterlimit="10"/>
<path d="M103.576 11.4239L64.4236 40.2616C63.964 40.6012 63.3262 40.5494 62.9297 40.1408L53.426 30.4726C53.0411 30.0812 52.432 30.0179 51.9723 30.3229L43.681 35.8822C43.0317 36.3138 42.9973 37.2576 43.6063 37.7352L62.4413 52.6001C62.8665 52.9339 63.4698 52.9281 63.8893 52.5771L109.299 14.3992C110.006 13.8006 109.753 12.6554 108.862 12.4137L104.553 11.2397C104.22 11.1476 103.858 11.2167 103.576 11.4239Z" stroke="#FF6932" stroke-width="2" stroke-miterlimit="10"/>
</svg>
