<svg width="102" height="102" viewBox="0 0 102 102" fill="none" xmlns="http://www.w3.org/2000/svg">
<path d="M23.9828 88.91L28.8932 63.5724L53.3839 55.1367L72.9643 72.0436L68.0539 97.3812" stroke="#354158" stroke-width="2" stroke-miterlimit="10" stroke-linecap="round" stroke-linejoin="round"/>
<path d="M68.0539 97.3811L48.4735 80.4793L53.4399 55.1519" stroke="#354158" stroke-width="2" stroke-miterlimit="10" stroke-linecap="round" stroke-linejoin="round"/>
<path d="M48.4735 80.4795L23.9828 88.9101" stroke="#354158" stroke-width="2" stroke-miterlimit="10" stroke-linecap="round" stroke-linejoin="round"/>
<path d="M38.9074 12.8314L33.8799 38.1487L53.3838 55.1368L77.9102 46.8177L82.9378 21.5005L63.4338 4.50732L38.9074 12.8314Z" stroke="#FF6932" stroke-width="2" stroke-miterlimit="10" stroke-linecap="round" stroke-linejoin="round"/>
<path d="M92.5549 89.0517L68.0896 97.4925L73 72.1549L97.4907 63.7192L92.5549 89.0517Z" stroke="#354158" stroke-width="2" stroke-miterlimit="10" stroke-linecap="round" stroke-linejoin="round"/>
<path d="M83.0143 21.4092L77.9918 46.7264L97.4907 63.7196" stroke="#FF6932" stroke-width="2" stroke-miterlimit="10" stroke-linecap="round" stroke-linejoin="round"/>
<path d="M38.9075 12.8315L33.9971 38.1691L9.50635 46.6048" stroke="#FF6932" stroke-width="2" stroke-miterlimit="10" stroke-linecap="round" stroke-linejoin="round"/>
<path d="M4.5094 71.9268L23.9828 88.9098L29.0103 63.5976L9.50637 46.6045L4.5094 71.9268Z" stroke="#354158" stroke-width="2" stroke-miterlimit="10" stroke-linecap="round" stroke-linejoin="round"/>
<path d="M82.9378 21.5005L58.4114 29.8246L53.4399 55.152" stroke="#FF6932" stroke-width="2" stroke-miterlimit="10" stroke-linecap="round" stroke-linejoin="round"/>
<path d="M58.4114 29.8247L38.9075 12.8315" stroke="#FF6932" stroke-width="2" stroke-miterlimit="10" stroke-linecap="round" stroke-linejoin="round"/>
</svg>
