<svg width="61" height="62" viewBox="0 0 61 62" fill="none" xmlns="http://www.w3.org/2000/svg">
<path fill-rule="evenodd" clip-rule="evenodd" d="M30.4291 60.9102C47.2347 60.9102 60.8582 47.275 60.8582 30.4551C60.8582 13.6352 47.2347 0 30.4291 0C13.6236 0 0 13.6352 0 30.4551C0 47.275 13.6236 60.9102 30.4291 60.9102Z" transform="translate(0 0.689941)" fill="#F4F4F4"/>
<mask id="mask0" mask-type="alpha" maskUnits="userSpaceOnUse" x="0" y="0" width="61" height="62">
<path fill-rule="evenodd" clip-rule="evenodd" d="M30.4291 60.9102C47.2347 60.9102 60.8582 47.275 60.8582 30.4551C60.8582 13.6352 47.2347 0 30.4291 0C13.6236 0 0 13.6352 0 30.4551C0 47.275 13.6236 60.9102 30.4291 60.9102Z" transform="translate(0 0.689941)" fill="white"/>
</mask>
<g mask="url(#mask0)">
<path d="M29.1102 14.9448C28.3257 10.5543 30.9093 3.11351 30.9093 3.11351C28.7964 3.65177 25.1982 6.34311 24.5601 7.94736C23.922 9.56216 28.9115 17.2984 29.1102 14.9448ZM47.7395 23.4305C47.7395 23.4305 45.7312 21.6046 43.3986 21.499C41.0765 21.3935 38.6393 23.6521 38.6393 23.6521C38.6393 23.6521 35.3548 27.1983 34.9364 26.2273C34.5076 25.2669 31.0139 19.4515 31.0139 19.4515C30.0307 17.8156 26.673 15.3881 25.4806 13.7628C24.2986 12.1268 23.5036 10.2165 23.0748 8.91835C22.6564 7.63073 22.1229 0 22.1229 0C22.1229 0 15.1356 3.54623 12.8031 10.2165C10.4809 16.8763 14.529 22.1112 14.7172 23.8632C14.78 24.5598 15.2402 26.3329 14.7172 26.449C14.1838 26.5545 10.8993 23.1666 7.93915 22.4595C3.59824 21.6046 0.868181 23.5254 0 25.1508C3.17984 24.4014 6.55843 25.7629 7.61489 27.515C9.06883 29.9108 11.642 37.4043 14.0792 40.7394C16.5164 44.0746 21.7045 46.4387 26.2546 46.3332C30.8047 46.2277 33.3465 43.7474 34.6122 42.2487C35.8883 40.7394 41.1706 32.0322 42.8756 29.1298C44.5596 26.2273 48.5867 26.3962 49.1202 26.3962C49.706 26.3962 47.7395 23.4305 47.7395 23.4305ZM43.1371 25.5835C42.8547 25.5835 42.6036 25.4674 42.4258 25.288C42.3526 25.2141 42.3003 25.1297 42.2584 25.0558C42.2271 24.9925 42.1957 24.9292 42.1748 24.8658C42.1538 24.7708 42.1329 24.6653 42.1329 24.5598C42.1329 24.4542 42.1538 24.3592 42.1748 24.2642C42.1957 24.2009 42.2271 24.1376 42.2584 24.0743C42.3003 23.9898 42.3526 23.9054 42.4258 23.8421C42.6036 23.6626 42.8547 23.536 43.1371 23.536C43.6915 23.536 44.1412 24.0004 44.1412 24.5598C44.1412 25.1297 43.6915 25.5835 43.1371 25.5835ZM92.7803 22.9344L85.9708 45.2672C85.7826 45.9532 85.134 46.4387 84.3809 46.4387H83.5964C82.8433 46.4387 82.1948 45.9532 82.0065 45.2567L76.9334 31.1456C76.0234 28.7392 75.333 30.1852 75.0715 31.1456L70.0298 45.2567C69.8415 45.9532 69.193 46.4387 68.4503 46.4387H67.6553C66.9127 46.4387 66.2642 45.9532 66.0759 45.2672L59.256 22.9344C58.9735 21.9212 59.507 20.9291 60.5948 20.9291H62.4358C63.1994 20.9291 63.8584 21.4357 64.0362 22.1428L68.0214 37.6154C68.0214 37.6154 68.921 38.4386 69.3394 36.0217L73.4502 22.1217C73.6385 21.4251 74.2975 20.9291 75.0401 20.9291H76.8497C77.5924 20.9291 78.2409 21.4146 78.4292 22.1112L82.6341 35.8634C83.0629 37.5415 83.7847 38.1114 84.5692 35.8317L87.9582 22.1534C88.136 21.4357 88.795 20.9291 89.5586 20.9291H91.4519C92.5397 20.9291 93.0627 21.9212 92.7803 22.9344ZM101.326 35.399H115.217C115.677 35.399 116.096 35.2196 116.389 34.9346C116.692 34.6496 116.88 34.2591 116.88 33.8158C116.88 26.164 113.052 20.6652 105.719 20.6652C98.5438 20.6652 93.8054 26.2695 93.8054 33.6575C93.8054 41.5732 99.2341 46.3438 106.629 46.3438C109.726 46.3438 112.937 44.6023 115.154 42.787C115.834 42.2381 115.939 41.2566 115.374 40.5917L114.778 39.8845C114.213 39.2196 113.188 39.0824 112.476 39.6101C111.012 40.7183 108.868 41.6471 107.184 41.6471C103.47 41.6471 101.19 40.4123 100.06 37.3726C99.276 35.2723 99.276 35.2723 101.326 35.399ZM99.6107 29.763C100.04 27.8949 101.222 26.4384 103.115 25.7629C103.857 25.4991 104.705 25.3513 105.667 25.3513C105.876 25.3513 106.096 25.3619 106.295 25.3724C106.493 25.383 106.692 25.4147 106.87 25.4358C107.246 25.4885 107.592 25.573 107.905 25.6785C108.136 25.7524 108.355 25.8474 108.554 25.9529C109.966 26.6917 110.646 28.0638 111.002 29.7947C111.347 31.6522 111.953 31.6522 109.349 31.6522H101.242C98.7111 31.6522 99.1923 31.6522 99.6107 29.763ZM125.238 17.2246V43.7263C125.238 45.0456 124.6 45.6999 123.334 45.6999H121.995C120.719 45.6999 120.091 45.0456 120.091 43.7263V17.2246C120.091 15.9264 120.719 15.2826 121.995 15.2826H123.334C124.6 15.2826 125.238 15.9264 125.238 17.2246ZM133.888 17.2246V43.7263C133.888 45.0456 133.25 45.6999 131.995 45.6999H130.646C129.38 45.6999 128.752 45.0456 128.752 43.7263V17.2246C128.752 15.9264 129.38 15.2826 130.646 15.2826H131.995C133.25 15.2826 133.888 15.9264 133.888 17.2246Z" transform="translate(4.56543 7.07715)" fill="#B8B8B8"/>
</g>
</svg>
