<?xml version="1.0" encoding="UTF-8" standalone="no"?>
<svg
   xmlns:dc="http://purl.org/dc/elements/1.1/"
   xmlns:cc="http://creativecommons.org/ns#"
   xmlns:rdf="http://www.w3.org/1999/02/22-rdf-syntax-ns#"
   xmlns:svg="http://www.w3.org/2000/svg"
   xmlns="http://www.w3.org/2000/svg"
   xmlns:sodipodi="http://sodipodi.sourceforge.net/DTD/sodipodi-0.dtd"
   xmlns:inkscape="http://www.inkscape.org/namespaces/inkscape"
   width="36"
   height="36"
   version="1.1"
   id="svg10"
   sodipodi:docname="logo-trader0x-color.svg"
   inkscape:version="0.92.3 (d244b95, 2018-08-02)">
  <metadata
     id="metadata16">
    <rdf:RDF>
      <cc:Work
         rdf:about="">
        <dc:format>image/svg+xml</dc:format>
        <dc:type
           rdf:resource="http://purl.org/dc/dcmitype/StillImage" />
        <dc:title></dc:title>
      </cc:Work>
    </rdf:RDF>
  </metadata>
  <defs
     id="defs14" />
  <sodipodi:namedview
     pagecolor="#ffffff"
     bordercolor="#666666"
     borderopacity="1"
     objecttolerance="10"
     gridtolerance="10"
     guidetolerance="10"
     inkscape:pageopacity="0"
     inkscape:pageshadow="2"
     inkscape:window-width="1372"
     inkscape:window-height="805"
     id="namedview12"
     showgrid="false"
     inkscape:zoom="13.111111"
     inkscape:cx="12.872708"
     inkscape:cy="18.152542"
     inkscape:window-x="347"
     inkscape:window-y="70"
     inkscape:window-maximized="0"
     inkscape:current-layer="svg10" />
  <g
     id="g8"
     style="fill:none;fill-rule:evenodd"
     transform="matrix(1.9999999,0,0,1.9999999,0,2.2438141e-6)">
    <circle
       cx="9"
       cy="9"
       r="9"
       id="circle2"
       style="fill:#ffffff" />
    <path
       d="M 0.327,10.092 H 2.455 L 7.25,3.932 C 7.56,3.539 8.052,3.359 8.542,3.457 9.033,3.555 9.41,3.916 9.557,4.391 l 1.49,5.34 2.372,-2.85 a 1.265,1.265 0 0 1 1.015,-0.459 l 3.191,0.033 A 8.98,8.98 0 0 0 9.001,0 C 4.026,0 0,4.03 0,9.01 0,9.388 0.033,9.765 0.065,10.125 0.147,10.109 0.229,10.092 0.327,10.092 Z"
       id="path4"
       inkscape:connector-curvature="0"
       style="fill:#0065ff;fill-rule:nonzero" />
    <path
       d="M 17.993,9 15.02,8.967 11.408,13.269 a 1.31,1.31 0 0 1 -1.002,0.462 c -0.099,0 -0.18,-0.017 -0.28,-0.033 A 1.302,1.302 0 0 1 9.141,12.758 L 7.68,7.5 4.1,12.148 c -0.246,0.33 -0.624,0.511 -1.035,0.511 H 0.75 C 2.162,15.808 5.315,18 8.977,18 c 4.96,0 9,-4.022 9.016,-9 0.016,0 0,0 0,0 z"
       id="path6"
       inkscape:connector-curvature="0"
       style="fill:#0065ff;fill-rule:nonzero" />
  </g>
</svg>
