<?xml version="1.0" encoding="UTF-8" standalone="no"?>
<!-- Generator: Adobe Illustrator 22.0.1, SVG Export Plug-In . SVG Version: 6.00 Build 0)  -->

<svg
   xmlns:dc="http://purl.org/dc/elements/1.1/"
   xmlns:cc="http://creativecommons.org/ns#"
   xmlns:rdf="http://www.w3.org/1999/02/22-rdf-syntax-ns#"
   xmlns:svg="http://www.w3.org/2000/svg"
   xmlns="http://www.w3.org/2000/svg"
   xmlns:sodipodi="http://sodipodi.sourceforge.net/DTD/sodipodi-0.dtd"
   xmlns:inkscape="http://www.inkscape.org/namespaces/inkscape"
   version="1.1"
   id="Layer_1"
   x="0px"
   y="0px"
   viewBox="0 0 270 409.3"
   style="enable-background:new 0 0 270 409.3;"
   xml:space="preserve"
   sodipodi:docname="logo-tmbk2.svg"
   inkscape:version="0.92.3 (d244b95, 2018-08-02)"><metadata
   id="metadata31"><rdf:RDF><cc:Work
       rdf:about=""><dc:format>image/svg+xml</dc:format><dc:type
         rdf:resource="http://purl.org/dc/dcmitype/StillImage" /></cc:Work></rdf:RDF></metadata><defs
   id="defs29" /><sodipodi:namedview
   pagecolor="#ffffff"
   bordercolor="#666666"
   borderopacity="1"
   objecttolerance="10"
   gridtolerance="10"
   guidetolerance="10"
   inkscape:pageopacity="0"
   inkscape:pageshadow="2"
   inkscape:window-width="816"
   inkscape:window-height="480"
   id="namedview27"
   showgrid="false"
   inkscape:zoom="0.40771367"
   inkscape:cx="88.190536"
   inkscape:cy="92.815528"
   inkscape:window-x="0"
   inkscape:window-y="27"
   inkscape:window-maximized="0"
   inkscape:current-layer="Layer_1" />
<style
   type="text/css"
   id="style2">
	.st0{fill:#FFFFFF;}
	.st1{fill:#CF4064;}
</style>
<g
   id="g24"
   style="fill:#000000">
	<g
   id="g14"
   style="fill:#000000">
		<path
   class="st0"
   d="M44.9,372.2H33.4v-4.1H61v4.1H49.5v28.1h-4.6V372.2z"
   id="path4"
   style="fill:#000000" />
		<path
   class="st0"
   d="M79.9,368.1h4.4l9.8,16.7l9.8-16.7h4.3l1.5,32.2h-4.5l-1.1-24.7l-9.1,15.2h-2.3l-8.9-15l-1.1,24.5h-4.3    L79.9,368.1z"
   id="path6"
   style="fill:#000000" />
		<path
   class="st0"
   d="M130.3,368.1h10.9c1.7,0,3.1,0.2,4.3,0.7c1.2,0.4,2.2,1,3,1.8c0.8,0.7,1.4,1.6,1.8,2.6c0.4,1,0.6,2.1,0.6,3.2    c0,1-0.2,1.9-0.5,2.7c-0.3,0.8-0.8,1.5-1.3,2.1s-1.1,1.1-1.7,1.4c-0.6,0.4-1.2,0.6-1.7,0.7c0.6,0.1,1.4,0.3,2.2,0.6    c0.8,0.3,1.6,0.8,2.3,1.4c0.7,0.6,1.3,1.4,1.8,2.4c0.5,1,0.7,2.2,0.7,3.6c0,1.7-0.3,3.2-0.9,4.3c-0.6,1.1-1.5,2.1-2.6,2.8    c-1.1,0.7-2.4,1.2-3.8,1.5c-1.5,0.3-3.1,0.4-4.7,0.4h-10.3V368.1z M140.5,381.5c0.7,0,1.4-0.1,2.1-0.3c0.7-0.2,1.3-0.5,1.9-0.8    c0.6-0.4,1-0.9,1.4-1.5c0.3-0.6,0.5-1.3,0.5-2.2c0-1-0.2-1.7-0.5-2.3c-0.4-0.6-0.8-1.1-1.4-1.4c-0.6-0.3-1.2-0.6-1.9-0.7    c-0.7-0.1-1.4-0.2-2.1-0.2h-5.7v9.4H140.5z M140.3,396.3c0.8,0,1.7,0,2.6-0.1c0.9-0.1,1.7-0.3,2.5-0.7c0.8-0.4,1.4-0.9,1.9-1.6    c0.5-0.7,0.7-1.6,0.7-2.9c0-1.2-0.2-2.1-0.7-2.8s-1.1-1.3-1.8-1.7c-0.7-0.4-1.5-0.7-2.4-0.8c-0.9-0.1-1.7-0.2-2.5-0.2h-5.9v10.8    H140.3z"
   id="path8"
   style="fill:#000000" />
		<path
   class="st0"
   d="M172.2,368.1h4.6v14.6l13.4-14.6h5.3l-12,13.1l13.4,19h-5.5l-11-15.8l-3.7,4v11.8h-4.6V368.1z"
   id="path10"
   style="fill:#000000" />
		<path
   class="st0"
   d="M214.4,397.1c0-1.7,0.4-3.2,1.2-4.5c0.8-1.3,1.8-2.5,2.9-3.6c1.4-1.4,2.7-2.6,3.9-3.6c1.2-1,2.3-1.9,3.3-2.7    c0.9-0.8,1.7-1.7,2.2-2.5c0.5-0.8,0.8-1.8,0.8-2.8c0-0.5-0.1-1-0.3-1.5c-0.2-0.5-0.5-1-0.9-1.4c-0.4-0.4-1-0.8-1.6-1.1    c-0.6-0.3-1.4-0.4-2.4-0.4c-0.9,0-1.6,0.1-2.3,0.4c-0.7,0.2-1.3,0.5-1.8,0.9c-0.5,0.4-0.9,0.8-1.3,1.2c-0.4,0.4-0.7,0.9-1,1.3    l-3.2-2.3c0.3-0.6,0.8-1.2,1.3-1.8c0.6-0.6,1.2-1.2,2-1.7c0.8-0.5,1.7-1,2.8-1.3c1.1-0.3,2.3-0.5,3.7-0.5c1.6,0,3.1,0.2,4.3,0.7    c1.2,0.5,2.2,1.1,3,1.8c0.8,0.8,1.3,1.6,1.7,2.6c0.4,1,0.6,2,0.6,3c0,1.1-0.2,2.2-0.6,3.2c-0.4,1-0.9,1.9-1.5,2.7    c-0.6,0.8-1.4,1.6-2.2,2.4c-0.8,0.8-1.7,1.5-2.5,2.1c-1,0.8-2,1.6-2.9,2.3c-0.9,0.7-1.7,1.5-2.3,2.2c-0.7,0.7-1.2,1.4-1.5,2.1    c-0.4,0.7-0.6,1.4-0.6,2.2h14.5v4h-19.3V397.1z"
   id="path12"
   style="fill:#000000" />
	</g>
	<polygon
   class="st0"
   points="37.2,257.3 37.2,236.2 128.3,145.1 218.5,235.2 257.9,235.2 128.4,105.7 128.4,105.7 128.4,105.7    128.4,105.7 128.4,105.7 9.2,224.8 9.2,257.3 9.2,285.3 37.2,285.3 229.9,285.3 229.9,307.4 9.2,307.4 9.2,335.4 229.9,335.4    257.9,335.4 257.9,307.4 257.9,285.3 257.9,257.3 229.9,257.3  "
   id="polygon16"
   style="fill:#000000" />
	<path
   class="st0"
   d="M69.5,235.2l84.7-84.8l0.1-0.2c6.7-6.7,10.9-16,10.9-26.2c0-20.4-16.6-36.9-36.9-36.9c-20.4,0-37,16.6-37,36.9   H63.5c0-35.7,29.1-64.8,64.8-64.8s64.8,29.1,64.8,64.8c0,17.9-7.3,34.1-19,45.8L172,172l-63.1,63.1H69.5z M185.9,235.2l24.5-24.8h0   c22.8-21.7,37-52.3,37-86.3C247.4,58.3,194.1,5,128.3,5C62.5,5,9.2,58.3,9.2,124.1h27.9c0-50.4,40.8-91.2,91.2-91.2   s91.2,40.8,91.2,91.2c0,25.3-10.3,48.2-26.9,64.7l0,0l-46.1,46.4L185.9,235.2z"
   id="path18"
   style="fill:#000000" />
	<path
   class="st1"
   d="M20.7,324.4c0.3,0.2,0.5,0.4,0.9,0.6c0.3,0.2,0.8,0.3,1.3,0.3c0.6,0,1.1-0.2,1.5-0.5c0.4-0.3,0.6-0.8,0.6-1.4   c0-0.5-0.2-0.9-0.5-1.3c-0.3-0.3-0.8-0.5-1.4-0.5c-0.2,0-0.3,0-0.5,0c-0.2,0-0.3,0.1-0.4,0.1l-0.4-0.7l2.7-3.1h-3.8v-1.3h5.5v1.1   l-2.4,2.9c0.4,0,0.8,0.1,1.1,0.2c0.3,0.1,0.6,0.3,0.9,0.6c0.2,0.2,0.4,0.5,0.6,0.9c0.1,0.3,0.2,0.7,0.2,1.1c0,0.5-0.1,0.9-0.3,1.3   c-0.2,0.4-0.4,0.7-0.7,1s-0.7,0.5-1.1,0.6c-0.4,0.1-0.9,0.2-1.4,0.2c-0.4,0-0.7,0-1-0.1c-0.3-0.1-0.6-0.1-0.8-0.2   c-0.2-0.1-0.5-0.2-0.7-0.3c-0.2-0.1-0.4-0.3-0.5-0.4L20.7,324.4z"
   id="path20"
   style="fill:#000000" />
	<path
   class="st1"
   d="M225.5,227.6c0-0.5,0.1-1,0.4-1.4c0.3-0.4,0.6-0.8,0.9-1.1c0.4-0.4,0.8-0.8,1.2-1.1c0.4-0.3,0.7-0.6,1-0.9   c0.3-0.3,0.5-0.5,0.7-0.8c0.2-0.3,0.2-0.6,0.2-0.9c0-0.2,0-0.3-0.1-0.5c-0.1-0.2-0.1-0.3-0.3-0.4c-0.1-0.1-0.3-0.2-0.5-0.3   c-0.2-0.1-0.5-0.1-0.8-0.1c-0.3,0-0.5,0-0.7,0.1c-0.2,0.1-0.4,0.2-0.6,0.3c-0.2,0.1-0.3,0.2-0.4,0.4c-0.1,0.1-0.2,0.3-0.3,0.4   l-1-0.7c0.1-0.2,0.2-0.4,0.4-0.6c0.2-0.2,0.4-0.4,0.6-0.5c0.2-0.2,0.5-0.3,0.9-0.4c0.3-0.1,0.7-0.2,1.2-0.2c0.5,0,1,0.1,1.3,0.2   c0.4,0.1,0.7,0.3,0.9,0.6c0.2,0.2,0.4,0.5,0.5,0.8c0.1,0.3,0.2,0.6,0.2,1c0,0.4-0.1,0.7-0.2,1c-0.1,0.3-0.3,0.6-0.5,0.9   c-0.2,0.3-0.4,0.5-0.7,0.7c-0.3,0.2-0.5,0.5-0.8,0.7c-0.3,0.3-0.6,0.5-0.9,0.7c-0.3,0.2-0.5,0.5-0.7,0.7c-0.2,0.2-0.4,0.4-0.5,0.7   c-0.1,0.2-0.2,0.4-0.2,0.7h4.5v1.2h-6V227.6z"
   id="path22"
   style="fill:#000000" />
</g>
</svg>