<svg width="61" height="62" viewBox="0 0 61 62" fill="none" xmlns="http://www.w3.org/2000/svg">
<path fill-rule="evenodd" clip-rule="evenodd" d="M30.4291 60.9102C47.2347 60.9102 60.8583 47.275 60.8583 30.4551C60.8583 13.6352 47.2347 0 30.4291 0C13.6236 0 0 13.6352 0 30.4551C0 47.275 13.6236 60.9102 30.4291 60.9102Z" transform="translate(0 0.70459)" fill="#F4F4F4"/>
<mask id="mask0" mask-type="alpha" maskUnits="userSpaceOnUse" x="0" y="0" width="61" height="62">
<path fill-rule="evenodd" clip-rule="evenodd" d="M30.4291 60.9102C47.2347 60.9102 60.8583 47.275 60.8583 30.4551C60.8583 13.6352 47.2347 0 30.4291 0C13.6236 0 0 13.6352 0 30.4551C0 47.275 13.6236 60.9102 30.4291 60.9102Z" transform="translate(0 0.70459)" fill="white"/>
</mask>
<g mask="url(#mask0)">
<path d="M0.746273 23.0488H5.60275L16.5458 8.98019C17.2533 8.08263 18.3761 7.67153 19.4944 7.89535C20.6149 8.11917 21.4753 8.94365 21.8108 10.0285L25.2112 22.2244L30.6246 15.7153C30.9051 15.3753 31.2597 15.104 31.6613 14.9223C32.0628 14.7406 32.5005 14.6533 32.941 14.667L40.2234 14.7424C38.9771 10.4856 36.3853 6.74797 32.8368 4.08996C29.2883 1.43196 24.9743 -0.00310593 20.5419 5.0474e-06C9.18805 5.0474e-06 0 9.20401 0 20.5777C0 21.441 0.0753119 22.302 0.148342 23.1242C0.33548 23.0877 0.522619 23.0488 0.746273 23.0488Z" transform="translate(9.88965 10.8838)" fill="#C3C3C3"/>
<path d="M39.3516 3.42581L32.5667 3.35044L24.3235 13.1757C24.0419 13.5074 23.6915 13.7737 23.2965 13.9559C22.9016 14.1382 22.4716 14.232 22.0367 14.2308C21.8108 14.2308 21.6259 14.192 21.3977 14.1554C20.8615 14.0401 20.3677 13.7784 19.971 13.3995C19.5742 13.0206 19.29 12.5392 19.1498 12.0086L15.8155 0L7.6453 10.6154C7.08388 11.3691 6.22122 11.7825 5.28325 11.7825H0C3.22244 18.9744 10.4181 23.9807 18.7755 23.9807C30.0951 23.9807 39.3151 14.7949 39.3516 3.42581C39.3516 3.42581 39.3881 3.42581 39.3516 3.42581Z" transform="translate(11.6016 28.0127)" fill="#C3C3C3"/>
</g>
</svg>
