<?xml version="1.0" encoding="UTF-8" standalone="no"?>
<!-- Generator: Adobe Illustrator 22.1.0, SVG Export Plug-In . SVG Version: 6.00 Build 0)  -->

<svg
   xmlns:dc="http://purl.org/dc/elements/1.1/"
   xmlns:cc="http://creativecommons.org/ns#"
   xmlns:rdf="http://www.w3.org/1999/02/22-rdf-syntax-ns#"
   xmlns:svg="http://www.w3.org/2000/svg"
   xmlns="http://www.w3.org/2000/svg"
   xmlns:sodipodi="http://sodipodi.sourceforge.net/DTD/sodipodi-0.dtd"
   xmlns:inkscape="http://www.inkscape.org/namespaces/inkscape"
   version="1.1"
   id="Layer_1"
   x="0px"
   y="0px"
   viewBox="0 0 510.2 94.5"
   style="enable-background:new 0 0 510.2 94.5;"
   xml:space="preserve"
   sodipodi:docname="logo-spatium.svg"
   inkscape:version="0.92.3 (d244b95, 2018-08-02)"><metadata
   id="metadata59"><rdf:RDF><cc:Work
       rdf:about=""><dc:format>image/svg+xml</dc:format><dc:type
         rdf:resource="http://purl.org/dc/dcmitype/StillImage" /><dc:title></dc:title></cc:Work></rdf:RDF></metadata><defs
   id="defs57" /><sodipodi:namedview
   pagecolor="#ffffff"
   bordercolor="#666666"
   borderopacity="1"
   objecttolerance="10"
   gridtolerance="10"
   guidetolerance="10"
   inkscape:pageopacity="0"
   inkscape:pageshadow="2"
   inkscape:window-width="1353"
   inkscape:window-height="793"
   id="namedview55"
   showgrid="false"
   inkscape:zoom="0.9525676"
   inkscape:cx="255.10001"
   inkscape:cy="47.25"
   inkscape:window-x="0"
   inkscape:window-y="27"
   inkscape:window-maximized="0"
   inkscape:current-layer="Layer_1" />
<style
   type="text/css"
   id="style2">
	.st0{opacity:0.4;}
	.st1{opacity:0.9;}
	.st2{opacity:0.6;}
	.st3{opacity:0.8;}
	.st4{fill:#FFFFFF;}
	.st5{opacity:0.4;fill:#FFFFFF;}
	.st6{opacity:0.9;fill:#FFFFFF;}
	.st7{opacity:0.6;fill:#FFFFFF;}
	.st8{opacity:0.8;fill:#FFFFFF;}
</style>
<g
   id="g52"
   style="fill:#000000">
	<g
   id="g20"
   style="fill:#000000">
		<path
   class="st4"
   d="M146.8,70.7h-23.4V66h22.8c4.5,0,8.2-3.7,8.2-8.2s-3.7-8.2-8.2-8.2h-9.9c-7.1,0-12.9-5.8-12.9-12.9    s5.8-12.9,12.9-12.9h19.9v4.7h-19.3c-4.5,0-8.2,3.7-8.2,8.2s3.7,8.2,8.2,8.2h9.9c7.1,0,12.9,5.8,12.9,12.9S153.9,70.7,146.8,70.7z    "
   id="path4"
   style="fill:#000000" />
		<rect
   x="297.9"
   y="23.8"
   class="st4"
   width="42.2"
   height="4.7"
   id="rect6"
   style="fill:#000000" />
		<rect
   x="316.4"
   y="36.7"
   class="st4"
   width="5.3"
   height="34"
   id="rect8"
   style="fill:#000000" />
		<rect
   x="364.4"
   y="23.8"
   class="st4"
   width="5.3"
   height="46.9"
   id="rect10"
   style="fill:#000000" />
		<path
   class="st4"
   d="M416.7,72.2c-10,0-18.8-8.1-18.8-18.2V23.8h5.3V54c0,7.4,6,13.5,13.5,13.5s13.5-6,13.5-13.5V23.8h5.3V54    C435.5,64,426.7,72.2,416.7,72.2z"
   id="path12"
   style="fill:#000000" />
		<path
   class="st4"
   d="M486.8,72.2H486c-3.3,0-6.2-2.4-6.8-5.6l-6.9-37.7c-0.2-1.1-1.2-1.8-2.2-1.8c-1.3,0-2.3,1-2.3,2.3v41.4h-5.3    V29.3c0-3.8,3.1-7,7-7c3.3,0,6.8,2.4,7.5,5.6l6.9,37.7c0.2,1.1,1.2,1.8,2.2,1.8h0.8c1.1,0,2-0.8,2.2-1.8L496,28    c0.6-3.3,4.2-5.6,7.5-5.6c3.8,0,7,3.1,7,7v41.4h-5.3V29.3c0-1.3-1-2.3-2.3-2.3c-1.1,0-2,0.8-2.2,1.8l-6.9,37.7    C493,69.8,490.1,72.2,486.8,72.2z"
   id="path14"
   style="fill:#000000" />
		<path
   class="st4"
   d="M239.9,70.7L253,32.1c1-3,3.8-5.1,7-5.1c3.2,0,6,2,7,5.1l12.9,38.6h4.9l-13.4-40.1c-1.7-4.9-6.3-8.3-11.5-8.3    c-5.2,0-9.8,3.3-11.5,8.3l-13.6,40.1H239.9z"
   id="path16"
   style="fill:#000000" />
		<path
   class="st4"
   d="M207.7,23.8H183v4.7h24c4.5,0,8.2,3.7,8.2,8.2v3.5c0,4.5-3.7,8.2-8.2,8.2h-23.4v22.3h5.3V53.1h18.7    c5.9,0,10.9-4,12.4-9.4c0.3-1.1,0.5-2.3,0.5-3.5v-3.5C220.6,29.6,214.8,23.8,207.7,23.8z"
   id="path18"
   style="fill:#000000" />
	</g>
	<g
   id="g50"
   style="fill:#000000">
		<path
   class="st4"
   d="M24.3,47.3c0-3.3,0-6,0-6c0,0,0.2,0,0.5,0c1.2,0.2,3,0.2,4.4,0c0.4-0.1,0.7-0.1,0.7-0.1c0,0,0,2.7,0.1,6    c0,4.4,0,6,0,6c-0.1,0-5.2,0.1-5.4,0.1C24.4,53.3,24.4,51.6,24.3,47.3L24.3,47.3z"
   id="path22"
   style="fill:#000000" />
		<path
   class="st4"
   d="M8.2,45.6c-1-1-1.9-1.9-1.9-1.9c0-0.1,8.3-8.5,8.4-8.6c0,0,0.2,0.1,0.3,0.3c0.9,1.2,2.2,2.4,3.3,3.3    c0.1,0.1,0.2,0.2,0.2,0.2c0,0-0.8,0.9-1.8,1.9c-2.3,2.3-4.5,4.6-5.7,5.8c-0.5,0.5-0.9,0.9-1,0.9C10.1,47.5,9.2,46.6,8.2,45.6    L8.2,45.6z"
   id="path24"
   style="fill:#000000" />
		<path
   class="st4"
   d="M0.3,28.5c0-0.5,0-1.7,0-2.7c0-1.3,0-1.7,0.1-1.8c0.1,0,11.8-0.1,11.9-0.1c0.1,0,0.1,0.1,0,0.5    c-0.2,1.1-0.2,3.6,0,4.5c0.1,0.4,0.1,0.5-0.1,0.5c-0.5,0-11.8,0.1-11.8,0.1C0.3,29.5,0.3,29.2,0.3,28.5L0.3,28.5z"
   id="path26"
   style="fill:#000000" />
		<path
   class="st5"
   d="M41.5,29.2c0,0,0-0.2,0-0.5c0.2-1.2,0.2-3.5,0-4.5c0-0.2-0.1-0.3-0.1-0.4c0-0.1,0.6-0.1,6-0.2c3.3,0,6,0,6,0    c0,0.1,0.1,5.2,0,5.3c0,0.1-0.8,0.1-5.9,0.2c-3.2,0-5.9,0-6,0C41.6,29.2,41.5,29.2,41.5,29.2L41.5,29.2z"
   id="path28"
   style="fill:#000000" />
		<path
   class="st6"
   d="M10.3,14.1C7.9,11.8,6,9.9,6,9.9C6,9.8,9.8,6,9.9,6c0.1,0,8.5,8.4,8.5,8.4c0,0-0.1,0.2-0.3,0.3    c-1.2,0.9-2.3,2-3.2,3.3c-0.1,0.2-0.2,0.3-0.3,0.3C14.5,18.3,12.6,16.4,10.3,14.1L10.3,14.1z"
   id="path30"
   style="fill:#000000" />
		<path
   class="st7"
   d="M38.7,17.7c-0.9-1.1-1.9-2.2-3.1-3c-0.2-0.2-0.4-0.3-0.4-0.3c0,0,8.1-8.4,8.3-8.6c0,0,3.7,3.5,3.9,3.7    c0,0.1-0.6,0.8-4.1,4.3c-2.3,2.3-4.2,4.2-4.2,4.3C39.1,18.1,38.9,17.9,38.7,17.7z"
   id="path32"
   style="fill:#000000" />
		<path
   class="st8"
   d="M24,11.9c0-0.2-0.1-11.7-0.1-11.8c0,0,0.1-0.1,0.2-0.1c1.8,0,5.2,0,5.3,0c0,0.1,0.1,11.9,0.1,11.9    c0,0-0.2,0-0.5,0c-1.1-0.2-3-0.2-4.3,0C24.1,12,24.1,12,24,11.9L24,11.9z"
   id="path34"
   style="fill:#000000" />
		<g
   id="g48"
   style="fill:#000000">
			<path
   class="st4"
   d="M45.8,48.9c1,1,1.9,1.9,1.9,1.9c0,0.1-8.3,8.5-8.4,8.6c0,0-0.2-0.1-0.3-0.3c-0.9-1.2-2.2-2.4-3.3-3.3     c-0.1-0.1-0.2-0.2-0.2-0.2c0,0,0.8-0.9,1.8-1.9c2.3-2.3,4.5-4.6,5.7-5.8c0.5-0.5,0.9-0.9,1-0.9C43.9,47,44.8,47.9,45.8,48.9     L45.8,48.9z"
   id="path36"
   style="fill:#000000" />
			<path
   class="st4"
   d="M53.7,66c0,0.5,0,1.7,0,2.7c0,1.3,0,1.7-0.1,1.8c-0.1,0-11.8,0.1-11.9,0.1c-0.1,0-0.1-0.1,0-0.5     c0.2-1.1,0.2-3.6,0-4.5c-0.1-0.4-0.1-0.5,0.1-0.5c0.5,0,11.8-0.1,11.8-0.1C53.7,65,53.7,65.3,53.7,66L53.7,66z"
   id="path38"
   style="fill:#000000" />
			<path
   class="st5"
   d="M12.5,65.3c0,0,0,0.2,0,0.5c-0.2,1.2-0.2,3.5,0,4.5c0,0.2,0.1,0.3,0.1,0.4c0,0.1-0.6,0.1-6,0.2     c-3.3,0-6,0-6,0c0-0.1-0.1-5.2,0-5.3c0-0.1,0.8-0.1,5.9-0.2c3.2,0,5.9,0,6,0C12.4,65.3,12.4,65.3,12.5,65.3L12.5,65.3z"
   id="path40"
   style="fill:#000000" />
			<path
   class="st6"
   d="M43.7,80.4c2.3,2.3,4.2,4.2,4.2,4.2c0,0.1-3.8,3.9-3.9,3.9c-0.1,0-8.5-8.4-8.5-8.4c0,0,0.1-0.2,0.3-0.3     c1.2-0.9,2.3-2,3.2-3.3c0.1-0.2,0.2-0.3,0.3-0.3C39.5,76.2,41.4,78.1,43.7,80.4L43.7,80.4z"
   id="path42"
   style="fill:#000000" />
			<path
   class="st7"
   d="M15.3,76.9c0.9,1.1,1.9,2.2,3.1,3c0.2,0.2,0.4,0.3,0.4,0.3c0,0-8.1,8.4-8.3,8.6c0,0-3.7-3.5-3.9-3.7     c0-0.1,0.6-0.8,4.1-4.3c2.3-2.3,4.2-4.2,4.2-4.3C14.9,76.4,15.1,76.6,15.3,76.9z"
   id="path44"
   style="fill:#000000" />
			<path
   class="st8"
   d="M29.9,82.6c0,0.2,0.1,11.7,0.1,11.8c0,0-0.1,0.1-0.2,0.1c-1.8,0-5.2,0-5.3,0c0-0.1-0.1-11.9-0.1-11.9     c0,0,0.2,0,0.5,0c1.1,0.2,3,0.2,4.3,0C29.8,82.5,29.9,82.5,29.9,82.6L29.9,82.6z"
   id="path46"
   style="fill:#000000" />
		</g>
	</g>
</g>
</svg>