<?xml version="1.0" encoding="UTF-8" standalone="no"?>
<svg
   xmlns:dc="http://purl.org/dc/elements/1.1/"
   xmlns:cc="http://creativecommons.org/ns#"
   xmlns:rdf="http://www.w3.org/1999/02/22-rdf-syntax-ns#"
   xmlns:svg="http://www.w3.org/2000/svg"
   xmlns="http://www.w3.org/2000/svg"
   xmlns:sodipodi="http://sodipodi.sourceforge.net/DTD/sodipodi-0.dtd"
   xmlns:inkscape="http://www.inkscape.org/namespaces/inkscape"
   width="141"
   height="26"
   viewBox="0 0 141 26"
   version="1.1"
   id="svg10"
   sodipodi:docname="logo-hyperquant.svg"
   inkscape:version="0.92.3 (d244b95, 2018-08-02)">
  <metadata
     id="metadata16">
    <rdf:RDF>
      <cc:Work
         rdf:about="">
        <dc:format>image/svg+xml</dc:format>
        <dc:type
           rdf:resource="http://purl.org/dc/dcmitype/StillImage" />
      </cc:Work>
    </rdf:RDF>
  </metadata>
  <defs
     id="defs14" />
  <sodipodi:namedview
     pagecolor="#ffffff"
     bordercolor="#666666"
     borderopacity="1"
     objecttolerance="10"
     gridtolerance="10"
     guidetolerance="10"
     inkscape:pageopacity="0"
     inkscape:pageshadow="2"
     inkscape:window-width="1421"
     inkscape:window-height="768"
     id="namedview12"
     showgrid="false"
     inkscape:zoom="3.4468085"
     inkscape:cx="70.5"
     inkscape:cy="13"
     inkscape:window-x="0"
     inkscape:window-y="27"
     inkscape:window-maximized="0"
     inkscape:current-layer="g8" />
  <g
     fill="none"
     fill-rule="nonzero"
     id="g8"
     style="fill:#000000">
    <path
       fill="#FFF"
       d="M53.163 16.395V12.58h-4.38v3.815h-1.971V7.309h1.971v3.565h4.38V7.305h1.988v9.086h-1.984l-.004.004zm6.711 0v-3.72L56.3 7.304h2.253l2.307 3.65 2.282-3.65h2.252l-3.557 5.37v3.72h-1.971.008zm6.682 0V7.309h4.338c2.013 0 3.116 1.332 3.116 2.927s-1.111 2.932-3.116 2.932h-2.35v3.23h-1.97l-.018-.003zm5.454-6.167a1.222 1.222 0 0 0-.405-.91 1.274 1.274 0 0 0-.959-.323H68.55v2.466h2.097c.347.023.688-.096.942-.328s.399-.556.4-.897l.022-.008zm3.397 6.167V7.309h6.565v1.715h-4.614v1.92h4.488v1.706h-4.488v2.055h4.614v1.702h-6.565v-.012zm13.771 0l-1.816-3.232h-1.451v3.232h-1.972V7.309h4.32c1.939 0 3.122 1.234 3.122 2.927.08 1.263-.776 2.4-2.03 2.697l2.097 3.462h-2.27zm.193-6.167a1.222 1.222 0 0 0-.414-.922 1.275 1.275 0 0 0-.978-.311h-2.072v2.466h2.072c.353.035.705-.078.969-.311.264-.234.414-.565.415-.914l.008-.008zm3.243 1.632a4.515 4.515 0 0 1 1.374-3.382 4.708 4.708 0 0 1 3.462-1.32c2.81 0 4.854 1.964 4.854 4.706a4.632 4.632 0 0 1-1.208 3.215l.68.781-1.377 1.102-.755-.847a5.437 5.437 0 0 1-2.194.452 4.708 4.708 0 0 1-3.463-1.321 4.515 4.515 0 0 1-1.373-3.386zm5.81 2.837l-1.015-1.172 1.363-1.11 1.027 1.192c.32-.528.484-1.133.475-1.747 0-1.706-1.112-2.984-2.824-2.984-1.711 0-2.81 1.274-2.81 2.98s1.099 2.985 2.81 2.985c.332 0 .662-.05.978-.148l-.004.004zm5.55-1.928V7.3h2.004v5.402c0 1.266.755 2.138 2.182 2.138 1.426 0 2.168-.872 2.168-2.138V7.305h2.014v5.451c0 2.261-1.36 3.803-4.195 3.803-2.836 0-4.17-1.554-4.17-3.79h-.004zm16.535 3.626l-.57-1.538h-3.986l-.587 1.538h-2.252l3.582-9.086h2.475l3.574 9.086H120.5h.009zm-2.559-7.153l-1.447 3.893h2.894l-1.447-3.893zm12.366 7.153l-4.421-5.928v5.928h-1.972V7.309h2.026l4.292 5.706V7.301h1.971v9.102h-1.9l.004-.008zm5.999 0v-7.4h-2.71V7.289H141v1.735h-2.697v7.4h-1.988v-.03zM29.6 19.3c-4.195 0-7.173-3.313-7.173-7.289-.021-4.057 2.915-7.305 7.11-7.305s7.173 3.314 7.173 7.289a8.135 8.135 0 0 1-.36 2.351l5 1.801c.518-1.326.788-2.732.796-4.152C42.152 5.336 36.908 0 29.61 0 22.311 0 17 5.41 17 12.004 17 18.664 22.243 24 29.542 24c1.249 0 2.492-.17 3.692-.51l-1.678-4.46a7.877 7.877 0 0 1-1.96.28l.005-.009z"
       id="path2"
       style="fill:#000000" />
    <path
       fill="#EA2B06"
       d="M39.2 22.202L35.4 26l-2.2-6.006L31 14l6 2.2 6 2.199-3.795 3.807z"
       id="path4"
       style="fill:#ff0000;fill-opacity:1" />
    <path
       fill="#FFF"
       d="M15.52 1.008v7.76A13.385 13.385 0 0 1 21 1.362V1h-5.48v.008zm0 15.49v7.49H21v-.092a13.243 13.243 0 0 1-5.48-7.393v-.005zM5.48 9.804V1.008H0V24h5.48v-8.796h9.737c-.156-.832.042-5.408.042-5.408h-9.77l-.01.008z"
       id="path6"
       style="fill:#000000" />
  </g>
</svg>
