<?xml version="1.0" encoding="UTF-8"?>
<svg width="65px" height="85px" viewBox="0 0 65 85" version="1.1" xmlns="http://www.w3.org/2000/svg" xmlns:xlink="http://www.w3.org/1999/xlink">
    <!-- Generator: Sketch 49 (51002) - http://www.bohemiancoding.com/sketch -->
    <title>pdf</title>
    <desc>Created with Sketch.</desc>
    <defs></defs>
    <g id="Page-1" stroke="none" stroke-width="1" fill="none" fill-rule="evenodd">
        <g id="legal-landing-mm" transform="translate(-243.000000, -2713.000000)">
            <g id="Group-21" transform="translate(98.000000, 2594.000000)">
                <g id="Group-51" transform="translate(5.000000, 56.000000)">
                    <g id="Group-23" transform="translate(72.000000, 0.000000)">
                        <g id="Group-17">
                            <g id="Group-14" transform="translate(0.000000, 63.835900)">
                                <g id="pdf" transform="translate(68.000000, 0.000000)">
                                    <path d="M19.2586667,47.4482229 C18.8106985,47.4482229 18.3616104,47.3581698 18.0928295,46.9979574 C17.6448613,46.6399964 17.466794,46.0985522 17.466794,45.4681806 C17.7333351,43.6671188 20.691045,41.594772 22.7516986,40.7831685 C23.1996668,40.6053137 23.6487549,40.4252075 24.1863167,40.1539226 C25.5291013,37.4523299 26.7822923,34.2092929 27.5001613,32.0491444 C26.3365639,29.2586243 26.1573767,26.5559059 26.603105,25.1161821 C27.0510732,23.9443663 27.8585358,23.674207 28.306504,23.5841539 C29.2013204,23.4941008 29.7388823,23.8543132 30.0087831,24.2156512 C30.2786839,24.5769893 31.1723804,25.655375 29.8295958,29.979049 C29.8295958,29.979049 29.5608149,30.7906525 29.1117268,32.0502701 C29.8295958,33.6712257 30.9058394,35.3822344 32.3382176,36.8219582 C32.6965922,37.1821706 32.966493,37.4534555 33.2352739,37.7236148 C34.3092776,37.5435086 35.2959275,37.4534555 36.2803376,37.4534555 C38.6097721,37.4534555 39.9547966,37.8136679 40.6704258,38.5329669 C41.0288003,38.8931793 41.2079876,39.4346235 41.1183939,39.9749421 C41.0288003,40.6942411 40.5808321,41.2345597 39.7756093,41.594772 C38.3409912,42.1350906 35.8323694,41.6848251 32.7873057,39.2533917 C30.0994966,39.7036571 27.320974,40.6053137 25.1707267,41.4146658 C24.2759103,43.1256746 23.378854,44.6565771 22.393324,45.5582337 C21.4985076,46.8201026 20.2430768,47.4482229 19.2586667,47.4482229 Z M23.1100731,42.3151967 C20.9598259,43.3057807 19.0783595,45.0167894 18.9887659,45.7383398 L19.0783595,45.8283929 C19.3471404,46.0985522 20.4211441,45.7383398 21.4973877,44.5687753 C22.0360694,44.0273311 22.5725113,43.2168533 23.1100731,42.3151967 Z M35.0271466,38.9821067 C37.0878002,40.3340287 38.6097721,40.4240818 39.3276411,40.1539226 C39.596422,40.0638695 39.6860157,39.8837633 39.7756093,39.8837633 C39.7756093,39.7036571 39.7756093,39.613604 39.6860157,39.613604 C39.5068284,39.3434448 38.7889594,38.9821067 36.3699312,38.9821067 C36.2803376,38.9821067 36.2803376,38.9821067 36.190744,38.9821067 C35.8323694,38.9821067 35.4751148,38.9821067 35.0271466,38.9821067 Z M28.4868112,34.0291868 C27.8585358,35.651268 27.0521931,37.632436 26.2469703,39.5235509 C27.8585358,38.9832324 29.7400022,38.4417882 31.5318749,38.0838272 C31.4422813,37.9937741 31.4422813,37.9937741 31.3526876,37.903721 C30.1890903,36.7307795 29.2024404,35.3811088 28.4868112,34.0291868 Z M28.6659985,25.1161821 L28.5764048,25.1161821 C28.3972176,25.1161821 28.2180303,25.2962883 28.1284367,25.655375 C27.7700621,26.5570316 27.8596557,28.0868085 28.3972176,29.7989428 C28.4868112,29.617711 28.4868112,29.5276579 28.4868112,29.5276579 C29.3816276,26.7371378 29.2024404,25.4775202 28.9325395,25.2073609 C28.9325395,25.2062352 28.8429459,25.1161821 28.6659985,25.1161821 Z" id="Shape" fill="#FF6800" fill-rule="nonzero"></path>
                                    <polygon id="Shape" points="42.820673 3.86252714 42.820673 18.9013932 57.6943365 18.9013932"></polygon>
                                    <polygon id="Shape" points="59.3070219 21.0615417 40.6704258 21.0615417 40.6704258 2.33275026 2.41394324 2.33275026 2.41394324 57.9866858 59.3070219 57.9866858"></polygon>
                                    <path d="M2.41394324,76.087357 L2.41394324,59.5164627 L59.3070219,59.5164627 L59.3070219,66.8332763 L61.5468628,66.8332763 L61.5468628,19.5317649 L42.2819913,0.0814230026 L0.172982422,0.0814230026 L0.172982422,78.3386842 L51.8113944,78.3386842 L50.0766376,76.087357 L2.41394324,76.087357 Z M42.820673,3.86252714 L57.6943365,18.9002676 L42.820673,18.9002676 L42.820673,3.86252714 Z M2.41394324,2.33275026 L40.6704258,2.33275026 L40.6704258,21.0626674 L59.3070219,21.0626674 L59.3070219,57.9866858 L2.41394324,57.9866858 L2.41394324,2.33275026 Z" id="Shape" fill="#000000" fill-rule="nonzero"></path>
                                    <polygon id="Shape" fill="#FF6800" fill-rule="nonzero" points="56.0603726 78.3386842 60.3978244 83.9692537 64.7352763 78.3364329 61.5468628 78.3364329 61.5468628 78.3386842"></polygon>
                                    <rect id="Rectangle-path" fill="#000000" fill-rule="nonzero" x="59.2543857" y="70.2102672" width="1" height="5.87708981"></rect>
                                    <polygon id="Shape" fill="#FF6800" fill-rule="nonzero" points="59.2543857 76.087357 59.2543857 78.3364329 56.0581327 78.3364329 56.0603726 78.3386842 61.5468628 78.3386842 61.5468628 78.3364329 61.5401433 78.3364329 61.5401433 70.2102672 59.3070219 70.2102672 59.3070219 76.087357"></polygon>
                                    <g id="Group" transform="translate(18.642337, 63.037163)" fill="#FF6800" fill-rule="nonzero">
                                        <path d="M4.18103634,0.26040352 L0.344188884,0.26040352 L0.344188884,8.83233206 L1.49658703,8.83233206 L1.49658703,5.21557482 L4.18103634,5.21557482 C6.0356246,5.21557482 6.71205655,3.86590413 6.71205655,2.67157502 C6.71205655,1.28813441 5.76348393,0.26040352 4.18103634,0.26040352 Z M3.7901841,4.22499082 L1.49770695,4.22499082 L1.49770695,1.24986185 L3.83834068,1.24986185 C4.78803322,1.24986185 5.52494088,1.59769191 5.52494088,2.68283165 C5.52494088,3.84226519 4.8249906,4.22499082 3.7901841,4.22499082 Z" id="Shape"></path>
                                        <path d="M11.6710643,0.26040352 L8.21498979,0.26040352 L8.21498979,8.83233206 L11.6229077,8.83233206 C14.4271885,8.83233206 15.2581695,6.34799243 15.2581695,4.42648461 C15.2581695,1.95565295 13.8907466,0.26040352 11.6710643,0.26040352 Z M11.5982695,7.8439994 L9.36514809,7.8439994 L9.36514809,1.25098751 L11.5153954,1.25098751 C13.083284,1.25098751 14.0699339,2.33950424 14.0699339,4.50077841 C14.0699339,6.66205258 13.096723,7.8439994 11.5982695,7.8439994 Z" id="Shape"></path>
                                        <polygon id="Shape" points="18.0075742 8.83345773 16.8551761 8.83345773 16.8551761 0.26040352 22.7582767 0.26040352 22.7582767 1.28813441 18.0075742 1.28813441 18.0075742 3.91543333 22.1882372 3.91543333 22.1882372 4.94203856 18.0075742 4.94203856"></polygon>
                                    </g>
                                </g>
                            </g>
                        </g>
                    </g>
                </g>
            </g>
        </g>
    </g>
</svg>